<svg version="1.1" xmlns="http://www.w3.org/2000/svg" xmlns:xlink="http://www.w3.org/1999/xlink" x="0px" y="0px" viewBox="0 0 188.2 187.5" style="enable-background:new 0 0 188.2 187.5; fill:#FFFFFF;" xml:space="preserve">
<path class="st0" d="M161.2,27.5c-14.1-14.1-29.2-5-38.6,4.5L78.1,76.5L33.6,121c-9.4,9.4-19.3,23.7-4.5,38.6
	c14.8,14.8,29.2,5,38.6-4.5l44.5-44.5l44.5-44.5C166.2,56.7,175.3,41.6,161.2,27.5"/>
<path class="st0" d="M76.1,23.9L95,42.7l19.2-19.2c1.3-1.3,2.6-2.5,4-3.7c-2-10.1-7.8-19.3-23.2-19.3c-15.4,0-21.2,9.2-23.2,19.4
	C73.2,21.2,74.7,22.4,76.1,23.9"/>
<path class="st0" d="M114.2,163.9L95,144.7l-18.8,18.8c-1.4,1.4-2.9,2.7-4.3,4c2.2,10.3,8.3,19.8,23.1,19.8c14.9,0,21-9.5,23.1-19.9
	C116.8,166.3,115.5,165.2,114.2,163.9"/>
<path class="st0" d="M68.1,69.6H31.8c-13.3,0-30.4,4.2-30.4,24.1c0,14.9,9.5,21,19.9,23.1C22.5,115.4,68.1,69.6,68.1,69.6"/>
<path class="st0" d="M168.8,70.5c-1.2,1.3-46.9,47.3-46.9,47.3h35.8c13.3,0,30.4-3.1,30.4-24.1C188.1,78.3,178.9,72.5,168.8,70.5"/>
<path class="st0" d="M80,57.6l6.5-6.5L67.7,32.3C58.3,22.9,44,13,29.1,27.8c-10.9,10.9-8.5,21.5-2.7,30.1C28.2,57.8,80,57.6,80,57.6
	"/>
<path class="st0" d="M109.9,129.8l-6.5,6.5l19.2,19.2c9.4,9.4,24.5,18.6,38.6,4.5c10.5-10.5,8.1-21.6,2.3-30.4
	C161.6,129.6,109.9,129.8,109.9,129.8"/>
</svg>
