<?xml version="1.0" encoding="utf-8"?>
<svg xmlns="http://www.w3.org/2000/svg" xmlns:xlink="http://www.w3.org/1999/xlink" x="0px" y="0px" viewBox="0 0 24 23.6" style="fill: #001A9E;">
<path class="st0" d="M12,0C5.4,0,0,5.4,0,12c0,5.6,3.9,10.3,9.1,11.6C9,23.5,9,23.3,9,23V21c-0.5,0-1.3,0-1.5,0
	c-0.8,0-1.6-0.4-1.9-1c-0.4-0.7-0.5-1.8-1.4-2.5C3.9,17.2,4.1,17,4.4,17C5,17.2,5.5,17.6,6,18.2C6.5,18.9,6.7,19,7.6,19
	c0.4,0,1.1,0,1.7-0.1c0.3-0.8,0.9-1.6,1.6-2c-4-0.4-5.9-2.4-5.9-5.1c0-1.2,0.5-2.3,1.3-3.2C6.1,7.6,5.7,5.7,6.4,5
	c1.8,0,2.9,1.2,3.1,1.5C10.5,6.2,11.5,6,12.5,6c1,0,2,0.2,2.9,0.5C15.7,6.2,16.8,5,18.6,5c0.7,0.7,0.4,2.7,0.1,3.6
	c0.8,0.9,1.3,2.1,1.3,3.2c0,2.7-1.9,4.7-5.9,5.1c1.1,0.6,1.9,2.2,1.9,3.4V23c0,0.1,0,0.2,0,0.3c4.7-1.6,8-6.1,8-11.3
	C24,5.4,18.6,0,12,0z"/>
</svg>
