<svg version="1.1" xmlns:serif="http://www.serif.com/"
	 xmlns="http://www.w3.org/2000/svg" xmlns:xlink="http://www.w3.org/1999/xlink" x="0px" y="0px" viewBox="0 0 60.5 60.3"
	 style="enable-background:new 0 0 60.5 60.3; fill:#001A9E;" xml:space="preserve">
<g transform="matrix(1,0,0,1,-138.462,-287.425)">
	<path class="st0" d="M206.5,344.3C206.5,344.3,206.5,344.3,206.5,344.3c0.6,0,1.1-0.5,1.1-1.1c0,0,0,0,0-0.1c0-0.8-0.5-1.2-1.5-1.2
		h-1.7v4.4h0.6v-1.9h0.8l0,0l1.2,1.9h0.7L206.5,344.3L206.5,344.3z M205.8,343.9H205v-1.5h0.9c0.5,0,1,0.1,1,0.7
		C207,343.8,206.4,343.9,205.8,343.9 M-39.2,296.3h9.3v33.9h17.2v8.6h-26.5V296.3z M-8.5,310h8.9v28.8h-8.9V310z M-4.1,295.7
		c2.8,0,5.2,2.3,5.2,5.2c0,2.8-2.3,5.2-5.2,5.2c-2.8,0-5.2-2.3-5.2-5.2S-6.9,295.7-4.1,295.7C-4.1,295.7-4.1,295.7-4.1,295.7
		 M37.8,296.3h8.9v25.4L56.9,310h11l-11.7,13.3l11.5,15.5H56.4l-9.5-14.2h-0.1v14.2h-8.9L37.8,296.3z M5.4,310h8.6v3.9h0.1
		c1.7-3,5-4.8,8.5-4.7c9.1,0,10.7,6,10.7,13.7v15.8h-8.9v-14c0-3.3-0.1-7.6-4.7-7.6c-4.6,0-5.4,3.6-5.4,7.4v14.2H5.4L5.4,310z"/>
	<path class="st0" d="M86.7,321c0,0,0-0.1,0-0.1c0-2.9-2.4-5.4-5.4-5.4c0,0-0.1,0-0.1,0c-3.2-0.2-6.1,2.3-6.3,5.5H86.7z M94.3,333.8
		c-3,3.6-7.5,5.8-12.2,5.7c-8.9,0-16.1-6-16.1-15.2c0-9.2,7.2-15.2,16.1-15.2c8.4,0,13.6,6,13.6,15.2v2.8H74.9
		c0.5,3.3,3.4,5.7,6.7,5.6c2.6,0,5-1.3,6.4-3.5L94.3,333.8z M114.3,316.9c-4.5,0-7.2,3-7.2,7.3c0,4.4,2.7,7.3,7.2,7.3s7.2-3,7.2-7.3
		C121.4,319.9,118.8,316.9,114.3,316.9 M129.7,338.8h-8.2V335h-0.1c-2.1,2.8-5.4,4.5-8.9,4.5c-8.6,0-14.3-6.2-14.3-15
		c0-8.1,5-15.5,13.2-15.5c3.7,0,7.2,1,9.2,3.8h0.1v-16.6h9L129.7,338.8z M190,338.8h-8.9v-14c0-3.3-0.1-7.6-4.7-7.6
		c-4.7,0-5.4,3.6-5.4,7.4v14.2h-8.9V310h8.6v3.9h0.1c1.7-3,5-4.8,8.5-4.7c9.1,0,10.7,6,10.7,13.7L190,338.8z M152,306.1
		C152,306.1,152,306.1,152,306.1c-2.8,0-5.2-2.3-5.2-5.2c0-2.8,2.3-5.2,5.2-5.2c2.8,0,5.2,2.3,5.2,5.2c0,0,0,0,0,0
		C157.2,303.7,154.9,306.1,152,306.1 M156.5,338.8h-9V310h9V338.8z M194.5,287.4h-51.4c-2.4,0-4.4,1.9-4.5,4.4v51.6
		c0,2.4,2,4.4,4.5,4.4h51.4c2.4,0,4.4-1.9,4.5-4.4v-51.6C198.9,289.3,196.9,287.3,194.5,287.4 M205.8,339.9c-2.2,0-4.1,1.9-4.1,4.1
		c0,2.3,1.9,4.1,4.1,4.1c2.3,0,4.1-1.9,4.1-4.1C210,341.8,208.2,339.9,205.8,339.9L205.8,339.9 M205.8,347.7
		C205.8,347.7,205.8,347.7,205.8,347.7c-2,0-3.7-1.6-3.7-3.6c0-2,1.6-3.6,3.6-3.6c2,0,3.6,1.6,3.6,3.5v0.1
		C209.4,346,207.9,347.6,205.8,347.7L205.8,347.7"/>
</g>
</svg>
