<svg xmlns="http://www.w3.org/2000/svg" viewBox="0 0 1919.97 593.42"><path d="M836.35,475.43a53.13,53.13,0,0,1-13-1.61,32.1,32.1,0,0,1-11.59-5.57,20.65,20.65,0,0,1-6.37-10.78,52.16,52.16,0,0,1-1.89-13.64,40,40,0,0,1,.36-5.48c.24-1.74.48-3.2.72-4.4a69.86,69.86,0,0,1,11.22-24.87,145.68,145.68,0,0,1,20.93-23.26c.95-1,1.91-1.86,2.87-2.69l2.87-2.52a4.33,4.33,0,0,1,1.8-.63q.9-.09,1.62-.09a13.1,13.1,0,0,0,1.61-.09,1.74,1.74,0,0,0,1.08-.45,3.29,3.29,0,0,0,1.17-2.51,4.32,4.32,0,0,1,1.34-2.87,48.76,48.76,0,0,1,12.22-6.29q7-2.51,12.93-4.85a57.16,57.16,0,0,1,12.3-3.05,95.88,95.88,0,0,1,14.09-1.08,50.56,50.56,0,0,1,11.5,1.08q3.95.9,5.3,2.78a9.75,9.75,0,0,1,1.7,4,41.11,41.11,0,0,0,.9,4.13,7.11,7.11,0,0,1,.27,1.08,7.75,7.75,0,0,1,.09,1.26,7.88,7.88,0,0,1-1.71,5c-1.14,1.43-2.3,2.15-3.5,2.15s-2.27-.9-2.87-2.69a20.91,20.91,0,0,0-1.17-2.34,14.54,14.54,0,0,1-1.17-2.51,4.65,4.65,0,0,0-2.69-2.61,14.74,14.74,0,0,0-4.67-.62h-.18a20.09,20.09,0,0,1-3.59-.36,24.16,24.16,0,0,0-4.31-.36,41.11,41.11,0,0,0-7.36.72,37.72,37.72,0,0,0-8.44,2.69,279.14,279.14,0,0,0-26.49,13.38,83.63,83.63,0,0,0-21.11,16.79,17.43,17.43,0,0,0-1.34,2,17.86,17.86,0,0,1-1.53,2.15c-.6.72-1.5,1.74-2.69,3a29.16,29.16,0,0,0-2.52,3.06,30.21,30.21,0,0,0-4.13,8.17,86.93,86.93,0,0,0-2.33,8.53,32.73,32.73,0,0,1-2.16,6.82,19.67,19.67,0,0,0-1.52,4.76,27.1,27.1,0,0,0-.45,4.94,28.93,28.93,0,0,0,1.16,8.26,35.74,35.74,0,0,0,2.61,6.65,14.09,14.09,0,0,0,8.89,6.91,44.13,44.13,0,0,0,12.12,1.71,55.16,55.16,0,0,0,8-.54q3.67-.54,5.3-.72a36.21,36.21,0,0,0,4.49-1.89,19.72,19.72,0,0,1,4.49-1.7l4-.9a28.61,28.61,0,0,0,4.13-1.26,52.12,52.12,0,0,0,14.28-7.54q5.48-4.3,10.86-9.16a51,51,0,0,1,7.64-5.84c2-1.13,3.38-1.7,4.22-1.7s1.25.36,1.25,1.08a6,6,0,0,1-1.52,3,18.44,18.44,0,0,1-4.58,4q-6.83,4.84-13.83,10.95a54.07,54.07,0,0,1-15.45,9.52,18.89,18.89,0,0,0-4.31,2.34,13.94,13.94,0,0,1-4.49,2.15c-1.91.48-5.45,1.32-10.59,2.52A74.11,74.11,0,0,1,836.35,475.43Z"/><path d="M907.46,471.66c-1.08-.24-1.62-1.49-1.62-3.77a28.64,28.64,0,0,1,3.42-12.75,23.75,23.75,0,0,0,1.88-2.51,5.21,5.21,0,0,0,.81-2.88,8.86,8.86,0,0,1,1.08-3.32c.72-1.5,1.52-3.11,2.42-4.85s1.71-3.26,2.43-4.58a9.14,9.14,0,0,0,1.07-2.33q.36-.9,1.26-3.24c1.2-1.79,2.66-4,4.4-6.64s3.8-5.69,6.2-9.16h-.18c1.67-2.75,3.2-5.12,4.58-7.09a34.65,34.65,0,0,1,3.86-4.76A18.06,18.06,0,0,1,952.18,398q4.49,0,4.49,4c0,2.28-1.38,4.61-4.13,7-1.08,1-2.19,1.88-3.33,2.78a39.07,39.07,0,0,0-3.14,2.78c-1,1.08-2.27,2.67-4,4.76s-3.65,4.7-5.93,7.81c-.24.36-.87,1.23-1.88,2.61s-2,2.87-3,4.49a22.84,22.84,0,0,0-2.16,4.13c-.42,1.14-.21,1.65.63,1.52q2.5-3.58,12.39-10.59a42.85,42.85,0,0,0,6.83-5.75,31.58,31.58,0,0,1,5.38-4.67,10.93,10.93,0,0,0,2-1.07,15.79,15.79,0,0,0,2.33-2h.18q4.84-2.51,10.42-5.66t11.67-7.09a1.51,1.51,0,0,1,1.44,0q8.08-2.87,11.13-2.87c2,0,3.06.89,3.06,2.69a20.59,20.59,0,0,1-.45,2.69,13.36,13.36,0,0,1-1.62,4.13,3.67,3.67,0,0,1-3.32,2h-7.9c-4,1.56-8.17,3.2-12.66,4.94a62,62,0,0,0-13.92,7.81h-.18q-26.4,17.42-39.51,36.82a11.24,11.24,0,0,1-.72,2.15c-.36.84-.78,1.86-1.26,3.05A9.63,9.63,0,0,1,907.46,471.66Z"/><path d="M998.51,476.33a9.65,9.65,0,0,1-2.34-.63c-1.19-.42-2.45-.81-3.77-1.17a12.82,12.82,0,0,0-2.87-.53h-.18a5.62,5.62,0,0,1-5.12-2.79,14,14,0,0,1-2.51-7q-.09-1-.09-2.07a38.33,38.33,0,0,1,2.87-13.47,96,96,0,0,1,7.81-15.62A102.7,102.7,0,0,1,1003.54,418a59.92,59.92,0,0,1,13.11-11.5q6.65-4.12,12-4.67a12.66,12.66,0,0,1,5.93,1.62,11.28,11.28,0,0,0,4.31,1.61h.18c2.51,0,4.19,1,5,3.06a15.91,15.91,0,0,1,1.26,6.1,11.06,11.06,0,0,1-.72,3.78c-.48,1.31-.87,2.39-1.16,3.23s-.33,1.14-.09.9l.18-.18c-1.32,2.39-2.79,4.82-4.4,7.27a84.24,84.24,0,0,1-7.82,9.61,27.33,27.33,0,0,1-5.83,4.58c-2.46,1.5-4.82,2.84-7.1,4s-3.89,2-4.85,2.51a8.41,8.41,0,0,1-3.77.72,27,27,0,0,1-5.11-.54,25.71,25.71,0,0,0-4.76-.54,10.11,10.11,0,0,0-2,.18,1.65,1.65,0,0,0-1.26,1.08,17.74,17.74,0,0,0-2.87,9.34,8,8,0,0,0,1.35,4.76q1.34,1.88,4.58,1.88a16.48,16.48,0,0,0,2.33-.18,9.57,9.57,0,0,0,2.52-.72,29.75,29.75,0,0,1,4.31-.53,12.26,12.26,0,0,0,2.78-.36,42.35,42.35,0,0,0,5.12-1.8c2.63-1.08,4.64-1.85,6-2.33s2.46-.9,3.24-1.26,1.58-.78,2.42-1.26,2.16-1.19,4-2.15a11.21,11.21,0,0,1,2.25-1.08,2.46,2.46,0,0,0,1-.45c.48-.3,1.74-1.1,3.78-2.42s3.83-2.16,5-2.16q1.26,0,1.26.9a4.18,4.18,0,0,1-1.17,2.15,19.82,19.82,0,0,1-4,3.42c-2,1.43-4.34,3.11-6.91,5a47.94,47.94,0,0,1-7.09,4.49,4.24,4.24,0,0,0-1.89.81,6,6,0,0,1-2.25,1l-10,4.31.18-.18q.54-.54-1.17,0c-1.14.36-2.58.9-4.31,1.62s-3.41,1.34-5,1.88A12.72,12.72,0,0,1,998.51,476.33Zm7-30.89a11.6,11.6,0,0,0,1.44-.09,12.14,12.14,0,0,0,1.44-.27,11.42,11.42,0,0,1,2.33-1.61,23.9,23.9,0,0,0,2.87-1.8,41.76,41.76,0,0,0,5-4.49,25.57,25.57,0,0,1,4.67-3.86,13.1,13.1,0,0,0,3.24-2.6c2.51-3.48,3.86-6.11,4-7.91s.26-3.47.26-5q-2.14-2.88-3.95-2.88a9.52,9.52,0,0,0-3.23.9,43.74,43.74,0,0,0-4.94,2.34,30.68,30.68,0,0,0-5.47,4.66q-4.14,4.32-7.55,8.35a38.37,38.37,0,0,0-5.38,8.18,9.56,9.56,0,0,1-.45,1.34,2.73,2.73,0,0,0-.27,1,3,3,0,0,0,1.79,2.87A9,9,0,0,0,1005.51,445.44Zm18-52.8a3.5,3.5,0,0,1-3.23-1.43,1.22,1.22,0,0,1-.36-.9c0-1,.84-2,2.51-3.05a56.09,56.09,0,0,0,11.41-7.73q5.12-4.48,9.16-8.44a50.12,50.12,0,0,1,6.73-5.74q1.8-1.44,3,.71a10.52,10.52,0,0,1,1.16,5,11.76,11.76,0,0,1-.45,3.33,4.48,4.48,0,0,1-1.7,2.42l-8.71,5.3-7.37,4.49-6.19,3.77c-1.68,1-2.58,1.59-2.69,1.7A11.4,11.4,0,0,1,1023.47,392.64Z"/><path d="M1052.39,473.82a5.27,5.27,0,0,1-3.6-1.26,5,5,0,0,1-1.43-3.95,11.6,11.6,0,0,1,.09-1.44,12.53,12.53,0,0,1,.27-1.44,93.3,93.3,0,0,1,4.85-14,126.61,126.61,0,0,1,9.06-17.24,108.59,108.59,0,0,1,14.1-18,38.1,38.1,0,0,1,13.47-9.25,42,42,0,0,1,15.27-2.78h.18c4.06,0,6.76,1.05,8.08,3.14a11.9,11.9,0,0,1,2,6.37,13.42,13.42,0,0,1-1.08,5.93l-.17.18a2.46,2.46,0,0,1-1.8.72,2.55,2.55,0,0,1-1.71-.72,2.51,2.51,0,0,1-.81-2,6.93,6.93,0,0,0-.62-3.06,8.34,8.34,0,0,0-1.53-2.15q-.18-.36-.9-.45a13.1,13.1,0,0,0-1.61-.09h-.18a2.4,2.4,0,0,1-1.08-.27,2.4,2.4,0,0,0-1.08-.27q-6.83,0-16.88,9.52-10.23,10-15.26,17.42a58.21,58.21,0,0,0-6.92,12.66,75.52,75.52,0,0,0-2.78,9.43c-.12,1,.18,1.43.9,1.43a10.11,10.11,0,0,0,4.93-1.79,63.92,63.92,0,0,0,6.2-4.31c2.15-1.68,4.25-3.38,6.29-5.12s3.65-3.14,4.84-4.22a5.91,5.91,0,0,1,1.71-1.26,4.43,4.43,0,0,0,1.35-.9,5.87,5.87,0,0,0,1.34-1.43A4.65,4.65,0,0,1,1089,442q6.46-5.56,10.42-8.89t6.19-5.3q2.25-2,3.86-3.41a7.25,7.25,0,0,1,5.21-2.33c2.76,0,4.49,1.49,5.21,4.49q.72,2.51-1.26,3.5a7.7,7.7,0,0,0-2.87,2.24,26.28,26.28,0,0,0-3,5.3q-1.62,3.5-4.31,8.35a40.56,40.56,0,0,0-2.79,6.74c-.78,2.45-1.05,4.28-.8,5.47l3.05-2a37.56,37.56,0,0,1,5-1.89,16,16,0,0,0,4.49-2.06,4.49,4.49,0,0,1,2.15-.72q1.44,0,1.44,1.26c0,1-.72,1.91-2.16,2.87a65.16,65.16,0,0,1-8.26,5.3,25.5,25.5,0,0,0-6.46,4.93c-.48.49-1.47,1.59-3,3.33a18.4,18.4,0,0,1-3.14,3.14,4.51,4.51,0,0,1-1.53.45,13.71,13.71,0,0,1-1.52.09q-2.52,0-3.06-.54a3.07,3.07,0,0,0-1-.63,2,2,0,0,1-1-1.17,10.44,10.44,0,0,1-.36-2.51,21.57,21.57,0,0,1,1.71-7.63,89,89,0,0,1,4.58-9.79c1.55-3,2.69-5.33,3.41-7s1.25-3.09,1.61-4.22a31.68,31.68,0,0,1,1.26-3.33l-5.21,4.85c-1.79,1.68-3.89,3.53-6.28,5.57l-1.44,1a10.21,10.21,0,0,1-1.26.8l-4.85,4.5q-5,3.94-9,7.36t-8.09,6.46a95,95,0,0,1-9.87,6.29A10.06,10.06,0,0,1,1052.39,473.82Z"/><path d="M1136.79,472.92a2.09,2.09,0,0,1-2.15-1.44,21.19,21.19,0,0,0-1.53-3.68,8.62,8.62,0,0,1-.45-5.3c1-2.75,1.67-4.73,2.16-5.92s1.19-2.7,1.79-4.13a52.79,52.79,0,0,0,2-6.11q.71-1.79,1.88-5.57a32.29,32.29,0,0,1,3-6.82v.18q2.68-4.85,5.65-9.61t6-9.43a6.14,6.14,0,0,1-2.52,1.08c-1.31.48-2.75,1-4.31,1.53a12.65,12.65,0,0,1-4,.8c-1.55,0-2.87-1.19-3.95-3.59v-.18c0-1.31,0-2.72.09-4.22s1-2.78,2.79-3.86h.18a6.2,6.2,0,0,1,1.16.18,7,7,0,0,0,1,.18,17.61,17.61,0,0,0,1.8-1.08,4.16,4.16,0,0,1,2.33-.72h.18c2,0,4.19,0,6.47-.18a33.07,33.07,0,0,0,5.74-.71q1.08-1.44,2-2.79c.6-.89.83-1.46.72-1.7a8,8,0,0,1,1.34-2.61c.78-1.13,1.35-1.94,1.71-2.42a6.69,6.69,0,0,1,1.53-2.07c.77-.77,1.16-1.28,1.16-1.52V391a3.09,3.09,0,0,0,.18-1.26v-1.44a7.17,7.17,0,0,1,.27-1.88,3.79,3.79,0,0,1,1-1.71,9.81,9.81,0,0,0,2.06-3.05,7.67,7.67,0,0,1,3.15-3.23,5.55,5.55,0,0,1,3-1.08,4.13,4.13,0,0,1,3.77,2.06q1.26,2.07,2,3.33c.12.48.74.92,1.88,1.34a2.28,2.28,0,0,1,1.71,2.25c0,1-.72,2.09-2.16,3.41-.48.6-1.31,1.53-2.51,2.78s-2.28,2.37-3.23,3.33a52.31,52.31,0,0,0-4.49,5.92,34.42,34.42,0,0,0,5.92-.9,27.88,27.88,0,0,1,6.29-.71,7.39,7.39,0,0,0,3-.45,14.17,14.17,0,0,1,4-.63q.72,0,1.17,1c.3.66.51,1.16.63,1.52a6.35,6.35,0,0,1-3,2,18.27,18.27,0,0,1-3.33,1.08,31.29,31.29,0,0,0-3.77.53c-2,.36-4.1.75-6.19,1.17a26.6,26.6,0,0,1-4.4.63q-1.08-.18-2.16,1.17a3.75,3.75,0,0,1-2.51,1.52,7.15,7.15,0,0,1-2.25,2.07,6.09,6.09,0,0,0-2.06,1.88q-2.34,3.42-3.95,5.84c-1.08,1.62-1.86,2.73-2.34,3.32s-1.41,1.83-2.42,3.33-2.07,3-3.15,4.58a25.74,25.74,0,0,1-2.69,3.41c-.48.72-1.26,1.88-2.33,3.5a24,24,0,0,1-2.7,3.5,15.57,15.57,0,0,0-1.34,2.16c-.3.6-.81,1.55-1.53,2.87V446a42.83,42.83,0,0,0-2,4.22,22.14,22.14,0,0,0-1.43,4.94,17.71,17.71,0,0,0-.27,2q-.09,1.08-.09,2a29.94,29.94,0,0,0,.27,4.22,23.87,23.87,0,0,1,.27,3.32,5.77,5.77,0,0,1-2.07,4.4A6.1,6.1,0,0,1,1136.79,472.92Zm61.6-71.48-.18.18.18-.36Z"/><path d="M1176.66,472.56q-.72,0-1.26-1.08a12.22,12.22,0,0,0-.9-2.51,7.52,7.52,0,0,1-.54-3.24,37,37,0,0,1,1.08-7.36q1.08-4.85,4.13-14.54a122.9,122.9,0,0,1,4.31-11.86q2-4.49,4.13-8.62v-.18a4.46,4.46,0,0,1,1.62-1.25,3.79,3.79,0,0,0,1.44-1.08h-.18a1.27,1.27,0,0,0,.18-1.17,6.47,6.47,0,0,1-.18-1.52,4.56,4.56,0,0,1,1.34-3.33c.9-.9,1.83-1.76,2.79-2.6a22.33,22.33,0,0,1,4.49-3.23,21.09,21.09,0,0,1,7.18-2.52,3.4,3.4,0,0,1,1.08-.18h1.08a7.43,7.43,0,0,1,4.66,1.26,8.14,8.14,0,0,1,2.34,2.69,5.9,5.9,0,0,1,.72.9,2.22,2.22,0,0,1,.36,1.26,4.24,4.24,0,0,1-.63,1.88,26.65,26.65,0,0,1-5.21,5.21,21.43,21.43,0,0,0-3.14,2.61,35.81,35.81,0,0,0-3.42,3.95q-1.61,2.15-3.05,4.13a30.65,30.65,0,0,1-2.69,3.32c-1,1-1.92,2.06-2.88,3.14a5.17,5.17,0,0,0-1.07,2.61,5.9,5.9,0,0,1-1.62,3.14,9.86,9.86,0,0,1-2.78,2.51,6.55,6.55,0,0,0-2.43,2.52v-.18c-.6,1.07-1.25,2.33-2,3.77s-1.44,2.81-2.16,4.13a41.12,41.12,0,0,0-2.33,5.3,9.45,9.45,0,0,0-.54,2.6,1.79,1.79,0,0,0,.45,1.44c.3.24.33.84.09,1.79q-.72,1.62-1.89,4C1178.48,471.78,1177.62,472.56,1176.66,472.56Zm39.15-77.4a2,2,0,0,1-2.07-1.17,11.71,11.71,0,0,1-.63-2.24q-.18-.9-.36-2a13.1,13.1,0,0,1-.17-2.16,7.2,7.2,0,0,1,.44-2.6,3.65,3.65,0,0,1,1.71-1.88,44.46,44.46,0,0,1,7-3.06,16.88,16.88,0,0,1,4.67-.9c1.8,0,3,.54,3.6,1.62a8.57,8.57,0,0,1,.89,4.13v1.35a7.83,7.83,0,0,1-.18,1.52c-.36,1.56-1.52,2.64-3.5,3.24a43.11,43.11,0,0,0-4.94,1.79c-.84.48-1.82,1-3,1.53a7.42,7.42,0,0,1-3.14.81Z"/><path d="M1221.37,471.48a8.62,8.62,0,0,1-4.49-1c-1.07-.65-2.09-1.34-3.05-2.06q-3.22-2.7-3.23-9.88a42.93,42.93,0,0,1,2-11.94,59.44,59.44,0,0,1,6.47-14.1v.18c1.31-2.39,2.66-4.79,4-7.18s2.84-4.73,4.4-7a4.24,4.24,0,0,1,1.44-1,3.05,3.05,0,0,0,1.07-.63,7.17,7.17,0,0,1,.45-2.07,3.76,3.76,0,0,1,1.17-1.88,21.91,21.91,0,0,1,7.36-6.47c2.76-1.44,4.91-2.63,6.47-3.59h-.18a5.52,5.52,0,0,1,2.51-.54q3.6,0,8.44,2.69a5.12,5.12,0,0,0,1.53-.26,5.37,5.37,0,0,1,1.71-.27,6.71,6.71,0,0,1,3.68,1.25,3.76,3.76,0,0,1,1.52,3.95,3,3,0,0,0-.18.9v.72q0,2,1.44,2a5.92,5.92,0,0,0,1.44-.18,5.78,5.78,0,0,1,1.43-.18,34.54,34.54,0,0,0,5.57-.63c2.4-.42,4.7-.84,6.92-1.26a29.54,29.54,0,0,1,4.57-.63,1.56,1.56,0,0,1,.72,1.26,2.92,2.92,0,0,1-.63,1.62,3.71,3.71,0,0,1-1.34,1.25l-7.72,2.16q-3.24.9-6.38,1.7a35.31,35.31,0,0,1-4.94,1l-1.79.18a18.45,18.45,0,0,1-1.08,4.67c-.6,1.68-1.26,3.53-2,5.57a9.43,9.43,0,0,0-.54,2.24,13.3,13.3,0,0,1-.71,2.79,46.19,46.19,0,0,1-2.88,4.31q-1.6,2.14-3,4.49-1.08,1.78-2.25,3.86a39.13,39.13,0,0,1-2.78,4.22,85.59,85.59,0,0,1-8.35,9.25,54.89,54.89,0,0,1-9.7,7.54A18,18,0,0,1,1221.37,471.48Zm1.62-5.92q3.59,0,10-5.12a61.52,61.52,0,0,0,11.94-13.2h-.18c1-1.44,1.94-3.11,3-5s1.83-3.53,2.43-4.85c1.31-1.44,2.33-2.6,3.05-3.5a6.43,6.43,0,0,0,1.26-2.07,2,2,0,0,0,.18-.89,2,2,0,0,0-.09-.63,3.62,3.62,0,0,1-.09-1v-.18c.72-1.8,1.31-3.41,1.79-4.85a18.7,18.7,0,0,0,.9-3.77c-.84,0-2.15-.06-3.95-.18s-3.26-.24-4.4-.36-1.17-.18-.09-.18h.54q0-.18-1.62-.72c-1.07-.36-1.91-.65-2.51-.89a3.38,3.38,0,0,1-1.08.17,2.13,2.13,0,0,1-1.35-.35c-.3-.24-.62-.18-1,.18a3.16,3.16,0,0,0-.9,1.79,4.54,4.54,0,0,1-1.44,2.33l-.18.18c0-.11-.3,0-.9.36s-.83.54-.71.54l-.18.36q-.36.18-.45,1a4.28,4.28,0,0,1-.63,1.71c-1.2,1.91-2.49,3.92-3.86,6s-2.67,4.1-3.86,6v-.18c-1.2,2.15-2.4,4.49-3.6,7a40,40,0,0,0-2.69,7.37,5.31,5.31,0,0,1-.27,1.7,4.44,4.44,0,0,0-.27,1.35v.18a7.52,7.52,0,0,1-.72,3.41,6.37,6.37,0,0,0-.71,2.87,3.18,3.18,0,0,1,.36,1.89c-.13.42,0,.75.53,1A3.47,3.47,0,0,0,1223,465.56Z"/><path d="M1272,471.66c-1.08-.36-1.62-1.61-1.62-3.77a18.71,18.71,0,0,1,.63-4.49,62.06,62.06,0,0,1,1.88-5.93V458c.24,0,.48-.41.72-1.25s.3-1.32.18-1.44a4.81,4.81,0,0,1,1.53-2.42c.9-.9,1.28-1.41,1.17-1.53v-.18q.35-.72,0-.9c-.25-.12-.18-.6.18-1.44q2-4.12,3.59-7.63c1.07-2.33,2.15-4.46,3.23-6.37a23,23,0,0,1,1.26-3.6v.36a2.58,2.58,0,0,1,.9-1.34c.47-.42.77-.69.89-.81a5.82,5.82,0,0,0,.9-2.34c0-.23-.06-.35-.18-.35a.16.16,0,0,1-.18-.18,2.44,2.44,0,0,1,.36-.81,23.63,23.63,0,0,1,1.44-2.07h-.18c.47-.6,1.22-1.67,2.24-3.23l3.06-4.67c1-1.55,1.64-2.57,1.88-3.05a9.44,9.44,0,0,1,4.58-4.58,14.06,14.06,0,0,1,6.2-1.53,8.85,8.85,0,0,1,4.94,1.35,4.87,4.87,0,0,1,2.06,4.4c0,1.91-.45,3.23-1.35,4a21.13,21.13,0,0,1-3.59,2.24,19.71,19.71,0,0,0-4.94,4,44.75,44.75,0,0,0-7,9.07,20,20,0,0,0-2.16,7.28,10.34,10.34,0,0,1,1.62-1.62,54.28,54.28,0,0,1,8.53-6.91q4.76-3.15,12.12-7.64h.36a17.48,17.48,0,0,0,2.43-1.61c1.49-1.08,3-2.18,4.67-3.32a9.44,9.44,0,0,1,3-1.71,47.53,47.53,0,0,1,6.64-2.87,43.31,43.31,0,0,1,13.65-2.7c2.76,0,4.79.48,6.11,1.44,1.08.72,1.61,2.15,1.61,4.31a16.43,16.43,0,0,1-1.07,5.39v-.36c-.12,0-.36.45-.72,1.34a15.91,15.91,0,0,1-1.08,2.25c-.24.36-.66,1-1.26,2s-1,1.56-1.07,1.8v-.18a15.28,15.28,0,0,1-2,3c-.6.66-1.32,1.53-2.15,2.61-1.2,1.43-2.82,3.62-4.85,6.55s-4,6.05-5.84,9.34a33.91,33.91,0,0,0-3.68,8.89,16.23,16.23,0,0,1-.63,2.43,4.46,4.46,0,0,0-.27,2.24v.18q0,.36.72,1a4.15,4.15,0,0,1,.9,1,2.14,2.14,0,0,1-.45,3.51c-.78.54-2.19.69-4.22.45a2.77,2.77,0,0,1-2.61-1.08c-.42-.72-.87-1.5-1.34-2.34v-.18a2.94,2.94,0,0,0-.09-.71,4.8,4.8,0,0,1-.09-1.08c.11-.24,0-.39-.45-.45s-.87-.51-1.35-1.35c-.24-2.39-.36-3.83-.36-4.31a10.6,10.6,0,0,1,1.26-4.4,46.32,46.32,0,0,0,2-4.58,34.41,34.41,0,0,1,3.78-5.74q2.86-3.78,6-7.82a70.08,70.08,0,0,0,4.76-6.73,10.94,10.94,0,0,0,1.8-5.39,3.75,3.75,0,0,0-1.26-3.14,4.53,4.53,0,0,0-2.87-1q-.9,0-2.61.18a10.93,10.93,0,0,0-3.32.9,8.73,8.73,0,0,0-2.42,1.44c-1.14.84-2.25,1.61-3.33,2.33a5.49,5.49,0,0,1-2.15,1.08c-.84.6-1.62,1.17-2.34,1.7a32.65,32.65,0,0,1-2.87,1.89l-5.57,3.59a116,116,0,0,0-17,13.29,111.44,111.44,0,0,0-13.74,15.45,6.09,6.09,0,0,0-1.07,2.51,12.23,12.23,0,0,1-.9,2.69,4.77,4.77,0,0,1-1.44,1.71,6.25,6.25,0,0,0-1.08.81,6.36,6.36,0,0,1-2.78,2.24A7.4,7.4,0,0,1,1272,471.66Z"/><path d="M1350.49,481.9a27.49,27.49,0,0,1-4.84-.36q-2-.36-1.8-1.62-.36,0-1.08-.72l-.18-.35a3.17,3.17,0,0,1,.9-2.34l.18-.18a.73.73,0,0,1,.54-.18,13.37,13.37,0,0,1,2.87.36,5.7,5.7,0,0,0,2.34.18,69.75,69.75,0,0,0,14.09-5.93,63.18,63.18,0,0,0,10.87-7.54,33.35,33.35,0,0,0,3.32-3.05q1.53-1.62,2.79-3.06a2.14,2.14,0,0,1,1.16-.8,3.07,3.07,0,0,0,1-.45l.18-.18a2,2,0,0,0-.09-.63,1.59,1.59,0,0,1,.27-1q3.59-5,3.59-7.72c0-1.08-.3-1.73-.9-2a14.44,14.44,0,0,0-5.47-2.87q-3.51-1.08-6.92-1.89a38.25,38.25,0,0,1-5.21-1.52,5,5,0,0,1-3.23-4.85c0-2.27.93-4.88,2.78-7.81a43,43,0,0,1,7.82-8.89,77.53,77.53,0,0,1,17.06-11q9-4.22,15.8-4.22a13.18,13.18,0,0,1,6.29,1.44,7.86,7.86,0,0,1,3.77,4.67,9.68,9.68,0,0,1,.54,3.05,6.94,6.94,0,0,1-1.17,4,3.35,3.35,0,0,1-2.78,1.71,9,9,0,0,0-1.35.18,4.08,4.08,0,0,1-1.71,0,4.39,4.39,0,0,1-1.43-1.26q-.72-.9-1.08-.9h-.18a2.68,2.68,0,0,1-1-.71,1.43,1.43,0,0,0-1.17-.36h-.71l-3.6-.18a20.75,20.75,0,0,0-6.1,1.07,34.23,34.23,0,0,0-8.08,4.14V418a30.43,30.43,0,0,0-3.42,3.14q-1.79,1.88-3.41,3.86a27.5,27.5,0,0,1-2.42,2.15,5.38,5.38,0,0,0-1.71,2,5.8,5.8,0,0,0-.72,2.51,2.22,2.22,0,0,0,.9,1.8,73.26,73.26,0,0,0,7.9,2.78,40.08,40.08,0,0,1,10.42,5.12,9.89,9.89,0,0,1,2.24,2.25,6.14,6.14,0,0,1,1.17,3.86,8.28,8.28,0,0,1-.72,3.41,13.09,13.09,0,0,1-1.61,2.07,7.19,7.19,0,0,0-1.44,2.06l-.18.18q-3.22,3.23-8.26,8.35a73.56,73.56,0,0,1-14.19,10.69,52.44,52.44,0,0,1-13.11,6A38,38,0,0,1,1350.49,481.9Z"/><path d="M11.49,354.07a5.05,5.05,0,0,1-3.7-1.48,33.15,33.15,0,0,1-5.57-6.3A15.85,15.85,0,0,1,0,337.39q0-5.94,3.89-15.57t13.54-24.47q7.41-11.13,26.5-37.27t50.24-58.39c.74-.24,1.12-.61,1.12-1.11,0-.74-.81-1.54-2.41-2.41s-3.28-1.79-5-2.78-2.6-2-2.6-3q0-1.84,5.19-3.34t20-3q4.82-4.08,9.82-8a83.81,83.81,0,0,0,7.23-6.12,9.25,9.25,0,0,0,2.23-2.22,3,3,0,0,0,.37-1.12v-.37a3.34,3.34,0,0,1,.55-1.67,10.82,10.82,0,0,1,2.41-2.41q24.1-21.13,35.78-27.43t12.42-7.05a103.58,103.58,0,0,1,24.29-17.24q13.89-7.23,28-14.46a126.86,126.86,0,0,0,25.58-17.24,8,8,0,0,0,3-3.52,29.79,29.79,0,0,1,3-4.63c1.24-1.24,3.46-2.16,6.68-2.78s5.06-1.3,5.56-2a9.29,9.29,0,0,1,4.26-2.23,12.59,12.59,0,0,0,4.27-1.85,13.64,13.64,0,0,1,7.78-2.23,25.27,25.27,0,0,1,13.16,3.9q6.48,3.89,6.49,9.45a9.23,9.23,0,0,1-3,6.67,22.05,22.05,0,0,1-5.75,4.64,19,19,0,0,0-5.75,5,20.89,20.89,0,0,1-5.93,4.64,25.15,25.15,0,0,0-5.56,3.89q-17.05,20.4-31.52,41.34T229.5,182.78c3.46-.24,6.18.37,8.16,1.86s3,3.09,3,4.82q0,4.81-8.52,4.82c-1.24,0-2.66.06-4.27.18s-3.4.19-5.37.19a369.85,369.85,0,0,0-18,40.22,360.22,360.22,0,0,0-11.68,36q-4.08,15.77-5.19,22.8a23.48,23.48,0,0,1-1.66,8.16q-1.68,4.44-.93,5.19a18.75,18.75,0,0,1,2,3.52,11.16,11.16,0,0,1,.92,4.63q0,5.19-5.56,8.9a5.27,5.27,0,0,1-2.22.37,5.11,5.11,0,0,1-4.26-2.22,47.19,47.19,0,0,1-3.16-4.82,40.6,40.6,0,0,1-1.85-4.27,12.24,12.24,0,0,1-.74-4.26,18.32,18.32,0,0,1,1.11-5.56,1.53,1.53,0,0,0,.37-1.11,8.17,8.17,0,0,0-1.11-3.9,5.91,5.91,0,0,1-.37-4.63A62.2,62.2,0,0,0,173,279.92a49.42,49.42,0,0,1,3.52-14.46,77.52,77.52,0,0,0,7.42-23.17q1.47-10.93,3.33-21.51a63.83,63.83,0,0,1,8.53-21.68c0,.24.31-.13.93-1.12a21.54,21.54,0,0,0,1.67-3.33q-16.32,0-36.15.92t-38,2.41q-3,3-6.11,5.94t-6.49,6.67a43.94,43.94,0,0,1-7,6.3,59.35,59.35,0,0,0-7,5.93q-2.6,2.61-8.34,9.09t-11.31,13q-5.56,6.5-8.16,9.09-1.11,1.49-4.26,5c-2.1,2.35-4.21,4.64-6.3,6.86s-3.53,3.71-4.27,4.45L38.19,289.19q-5.56,6.31-7.79,9.08c-1.48,1.86-2.47,3.15-3,3.9s-1.05,1.66-1.67,2.78-2,3.39-4.27,6.86a15.82,15.82,0,0,0-1.85,7.78v6.12a6.19,6.19,0,0,1-.74,2.78,55.72,55.72,0,0,0-.93,9.64q-.18,6.3-.18,8.9,0,3.71-2,5.37A6.62,6.62,0,0,1,11.49,354.07ZM94.91,200.58l-.74,1.11q-3,.75-12.6.74H81.2c-1.24,0-1-.12.74-.37l6.67-.93A50,50,0,0,1,94.91,200.58ZM182,184.64h21.51l3-6.31.37-.37q10-10,13.54-15.57a29.18,29.18,0,0,0,4.26-9.45c.49-2.6,1-5.13,1.67-7.61s2.53-5.68,5.75-9.63q.36-5.94,3.52-9.27c2.09-2.23,2.28-4.2.55-5.94a5,5,0,0,0-4.82-3.33q-4.44,0-12.23,6.67a116.24,116.24,0,0,1-9.64,7.42q-6.31,4.44-13,9.08t-15.94,10.94l-.37.37q-2.59,1.11-13.72,9.82t-27.06,22.8c4.69,0,9.26,0,13.71-.18s8.65-.19,12.61-.19c3,0,5.8.13,8.53.37S179.57,184.64,182,184.64Z"/><path d="M235.8,325.15a57.62,57.62,0,0,1-10-.74c-2.72-.5-3.95-1.61-3.71-3.34-.49,0-1.23-.49-2.22-1.48l-.37-.74a6.53,6.53,0,0,1,1.85-4.82l.37-.37a1.51,1.51,0,0,1,1.12-.37,27.36,27.36,0,0,1,5.93.74,11.75,11.75,0,0,0,4.82.37,144,144,0,0,0,29.1-12.23,132.26,132.26,0,0,0,22.43-15.58,65.54,65.54,0,0,0,6.86-6.3q3.15-3.33,5.75-6.3a4.46,4.46,0,0,1,2.41-1.67,6.3,6.3,0,0,0,2-.93l.37-.37a4,4,0,0,0-.19-1.3,3.26,3.26,0,0,1,.56-2q7.41-10.38,7.41-15.95c0-2.22-.62-3.58-1.85-4.08a29.78,29.78,0,0,0-11.31-5.93q-7.23-2.22-14.27-3.89a79.63,79.63,0,0,1-10.75-3.15q-6.67-3-6.68-10t5.75-16.13a88.76,88.76,0,0,1,16.13-18.35,160.13,160.13,0,0,1,35.22-22.8q18.54-8.72,32.63-8.72a27.11,27.11,0,0,1,13,3,16.18,16.18,0,0,1,7.79,9.64,20,20,0,0,1,1.11,6.3,14.35,14.35,0,0,1-2.41,8.34c-1.61,2.36-3.52,3.53-5.75,3.53a18.61,18.61,0,0,0-2.78.37,8.3,8.3,0,0,1-3.52,0,9.23,9.23,0,0,1-3-2.6c-1-1.23-1.74-1.85-2.23-1.85H357a5.76,5.76,0,0,1-2-1.49,3,3,0,0,0-2.41-.74h-1.48l-7.42-.37a42.18,42.18,0,0,0-12.6,2.23q-7.05,2.22-16.69,8.52v-.37a66.94,66.94,0,0,0-7,6.49c-2.48,2.6-4.82,5.26-7.05,8a58.92,58.92,0,0,1-5,4.45,11.09,11.09,0,0,0-3.52,4.08,12,12,0,0,0-1.49,5.19,4.57,4.57,0,0,0,1.86,3.71,151.82,151.82,0,0,0,16.31,5.74A82.55,82.55,0,0,1,330,241.36a20.43,20.43,0,0,1,4.64,4.64,12.79,12.79,0,0,1,2.41,8,17.26,17.26,0,0,1-1.48,7,28,28,0,0,1-3.34,4.27,15.2,15.2,0,0,0-3,4.26l-.37.37q-6.67,6.68-17.05,17.24t-29.29,22.06q-14.46,8.9-27.07,12.42T235.8,325.15Z"/><path d="M311.81,408.2q-4.08,0-5.19-3v.37a14.5,14.5,0,0,0-1.3-4.45,10,10,0,0,1-.93-4.45,29.69,29.69,0,0,1,1.3-7.6,97.81,97.81,0,0,1,5-12.79q1.86-5.94,7.42-15a131,131,0,0,0,9.27-18q2.6-6.31,9.45-19.46t15.76-29.29q8.9-16.14,17.61-31.7t15.39-27.07q6.68-11.49,8.9-15.2v.74a4.36,4.36,0,0,1,2.78-3,12.46,12.46,0,0,0,3.52-2.22,23.15,23.15,0,0,1,.37-3.71c.24-1.48.49-2.71.74-3.71v-.37a16.73,16.73,0,0,1,3.89-5.56q2.41-2.22,5-4.45,3-3.33,9.82-7a50.48,50.48,0,0,1,15.76-5.19H436a11.53,11.53,0,0,1,3.34-.37q5.19,0,5.19,4.08a10.36,10.36,0,0,1-1.11,4.26q-1.11,2.41-1.86,4.26a4.24,4.24,0,0,1-.92,2.41,8.1,8.1,0,0,0-1.3,2.78,194.27,194.27,0,0,1,26.32-16.68,166.74,166.74,0,0,1,31.52-13q15.57-4.44,24.84-4.45,8.52,0,14.09,4.08,9.63,7.43,9.64,21.51a39.24,39.24,0,0,1-.74,7.23q-.75,3.88-1.86,8a22.84,22.84,0,0,1-1.3,5q-.93,2.42-2.41,6.49a75.17,75.17,0,0,1-13.53,20.21q-8.71,9.45-20.58,20.2a3.92,3.92,0,0,0-1.66,2.78q-.19,1.68-2.79,4.27a29.77,29.77,0,0,1-5.56,4.08q-3.7,2.22-4.82,3a295.48,295.48,0,0,1-26.14,18q-15.75,9.84-39.48,15h-.37q-6.31.74-14.46,2.23a89.82,89.82,0,0,1-15.94,1.48,36.9,36.9,0,0,1-14.65-2.78q-6.5-2.79-8.34-10.2-4.45,8.9-9.64,18a123.17,123.17,0,0,1-6.67,10.94q-1.49,1.49-4.08,7.05t-5.19,11.49a36.06,36.06,0,0,1-4.82,8.53h.37a18.4,18.4,0,0,0-3.15,7.6,97.17,97.17,0,0,1-2.41,9.45A58,58,0,0,0,332,385a36.15,36.15,0,0,0-.37,6.86,13.07,13.07,0,0,1-.92,5.56c-1.24,2.23-3.9,4.57-8,7.05S315,408.2,311.81,408.2Zm91.95-108.26a65.52,65.52,0,0,0,15.57-2.22l21.5-5.56a49.44,49.44,0,0,0,15.57-7.05,105.92,105.92,0,0,0,12.24-9.27,69.24,69.24,0,0,0,5.56-5.19l5.56-5.56q3.71-3.33,6.3-6.12t5.94-6.12q2.58-2.58,7.23-8.34t9.64-13a89.83,89.83,0,0,0,8.34-14.83,35,35,0,0,0,3.33-13.91q0-6.68-4.81-10a24.38,24.38,0,0,0-4.64-2.41,15.07,15.07,0,0,0-5.38-.92A46.77,46.77,0,0,0,492,192.05q-8.16,2.22-11.68,3c-2.35.5-4.52,1-6.49,1.67a61,61,0,0,0-9.64,4.63q-1.86,1.49-6.49,5.75c-3.09,2.84-5.25,4.39-6.49,4.63h.37a53.24,53.24,0,0,0-8.89,5.56c-3.71,2.72-6.81,5-9.27,6.68a42.9,42.9,0,0,0-5.38,4.45c-2.1,2-3.89,3.58-5.38,4.82a53.55,53.55,0,0,0-12.23,13.71,150.19,150.19,0,0,1-11.87,16.32,56.58,56.58,0,0,0-3,5.74q-2.6,5.38-5,10.57t-3.15,5.93a6.9,6.9,0,0,0-1.48,4.45,6.15,6.15,0,0,0,.93,3.34,3.07,3.07,0,0,1,.55,2.59,19,19,0,0,0,6.12,2.78A35.08,35.08,0,0,0,403.76,299.94Z"/><path d="M543.9,304q-3.35-1.11-3.34-7.79a38.59,38.59,0,0,1,1.3-9.27,121.16,121.16,0,0,1,3.89-12.23v1.11c.49,0,1-.86,1.48-2.59s.62-2.72.37-3q.38-2.22,3.16-5t2.41-3.16v-.37c.49-1,.49-1.6,0-1.85s-.38-1.23.37-3q4.07-8.52,6.67-11.68a48.92,48.92,0,0,0,5.56-9.08v.74c.25,0,.56-1,.93-3a14.66,14.66,0,0,1,1.67-4.82v.74a5.92,5.92,0,0,1,1.67-2.78l1.66-1.67q3.34-5.92,4.64-8.9a51.19,51.19,0,0,1,3-5.75,89.41,89.41,0,0,1,5.75-8h-.37a70.92,70.92,0,0,0,4.26-6.3c1.86-3,3.58-5.5,5.19-7.6s2.41-2.65,2.41-1.67v.37q0,1.11,3-3.34c2-3,4.32-6.61,7-10.93s5.19-8.28,7.41-11.87,3.58-5.74,4.08-6.49v.38c.49-.75,1.54-2.41,3.15-5a49,49,0,0,1,2.78-4.26h-.37a68,68,0,0,0,5-9.09c.86-2.09,1.85-4.2,3-6.3A61.1,61.1,0,0,1,637.7,122l13-16.69a35.42,35.42,0,0,0,4.63-6.49q2.78-4.62,5.75-6.11a77.36,77.36,0,0,1,12.79-4.82,48.53,48.53,0,0,1,13.53-2.23,16.24,16.24,0,0,1,6.86,1.3q2.78,1.31,3.15,5-.37,5.55-4.08,12.79A54,54,0,0,1,682.19,119a24.15,24.15,0,0,1-10.75,5q-6.32,1.31-8.9,5.37h.37q-4.08,5.94-10.2,13.91t-9.08,12A42.93,42.93,0,0,1,637,162a25.08,25.08,0,0,0-5.93,6.67,86.3,86.3,0,0,0-8.16,12.61q-2.6,5.19-5,10.19a47.62,47.62,0,0,1-8.34,11.31q-10.75,11.5-14.46,18.73a41.15,41.15,0,0,0-4.45,15,21.47,21.47,0,0,1,3.34-3.33q8.14-8.16,22.8-17.8T647,196.5h.74a23.79,23.79,0,0,0,3.89-1.85q3.52-1.86,7.79-4.64t7.23-4.82c2-1.35,2.59-2,1.85-2h-.37c2.72-1.72,7.42-3.71,14.09-5.93q16.68-5.57,28.92-5.56,8.14,0,11.86,2.59,3.35,3.34,3.34,9.27a33.38,33.38,0,0,1-2.22,10.76v-.75c-.25,0-.75.93-1.49,2.78A18.42,18.42,0,0,1,720,201q-.37,1.49-4.82,7.78v-.37a23.11,23.11,0,0,1-3.71,6.49q-1.86,2-4.45,5.38-3.33,4.44-8.71,13T687.94,251a69.19,69.19,0,0,0-6.86,17.43q-.37,2.6-3.15,6.67T675.52,281v.37c0,.5.49,1.12,1.48,1.86a6.53,6.53,0,0,1,1.85,1.85,6,6,0,0,1,1.12,3.71,10.1,10.1,0,0,1-3,6.67q-3,3.35-9.64,3.34c-3.22,0-5.25-.74-6.12-2.23s-1.92-3.08-3.15-4.81v-3.71l-1.48.37h-.74a3.13,3.13,0,0,1-2.6-1.86v-.37a22.83,22.83,0,0,0-.56-4.26,23.4,23.4,0,0,1-.55-4.26q0-2.59,2.22-7.79t4.82-10.57q2.59-5.37,3.71-8,1.49-4.44,7.42-12.23T682.93,223a133.43,133.43,0,0,0,10-13.9,27.63,27.63,0,0,0,2.6-6.12,19.85,19.85,0,0,0,.74-5c0-2.71-.81-4.75-2.41-6.11a10.86,10.86,0,0,0-6.12-2.41,36.72,36.72,0,0,0-5,.55,33.68,33.68,0,0,0-7.23,2,27.89,27.89,0,0,0-5.75,3q-4.26,2.59-7.79,4.82t-2.41,2.22h.37q-3,1.86-5.37,3.15a65.77,65.77,0,0,0-6.12,3.9,43.18,43.18,0,0,1-5.75,4.07l-9.26,5.94c-3.1,2-5.26,3.33-6.49,4.07a397.15,397.15,0,0,0-34.85,28,201.83,201.83,0,0,0-28.55,31.33,12.56,12.56,0,0,0-2.23,5.19,24.74,24.74,0,0,1-1.85,5.56,9.74,9.74,0,0,1-3,3.52,12.9,12.9,0,0,0-2.22,1.67c-2,2.47-3.89,4-5.75,4.63A15.19,15.19,0,0,1,543.9,304Z"/><path d="M751.15,303.65q-5.94,0-9.27-2t-6.3-4.26q-6.68-5.57-6.68-20.4,0-10.74,4.08-24.65a123.06,123.06,0,0,1,13.35-29.11v.38q4.08-7.42,8.34-14.84t9.08-14.45a8.52,8.52,0,0,1,3-2,6,6,0,0,0,2.22-1.3,14.79,14.79,0,0,1,.93-4.27,7.82,7.82,0,0,1,2.41-3.89,45.35,45.35,0,0,1,15.2-13.35Q796,165,800.83,162h-.37a11.47,11.47,0,0,1,5.19-1.11q7.41,0,17.43,5.56a10.08,10.08,0,0,0,3.15-.56,11,11,0,0,1,3.52-.55,13.79,13.79,0,0,1,7.6,2.59c2.6,1.73,3.64,4.45,3.15,8.16a6,6,0,0,0-.37,1.85v1.48c0,2.73,1,4.08,3,4.08a12.06,12.06,0,0,0,3-.37,12.58,12.58,0,0,1,3-.37,71,71,0,0,0,11.49-1.3q7.41-1.29,14.28-2.59a61.87,61.87,0,0,1,9.45-1.3,3.2,3.2,0,0,1,1.48,2.6,6,6,0,0,1-1.29,3.33,7.82,7.82,0,0,1-2.78,2.6l-15.95,4.45q-6.68,1.86-13.16,3.52a72.62,72.62,0,0,1-10.19,2l-3.71.37a38.26,38.26,0,0,1-2.23,9.64c-1.24,3.46-2.59,7.29-4.08,11.49a20,20,0,0,0-1.11,4.64,26.41,26.41,0,0,1-1.48,5.74,92.29,92.29,0,0,1-5.93,8.9q-3.35,4.46-6.31,9.27-2.22,3.72-4.63,8a80.54,80.54,0,0,1-5.75,8.72A172.13,172.13,0,0,1,789.89,282a112.72,112.72,0,0,1-20,15.57Q759.67,303.65,751.15,303.65Zm3.34-12.24q7.41,0,20.57-10.56a127.34,127.34,0,0,0,24.66-27.25h-.37q3-4.46,6.11-10.38t5-10q4.08-4.46,6.3-7.23a13.26,13.26,0,0,0,2.6-4.27,4.2,4.2,0,0,0,.37-1.85,4,4,0,0,0-.19-1.3,7.67,7.67,0,0,1-.18-2v-.37q2.22-5.57,3.71-10a39.45,39.45,0,0,0,1.85-7.79q-2.59,0-8.16-.37t-9.08-.74c-2.35-.24-2.41-.37-.19-.37h1.12c0-.24-1.12-.74-3.34-1.48s-4-1.36-5.19-1.86a6.91,6.91,0,0,1-2.23.37,4.35,4.35,0,0,1-2.78-.74c-.62-.49-1.29-.37-2,.37a6.6,6.6,0,0,0-1.85,3.71,9.52,9.52,0,0,1-3,4.82l-.37.37c0-.24-.62,0-1.85.74s-1.73,1.12-1.48,1.12l-.37.74c-.5.25-.81.92-.93,2a9,9,0,0,1-1.3,3.52q-3.7,5.94-8,12.42t-8,12.42v-.37q-3.71,6.67-7.42,14.46a81.79,81.79,0,0,0-5.56,15.2,11,11,0,0,1-.55,3.52,9.19,9.19,0,0,0-.56,2.78v.37a15.7,15.7,0,0,1-1.48,7.05,13.15,13.15,0,0,0-1.49,5.93,6.39,6.39,0,0,1,.75,3.89q-.37,1.31,1.11,2A7.15,7.15,0,0,0,754.49,291.41Z"/><path d="M854.22,308.47a10.87,10.87,0,0,1-7.42-2.6q-3-2.6-3-8.52a21.86,21.86,0,0,1,.18-2.6,26.09,26.09,0,0,1,.56-3,252.52,252.52,0,0,1,10.19-28.92,248,248,0,0,1,18.54-35.6,223.8,223.8,0,0,1,29.11-37.07q5.19-5.19,14.64-9.83t18.35-8.16q8.91-3.51,12.8-5.56c2.59-1.35,1.91-2-2-2h-.37c.74-.24,1.6-.55,2.59-.92a8.44,8.44,0,0,1,3-.56,12.71,12.71,0,0,1,5.37,1.11,11.73,11.73,0,0,0,5,1.12h.37q8.89,0,13.35,3.52a16.88,16.88,0,0,1,5.93,8.53,33.54,33.54,0,0,1,1.48,9.45v2.41a7.75,7.75,0,0,1-.37,2.41q4.46-7.78,8.71-16.13t7.42-14.64l3.52-7v.37c0,1,.49.56,1.48-1.29a21.83,21.83,0,0,1,1.86-3.16q4.82-8.52,6.12-14.83t7.22-14.46h-.37c.75-1.23,2.16-3.45,4.27-6.67l6.3-9.64c2.1-3.21,3.64-5.43,4.64-6.67q4.07-4.08,14.27-8.34t18.35-4.27a14.78,14.78,0,0,1,7.6,1.85q3.15,1.86,3.53,6.31c0,4-1.06,7.11-3.16,9.45a48.05,48.05,0,0,1-8.15,7,85.41,85.41,0,0,0-10.94,9.45q-4.45,4.83-14.46,20t-23.36,34.48q-13,18.56-19.65,28.37t-9.08,13.9a30.47,30.47,0,0,0-3.15,6.67l-.37.37q-3.72,3.72-6.68,10.94A167.53,167.53,0,0,1,969.89,251a56.88,56.88,0,0,0-4.07,9.08,85.15,85.15,0,0,0-2.23,9.46,12.1,12.1,0,0,0-1.67,5.19c-.12,1.73.06,2.22.56,1.48q0,.38,2.22-1.11c1.49-1,2.84-2,4.08-3a28.14,28.14,0,0,1,3.15-1.11,19.55,19.55,0,0,1,2.78-.74l.38-.37a14.66,14.66,0,0,1,4.45-1.48h.74a5.77,5.77,0,0,0,2.22-.74c1-.5,3-1.73,5.93-3.71a9.35,9.35,0,0,1,4.45-1.48c2,0,3,.86,3,2.59q0,3-4.45,5.93A134.13,134.13,0,0,1,974.34,282,53.1,53.1,0,0,0,961,292.16l-.37.37c-.5,0-1.67.87-3.53,2.59a20.11,20.11,0,0,0-3.15,3.34,15.42,15.42,0,0,0-2.59,3.52A10.05,10.05,0,0,1,948,305.5h.37a9.32,9.32,0,0,1-3.15.93,29.64,29.64,0,0,1-3.15.19c-3.47,0-5.56-.38-6.3-1.12a6.45,6.45,0,0,0-2-1.29,4.05,4.05,0,0,1-2-2.41,21.53,21.53,0,0,1-.74-5.2q0-6.66,3.52-15.75a185.52,185.52,0,0,1,9.45-20.21q4.81-9.25,7-14.46t3.33-8.71a64.16,64.16,0,0,1,2.6-6.86q-5.2,4.81-10.75,10t-13,11.49a30.7,30.7,0,0,1-3.34,1.86l-3,1.48-9.27,9.64a255.84,255.84,0,0,0-20.39,18.17,97.67,97.67,0,0,1-19.65,15.2v-.37a7,7,0,0,0-.93,1.3,5.29,5.29,0,0,1-1.67,1.66v.37a10.79,10.79,0,0,1-2.59.38,4.08,4.08,0,0,0-1.86.37,25.91,25.91,0,0,1-4.45,2.41,29.85,29.85,0,0,0-4.08,2A20.8,20.8,0,0,1,854.22,308.47Zm18.17-23.73a5.84,5.84,0,0,0,3,0q5.56-1.85,13.53-7.6t16-12.61q8-6.86,13.53-11.68a12.31,12.31,0,0,1,3.52-2.59,9.06,9.06,0,0,0,2.78-1.85,7.56,7.56,0,0,0,2.78-2.78,8.78,8.78,0,0,1,2.41-2.79q13.35-11.47,21.51-18.35t12.79-10.94q4.64-4.06,8-7c.74-.74,1.67-1.79,2.78-3.15a33.55,33.55,0,0,0,3.15-4.64h-1.11a6.39,6.39,0,0,1-3.71-1.29,4.43,4.43,0,0,1-1.85-3.9,14.07,14.07,0,0,0-1.3-6.3,17.27,17.27,0,0,0-3.15-4.45c-.25-.49-.87-.8-1.85-.93a28.16,28.16,0,0,0-3.34-.18h-.37a5,5,0,0,1-2.23-.56,4.92,4.92,0,0,0-2.22-.55q-14.1,0-34.85,19.65-21.14,20.76-31.52,36t-14.27,26.14a161.18,161.18,0,0,0-5.75,19.46c-.25,1.24-.25,2,0,2.23A4.35,4.35,0,0,0,872.39,284.74Z"/><path d="M1049.61,313.66a19.68,19.68,0,0,1-4.82-1.3q-3.7-1.31-7.79-2.41a25.8,25.8,0,0,0-5.93-1.11h-.37a11.59,11.59,0,0,1-10.57-5.75,36.17,36.17,0,0,1-4.63-10.56,35.18,35.18,0,0,1-.56-3.9c-.12-1.35-.18-2.78-.18-4.26q0-12.24,5.93-27.81a195.51,195.51,0,0,1,16.13-32.25A210.68,210.68,0,0,1,1060,193.16q13.35-15.19,27.07-23.73t24.84-9.64a26.14,26.14,0,0,1,12.23,3.34q6.3,3.35,8.9,3.34h.37q7.78,0,10.38,6.3a33,33,0,0,1,2.6,12.61,22.7,22.7,0,0,1-1.49,7.78c-1,2.73-1.79,5-2.41,6.68s-.68,2.35-.18,1.85l.37-.37q-4.08,7.43-9.08,15t-16.13,19.83a56.1,56.1,0,0,1-12,9.46q-7.61,4.63-14.65,8.34t-10,5.19a17.45,17.45,0,0,1-7.78,1.48,56,56,0,0,1-10.57-1.11,53.18,53.18,0,0,0-9.82-1.11,20.55,20.55,0,0,0-4.08.37,3.39,3.39,0,0,0-2.6,2.22q-5.94,9.64-5.93,19.28a16.53,16.53,0,0,0,2.78,9.83q2.77,3.88,9.45,3.89a33.73,33.73,0,0,0,4.82-.37,20.27,20.27,0,0,0,5.19-1.48,59,59,0,0,1,8.9-1.12,25,25,0,0,0,5.75-.74,84.78,84.78,0,0,0,10.57-3.71q8.14-3.33,12.42-4.82c2.84-1,5.06-1.85,6.67-2.59s3.27-1.61,5-2.6,4.44-2.46,8.15-4.45a23.13,23.13,0,0,1,4.64-2.22,5.11,5.11,0,0,0,2-.93q1.47-.92,7.78-5,6.67-4.46,10.38-4.45c1.73,0,2.6.62,2.6,1.85,0,1-.81,2.48-2.41,4.45a41.21,41.21,0,0,1-8.34,7.05q-6.31,4.44-14.28,10.38a101,101,0,0,1-14.64,9.27,8.61,8.61,0,0,0-3.9,1.66,12.24,12.24,0,0,1-4.63,2l-20.76,8.9.37-.37c.74-.74-.07-.74-2.41,0s-5.32,1.86-8.9,3.34-7,2.78-10.38,3.89A26.62,26.62,0,0,1,1049.61,313.66Zm14.46-63.77a22.74,22.74,0,0,0,3-.19,23.81,23.81,0,0,0,3-.55,24.11,24.11,0,0,1,4.82-3.34,49.52,49.52,0,0,0,5.93-3.71,87.31,87.31,0,0,0,10.38-9.27,52.57,52.57,0,0,1,9.64-8,27,27,0,0,0,6.68-5.37q7.79-10.76,8.34-16.32t.56-10.38q-4.45-5.92-8.16-5.93a19.75,19.75,0,0,0-6.68,1.85,92.49,92.49,0,0,0-10.19,4.82q-3.9,2.24-11.31,9.64-8.54,8.91-15.57,17.24a79.24,79.24,0,0,0-11.12,16.87,18.5,18.5,0,0,1-.93,2.78,5.72,5.72,0,0,0-.56,2,6.21,6.21,0,0,0,3.71,5.94A18.88,18.88,0,0,0,1064.07,249.89Zm78.23-109a26.27,26.27,0,0,1-6.68-1.12c-.24-.24-2.1-1.42-5.56-3.52l-12.79-7.78-15.2-9.27q-7.6-4.64-18-10.94a9.09,9.09,0,0,1-3.52-5,24.06,24.06,0,0,1-.93-6.86A21.45,21.45,0,0,1,1082.05,86c1.61-3,3.64-3.45,6.12-1.48a85.55,85.55,0,0,1,14.09,11.86q8.15,8.16,18.91,17.43a125.61,125.61,0,0,0,23.35,15.94c3,1.74,4.57,3.34,4.82,4.82a4.66,4.66,0,0,1-.37,3.34Q1147.11,140.89,1142.3,140.89Z"/><path d="M1176,307c-2.73,0-4.58-.5-5.57-1.49a18.69,18.69,0,0,1-1.66-1.85,6.94,6.94,0,0,0-1.67-1.48l-3.71-2.78q-2.22-1.68-2.22-7.6c0-3.46.79-8.47,2.41-15s4.75-15.39,9.45-26.51h.37a97.4,97.4,0,0,0,8.71-16.13,156.7,156.7,0,0,1,7.23-15v.74q0-.74,4.08-7.23t9.83-15.76q5.74-9.26,11.67-18.54t10.2-15.94q4.26-6.67,4.64-7.42v.38c.49-.75,1.54-2.41,3.15-5a49,49,0,0,1,2.78-4.26h-.37a67.68,67.68,0,0,0,5-9.09c.87-2.09,1.86-4.2,3-6.3a61.1,61.1,0,0,1,6.12-8.71l13-16.69a35.36,35.36,0,0,0,4.64-6.49q2.78-4.62,5.74-6.11a77.7,77.7,0,0,1,12.79-4.82,48.65,48.65,0,0,1,13.54-2.23,16.3,16.3,0,0,1,6.86,1.3q2.77,1.31,3.15,5-.37,5.55-4.08,12.79A54,54,0,0,1,1293.94,119a69.9,69.9,0,0,1-9.64,7.79,36.27,36.27,0,0,0-8.9,8.15h.37a52.41,52.41,0,0,1-10.57,11.13,66.6,66.6,0,0,0-9.82,9.27,21.09,21.09,0,0,1-6.68,6.11,21.17,21.17,0,0,0-6.3,5.38q-16.68,22.62-26,38.37T1205,225.05c-1,1.73-2.29,4.39-3.9,8s-3.15,7.17-4.63,10.75-2.6,6.25-3.34,8c-1.24,4-2.47,6.62-3.71,8a14.86,14.86,0,0,0-3,6.12c-.25,1-.69,3-1.3,5.93a78.87,78.87,0,0,0-1.3,8c-.25,2.35-.25,3.27,0,2.78l7-4.45L1205,271l.37-.37q4.07-1.84,5.93-1.85a21.13,21.13,0,0,0,4.82-.74q3-.75,9.27-4.82a21.57,21.57,0,0,0,3.7-1.86c2.23-1.23,4.51-2.53,6.86-3.89a136.86,136.86,0,0,1,8.53-4.26,5.11,5.11,0,0,0,2-.93q1.47-.92,7.79-5,6.66-4.44,10.38-4.45c1.72,0,2.59.62,2.59,1.86q0,1.49-2.41,4.45a40.91,40.91,0,0,1-8.34,7q-10.38,7.05-21,13.16t-21.32,12.42q-5.92,3.35-8.15,4.27a10.88,10.88,0,0,1-2.78.92,3.55,3.55,0,0,0-1.67.75,46.51,46.51,0,0,0-4.82,4.45l-.37.37c-.5,0-1.73.87-3.71,2.59s-3.22,2.85-3.71,3.34a17.77,17.77,0,0,0-2.78,3.71,8.36,8.36,0,0,1-3.52,3.33A13.33,13.33,0,0,1,1176,307Z"/><path d="M1305.43,313.66a19.68,19.68,0,0,1-4.82-1.3c-2.48-.87-5.07-1.67-7.79-2.41a25.8,25.8,0,0,0-5.93-1.11h-.37a11.59,11.59,0,0,1-10.57-5.75,36.17,36.17,0,0,1-4.63-10.56,35.18,35.18,0,0,1-.56-3.9c-.13-1.35-.18-2.78-.18-4.26q0-12.24,5.93-27.81a194.73,194.73,0,0,1,16.13-32.25,210.68,210.68,0,0,1,23.17-31.15q13.35-15.19,27.06-23.73t24.84-9.64a26.18,26.18,0,0,1,12.24,3.34q6.3,3.35,8.9,3.34h.37q7.79,0,10.38,6.3a33,33,0,0,1,2.6,12.61,22.7,22.7,0,0,1-1.49,7.78c-1,2.73-1.79,5-2.41,6.68s-.68,2.35-.18,1.85l.37-.37q-4.1,7.43-9.09,15t-16.12,19.83a56.1,56.1,0,0,1-12,9.46q-7.61,4.63-14.65,8.34t-10,5.19a17.48,17.48,0,0,1-7.78,1.48,56,56,0,0,1-10.57-1.11,53.18,53.18,0,0,0-9.83-1.11,20.69,20.69,0,0,0-4.08.37,3.39,3.39,0,0,0-2.59,2.22q-5.94,9.64-5.93,19.28a16.46,16.46,0,0,0,2.78,9.83q2.78,3.88,9.45,3.89a33.73,33.73,0,0,0,4.82-.37,20.27,20.27,0,0,0,5.19-1.48,58.86,58.86,0,0,1,8.9-1.12,25,25,0,0,0,5.75-.74,84.23,84.23,0,0,0,10.56-3.71q8.16-3.33,12.43-4.82c2.83-1,5.06-1.85,6.67-2.59s3.27-1.61,5-2.6,4.45-2.46,8.16-4.45a23.2,23.2,0,0,1,4.63-2.22,5.06,5.06,0,0,0,2-.93q1.49-.92,7.79-5,6.68-4.46,10.38-4.45c1.73,0,2.6.62,2.6,1.85,0,1-.81,2.48-2.41,4.45a41,41,0,0,1-8.35,7.05q-6.3,4.44-14.27,10.38a101.54,101.54,0,0,1-14.64,9.27,8.61,8.61,0,0,0-3.9,1.66,12.31,12.31,0,0,1-4.63,2l-20.76,8.9.37-.37c.74-.74-.07-.74-2.41,0s-5.32,1.86-8.9,3.34-7,2.78-10.38,3.89A26.62,26.62,0,0,1,1305.43,313.66Zm14.46-63.77a22.74,22.74,0,0,0,3-.19,23.81,23.81,0,0,0,3-.55,23.83,23.83,0,0,1,4.82-3.34,49.52,49.52,0,0,0,5.93-3.71,87.31,87.31,0,0,0,10.38-9.27,52.57,52.57,0,0,1,9.64-8,27,27,0,0,0,6.68-5.37q7.79-10.76,8.34-16.32t.55-10.38c-3-3.95-5.69-5.93-8.15-5.93a19.69,19.69,0,0,0-6.68,1.85,92.49,92.49,0,0,0-10.19,4.82q-3.9,2.24-11.31,9.64-8.53,8.91-15.57,17.24a79.68,79.68,0,0,0-11.13,16.87,17.42,17.42,0,0,1-.92,2.78,5.72,5.72,0,0,0-.56,2,6.21,6.21,0,0,0,3.71,5.94A18.88,18.88,0,0,0,1319.89,249.89Z"/><path d="M1812.56,96.23c.75,0,1.78-.42,2.18-.07.84.74.21,1.72-.37,2.42-4.59,5.61-7.66,12.15-11.37,18.3a2.22,2.22,0,0,0-.1.76c.38.66.95.26,1.35.13a38.62,38.62,0,0,1,12.39-1.63,33.4,33.4,0,0,1,6.95,1,9.44,9.44,0,0,1,5.44,3.65,24.47,24.47,0,0,1,4.48,8.2c1.13,4.29.39,8.16-2.74,11.24a69.82,69.82,0,0,1-9.25,7.85,79.6,79.6,0,0,1-18.92,9.41c-4.56,1.61-9,3.47-13.59,5.08a114.49,114.49,0,0,1-11.19,3.57,59.55,59.55,0,0,0-12.52,4.51,87.67,87.67,0,0,0-16.45,10.28,14.28,14.28,0,0,0,2-.12c9.13-2.25,18.4-2.17,27.69-1.66,7.44.41,14.87,1,22.3,1.58,2.73.21,5.46.54,8.19.84,9.49,1,19,2.19,28.36,3.91,6.43,1.18,12.89,2.18,19.34,3.22a29.13,29.13,0,0,0,9.77-.12c2.44-.42,4.88-.9,7.35-1.22,4-.53,8-.94,12.06-1.41,5.19-.61,10.37-1.27,15.57-1.82a49.76,49.76,0,0,1,7.41-.41c5.94.27,11.29,6.18,11.11,12.11-.09,3-1.56,5.52-3.37,7.77A32.33,32.33,0,0,1,1906,212.2a79.36,79.36,0,0,1-33.82,9.08q-15.48.51-31,.74c-7.6.11-15.12-1-22.66-1.79-11.85-1.33-23.44-4.12-35.16-6.19-5-.89-10.05-1.76-15.1-2.45-7.06-1-14.08-.33-21.07.82-.22,0-.39.32-.77.64.69.4,1.29.81,1.93,1.13a66.35,66.35,0,0,1,10.23,6.52c4.08,3.06,8.27,6,12.36,9a94.71,94.71,0,0,1,15.29,14.59,173.12,173.12,0,0,1,14.79,19.78,204,204,0,0,1,12.06,22,131,131,0,0,1,6.65,18.42c1.13,3.76,2.38,7.48,3.62,11.2a17.8,17.8,0,0,0,1.27,2.86c1.81,3.27,1.84,3.22,5.56,4.18,2.15.55,4.29,1.18,6.38,1.93,2.87,1,5.46,5.63,4.93,8.59a2.06,2.06,0,0,1-.23.74c-2.79,4.14-5.47,8.32-11.14,9a46.65,46.65,0,0,1-19-1.33c-4.24-1.31-8.5-2.62-12.65-4.18a45.05,45.05,0,0,1-11.78-7c-3.9-3.07-7.66-6.33-11.33-9.68a51.42,51.42,0,0,1-5.53-6.08A83.29,83.29,0,0,1,1759,297.5c-3.17-7-6.34-14.06-9.64-21s-6.41-14-10.32-20.7a84.52,84.52,0,0,0-12.54-17c-1.56-1.58-3-3.32-4.45-5-.51-.56-1.1-1.05-1.94-1.85a14.73,14.73,0,0,0-.27,2.24,43.24,43.24,0,0,1-2.36,15.43,102.84,102.84,0,0,0-3.61,15.26,60.85,60.85,0,0,0,3.19,31.26,180.18,180.18,0,0,0,7.82,18,148.06,148.06,0,0,0,8,13c1.62,2.52,3.39,5,5.13,7.41,1.22,1.7,2.53,3.33,3.75,5s2.58,3.62,3.76,5.5a1.64,1.64,0,0,1-1.16,2.42,7.76,7.76,0,0,1-2.72,0,32.58,32.58,0,0,1-19.83-13.08,66.68,66.68,0,0,1-9.59-19.65c-2.81-9.26-5.4-18.57-7.49-28-1.44-6.51-3.12-13-4.67-19.45a122.74,122.74,0,0,1-3.2-24.06,19.22,19.22,0,0,0-.6-4.66c-.62,2.36-1.27,4.72-1.85,7.09a3.28,3.28,0,0,0,0,1.89,5.12,5.12,0,0,1,.1,3.07c-.06.39-.23.89-.06,1.15,1.64,2.6.35,5.11-.32,7.55-1.83,6.68-3.68,13.35-6.07,19.87-2.1,5.77-3.74,11.71-5.49,17.6-3.77,12.65-7.81,25.22-12.26,37.66-2.78,7.75-5.64,15.47-8.91,23-4.94,11.4-10.47,22.52-16.15,33.56-2.69,5.23-5.12,10.59-7.66,15.9-1.52,3.18-2.92,6.43-4.6,9.53-1.16,2.14-2.13,4.46-4.66,5.61-.81.37-1.27,1.59-1.78,2.49-4.49,7.82-8.92,15.67-13.44,23.48-1.51,2.6-3.2,5.09-4.85,7.6a8.26,8.26,0,0,1-1.58,1.71,1.07,1.07,0,0,1-1,0,1.55,1.55,0,0,1-.48-1,1.11,1.11,0,0,1,.26-.71c6.38-8.67,11.1-18.33,16.47-27.59,5.64-9.73,11.09-19.56,16.55-29.39a86.63,86.63,0,0,0,3.94-8.11c.65-1.52.76-3.28,1.38-4.82s1.71-2.65,2.29-4.09c3.87-9.57,8.17-19,11.42-28.79,1-3,2-5.93,3-8.92.48-1.49.86-3,1.22-4.54.41-1.7.07-3.56,1.62-5,.57-.52.54-1.71.71-2.61,1.75-8.85,3.35-17.73,5.25-26.55,2.32-10.74,4.84-21.43,7.37-32.12,1.65-7,3.45-14,5.22-20.94,1-3.79,2-7.57,3-11.71a12,12,0,0,0-1.65,1.05q-8.14,7.65-16.26,15.34c-1,1-2.12,2-3.1,3a79.21,79.21,0,0,1-14.18,11.72,74.48,74.48,0,0,1-7.91,4.3c-2.22,1.12-4.52,2.07-6.77,3.13a17.74,17.74,0,0,1-12.59,1.34c-4.54-1.24-9.11-2.41-13.57-3.87a23.82,23.82,0,0,1-5.49-3,9.22,9.22,0,0,1-3.68-5.41,19.46,19.46,0,0,1,.43-13.08,56,56,0,0,1,6.55-11.57c1.38-1.9,2.65-3.89,3.92-5.86,1.41-2.2,2.74-4.46,4.16-6.65,7.37-11.38,17.52-19.61,29.35-26,.66-.36,1.29-.8,2.46-1.54-1.49-.13-2.35-.27-3.21-.28a153.93,153.93,0,0,0-28.12,2,104.71,104.71,0,0,1-23,1.35c-5.35-.26-10.72-.41-16-.95a74.57,74.57,0,0,1-24.08-6.63,108.32,108.32,0,0,1-34.36-25.6c-1.86-2-3.74-4-5.42-6.2a13,13,0,0,1-2.2-4.1c-.77-2.5.75-4.19,3.31-3.79a27.91,27.91,0,0,1,4.54,1.21c5.58,1.86,11.19,3.65,16.69,5.72a48.19,48.19,0,0,0,21.2,2.76c11.6-.94,23.18-2,34.78-2.84,9.66-.73,19.33-1.15,28.89,1,6.9,1.53,13.76,3.22,20.64,4.81a150.67,150.67,0,0,1,25.56,8.78,50,50,0,0,1,6.29,3.16c4.16,2.57,8.81,4,13.26,5.83a5.32,5.32,0,0,0,1.41.1,15.13,15.13,0,0,0-.81-1.84,33.55,33.55,0,0,0-12.11-11.5c-4.34-2.41-8.77-4.66-13.09-7.1s-8.36-4.87-12.49-7.37-8.19-5.15-12.33-7.65a89.93,89.93,0,0,1-11.45-8.23c-4.6-3.86-9.18-7.77-14-11.42-10.55-8.06-15.82-18.9-17.08-31.86a57,57,0,0,1-.07-13.31,19.8,19.8,0,0,1,1-4.16c1.32-3.48,3.65-4.55,7.17-3.2,2.56,1,5,2.18,7.51,3.36a101.75,101.75,0,0,1,16.24,10.23,60.06,60.06,0,0,0,14.82,7.92c5.76,2.12,11.52,4.26,17.22,6.55a96.92,96.92,0,0,1,16.31,8.52,2.8,2.8,0,0,0,.79.18c.35-1-.3-1.73-.59-2.52-1.89-5.15-3.94-10.25-5.67-15.46A60,60,0,0,1,1665.74,73c.55-3.75,1.09-7.5,1.74-11.24a30.77,30.77,0,0,0,0-10.53c-.49-2.84-.63-2.94-3.37-3.5a83.11,83.11,0,0,0-14.44-1.21,54,54,0,0,1-26.51-7.43,37.14,37.14,0,0,1-9.55-8.64,15.21,15.21,0,0,1-1.73-3,1.28,1.28,0,0,1,.59-1.68,9.73,9.73,0,0,1,9-1.13,30.55,30.55,0,0,1,10,6c3,2.65,6.39,5,9,8.16a6.44,6.44,0,0,0,5.23,2.23c2.74.05,5.49.11,8.23.26,3,.17,6,.43,9.25.68-.24-.57-.33-1.26-.71-1.6-1.16-1-2.42-2-3.67-2.89-.63-.45-1.41-.72-2-1.21a1.74,1.74,0,0,1-.67-1.28,1.77,1.77,0,0,1,1-1,3.47,3.47,0,0,1,1.87-.27,13.41,13.41,0,0,1,3.39.94c4.08,1.9,7.86,4.19,10.19,8.25a8.61,8.61,0,0,0,1.08,1.64,3.27,3.27,0,0,0,1.49,1.11c4.62.89,7.87,4,11.21,6.9a109.53,109.53,0,0,1,17,18.36c.14.19.42.29.91.61a14.29,14.29,0,0,0,.14-1.82,55.61,55.61,0,0,0-6.67-23.58,41.93,41.93,0,0,1-2.44-5.77,2,2,0,0,1,.88-2.39,2.08,2.08,0,0,1,2.22-.15,7.61,7.61,0,0,1,1.36.78c.91.74,1.82,1.48,2.66,2.3,1.68,1.65,3.29,3.37,5,5a23.11,23.11,0,0,1,6.46,13.55,69.89,69.89,0,0,1-.37,19.54c-.38,2.72-.88,5.42-1.35,8.13a3.16,3.16,0,0,0,.57,2.52,26.47,26.47,0,0,1,3.1,5.85c1.65,4.81,3,9.73,4.5,14.61a1.2,1.2,0,0,1,.06.76,2.08,2.08,0,0,1-.75.78.77.77,0,0,1-.71-.11,7.65,7.65,0,0,1-1.14-2c-1.16-3.75-2.21-7.53-3.37-11.28a17.94,17.94,0,0,0-2.67-5.65c-1.4,2.34-1.49,2.48-.83,3.89,2.69,5.75,3.69,12,5,18.1.68,3.33,1.31,6.67,2,10,.15.75.4,1.47.72,2.62a15.93,15.93,0,0,0,1.94-4.66c1.54-5.27,3.17-10.52,4.55-15.83,3.49-13.41,7.41-26.72,9.45-40.47.86-5.82,1.93-11.61,2.91-17.42.08-.51.13-1,.26-1.54a1.17,1.17,0,0,1,2-.68c.28.28.52.59.77.89,1.18,1.4,2.25,2.91,3.55,4.18,4.2,4.1,3.18,10.79-.78,13.44a7.2,7.2,0,0,0-3.09,5.19c-.48,2.84-1.14,5.64-1.63,8.48A151.18,151.18,0,0,1,1734.51,96c-1.23,4.14-2.27,8.33-3.43,12.49q-3.58,12.84-7.2,25.68c-.07.25-.14.5-.22.75-.54,1.74-1.64,3.54-1.49,5.22.19,2.1,1.41,4.11,2.16,6.09,1,.13,1.22-.59,1.51-1.13,5.51-10.1,11.1-20.15,16.47-30.32,3.18-6,5.22-12.54,7.19-19.06,1.07-3.55.91-7.24,1.11-10.89.11-2,.22-3.92.28-5.88a9.19,9.19,0,0,1,2.52-6c.88-1,1.65-2,2.55-3a1.76,1.76,0,0,1,1.33-.53c.81.17.73,1,.66,1.6a11.14,11.14,0,0,1-.23,1.15c-2.29,10.08-4.5,20.17-7.83,30a111.72,111.72,0,0,1-7.48,17.68c-4.55,8.38-9.21,16.71-13.79,25.08-1.45,2.64-2.82,5.31-4.2,8a20.07,20.07,0,0,0-.67,2.19c1-1.17,1.56-1.7,2-2.3a265.32,265.32,0,0,1,17.06-20.49c7.24-8.09,14.31-16.31,21.1-24.78a110.44,110.44,0,0,0,13-21c.63-1.3,1.2-2.62,1.84-3.91.83-1.65,1.61-3.25.74-5.2a3.61,3.61,0,0,1,.09-2.31c1.25-4.13,2.66-8.2,5.2-11.78a13.65,13.65,0,0,1,3.5-3.06c1.79-1.27,4.27.55,4.09,2.48a20.41,20.41,0,0,1-.33,2.33A30.84,30.84,0,0,1,1787,76.87a11.55,11.55,0,0,0-1.89,4.24c-.53,2.29-1.18,4.56-1.72,6.85a30.6,30.6,0,0,1-4.66,10.3c-6.81,9.92-13.82,19.7-22.12,28.47-.41.43-.75.93-1.69,2.11l2.94-1.06c4.94-1.72,9.82-3.65,14.84-5.09a95.13,95.13,0,0,1,11.54-2.21,15.76,15.76,0,0,1,3.74.38,112.47,112.47,0,0,0,10.72-14.55c1.41-2.3,2.36-5,4.78-6.57.36-.24.49-.9.59-1.39a12.76,12.76,0,0,0,.2-1.95,36.27,36.27,0,0,1,8.27-20.8c1.39-1.74,2.8-3.47,4.3-5.1A7.19,7.19,0,0,1,1819,69c.81-.39,1.5.27,1.42,1.23,0,.13,0,.26,0,.39-.8,5-1.55,10.08-2.42,15.1-.29,1.66-1,3.26-1.38,4.89-.63,2.4-2.53,3.88-4,5.7-2.38,1.23-3.9,3.41-5.75,5.22-.53.53-1.29,1.31-1.84,1.23-1.58-.23-2.15.75-2.7,1.78a102.87,102.87,0,0,1-9.44,14A83.45,83.45,0,0,1,1776,135.37c-5.73,4.12-11.52,8.19-17.44,12a222.94,222.94,0,0,0-22.09,16.3,42,42,0,0,0-7.53,7.95,30.82,30.82,0,0,0-2.31,4.08,2.57,2.57,0,0,0-.15,1.51,1.34,1.34,0,0,0,.68.89,1.15,1.15,0,0,0,1-.18,37.26,37.26,0,0,1,6.78-6.5q13.07-9.69,26.19-19.32c2.84-2.1,5.74-4.11,8.56-6.24,7.84-5.93,14.9-12.75,22-19.49A63.22,63.22,0,0,0,1804,110.63c2.24-4.12,5-8,7.44-12A21.51,21.51,0,0,0,1812.56,96.23ZM1738,206.8c-1.62,1.15-2.85,2.52-2.76,5,.66-.16,1.4-.11,1.78-.46,2.14-1.9,5.09-1.46,7.44-2.69a1.87,1.87,0,0,1,1.15-.09c2.73.64,5.15-.28,8-1.67l-7.7-.36a1,1,0,0,0-.37.11c1.46-.78,2.87-1.69,4.39-2.32s3.4-1.08,5.74-1.81c-2.13-.51-3.57-1-5.15-.49a3.43,3.43,0,0,1,2.89-.75c4,.22,8.06.39,12.1.44,2.46,0,4.9-.16,7.39,0,8.2.66,16.42,1,24.62,1.51,3,.19,6,.55,9,.9a5.58,5.58,0,0,1,1.78.67.79.79,0,0,1,.24.67c0,.23-.19.59-.36.63a6.15,6.15,0,0,1-1.89.25c-2.86-.24-5.71-.59-8.58-.8-1.63-.12-3.28,0-4.92,0l0,.43,3.63,1.05a35.38,35.38,0,0,1-6.19-.89,45.8,45.8,0,0,0-12.85-.93c-1.81.14-3.63.07-5.45.09a4.45,4.45,0,0,0-3-.6c-4.26.42-8.52.76-12.78,1.17-.3,0-.58.33-1.29.76a7.54,7.54,0,0,0,2,.72c2.45,0,4.91,0,7.36,0-.46.62-.13,1,.46,1,2.58.35,5.2.54,7.77,1,7,1.23,13.9,2.49,20.81,3.9,10.9,2.22,21.89,3.82,32.93,5.13a105.06,105.06,0,0,0,12.9.86c10.58-.06,21.16-.3,31.73-.62a70.25,70.25,0,0,0,21.19-3.54c4.43-1.56,8.77-3.43,13-5.4a26.7,26.7,0,0,0,9.14-7.28,18.79,18.79,0,0,0,2.33-3.62,7,7,0,0,0-.54-7.43c-2.1-3.15-4.9-5.07-8.82-4.84-2.21.12-4.42.4-6.62.67-3.88.48-7.75,1.21-11.65,1.47a151,151,0,0,0-19.43,2.42,36.54,36.54,0,0,1-12.47.64c-2.07-.3-4.13-.63-6.2-1L1823.21,186c-.38-.07-.77-.13-1.16-.17-9.49-.91-19-1.91-28.48-2.7-7.29-.61-14.6-1.08-21.91-1.37a67.16,67.16,0,0,0-16,1,94.56,94.56,0,0,0-19.47,5.86c-.93.41-1.92.68-3.11,1.1l1.54,3.42a5.33,5.33,0,0,0,1-.38,27.55,27.55,0,0,1,14.49-5.41c5.2-.45,10.42-.7,15.63-1a6.09,6.09,0,0,1,1.45.28c-1,1.24-2.08,1-3.09,1-2.87.14-5.74.25-8.61.39a44.08,44.08,0,0,0-14.85,3.31,13.58,13.58,0,0,0-1.81,1.2l3.57.73a5.5,5.5,0,0,1-1.82.18c-1.68-.4-3,.39-4.22,1.24a1.64,1.64,0,0,0-.61,1.23c0,.78.44,1.46,1.43,1.35-1.33,2.12-1,4.36-.6,6.82l3.83-1.17c-1.06.86-2.13,1.71-3.17,2.59a4,4,0,0,0-.57.81l1,.44A1.64,1.64,0,0,0,1738,206.8Zm-45.76,27.47c-1.15-.09-2.26.15-2.3,1.48a3.72,3.72,0,0,1-1.06,2.4c-.29.36-.6,1.13-.43,1.35.94,1.22.14,2.26-.21,3.32-.49,1.48-1.23,2.88-1.68,4.38-1.74,5.75-3.49,11.51-5.08,17.31-.72,2.64-1.07,5.39-1.55,8.09-.11.6-.21,1.28.59,1.69,1-3.69,1.94-7.35,2.91-11,1.56-5.94,3.15-11.87,4.69-17.83.32-1.27.45-2.49,1.9-3.17.54-.25.87-1.26,1-2,.45-2,.77-4.11,1.14-6.17.7,1.56.06,3.08-.2,4.59-.75,4.37-1.56,8.72-2.34,13.08,1.91-4.75,3.77-9.49,4.41-14.59.1-.87.59-1.49,1.5-1.45s1.27-.2,1.41-.95c.31-1.5.56-3,.86-4.68C1694.59,231.32,1693.54,232.12,1692.2,234.27Zm-36.31-25.6c.76-.2,1.53-.34,2.26-.61,5.43-2,11.12-2.86,16.81-3.68,1.24-.18,2.6-.55,3.7.6a1.2,1.2,0,0,0,1,.29c1.35-.54,2.9-.74,4.31-2.25a23.36,23.36,0,0,1-2.72.25c-3.39-.14-6.77-.42-10.16-.49a64.36,64.36,0,0,0-16,1.5,42.39,42.39,0,0,0-16.08,6.92c-.42.31-.87.58-1.31.87a69.07,69.07,0,0,0-20.71,20.53c-3.29,5.18-6.77,10.23-10.09,15.38-2.2,3.41-4.24,6.92-5,11a14.16,14.16,0,0,0,0,2.11,13.85,13.85,0,0,0,5.62-5.16,2.11,2.11,0,0,0,.36-1.49c-.46-1.86.42-3.34,1.3-4.76,2.27-3.66,4.52-7.34,7-10.84,2.72-3.83,5.65-7.52,8.6-11.18,1.55-1.91,3.35-3.62,5-5.43l-.15,1.39a11.39,11.39,0,0,0,1.39-.82,63,63,0,0,1,11.52-7.34Q1649.3,212.09,1655.89,208.67Zm-23.35-68.24a6.42,6.42,0,0,0-.72-1.64c-3.08-3.52-6.18-7-9.35-10.47-1.49-1.62-3.13-3.11-4.72-4.64a2.15,2.15,0,0,0-2.06-.84c-.92-.89-1.85-1.77-2.76-2.67a24.24,24.24,0,0,0-2.52-2.45,48.57,48.57,0,0,0-10-5.39,1.9,1.9,0,0,0-1.14-.14c-.31.09-.76.47-.75.72a5.34,5.34,0,0,0,.41,1.88c2.72,6.62,6.49,12.46,12.29,16.87,3.73,2.84,7.34,5.85,10.94,8.86,5.51,4.61,11,9.18,17.29,12.76,3.28,1.88,6.48,3.91,9.71,5.87.53.32,1,.94,1.89.57-.54-.6-1-1.16-1.53-1.69-2.27-2.34-4.6-4.63-6.81-7a74.07,74.07,0,0,0-9.27-9C1633,141.7,1632.85,141,1632.54,140.43Zm122.26,96.76c.5.39,1.3.68,1.47,1.18.85,2.57,2.76,4.38,4.39,6.38a72.25,72.25,0,0,1,12.83,22.66,113.59,113.59,0,0,0,10.06,21.15,130,130,0,0,0,16.29,21.91,3.23,3.23,0,0,1,.69,4.11,30.3,30.3,0,0,1-2.19-2.2c-1.56-1.94-3-4-4.56-5.89a142.74,142.74,0,0,1-15.31-22.76,190.59,190.59,0,0,0-10.33-17.12c-1.34-1.94-2.7-3.86-4-5.81-2.19-3.25-4.26-6.58-6.56-9.76a116.11,116.11,0,0,1-8.5-12.7,23.34,23.34,0,0,0-7.77-8.15c-1.16-.79-2.23-1.79-3.93-1.29-.62.18-1.5-.3-2.18-.65a52.36,52.36,0,0,1-4.68-2.63c-1.15-.75-2.35-.84-4.21-.84,1.07.91,1.73,1.5,2.41,2.05a107.51,107.51,0,0,1,17.73,18.26,240.75,240.75,0,0,1,22.69,36.18c4.21,8.12,8.66,16.13,13,24.19a4.63,4.63,0,0,1,.6,1.42,1.08,1.08,0,0,1-.45.92,1.12,1.12,0,0,1-1-.08,34.87,34.87,0,0,1-3.13-4.47q-5.47-10.2-10.76-20.5A226.66,226.66,0,0,0,1742,243.16a93.55,93.55,0,0,0-15.09-14.81c-.5-.39-1-.91-1.87-.51.69.66,1.31,1.3,2,1.88a112.78,112.78,0,0,1,15.5,16.6c9.24,12,16.3,25.25,23,38.72a5.31,5.31,0,0,1,.66,1.83,2,2,0,0,1-.64,1.26c-.13.12-.79-.08-1-.31a9.31,9.31,0,0,1-1-1.66c-2.94-5.55-5.85-11.11-8.79-16.65a15.4,15.4,0,0,0-2.52-3.42,36.57,36.57,0,0,1-3.69-5.49c-.27-.42-.23-1.08-.56-1.4-2.36-2.32-3.69-5.38-5.77-7.88-1.57-1.89-2.47-4.3-4.52-5.78a8.24,8.24,0,0,0-2.11-.64c.57,1,.85,1.58,1.22,2.1a98.89,98.89,0,0,1,7.83,13.13,103.38,103.38,0,0,0,6,10.07,13,13,0,0,1,1,1.67,5.31,5.31,0,0,1,.69,2.21,12.64,12.64,0,0,0,1.81,6.34c3.32,6.65,6,13.58,10,19.95a33.07,33.07,0,0,0,10.71,11.19,15,15,0,0,0,1.87.74c-.82-1.71-1.34-2.89-2-4-1.48-2.77-3-5.51-4.49-8.27a7,7,0,0,1-.6-1.44c-.06-.2,0-.61.19-.68.32-.16.9-.33,1-.18a12,12,0,0,1,1.93,2.4q3.5,6.36,6.85,12.79a5.79,5.79,0,0,0,2.52,2.9,19.87,19.87,0,0,0,4,1.37c1.36.32,2.43,1.86,4,2.16l.38.09c.95.3.83-.63,1.22-1.14.92.74,1.79,1.48,2.71,2.16.41.3,1,.78,1.35.67,1.61-.48,2.73.59,4,1.06,1.46.54,3.12-.11,4.53.82.32.21.93,0,1.55-.09l-.73-2.42c2.37,1.34,4.7,2.8,7.93,2.38-.35-1.25-.58-2.38-1-3.44-.83-2.2-1.76-4.36-2.62-6.55-2.55-6.47-5.4-12.76-10.57-17.67-.61-.57-.61-1.46,0-1.65a1.84,1.84,0,0,1,1.43.05,15.75,15.75,0,0,1,2.24,2.16,32.67,32.67,0,0,1,5.58,8.49c2.35,5.38,4.53,10.84,6.8,16.26.34.81.78,1.58,1.27,2.58,1.4-.91,3.24.76,4.22-1.27l2.61.4c-.93-2.21-1.82-4.08-2.5-6-1.08-3.08-2-6.21-3-9.32-1.57-4.85-2.85-9.81-4.79-14.5a177,177,0,0,0-12.79-24.68A179.19,179.19,0,0,0,1786.51,249a100.3,100.3,0,0,0-20.07-19.13q-5.6-4-11.07-8.09a42.88,42.88,0,0,0-8-4.88c-1.42-.65-3.08-1.09-4.16-2.12-1.4-1.32-2.73-1.21-4.29-.83-1.35.33-2.81.35-4.19,1.67l5.07,1.49a23.64,23.64,0,0,1-4.15-.4c-1.38-.13-2.94-1.32-4.25.41l14.45,7c.07.77.12,1.41.18,2.06-1.1-.68-2.25-1.29-3.3-2-3.34-2.41-7.23-3.58-11.06-4.85a2.58,2.58,0,0,0-3.47,1.33l3.45,1.75a69.18,69.18,0,0,1,15.11,9.69,77.65,77.65,0,0,0,6.58,4.92C1753.69,237.2,1754.3,237.12,1754.8,237.19ZM1612.6,177.1l-1.07,1.15c3.2.46,6.31.76,9.37,1.36,10.11,2,20.2,4,30.29,6.09a3,3,0,0,1,1.74.73c1,1.16,2.26,1.15,3.52,1.4,4.86,1,9.72,1.95,14.58,2.92,1.13.22,2.27.38,3.41.56a63.52,63.52,0,0,0-7.83-3.53q-8.92-3.45-17.88-6.83a10,10,0,0,0-3.77-.86,15,15,0,0,1-5.68-1.16c-3.08-1-6.19-2-9.53-1.69-.2-.44-.31-1.16-.62-1.25a23.38,23.38,0,0,0-4.56-1.06,97,97,0,0,0-19.57-.43q-14.43,1.44-28.88,2.75c-2.6.23-5.22.21-7.83.25a2.62,2.62,0,0,1-2.42-1,1.58,1.58,0,0,1-.08-1.08.72.72,0,0,1,.57-.4,43,43,0,0,0,5.06.22c8.86-.69,17.73-1.27,26.55-2.3a106.69,106.69,0,0,1,37,1.61,181.39,181.39,0,0,1,19.08,5.91c4.44,1.56,8.75,3.46,13.12,5.2a4.91,4.91,0,0,0,3.23.5c-1.4-.76-2.27-1.33-3.22-1.73-3.24-1.39-6.49-2.77-9.77-4.07a121,121,0,0,0-18.69-5.88c-3.19-.7-6.37-1.48-9.51-2.4a101.32,101.32,0,0,0-39.62-3c-4,.44-8.06.78-12.1,1.11-7,.56-14.08,1.07-21.11,1.63a55.42,55.42,0,0,1-23.89-3.28c-5.76-2.12-11.62-4-17.44-5.93a18.12,18.12,0,0,0-1.91-.4,3.64,3.64,0,0,0,1.2,3,110,110,0,0,0,15.55,16,5.78,5.78,0,0,0,2.8,1.24c3.35.61,6.67,1.33,10,2,1,.21,2,.48,2.94.73a12,12,0,0,1-4.32-.35c-1.28-.26-2.56-.53-3.85-.76a12.08,12.08,0,0,0-4.54-.5,38.37,38.37,0,0,0,7.71,5.53,2.53,2.53,0,0,1,3-1c5.63,1.71,11.27,3.41,17,4.77a365.38,365.38,0,0,0,39,6.72,162,162,0,0,0,23.08,1.19c9-.15,18-.36,27.06-.4,6,0,12,0,18-1.15a20.46,20.46,0,0,1,5.85-.1c3.34.36,6.64,1,10.17,1.51.15-1.21.29-2.3.45-3.6l-6.39.93,3.46-1.72c-1.26-.55-2.08-.93-2.93-1.27a17.63,17.63,0,0,0-1.86-.62c-9.49-2.5-19-4.88-28.88-5.18-8-.24-15.93-.54-23.9-.61-8.5-.08-17,.14-25.49.1a73.31,73.31,0,0,1-23.46-4.14c-11.38-3.89-22.81-7.61-34.77-9.4a.74.74,0,0,1-.37-.12c-.26-.25-.67-.51-.68-.78s.39-.78.63-.79a13.9,13.9,0,0,1,3.87.06c6.35,1.57,12.68,3.16,19,4.95a74,74,0,0,0,11.81,2.79c4.16.47,8.34.79,12.47,1.43,3,.46,5.86.9,8.88,0,1.3-.38.09.83.42,1.29,15.18,1.36,30.41,2.86,45.77,2.57a24.47,24.47,0,0,0-5.28-1.43c-1.8-.25-3.69,0-5.45-.35s-3.63-1.41-5.5-1.84c-3.06-.71-6.16-1.2-9.26-1.73a95.69,95.69,0,0,0-18.36-1.36c-3.51.09-7.07.14-10.43,1.48a2.27,2.27,0,0,1-1.13.1.91.91,0,0,1-.55-.49c-.11-.2-.17-.59,0-.71a4.06,4.06,0,0,1,1.49-1.16,35.43,35.43,0,0,1,5.36-1.11c2.47-.24,5-.24,7.44-.34Zm-15.46-76.71c-.33.35-1,.7-1,1a31.48,31.48,0,0,0,1.35,8.43c3.46-.64,5.85,1.92,9.13,2.46l-1.49-3a20.66,20.66,0,0,1,1.92,1.94,29.48,29.48,0,0,0,6,5.64c2.47,1.92,4.87,4,7.14,6.1,5.34,5,10.06,10.63,14.88,16.14,3.87,4.42,7.55,9,12.21,12.71,1.87,1.48,4.2,2.65,4.76,5.37.09.44.68.77,1.06,1.14.93.91,1.9,1.79,2.81,2.73.35.35.91.88.84,1.21-.28,1.29.33,1.9,1.33,2.46,6.94,3.9,14.21,7.23,20.91,11.57a3.84,3.84,0,0,0,4.66-.36c1.95,2.63,3.95,5,7.89,5.26a14,14,0,0,0-1.14-1.89c-2.52-2.83-5-5.71-7.64-8.43q-14.91-15.3-30.91-29.5c-5.47-4.85-10.87-9.83-17.6-13-.75-.36-1.8-.71-1.59-1.93.13-.75,1.24-.76,2.74,0A59.14,59.14,0,0,1,1648,135c12.94,11.24,25.43,22.95,37.32,35.29,2.54,2.63,5,5.35,7.5,8.08a13.82,13.82,0,0,1,1.14-1.15c.37-.3,1.12-.5,1.16-.81a2.93,2.93,0,0,0-.46-1.78c-1.37-2.07-2.78-4.12-4.25-6.12A107,107,0,0,0,1665.3,144a201,201,0,0,1-21.63-16.85,38.47,38.47,0,0,0-6.69-4.76c-6-3.5-11.91-7-17.79-10.7-4-2.5-7.3-5.93-10.63-9.25a14.27,14.27,0,0,1-1.65-2.19.87.87,0,0,1,.22-1.34,1.12,1.12,0,0,1,1,.1,21.71,21.71,0,0,1,1.6,1.72,58.83,58.83,0,0,0,10.87,9.56,283.9,283.9,0,0,0,26.81,15.45,79.7,79.7,0,0,1,24.47,18.62c3.11,3.53,6.29,7,9.45,10.48,1.67,1.84,3.35,3.66,5.06,5.47.31.32.55,1,1.4.47a15.16,15.16,0,0,0-.94-2c-3.13-5-6.08-10.09-9.5-14.86-5.45-7.57-11.79-14.37-19.65-19.53-3.46-2.27-6.9-4.78-11.32-5-.26,0-.61-.48-.7-.8-.17-.6.24-1,.76-1.17a5.56,5.56,0,0,1,4.17.56,55.86,55.86,0,0,1,10.84,6.24,84.52,84.52,0,0,1,17.43,17.95,148,148,0,0,1,12.88,21.05,7.83,7.83,0,0,0,2.41,3.47,27.88,27.88,0,0,0-.49-3.55,107.16,107.16,0,0,0-6-16.58q-4.07-8.7-8.22-17.36a11.24,11.24,0,0,0-1.78-3,36,36,0,0,0-8.11-6.74,130.9,130.9,0,0,0-23.91-10.75c-8.49-2.8-16.65-6.23-23.69-11.89-.31-.25-.67-.42-1-.65a93.23,93.23,0,0,0-18-10.36,20,20,0,0,0-3.75-1.12,1.79,1.79,0,0,0-2,1,4.87,4.87,0,0,0-.67,1.4C1595.66,91.49,1595.12,96,1597.14,100.39Zm94.74,121.37c.17-1.11.33-2.23.5-3.33a27.76,27.76,0,0,1-7.06-8.1c-4.35,3.28-8.63,6.33-12.24,10.06-4.23,4.36-9.24,7.67-13.83,11.53a22.13,22.13,0,0,1-3.83,2.71,42.62,42.62,0,0,0-9.36,7c-5,4.84-9.68,9.92-12.86,16.19a1.89,1.89,0,0,1-.43.65c-.18.15-.56.29-.7.2s-.72-.64-.66-.79a29.84,29.84,0,0,1,2.32-4.91,56.31,56.31,0,0,1,8.43-10.29c5-4.63,9.87-9.36,15-13.79a120.51,120.51,0,0,1,11.88-9c3.38-2.24,6.68-4.56,9.86-7.07a20.26,20.26,0,0,0,3.86-4.37c.29-.39.84-1.1-.18-1.77a51.11,51.11,0,0,0-10.1,4.84q-6.32,3.93-12.51,8.09a114.81,114.81,0,0,0-21.08,18.09c-2.56,2.81-4.93,5.76-6.12,9.47a1.53,1.53,0,0,1-.39.66c-.17.16-.5.35-.65.28-.31-.14-.76-.41-.79-.67a3.57,3.57,0,0,1,.1-1.9,32.15,32.15,0,0,1,2.58-4.81,66.31,66.31,0,0,1,11.47-12.31c3.68-3.14,7.53-6.06,11.28-9.12.48-.4,1.52-.58,1.06-1.83-3.92,1.57-7.6,3.51-11.31,5.36a68,68,0,0,0-21.29,17.05,88.14,88.14,0,0,0-5.14,7.37,5.8,5.8,0,0,1-.67.93.84.84,0,0,1-.71.22c-.31-.16-.77-.47-.78-.74a3.82,3.82,0,0,1,.35-1.87,45.76,45.76,0,0,1,2.78-4.26,73.35,73.35,0,0,1,27.79-22.44c7-3.34,13.84-6.8,20.75-10.23.86-.43,1.66-1,2.65-1.59-.53-.18-.78-.37-1-.33-4.78.78-9.58,1.63-14,3.72-6.13,2.93-12.18,6-18.18,9.22A35.26,35.26,0,0,0,1633,224a91.4,91.4,0,0,0-22.39,27.48c-.54,1-1.31,2.05,0,3.09.07.05-.34.62-.41,1-.1.58-.11,1.17-.17,1.94,1.2-.19,2.1-.39,3-.46,2.21-.16,4.43-.28,6.65-.38a1.46,1.46,0,0,1,1.54.95c.19.49-.41.95-1.34,1-.66,0-1.32-.12-2,0a69.14,69.14,0,0,0-7.35,1,13.13,13.13,0,0,0-7,4,3.72,3.72,0,0,0-1.17,2.35,10.16,10.16,0,0,0,1.3,3.63c.66,1.24,1,1.36,3.21,2.23-.2-.75-.35-1.33-.52-1.9a34.06,34.06,0,0,1-.93-3.39,1.55,1.55,0,0,1,.57-1.29c.53-.33.91.17,1.11.68a6.1,6.1,0,0,1,.36,1.12c.62,3.1,3.19,4.86,4.94,7.18.1.13.44.07.95.14-.18-.67-.32-1.26-.5-1.83-.35-1.12-.8-2.22-1-3.37-.07-.35.38-.82.59-1.24.4.26,1,.44,1.15.8.46.94.69,2,1.1,2.94.26.61.25,1.53,1.27,1.6,1-1.66-.64-3-.47-4.52.64-.8,1.83-.9,2.2-2.08a2.17,2.17,0,0,1,2.53-1.41c1.16.17,1.07,1.31,1.36,2.14,1.08,3.08,2.1,6.18,3.31,9.21.64,1.62,1.07,1.64,3.54,1-.63-1.44-1.28-2.86-1.83-4.31a.79.79,0,0,1,1.39-.7c.84,1.31,1.57,2.7,2.37,4a1.63,1.63,0,0,0,2.82-1.55c-1-4.82-2.86-9.22-6.39-12.79a14.89,14.89,0,0,1-1.47-1.79c-.09-.13,0-.52.15-.69s.48-.36.65-.3a3,3,0,0,1,1.34.7c1.49,1.8,3,3.62,4.34,5.53a41.1,41.1,0,0,1,2.14,3.75l1.45-1.06c-.06,1.68-1.37,3.18-.31,4.85,1.51-.74.94-2.92,3-3.3-.26,1-.5,1.81-.69,2.65-.13.63-.29,1.3.58,1.83,8.14-3,15-8.07,21.41-13.94,2.31-2.12,4.51-4.36,6.77-6.53,6.14-5.87,12.33-11.69,18.4-17.63a60.08,60.08,0,0,1,7.78-6.55c2.34-1.65,4.48-3.59,6.66-5.45a8.08,8.08,0,0,0,1.08-1.44c-2-1.62-3.78-2.68-6.08-1.28C1693.16,220.46,1692.55,221.73,1691.88,221.76ZM1735,185.54a18.12,18.12,0,0,0,2.52-.91c2.36-1.4,4.71-2.82,7-4.33,2.93-2,5.75-4.08,8.71-6,7.93-5.16,16.28-9.39,25.68-11.28a54.3,54.3,0,0,0,7.44-2.43c2.83-1,5.61-2.15,8.42-3.2,7.59-2.83,15.23-5.49,22.22-9.73a63.76,63.76,0,0,0,11.1-8.65c3.38-3.25,3.84-7,2.08-11.1-2.27-5.33-6-8.7-12.13-8.93a40.22,40.22,0,0,0-13.15,1.56c-.88.26-1.79.89-2.6.76-2.34-.35-3.56,1-4.85,2.52-1.17,1.4-2.55,2.63-3.8,4-.31.33-.93.57-.47,1.44.54-.06,1.15-.1,1.76-.2,2.7-.48,5.39-1,8.1-1.45a7.78,7.78,0,0,1,2.31,0,1,1,0,0,1,.65.79,1.36,1.36,0,0,1-.54.93,2.63,2.63,0,0,1-1.09.39c-4.62.87-9.23,1.8-13.87,2.53a5.39,5.39,0,0,0-3.08,1.41c-2.38,2.25-4.81,4.43-7.21,6.65-.35.33-.83.68-.27,1.36,1.4-.61,2.86-1.16,4.25-1.86a20.8,20.8,0,0,1,7.87-2.24,28.3,28.3,0,0,0,8.32-2.12c4.72-1.91,9.39-3.94,14.09-5.89,1.31-.54,2.51-1.42,4-1.41.82,1.19,0,1.75-.84,2.14-4.17,1.86-8.34,3.74-12.55,5.5-4.7,2-9.61,3.41-13.94,6.2a12.35,12.35,0,0,1-2.86,1.25c-2.86.94-5.71,1.87-8.61,2.67a45.54,45.54,0,0,0-13.62,5.88c-7.45,5.07-14.67,10.48-22,15.76-.25.18-.37.54-1,1.52a90,90,0,0,0,8.86-5.51c-.29,1.4-1,2.74-.69,3.85.36,1.53-.24,2.14-1.31,2.82-1.52,1-3,2-4.59,3.09l1.11,1.4c-2.11,1.32-4.22,2.61-6.3,3.93a12.75,12.75,0,0,0-4.22,4A14.28,14.28,0,0,0,1735,185.54ZM1676.43,54.36a11.74,11.74,0,0,0-.06,1.61,142.83,142.83,0,0,1,.57,20,70.77,70.77,0,0,0,2.35,19.78c1.89,7.24,4.93,14,7.77,20.92a217.82,217.82,0,0,1,7.84,21.32c2,6.88,3.77,13.87,5.69,20.79.31,1.1.13,2.46,1.49,3.31,0-.64.05-1.15,0-1.65-.42-5.6-.88-11.2-1.27-16.8-.51-7.43-1.23-14.84-.81-22.3a243,243,0,0,1,2.7-24.53,157.7,157.7,0,0,0,2.13-18.65,3.07,3.07,0,0,0-.5-1.8c-2.45-3.37-4.86-6.79-7.51-10a106.8,106.8,0,0,0-13.32-13.24,54.38,54.38,0,0,0-6.08-4.28,6.14,6.14,0,0,0-2.15-.42,3.26,3.26,0,0,0,1.78,3.39,110.87,110.87,0,0,1,9.24,6.55,80,80,0,0,1,12,12.33c1.88,2.33,3.49,4.89,5.18,7.37a3,3,0,0,1,.51,1.44c0,.3-.32.67-.59.9a.74.74,0,0,1-.72,0,4.32,4.32,0,0,1-1.12-1c-.81-1.19-1.48-2.47-2.32-3.64a95.48,95.48,0,0,0-15.16-16.34,69.16,69.16,0,0,0-6.39-4.51A6.38,6.38,0,0,0,1676.43,54.36Zm35,115.62-.49-.5a34.67,34.67,0,0,0-3.15,1.46c-2.69,1.6-5.66,2.76-7.93,5a46.77,46.77,0,0,0-12.15,19.86c-2.54,8.52-.47,16,7.6,21.07a27.86,27.86,0,0,0,12.31,4.7c2.73.26,5.39,1,8.12-.05a4.54,4.54,0,0,1,2.32-.11,7.31,7.31,0,0,0,4.86-1.07,21.41,21.41,0,0,0,5.74-4.68c5.5-5.78,5.5-12.65,4-19.81a7,7,0,0,0-1.17-1.93c-1.38.52-1-.41-1-1.16a6.27,6.27,0,0,0-.18-2.3,62,62,0,0,0-5-9.56,13.88,13.88,0,0,0-1.38,1.58c-2,3.22-4,6.45-5.87,9.72a51,51,0,0,0-5.07,11.86c-.34,1.19-.27,2.76-1.93,3.1-.86.18-1-1.4-.26-3.81a194.76,194.76,0,0,1,7.28-19.43c.86-2.05,2-4,3-6a1.73,1.73,0,0,0-.27-1.36c-.15-.24-.83-.46-1-.33a4.46,4.46,0,0,1-3,.66,2,2,0,0,0-1.35.67,25.53,25.53,0,0,0-2.62,3.84c-.89,1.69-1.53,3.52-2.38,5.55-.17-.9-.29-1.5-.45-2.33a65,65,0,0,0-5,10.71c-.47,1.14-.62,2.65-2.2,2.93-.86.15-.89-1.42,0-3.82,2.86-7.34,6.37-14.31,11.54-20.35.31-.37.82-.72.42-1.43a11.19,11.19,0,0,1-2.75,1,5.29,5.29,0,0,0-3.41,1.69,32.82,32.82,0,0,0-3.52,3.66c-1.64,2.2-3,4.55-4.58,6.83a19.11,19.11,0,0,1-1.59,2.19,1.08,1.08,0,0,1-1,.06,1.54,1.54,0,0,1-.53-.92,1.22,1.22,0,0,1,.21-.73c3.1-5.47,6.32-10.84,11.67-14.52A21.2,21.2,0,0,0,1711.41,170Zm-10.21,1.55c-1.13-4.76-2.14-9.07-3.19-13.38a229,229,0,0,0-7.46-26q-4.3-11.58-9.08-23a83.51,83.51,0,0,1-6.81-37.47,79.78,79.78,0,0,0-2-23,16.92,16.92,0,0,0-6.21-9.25,9.28,9.28,0,0,0-1.62-.86,4.49,4.49,0,0,0,.94,2.2,24.08,24.08,0,0,1,3.63,8.2,33.13,33.13,0,0,1,.26,13.63c-.38,2.32-.94,4.62-1.25,7a81.82,81.82,0,0,0-.93,14.84,71.09,71.09,0,0,0,4.8,21.74c4.79,12.6,10.34,24.86,16.29,37,4.06,8.25,7.24,16.79,8.53,26a29.42,29.42,0,0,0,.81,3.43c0,.18.37.29.89.67Zm73,143.12-.32.43c.69.78,1.31,1.63,2.06,2.34a162,162,0,0,0,15.3,12.87c.42.3.9.53,1.33.82,5.42,3.59,11.47,5.64,17.66,7.37a57.79,57.79,0,0,0,16.26,2.15c5.18,0,8.66-2.34,11.43-6.33a2.73,2.73,0,0,0,.42-.66,5,5,0,0,0,.35-1.5,5.76,5.76,0,0,0-4-5.26c-1.24-.4-2.54-.64-3.77-1.08a15.87,15.87,0,0,0-6.57-.65c-4.69.32-9.38.76-14.08.82a55.42,55.42,0,0,1-10.13-.76,65.16,65.16,0,0,1-18.41-6.54C1779.14,317.39,1776.66,316,1774.15,314.65Zm11.93-191.59c-6.07.82-11.33,1.62-16.38,3.46-3.55,1.3-7.13,2.54-10.7,3.78a34,34,0,0,0-13.94,9.15c-1.24,1.34-2.51,2.66-3.69,4.05a60.48,60.48,0,0,0-6.21,8.35,26.23,26.23,0,0,0,3.52-2.45,82.28,82.28,0,0,1,23.39-13.28,8.38,8.38,0,0,1,1.86-.54,1.1,1.1,0,0,1,.86.61c.11.29,0,.91-.24,1-1.49.79-3,1.5-4.57,2.19a122.5,122.5,0,0,0-14.18,7.42c-3.32,2-5.45,5.17-8.07,7.85a1.52,1.52,0,0,0-.4,1.07,3.23,3.23,0,0,1-1.68,3.17,22.07,22.07,0,0,0-3.42,3.21,12.63,12.63,0,0,0-3,4.72,4.16,4.16,0,0,0,.9-.43,154.83,154.83,0,0,1,21.4-17.07c7-4.82,14.07-9.49,21.05-14.32A75.65,75.65,0,0,0,1786.08,123.06Zm-75.61-21.53-.83-.11c-.31,1.51-.73,3-.91,4.55a206.09,206.09,0,0,0-2,22.21c-.13,10-.43,20.09.27,30.12.19,2.72.65,5.42,1,8.13a.73.73,0,0,0,.56.4c.19,0,.54-.22.56-.38.19-1.42.19-2.88.49-4.27.49-2.29,1.15-4.54,1.77-6.81q3.09-11.33,6.2-22.65a8.2,8.2,0,0,0,.33-1.53c0-.36,0-.91-.22-1.09-1.83-1.5-1.82-3.7-2.24-5.7-1.28-6-2.44-12-3.69-18C1711.44,104.74,1710.92,103.14,1710.47,101.53ZM1698.17,40a10.52,10.52,0,0,0,1.68,4.93c3.06,6,5.5,12.14,6.32,18.85.32,2.59.65,5.19.86,7.79a65.32,65.32,0,0,1-.51,14.85c-.8,5.43-1.73,10.84-2.39,16.28q-1.08,8.94-1.75,17.94c-.57,7.71.23,15.4.81,23.08,0,.74.2,1.48.31,2.21a9,9,0,0,0,.7-3.49c.11-4.44.23-8.88.26-13.32a160.82,160.82,0,0,1,2.79-28c1.29-7.07,2.61-14.13,3.82-21.21a69.2,69.2,0,0,0,.76-18.74c-.6-5.81-2.73-10.84-7.18-14.78-1.17-1-2.2-2.24-3.31-3.35C1700.53,42.17,1699.68,41.4,1698.17,40Zm10.18,185.35c.15,1.4.39,2.82.43,4.24a18.51,18.51,0,0,1-.29,3.48c0,.21-.59.41-.93.47a.71.71,0,0,1-.59-.39,10.82,10.82,0,0,1-.39-1.88c-.22-1.67-.37-3.36-.62-5a2.81,2.81,0,0,0-.59-1.43,2.13,2.13,0,0,0-1.3-.6,1.13,1.13,0,0,0-.87.63,15.79,15.79,0,0,0-.77,3.42c-.37,6.29-.19,12.52,1.75,18.62,1.82,5.72,3.47,11.5,5.22,17.25a14.08,14.08,0,0,0,.82,1.77c.34-.45.58-.62.62-.83a96.06,96.06,0,0,1,3.4-14.09,3.42,3.42,0,0,0,.09-2.27c-.89-2-.77-4.09-.9-6.16-.26-4.3-.16-8.63-1-12.87a16,16,0,0,0-1-3.35A2,2,0,0,0,1708.35,225.32ZM1739.8,50.87c-.86,4.19-1.74,7.87-2.36,11.6-1.62,9.93-3.15,19.88-6.16,29.52-.51,1.62-.83,3.3-1.26,4.94-1.7,6.44-3.17,13-5.15,19.32-4.48,14.35-8.45,28.84-12.33,43.36-.37,1.38-.58,2.81-.82,4.23-.08.51,0,1,.93.85.21-.82.42-1.7.66-2.58,2.23-7.92,4.43-15.85,6.7-23.76,2.68-9.29,5.45-18.55,8.13-27.84,1.38-4.78,2.59-9.59,4-14.37a146.36,146.36,0,0,0,4.15-17.53c.41-2.58,1.07-5.12,1.48-7.7.51-3.2,1.49-6.08,4.44-7.88a1.48,1.48,0,0,0,.29-.27,6.46,6.46,0,0,0,.22-9.17C1741.92,52.73,1741,52,1739.8,50.87Zm42.93,29.74a8.12,8.12,0,0,0-2.1,3.35,118.86,118.86,0,0,1-14.84,24.85c-7,8.81-14.41,17.25-21.85,25.67-4.5,5.1-8.93,10.26-13.2,15.54a89.29,89.29,0,0,0-9.36,13.53,44.88,44.88,0,0,0-2.33,5.37,4.92,4.92,0,0,0-.08,1.92c0,.21.28.55.45.56s.85,0,1-.24c.81-1.49,1.51-3,2.28-4.55,5.93-11.62,14.26-21.52,22.66-31.37,2.2-2.57,4.63-5,7-7.38,8.38-8.52,15.36-18.14,22.41-27.73A44.39,44.39,0,0,0,1782.73,80.61ZM1607.92,203.28c-.07-.18-.13-.37-.19-.56-2.59-.28-5.19-.49-7.76-.84-6.2-.85-12.41-1.68-18.59-2.69-5.66-.92-11.32-1.92-16.91-3.17-6-1.34-11.88-3-17.82-4.54a19,19,0,0,0-2.51-.22c2.22,2,4.47,2.75,6.53,3.79a68.05,68.05,0,0,0,26.09,7.69c2.47.18,4.93.45,7.4.54,6,.21,12,.38,18,.45C1604.06,203.76,1606,203.44,1607.92,203.28Zm96,67.74c.26,1.26.48,2.52.78,3.76,1.36,5.58,2.8,11.15,4.1,16.74q3,12.81,7.18,25.24a64.24,64.24,0,0,0,3.5,8.3,44.69,44.69,0,0,0,9.11,12.66c.49.47.94,1.37,2.1.84-.93-1.44-1.86-2.86-2.77-4.28s-1.94-2.8-2.75-4.29a126.85,126.85,0,0,1-12.91-33.11c-1.42-6.37-3.22-12.65-4.92-19C1706.67,275.42,1705.88,272.93,1703.93,271Zm13.64,33.64-.64.35c.29,1.1.49,2.24.88,3.31A116.81,116.81,0,0,0,1731,334.94c1.4,2,3.06,3.92,3.74,6.39a1.78,1.78,0,0,0,1,1.1c1.82.59,3.51,1.62,6,1.88-.91-1.3-1.55-2.25-2.22-3.18-1.37-1.91-2.77-3.8-4.13-5.71s-2.74-3.83-4.07-5.77c-4.07-5.92-8.09-11.88-10.92-18.55C1719.48,308.94,1718.51,306.81,1717.57,304.66Zm-17.25-61.16c-.27.65-.46.88-.46,1.11a96.83,96.83,0,0,0,1.75,15.92,7.59,7.59,0,0,0,1.43,3.14,45.47,45.47,0,0,1,3.26,5.31c.8,1.47,1.43,3,2.19,4.67.24-.37.52-.63.48-.79C1706.14,263.18,1703.28,253.51,1700.32,243.5Zm20.86-98.62c-.56.39-.72.44-.75.53q-3,10.89-6,21.79a1.35,1.35,0,0,0,.17.73c0,.08.21.13.32.14s.3,0,.33,0a5.67,5.67,0,0,0,.7-1.36,58.4,58.4,0,0,1,4.55-11.18c.63-1.28,1.28-2.55,1.94-3.82a2.73,2.73,0,0,0,.21-2.59C1722.11,147.8,1721.72,146.43,1721.18,144.88ZM1789.47,62a26.1,26.1,0,0,0-2.19,2c-2.72,3.1-3.9,7-5.2,10.76-.45,1.32-.2,2.49.35,2.39a4.34,4.34,0,0,0,2-.89,6.7,6.7,0,0,0,1.59-2.17c1.25-2.7,2.45-5.42,3.54-8.18A4.61,4.61,0,0,0,1789.47,62ZM1661.19,351.21a146.31,146.31,0,0,0,7-17.25,2.83,2.83,0,0,0,.17-1.88c-.93-2.09-.17-4.09.09-6.14.11-.88.8-1.74-.11-3C1666.67,332.71,1663.8,341.87,1661.19,351.21ZM1716,242.31c1.87-5.3,1-10.64.67-15.95a1.2,1.2,0,0,0-.67-.89,10.72,10.72,0,0,0-2.11,0C1715.33,231.17,1715.39,236.77,1716,242.31ZM1688,265.78l-.32-.06c-.93,2.56-1.79,5.15-2.8,7.67a14.17,14.17,0,0,1-2.32,4.45c-1.4,1.49-1.64,3.19-2,5a.81.81,0,0,0,.83,1.05,2.74,2.74,0,0,0,1.27-.57c.18-.12.23-.46.31-.7,1.48-4.73,3-9.44,4.44-14.17C1687.74,267.55,1687.85,266.65,1688,265.78Zm35.16-36.25c-.31.13-.47.16-.53.25s0,.25.09.34c3.71,4.94,8.42,8.88,12.93,13,.16.15.61,0,1.25,0A91.55,91.55,0,0,0,1723.19,229.53Zm-50.59,72.55c1.68-5.71,3.37-11.41,5-17.13a32.65,32.65,0,0,0,.86-3.8c.1-.62-.13-1.25-1.27-1.08C1675.56,287.33,1673.61,294.59,1672.6,302.08Zm8.85-124.18c2.22,2.66,4.35,5.23,6.52,7.75a1,1,0,0,0,1,0c.24-.22.26-.68.34-1a.51.51,0,0,0-.14-.36c-1.46-1.66-2.82-3.42-4.43-4.92C1683.93,178.61,1683.07,177.57,1681.45,177.9Zm-60.25,97.83.72-.41c-.85-2.65-1.68-5.31-2.57-7.95-.09-.27-.55-.41-.89-.64a4,4,0,0,0-.06,4.44C1619.31,272.7,1620.27,274.21,1621.2,275.73Z"/><path d="M1506.8,360.6l6.78,1.88c.76.21,1.52.42,2.28.57s1.31.24,1.67-.55-.17-1.35-1.24-1.59a49.06,49.06,0,0,1-7.22-1.93c.86.08,1.72.14,2.57.27s1.79.39,2.69.53,2.06.25,3.09.35c.07,0,.24-.17.23-.25s-.1-.61-.21-.63q-9.8-2-19.6-3.9c-1.15-.22-2.34-.33-3.48-.62-4.85-1.22-9.82-1.37-14.77-1.73a37.2,37.2,0,0,0-17.19,3.21c-3.49,1.46-6.88,3.14-10.57,4.83,1.35,1.16,2.67,2.18,3.85,3.34a78.54,78.54,0,0,0,12.15,9.25,35.39,35.39,0,0,0,22.34,5.85c1.57-.1,3.13-.26,4.69-.37a1.69,1.69,0,0,1,1.94,1c.39,1,1.17.79,2,.69,3.11-.37,6.22-.78,9.34-1a40.54,40.54,0,0,1,14.73,1.66,19.31,19.31,0,0,1,3.81,1.89.76.76,0,0,1-.16,1.28c-1.85.56-3.71,1.12-5.59,1.6-2.25.57-4.67.37-6.77,1.57a48.51,48.51,0,0,0-14.46,3.08c-7.82,2.94-15.54,6.12-23.3,9.22a46.78,46.78,0,0,0-9,4.74,102.21,102.21,0,0,0-15.87,13.95,8.17,8.17,0,0,0-1,1.65c-1.42-1.06-1.57-1.44-.84-2.38a13.94,13.94,0,0,1,1.3-1.47,115,115,0,0,1,14.42-12.67c3-2.1,6.06-4.09,9.1-6.14a58.25,58.25,0,0,1,20.52-8.51c8.68-1.87,17.46-3.3,26.19-4.94a8,8,0,0,0,1.41-.61c-.38-.36-.53-.6-.72-.65a10.24,10.24,0,0,0-2.28-.55c-4.42-.31-8.86-1-13.25-.74-14.41.75-27.1,6.31-38.77,14.51-.1.07-.19.17-.29.25-3.63,2.78-7.24,5.59-10.9,8.34a30.6,30.6,0,0,0-7.92,8.59q-3.15,5.21-6.23,10.44a15.1,15.1,0,0,0-.76,2.18c3-1.73,5.55-3.12,8-4.58.4-.24.63-.77.94-1.16,1-.25,2-.55,3-.72.28,0,.66.29.9.54.08.09,0,.56-.21.67-1.08.72-2.19,1.4-3.3,2.09a55.81,55.81,0,0,0-6.43,3.93c3.62.22,9.91-1.8,17.89-5.63,7.48-3.6,11.57-6.47,14-9.89l-2.45.68c1.61-1.83,3.79-2.43,4.25-4.58a10.86,10.86,0,0,1,1.71-2c1.65-1.21,3.42-2.26,5.14-3.38.62-.12,1.43-.05,1.84-.41,1.17-1.05,1.06.72,2.25.63,1.67-1.11,3.76-2.43,5.76-3.86a70.93,70.93,0,0,1,18.16-9.86,4.66,4.66,0,0,0,1.14-.88,7.55,7.55,0,0,1,1.5.41,1.47,1.47,0,0,1,.65.79c0,.14-.18.49-.36.61a3.05,3.05,0,0,1-1.06.47,35.82,35.82,0,0,0-9.37,3.94A81.85,81.85,0,0,0,1490,404.58a110.21,110.21,0,0,1-38.13,22.75,40.58,40.58,0,0,1-14.33,2.45,9.18,9.18,0,0,1,.58-2.69c5.23-8.59,10-17.5,16.6-25.18a39,39,0,0,1,10.42-8.21,129.13,129.13,0,0,1,26.6-11.45,4.93,4.93,0,0,0,1.86-.93,23.45,23.45,0,0,0-2.37,0c-9.65.92-18.35-1.95-26.53-6.73a25.45,25.45,0,0,1-5-3.82,65.43,65.43,0,0,0-10.78-9.07,8.1,8.1,0,0,1-1-.94c.92-.53,1.43-.88,2-1.13,3.59-1.58,7.19-3.13,10.79-4.69a43.63,43.63,0,0,1,21.39-3.62,222.56,222.56,0,0,1,27.07,4.41c2.17.44,4.32,1,6.49,1.38s3.67-.32,4.56-2.55a17.31,17.31,0,0,1,2.69-3.78c.2-.24.69-.26,1.06-.34a.39.39,0,0,1,.35.12c.12.21.31.55.23.67-.52.74-1.15,1.41-1.65,2.17a6.47,6.47,0,0,0-1.17,4.81c.68,4.12,1.19,8.27,1.83,12.4a13.55,13.55,0,0,0,13.15,11.31c3.06,0,5.46-1.53,7.53-3.46a12,12,0,0,0,3.68-6.71c.49-2.54.55-5.15,1.32-7.65a3.57,3.57,0,0,0-.21-1.89c-.67-2.26-1.46-4.48-2.1-6.74a8.27,8.27,0,0,0-3.72-4.87,15.08,15.08,0,0,0-10.43-2.51c-.86.12-1.79-.23-2.65-.1a9.67,9.67,0,0,0-2.29,1.09,6.64,6.64,0,0,1,.24-1.87c.61-1.15,1.31-2.26,2-3.36.91-1.43,2.08-2.78.9-4.62a1.36,1.36,0,0,1,0-.78c.49-4.8.4-9.68,2.13-14.3.54-1.47.92-3,1.37-4.5,2.13-7.08,5.67-13.48,9.62-19.66a6.06,6.06,0,0,1,1.37-1.35.78.78,0,0,1,.71.05.77.77,0,0,1,.3.65,9.54,9.54,0,0,1-.88,1.71,81.8,81.8,0,0,0-8.95,17.83,64.63,64.63,0,0,0-3.59,16.42c0,.74,0,1.49.12,2.92.77-1,1.18-1.44,1.47-1.94,4.62-8.07,8.72-16.38,11.33-25.36.87-3,1.83-6,2.58-9a75.37,75.37,0,0,0,1.94-19.46c0-3,0-6-.1-9a19.13,19.13,0,0,0-.54-3.43c-.29-1.27-.76-2.5-1-3.77-.76-3.47.36-6.45,2.53-9.1a6.07,6.07,0,0,1,1.48-1.28,4.17,4.17,0,0,1,6.52,3,9,9,0,0,1-3.5,8.69c-3.48,2.56-3.73,2.55-3.61,7.9.09,3.92.11,7.84,0,11.76-.15,8.05-1.9,15.81-4.22,23.47-3.68,12.12-9.54,23.18-16.14,33.89l-1,1.65c.36.13.61.31.79.27a15.23,15.23,0,0,1,13,2.95c3,2.24,6.28,4.33,8.09,7.87a1.52,1.52,0,0,0,.85.71c.59.16.77.34.76,1,0,1.94.13,3.87.26,5.8,0,.17.37.31.56.46a154.47,154.47,0,0,0,8.73-22.6c1.64-5.78,2.9-11.67,4.14-17.56,1.08-5.11,2-10.27,2.78-15.44.61-4.26.82-8.58,1.16-12.87a13.22,13.22,0,0,0-.11-2.35c-.33-3-.76-6-3.51-8a.74.74,0,0,1-.13-.69c.25-.24.64-.53.92-.49a2.63,2.63,0,0,1,1.38.61,7.73,7.73,0,0,1,2.48,4.37,38.36,38.36,0,0,1,.78,6.2,53,53,0,0,1-.49,9q-2,12.78-4.48,25.49a144.78,144.78,0,0,1-6.13,21.08c-.39,1.08-.68,2.2-1,3.41,1.63-.15,2.07-1.41,2.82-2.24a87.28,87.28,0,0,1,21.61-18,93.88,93.88,0,0,1,9.51-4.64,75.69,75.69,0,0,1,12.58-4.34,44.93,44.93,0,0,1,14.74-1.46c3.25.3,6.55.12,9.79.46s6.19,1,9.26,1.61c1.15.23,1.21.53,1.14,2.4a45.59,45.59,0,0,0-23.2-1.51,32,32,0,0,1-3.86.64c-5.25.41-10.27,1.92-15.36,3.05a50.82,50.82,0,0,0-7.06,2.35,58.76,58.76,0,0,0-15.81,9.32A100.21,100.21,0,0,0,1559.7,362a12,12,0,0,0-2.42,4.56,14.94,14.94,0,0,0,1.29-.91,38.23,38.23,0,0,0,7.44-8,12.22,12.22,0,0,1,1.53-1.61c.47.61.93.68,1.52.1s1.18-1,1.79-1.52a46,46,0,0,1,15.2-8.71,86.25,86.25,0,0,1,11-2.74,155,155,0,0,0,27.62-7.29,3.44,3.44,0,0,1,1.13-.26.76.76,0,0,1,.57.37c.1.2.12.59,0,.71a3.92,3.92,0,0,1-1.25.89c-1.95.74-3.89,1.53-5.9,2.11-8.28,2.41-16.38,5.39-24.43,8.47-7.32,2.8-14.43,6.1-21.55,9.38a43.27,43.27,0,0,0-12.78,8.89c-1.19,1.21-2.43,2.38-3.61,3.6a9.33,9.33,0,0,0-1,1.72c2.12-1.38,3.71-2.29,5.16-3.39,6.22-4.7,13.36-7.64,20.44-10.7,1.36-.59,2.7-.91,4,.16-.06.12-.08.29-.18.34l-14.78,8.74,2.07-2.5a6.57,6.57,0,0,0-1.57.3c-2.69,1.6-5.47,3.09-8,4.89-3.42,2.41-6.65,5.06-10,7.63a8.24,8.24,0,0,0-1,1.36c3.39-1.52,6.21-2.76,9-4,2.26-1,4.54-2,6.74-3.17,5.09-2.67,10.18-5.36,15.2-8.16a66,66,0,0,1,20.94-7.46,68.48,68.48,0,0,0,11-3,66,66,0,0,0,22.75-14.29c2.76-2.55,4.91-5.42,5.38-9.28a2.42,2.42,0,0,1,1.13,3,10.66,10.66,0,0,1-1.3,2.82,33.84,33.84,0,0,1-3.76,4.5,66.89,66.89,0,0,1-24.06,15.12c-5.3,1.88-10.68,3.52-16,5.28-4.35,1.42-8.76,2.69-13,4.33a83.9,83.9,0,0,0-15,7.67c-.1.06-.12.23-.27.54a22.26,22.26,0,0,0,5.35.58,19.79,19.79,0,0,1,13,5.74,107.28,107.28,0,0,0,13.4,10.84c2.71,1.8,5.57,3.4,8.39,5a19.8,19.8,0,0,1,5.84,4.53,4.21,4.21,0,0,1,.44,5.09,8.73,8.73,0,0,1-4,4.15,29.51,29.51,0,0,1-6.61,2.37,36.26,36.26,0,0,1-17.81-1.07,173.91,173.91,0,0,1-23.38-9.07,31.74,31.74,0,0,0-8.16-2.73,19.47,19.47,0,0,0-2-.08c.85.85,1.27,1.3,1.72,1.72a45.76,45.76,0,0,1,9.2,13.1c.79,1.58,1.9,3.21.63,5.14-.19.28.13,1,.33,1.41.44,1,1.57,1.81,1.15,3.22l-2,.4c.3.88.55,1.73.87,2.56a90.55,90.55,0,0,1,5,20.14c.71,5,1.69,10.05,2.49,15.08.31,1.94.49,3.89.68,5.84a2.76,2.76,0,0,1-.15,1.52,1.55,1.55,0,0,1-1.17.77,1.34,1.34,0,0,1-.94-.93c-.11-.89.13-1.82,0-2.71a9.91,9.91,0,0,0-1-3.72c-.43,4-.83,8-1.3,12a34.42,34.42,0,0,1-.84,4.62,4.27,4.27,0,0,1-1.3,1.86c-.25.22-1,.07-1.37-.13s-.52-.82-.4-1c2.54-3.78,1.83-8.07,1.74-12.17a132.14,132.14,0,0,0-5.79-37.08,39.17,39.17,0,0,0-2.68-6.5c-3.7-6.92-7.54-13.76-11.32-20.63a19.66,19.66,0,0,0-3.94-5.34,3.68,3.68,0,0,1-1.16-1.53c-.28-1.13-1.07-1.36-2-1.55-3.93-.79-4.46-.5-5.37,3.47-1.28,5.61-2.32,11.27-3.72,16.85-2,8.13-2.82,16.49-4.56,24.67a61.55,61.55,0,0,1-3.34,11.27,45.8,45.8,0,0,1-8.86,13.31,4,4,0,0,1-2.62,1.56,3.69,3.69,0,0,1-2.94-.77,28.84,28.84,0,0,1-3.6-3.56,33,33,0,0,1-5.58-11.59c-1.32-4.79-2.52-9.58-2.5-14.62a59.12,59.12,0,0,1,7.84-29.6,15.82,15.82,0,0,1,2.09-2.8c.23-.26.85-.18,1.5-.28a4.6,4.6,0,0,1-.29,1.34c-5.11,7.51-7.77,15.86-8.91,24.83-1,7.87.26,15.36,2.68,22.77a33.64,33.64,0,0,0,4.24,8.37,10.13,10.13,0,0,0,1.48,1.83c3.78,3.43,3.61,3.16,6.69-.32a43.55,43.55,0,0,0,9.92-20.19,116.59,116.59,0,0,0,2.75-17.41c.21-3.52,0-7.06.26-10.58.45-6.33,1.9-12.36,5.76-17.64,1.6-2.18,2.88-4.61,4.25-6.84-.86-1.08-1.73-1.35-2.55-.62-1.55,1.39-3,2.88-4.49,4.37a6.44,6.44,0,0,1-1.85,1.62,4.23,4.23,0,0,1,.48-1.48c1.77-2.09,3.62-4.12,5.43-6.18.43-.49.83-1,.28-1.85-2,1.71-4,3.36-5.92,5.11a19.93,19.93,0,0,0-4.93,7c-3,7-5.72,14.05-8.07,21.26a45.86,45.86,0,0,0-1.94,13.54c-.08,3.92-.31,7.83-.58,11.74a45.35,45.35,0,0,1-.74,5c-.25,1.37-1,2.27-1.49,1.86-.69-.64-.39-1.43-.28-2.18a129.48,129.48,0,0,0,1.26-15.62c.17-5.87.47-11.75.95-17.61a34.34,34.34,0,0,1,3.55-12.78c1.1-2.18,1.56-4.72,3.54-6.43a19.14,19.14,0,0,0,2.16-2.25,10.1,10.1,0,0,0,2-2.83,9.55,9.55,0,0,1,4.65-5.55c.31-.17.5-.56.9-1a6.91,6.91,0,0,0-1.09-1,16.19,16.19,0,0,1-5.81-5.15,3.1,3.1,0,0,0-3.42-1.35c-1.15.19-2.28.54-3.43.79s-2,.47-3.07.63a5,5,0,0,1-1.31-.25l1.73-1.06-4.08-.84.06-.46,2.59.23c.91.06,1.82.15,2.72.16a18.11,18.11,0,0,0,3.13-.1,13.87,13.87,0,0,0,2.44-.92,4.1,4.1,0,0,0-3.35-3.13c-6-1.68-12-3.49-18.06-5.26a2.56,2.56,0,0,1-1-.62.86.86,0,0,1-.21-.7.91.91,0,0,1,.49-.56,2.22,2.22,0,0,1,1.13-.17,22.53,22.53,0,0,1,3.05.72c3.4,1.09,3.39,1.11,7.22.22.13-1.68-.72-2.52-2.31-2.91a6.94,6.94,0,0,1-1.65-1ZM1555.22,380a5.74,5.74,0,0,0,3.6,1c5.92.48,11.06,2.85,15.89,6.15a73.44,73.44,0,0,0,18.74,9.69c1.36.45,2.7,1,4,1.49a3.4,3.4,0,0,1,1,.6.8.8,0,0,1,.19.68c0,.18-.34.45-.5.43a7.89,7.89,0,0,1-2.29-.35c-4-1.58-8.16-2.9-11.93-4.94a162.79,162.79,0,0,0-20.7-9.33,5.19,5.19,0,0,0-2.22-.59,7.74,7.74,0,0,1-4.12-.9,14.37,14.37,0,0,0-9.38-.83c.94.28,1.43.47,1.94.57,6.33,1.25,12.23,3.74,18.12,6.27a13.65,13.65,0,0,1,2.3,1.41.74.74,0,0,1,.15.69c-.2.26-.58.62-.83.58A12,12,0,0,1,1567,392c-1-.37-2-1.2-2.88-1.13-2.22.17-3.95-1-5.91-1.54a44.72,44.72,0,0,0-14.31-1.83,10.76,10.76,0,0,0-2.37.8l3.29,1.21a12.64,12.64,0,0,1-3.57-.26c-.21,0-.55.4-.69.69a.75.75,0,0,0,.26.67,3,3,0,0,0,1.4.57c2.8,0,5.37,1,8,1.85,3.83,1.28,7.68,2.58,11.4,4.15,8,3.33,15.77,7,24,9.69,6.26,2.06,12.61,3.42,19.27,2.5a22.07,22.07,0,0,0,7.06-2.24,9,9,0,0,0,3.68-3.43,2.57,2.57,0,0,0,0-2.94,12.65,12.65,0,0,0-4.74-4c-3-1.76-6.16-3.45-9-5.45-3.54-2.46-6.86-5.22-10.29-7.83a23,23,0,0,0-3.86-2.65q-6-2.82-12.2-5.3a14.63,14.63,0,0,0-7.71-.81,36.16,36.16,0,0,0-12,4.53C1555.43,379.31,1555.38,379.64,1555.22,380Z"/><path d="M1529.77,331.64q-1.45,7.1-2.92,14.2a19.46,19.46,0,0,1-.51,2.29c-.1.31-.47.53-.73.79-.27-.38-.75-.75-.77-1.14a9.14,9.14,0,0,1,.27-2.32c1-5.13,2-10.26,3.07-15.37a151.61,151.61,0,0,0,3.15-18.93,62.28,62.28,0,0,0-.5-15.61c-.5-3-1.16-5.91-1.5-8.88a10,10,0,0,0-3.76-6.61c-1-.85-2-1.65-3-2.54-4.45-4.14-2.19-9.87,1.43-12.49a3.18,3.18,0,0,1,4.76,1,11.43,11.43,0,0,1,1.64,5.58,6.7,6.7,0,0,1-.09,1.95c-1,4.33-.21,8.51.73,12.75a82,82,0,0,1,2.33,21.35,114.43,114.43,0,0,1-2.55,18.61q-.55,2.69-1.1,5.37Z"/><path d="M1435.88,328.41a16.55,16.55,0,0,1,2.92-4.09,3.4,3.4,0,0,1,5.44.26,13.25,13.25,0,0,1,1.63,2.67,8.38,8.38,0,0,0,3.86,3.72,108.6,108.6,0,0,0,27.38,10.51c7.13,1.67,14.24,3.48,21.44,4.77,6,1.08,12.19,1.49,18.28,2.22,1.28.15,2.55.38,3.82.63.15,0,.32.4.32.61s-.19.56-.35.59a6.44,6.44,0,0,1-1.9.2c-12-1-24-2.27-35.57-5.68-2-.59-4-1.07-6.09-1.53a96.2,96.2,0,0,1-25-9.11c-.81-.44-1.64-.82-2.46-1.24a2.53,2.53,0,0,0-2.6-.13c-1.67,1-3.21.56-4.78-.4-1.78-1.1-3.66-2-5.47-3.06C1436.48,329.18,1436.27,328.82,1435.88,328.41Z"/><path d="M1461.06,304.29a4.45,4.45,0,0,1,3.08,2.24,17.25,17.25,0,0,1,1.57,4.79,4.41,4.41,0,0,0,1.76,3.31c3.52,2.7,7,5.48,10.66,8,8.54,5.8,17.39,11.13,26.36,16.25a126.1,126.1,0,0,0,15.54,7.48,6.88,6.88,0,0,1,1.27.82.36.36,0,0,1,.08.33c-.11.21-.28.57-.4.55a8.71,8.71,0,0,1-2.62-.41c-3.59-1.57-7.26-3-10.68-4.91A397.07,397.07,0,0,1,1473,321.34a48.74,48.74,0,0,1-4.08-3.06,17,17,0,0,0-6.63-3.93c-1.69-.46-3.13-1.83-4.67-2.81a3.16,3.16,0,0,1-.56-.54,4.47,4.47,0,0,1-.64-5.42C1457.17,304.44,1459.22,303.87,1461.06,304.29Z"/><path d="M1541.65,365.63c-.89-4-2-7.28-4.87-9.72-.22-.18-.16-.68-.23-1,.46,0,1-.27,1.36-.07a9.41,9.41,0,0,1,3.8,4.84c.49,1.33,1,2.64,1.65,4.3,1-1.35.66-2.44.58-3.54a37.84,37.84,0,0,1,0-4.26c0-.19.55-.43.87-.5.14,0,.49.27.52.46.21,1.55.38,3.1.54,4.66q.29,2.91.53,5.84a11.66,11.66,0,0,1-1.06,6.12,7.76,7.76,0,0,1-2.37,3,20.26,20.26,0,0,1-9.77,3.72,6.78,6.78,0,0,1-2.61-.59,1.1,1.1,0,0,1-.44-1c0-.26.59-.71.75-.65,1.55.6,2.49-.19,3.28-1.34s1.1-2.69,2.77-3c.9-1.69,2.2-3.27,1.24-5.41a14,14,0,0,1-.83-2.6c0-.17.57-.71.75-.66C1539.17,364.6,1540.22,365.06,1541.65,365.63Z"/><path d="M1545.7,331.75c.82-3.16,1.6-6.33,2.47-9.48a39.69,39.69,0,0,1,1.42-4c1.69-4.25,3.53-8.44,5.08-12.73a140.3,140.3,0,0,1,6.71-14.58,14.3,14.3,0,0,1,1-1.66c.95-1.4,2-2.05,2.31-1.46.56,1-.34,1.66-.77,2.42a113.24,113.24,0,0,0-9,20c-1.71,5.21-3.32,10.45-5,15.68-1,3.35-2.22,6.68-3.1,10.09-.65,2.52-.93,5.13-1.36,7.7-.18,1-.29,2.08-.53,3.09-.07.31-.45.54-.69.81-.3-.36-.87-.73-.86-1.08a45.43,45.43,0,0,1,.52-5.46c.54-3.08,1.24-6.14,1.87-9.21Z"/><path d="M1505,372c-5.77-.45-11.32-2.85-16.8-5.25a35.26,35.26,0,0,0-19.06-2.87,3.13,3.13,0,0,1-1.14-.08c-.17,0-.29-.36-.38-.58a.41.41,0,0,1,.11-.36,6.33,6.33,0,0,1,2-.95,33.36,33.36,0,0,1,9.36.19c7.31,1.37,14.66,2.64,21.63,5.28a70.47,70.47,0,0,0,13.15,3.7c.25.05.58.09.72.26a2.78,2.78,0,0,1,.69,1.22c0,.21-.48.71-.77.72a17.69,17.69,0,0,1-3.49-.06C1509.13,372.9,1507.22,372.44,1505,372Z"/><path d="M1569.35,296.55c-.16,3.83-.29,7.61-.48,11.39a81.66,81.66,0,0,1-5.1,24.09c-2.58,7.12-5.45,14.14-8.24,21.19-.68,1.72-1.85,2.7-2.28,2.12-.79-1,0-2,.33-2.92,2.38-5.94,4.87-11.83,7.16-17.81a99.55,99.55,0,0,0,5.75-23.56,65.16,65.16,0,0,0,.47-10.54,3.81,3.81,0,0,1,1.75-3.53A7,7,0,0,1,1569.35,296.55Z"/><path d="M1504.82,420.61c.4-2,.8-4,1.26-6.07a4,4,0,0,1,.7-1.35.77.77,0,0,1,.67-.17c.19.06.48.33.47.5a22.17,22.17,0,0,1-.22,2.69c-.65,4-1.37,8-2,12a43.51,43.51,0,0,0,.68,16c.11.51.2,1,.3,1.54.13.69.09,1.42-.62,1.66s-1.17-.41-1.32-1.07a48.56,48.56,0,0,1-1.61-12.4A63.78,63.78,0,0,1,1504.82,420.61Z"/><path d="M1506.91,360.52a27.58,27.58,0,0,0-9-.49,5.62,5.62,0,0,1-3-.45,27,27,0,0,0-3.91-.84c4.88-.08,8.85-.18,12.83-.2a7.92,7.92,0,0,1,2.29.43c.79.25.74,1,.69,1.63Z"/><path d="M1693.9,221.66c-.05.12-.07.3-.16.35-4,2.4-8,4.8-12,7.14-.45.26-1.14.11-2.15.19a10.23,10.23,0,0,1,4.07-3,25.63,25.63,0,0,0,7.21-4.55c.17-.17.68,0,1,0C1692.55,221.73,1693.16,220.46,1693.9,221.66Z"/><path d="M1478.07,407.36a5.44,5.44,0,0,0-3.55,1.36c-3.78,2.53-7.6,5-11.41,7.49-.54.36-1.1.7-1.67,1-.88.48-2.15.31-2-.17a2.83,2.83,0,0,1,1.07-1.42c6.71-4,13.06-8.52,19.4-13.07a28,28,0,0,1,3.67-2.22c.5-.24,1.46-.33,1.76,0,.53.52-.08,1.16-.44,1.69-1.72,1.12-3.49,2.17-5.14,3.38A10.86,10.86,0,0,0,1478.07,407.36Z"/><path d="M1741.72,202.71l-1.43.23a7.39,7.39,0,0,1-.66-.42c-.38-.32-1-.64-1-1s.48-.94.88-1.08a63.14,63.14,0,0,1,8.58-2.7c5.26-1,10.59-1.55,15.89-2.28,1.42-.2,2.87-.25,4.27-.54,7.11-1.48,14.27-1.29,21.45-.88a182.89,182.89,0,0,1,20.24,2.25c4.24.72,8.4,1.94,12.59,3a147.52,147.52,0,0,0,32.59,4.32,155.6,155.6,0,0,0,32.72-2.95l.39-.09c1.63-.32,2.85-.1,2.7.47-.33,1.27-1.49,1.33-2.49,1.51a167.88,167.88,0,0,1-24.5,2.93,146.58,146.58,0,0,1-27-1.37c-3.61-.54-7.29-.61-10.94-.9q-8.6-.69-17.2-1.4c-1.3-.11-2.6-.28-3.89-.48-8.39-1.32-16.82-2.28-25.3-2.78a51.68,51.68,0,0,1-6.24-.58c-7-1.28-13.82-.15-20.65.93-3.22.51-6.35,1.49-9.52,2.28C1742.41,201.34,1741.76,201.75,1741.72,202.71Z"/><path d="M1882.29,212.24a26.11,26.11,0,0,1-7,.39c-2,0-3.91.14-5.87.24s-4.09.81-6.4-.13l2-.33-3.23-1.28c3,.12,5.73.29,8.43.31a41.89,41.89,0,0,0,6.24-.33A8.81,8.81,0,0,1,1882.29,212.24Z"/><path d="M1819.15,190.46a245.72,245.72,0,0,1,31.19,6.4Z"/><path d="M1740.74,196.64c.29-.39.5-.93.88-1.14.91-.48,1.9-.8,3.39-1.4l-2.82-.8a28.18,28.18,0,0,1,5-.38,9.63,9.63,0,0,1,3.56,1.6C1747.12,194,1744.08,196,1740.74,196.64Z"/><path d="M1654.27,193.17l22.09,4.53C1673.7,197.74,1658.55,194.77,1654.27,193.17Z"/><path d="M1726.76,199.75a26.4,26.4,0,0,1-5.09,11.34,17.66,17.66,0,0,1-8,5.51,3.44,3.44,0,0,1-1.5,0c-.19,0-.41-.33-.48-.55a.76.76,0,0,1,.1-.7,4.6,4.6,0,0,1,1.27-.84c5.76-2.39,9.11-6.75,10.71-12.68a29.58,29.58,0,0,0,1.34-9.66,2,2,0,0,1,.07-1.14,2.26,2.26,0,0,1,1.1-.88c.18-.07.65.35.81.65a3,3,0,0,1,.23,1.13A24.24,24.24,0,0,1,1726.76,199.75Z"/><path d="M1726.94,212.11a2.93,2.93,0,0,1-.4-3.39c1.5-3.14,3-6.29,4.57-9.6C1731,203.87,1728.8,207.74,1726.94,212.11Z"/></svg>