<svg class="w-[302px] lg:w-[454px] max-w-full" width="454" height="219" fill="none" xmlns="http://www.w3.org/2000/svg"><path d="M215 124h100v86H215v-86ZM1 124h100v86H1v-86Zm344 0h100v86H345v-86Zm-214 0h54v86h-54v-86Z" stroke="#FF2D20" stroke-width="2"/><path d="M223 132h100v86H223v-86ZM9 132h100v86H9v-86Zm344 0h100v86H353v-86Zm-214 0h54v86h-54v-86Z" fill="#fff" stroke="#565454" stroke-width="2"/><path d="M229 138h5" stroke="#565454" stroke-width="2"/><path d="M219.625 39.375v7.875m0-34.875-7.875-4.5-7.875 4.5 7.875 4.5 7.875-4.5Zm0 0v18" stroke="#FF2D20" stroke-width="1.5" stroke-linecap="round" stroke-linejoin="round"/><path d="M203.875 12.375V38.25l15.75 9 15.75-9V21.375" stroke="#FF2D20" stroke-width="1.5" stroke-linecap="round" stroke-linejoin="round"/><path d="M211.75 16.875v18l7.875 4.5 23.625-13.5v-9" stroke="#FF2D20" stroke-width="1.5" stroke-linecap="round" stroke-linejoin="round"/><path d="m227.5 16.875 7.875-4.5 7.875 4.5-7.875 4.5-7.875-4.5Zm0 0v9m0 0 7.875 4.5m-7.875-4.5-15.75 9" stroke="#FF2D20" stroke-width="1.5" stroke-linecap="round" stroke-linejoin="round"/><path d="M237 138h5m-79 1h6m76-1h5m-235 0h5m339 0h5m-341 0h5m339 0h5m-341 0h5m339 0h5" stroke="#565454" stroke-width="2"/><path d="M394 124V94m-130 30V94M50 124V94m172 0V64m-65 60V94M49 94h346" stroke="#FF2D20" stroke-width="2"/><path d="M70.133 170.39a21.88 21.88 0 0 0-1.063-.33c.06-.242.116-.481.165-.715.804-3.852.278-6.955-1.518-7.976-1.721-.98-4.537.041-7.38 2.483-.28.241-.554.489-.822.744a19.36 19.36 0 0 0-.547-.498c-2.98-2.611-5.967-3.711-7.76-2.687-1.72.983-2.23 3.9-1.505 7.55.072.361.153.721.243 1.078-.422.119-.83.245-1.22.379-3.495 1.202-5.726 3.086-5.726 5.04 0 2.018 2.395 4.042 6.034 5.269.295.099.593.191.892.275-.097.385-.183.773-.259 1.163-.69 3.586-.15 6.434 1.565 7.411 1.771 1.008 4.745-.028 7.64-2.526.235-.203.465-.412.689-.626.29.276.587.544.892.803 2.805 2.381 5.575 3.343 7.288 2.364 1.77-1.011 2.346-4.07 1.599-7.793a18.572 18.572 0 0 0-.198-.87c.209-.061.414-.124.613-.189 3.784-1.237 6.245-3.236 6.245-5.281 0-1.961-2.303-3.858-5.867-5.068Zm-.82 9.029c-.181.058-.367.115-.555.171a32.408 32.408 0 0 0-1.671-4.126 32.348 32.348 0 0 0 1.606-4.064c.337.096.665.198.98.305 3.055 1.037 4.917 2.571 4.917 3.753 0 1.258-2.011 2.893-5.278 3.961Zm-1.356 2.649c.33 1.646.377 3.135.158 4.298-.196 1.045-.591 1.742-1.08 2.021-1.04.594-3.264-.178-5.663-2.214a19.49 19.49 0 0 1-.83-.747c.93-1.003 1.86-2.17 2.767-3.465a33.328 33.328 0 0 0 4.47-.68c.065.261.124.524.178.787Zm-13.707 6.217c-1.016.354-1.825.364-2.314.086-1.041-.593-1.474-2.88-.883-5.947.07-.362.15-.723.24-1.081 1.352.295 2.848.507 4.447.635a34.018 34.018 0 0 0 2.833 3.454c-.205.195-.414.386-.628.571-1.28 1.104-2.564 1.888-3.695 2.282Zm-4.76-8.874c-1.609-.543-2.938-1.248-3.849-2.018-.818-.691-1.231-1.378-1.231-1.935 0-1.186 1.791-2.698 4.78-3.726.362-.125.741-.242 1.135-.353a33.1 33.1 0 0 0 1.608 4.113 33.654 33.654 0 0 0-1.628 4.17 17.728 17.728 0 0 1-.815-.251Zm1.596-10.717c-.62-3.128-.208-5.487.828-6.079 1.104-.631 3.545.269 6.118 2.523.168.147.333.298.496.451a33.353 33.353 0 0 0-2.811 3.433 34.593 34.593 0 0 0-4.404.675c-.084-.333-.16-.667-.227-1.003Zm14.235 3.468a44.345 44.345 0 0 0-1.004-1.629c1.053.132 2.062.306 3.01.519-.285.9-.64 1.84-1.057 2.804a47.9 47.9 0 0 0-.95-1.694Zm-5.805-5.579a29.82 29.82 0 0 1 1.942 2.313c-1.3-.06-2.601-.061-3.9-.001a30.815 30.815 0 0 1 1.958-2.312Zm-5.842 5.588a41.086 41.086 0 0 0-.932 1.684 30.503 30.503 0 0 1-1.048-2.817 32.175 32.175 0 0 1 2.991-.507c-.35.539-.687 1.086-1.011 1.64Zm1.041 8.313c-1.08-.119-2.1-.281-3.04-.483.29-.928.65-1.893 1.069-2.874a41.047 41.047 0 0 0 1.971 3.357Zm4.84 3.946a31.292 31.292 0 0 1-1.986-2.344 50.88 50.88 0 0 0 1.931.037c.673 0 1.337-.015 1.992-.044a29.495 29.495 0 0 1-1.937 2.351Zm6.728-7.353c.442.992.813 1.951 1.108 2.864-.956.215-1.99.389-3.078.518.349-.546.687-1.098 1.013-1.657.332-.568.651-1.143.957-1.725Zm-2.178 1.03c-.5.857-1.028 1.697-1.583 2.52a42.917 42.917 0 0 1-3.022.105c-1.027 0-2.026-.032-2.988-.093a39.424 39.424 0 0 1-3.02-5.148 38.954 38.954 0 0 1 3.004-5.138 40.045 40.045 0 0 1 6.014.001c.56.816 1.09 1.651 1.59 2.505.503.855.978 1.726 1.423 2.612-.44.895-.914 1.774-1.418 2.636Zm2.908-15.533c1.105.628 1.535 3.164.84 6.49-.044.212-.093.428-.147.647a34.128 34.128 0 0 0-4.413-.688 32.787 32.787 0 0 0-2.79-3.435c.248-.235.5-.464.76-.687 2.436-2.092 4.713-2.918 5.75-2.327ZM59.5 172.55c1.627 0 2.947 1.302 2.947 2.908 0 1.606-1.32 2.907-2.947 2.907s-2.947-1.301-2.947-2.907 1.32-2.908 2.947-2.908Z" fill="#00D8FF"/><path d="M414.6 161h7.4l-18.5 30.972L385 161h14.153l4.347 7.182 4.255-7.182h6.845Z" fill="#41B883"/><path d="m385 161 18.5 30.972L422 161h-7.4l-11.1 18.583L392.308 161H385Z" fill="#41B883"/><path d="m392.307 161 11.193 18.673L414.6 161h-6.845l-4.255 7.182-4.348-7.182h-6.845Z" fill="#35495E"/><path fill-rule="evenodd" clip-rule="evenodd" d="M286.231 183.803c-.576.869-1.012 1.938-2.18 1.938-1.966 0-2.072-3.029-4.04-3.029-1.967 0-1.86 3.029-3.826 3.029s-2.072-3.029-4.04-3.029c-1.967 0-1.86 3.029-3.826 3.029s-2.072-3.029-4.039-3.029c-1.968 0-1.861 3.029-3.826 3.029-.619 0-1.052-.3-1.419-.71a16.771 16.771 0 0 1-2.216-8.378c0-8.972 6.937-16.245 15.494-16.245 8.558 0 15.495 7.273 15.495 16.246 0 2.565-.567 4.992-1.577 7.149Z" fill="#FB70A9"/><path fill-rule="evenodd" clip-rule="evenodd" d="M266.126 182.199v6.73a2.188 2.188 0 0 1-4.377 0v-8.124c.408-.749.874-1.397 1.716-1.397 1.369 0 1.847 1.719 2.661 2.792v-.001Zm8.265.351v10.642a2.434 2.434 0 0 1-.712 1.718 2.426 2.426 0 0 1-1.718.711 2.43 2.43 0 0 1-2.432-2.429v-12.045c.458-.882.93-1.739 1.897-1.739 1.532 0 1.949 2.15 2.966 3.142h-.001Zm7.782-.195v7.725c0 1.208-.98 2.186-2.188 2.186a2.187 2.187 0 0 1-2.189-2.186v-9.495c.381-.652.834-1.177 1.593-1.177 1.437 0 1.892 1.894 2.784 2.947Z" fill="#4E56A6"/><path fill-rule="evenodd" clip-rule="evenodd" d="M266.126 184.262c-.389-.475-.848-.828-1.513-.828-1.578 0-1.868 1.988-2.864 2.883v-8.571a2.19 2.19 0 0 1 4.377 0v6.516Zm8.265.153c-.413-.551-.897-.981-1.631-.981-1.756 0-1.917 2.46-3.231 3.141v-3.791a2.431 2.431 0 0 1 4.863 0l-.001 1.631Zm7.782-.425c-.337-.332-.736-.556-1.266-.556-1.701 0-1.906 2.309-3.111 3.071v-7.693a2.191 2.191 0 0 1 2.189-2.189 2.19 2.19 0 0 1 2.188 2.189v5.178Z" fill="#000" fill-opacity=".298"/><path fill-rule="evenodd" clip-rule="evenodd" d="M286.231 183.803c-.576.869-1.012 1.938-2.18 1.938-1.966 0-2.072-3.029-4.04-3.029-1.967 0-1.86 3.029-3.826 3.029s-2.072-3.029-4.04-3.029c-1.967 0-1.86 3.029-3.826 3.029s-2.072-3.029-4.039-3.029c-1.968 0-1.861 3.029-3.826 3.029-.619 0-1.052-.3-1.419-.71a16.771 16.771 0 0 1-2.216-8.378c0-8.972 6.937-16.245 15.494-16.245 8.558 0 15.495 7.273 15.495 16.246 0 2.565-.567 4.992-1.577 7.149Z" fill="#FB70A9"/><path fill-rule="evenodd" clip-rule="evenodd" d="M282.878 185.417c4.06-6.036 4.164-12.73.314-20.084a16.2 16.2 0 0 1 4.616 11.355c0 2.557-.588 4.973-1.635 7.123-.595.864-1.049 1.93-2.26 1.93-.37.003-.732-.11-1.035-.324Z" fill="#E24CA6"/><path fill-rule="evenodd" clip-rule="evenodd" d="M271.483 180.707c5.388 0 7.656-3.124 7.656-7.559 0-4.436-3.428-8.518-7.656-8.518-4.229 0-7.657 4.082-7.657 8.518 0 4.436 2.268 7.559 7.657 7.559Z" fill="#fff"/><path fill-rule="evenodd" clip-rule="evenodd" d="M272.295 170.233c0 1.748-1.286 3.167-2.871 3.167-1.587 0-2.872-1.419-2.872-3.167 0-1.749 1.285-3.168 2.872-3.168 1.585 0 2.871 1.419 2.871 3.168Z" fill="#030776"/><path fill-rule="evenodd" clip-rule="evenodd" d="M270.38 169.502c0 .807-.642 1.461-1.435 1.461a1.448 1.448 0 0 1-1.436-1.461c0-.807.642-1.461 1.436-1.461.793 0 1.435.654 1.435 1.461Z" fill="#fff"/><path d="M168.922 163.007s6.217 3.554 7.844 9.2c1.466 5.1.292 7.534.292 7.534a8.897 8.897 0 0 1 1.742 2.8 4.83 4.83 0 0 1 .29 4.453s-.1-2.08-3.2-2.511c-2.841-.4-3.874 2.366-9.3 2.232a18.434 18.434 0 0 1-15.09-8.361c2.651 1.446 6.124 3.691 10.449 3.346 4.325-.345 5.228-1.674 5.228-1.674a66.873 66.873 0 0 1-12.786-13.383c3.4 2.845 11.822 8.507 11.626 8.363a75.775 75.775 0 0 1-8.425-9.766s12.636 10.389 13.653 10.323c.418-.861 2.579-5.318-2.324-12.557l.001.001Z" fill="url(#a)"/><defs><linearGradient id="a" x1="165.94" y1="172.607" x2="165.411" y2="187.006" gradientUnits="userSpaceOnUse"><stop stop-color="#F88535"/><stop offset="1" stop-color="#FD2221"/></linearGradient></defs></svg>