<svg width="234" height="54" xmlns="http://www.w3.org/2000/svg" xmlns:xlink="http://www.w3.org/1999/xlink"><defs><path d="M6.214 3.968v9.562a3.107 3.107 0 0 1-6.214 0V1.986C.58.922 1.242 0 2.437 0 4.38 0 5.06 2.442 6.214 3.968Zm11.738.498v15.122a3.452 3.452 0 1 1-6.904 0V2.473C11.698 1.219 12.368 0 13.742 0c2.174 0 2.766 3.056 4.21 4.466ZM29 4.188v10.978a3.107 3.107 0 1 1-6.214 0V1.673C23.326.747 23.97 0 25.046 0 27.087 0 27.734 2.692 29 4.188Z" id="a"/><path d="M6.214 6.898c-.55-.674-1.203-1.175-2.147-1.175-2.24 0-2.652 2.824-4.067 4.097V-2.36a3.107 3.107 0 1 1 6.214 0v9.258Zm11.738.218c-.587-.782-1.275-1.393-2.317-1.393-2.493 0-2.722 3.495-4.587 4.461V4.798a3.452 3.452 0 0 1 6.904 0v2.318ZM29 6.512c-.478-.471-1.045-.79-1.798-.79-2.414 0-2.704 3.28-4.416 4.364V-.847a3.107 3.107 0 1 1 6.214 0v7.359Z" id="b"/></defs><g fill="none" fill-rule="evenodd"><g fill-rule="nonzero"><path d="M67.92 42.907c-.847 0-1.546-.241-2.096-.723S65 41.01 65 40.108V12.265c0-.902.275-1.586.824-2.052.55-.467 1.249-.7 2.097-.7.848 0 1.555.233 2.12.7.565.466.848 1.15.848 2.052v27.843c0 .902-.283 1.594-.848 2.076s-1.272.723-2.12.723Zm12.118 0c-.848 0-1.547-.241-2.096-.723-.55-.482-.825-1.174-.825-2.076V22.106c0-.902.275-1.586.825-2.053.55-.466 1.248-.7 2.096-.7.848 0 1.555.234 2.12.7.565.467.848 1.15.848 2.053v18.002c0 .902-.283 1.594-.848 2.076s-1.272.723-2.12.723Zm0-27.704c-1.068 0-1.916-.288-2.544-.863-.628-.575-.942-1.329-.942-2.262s.314-1.679.942-2.238c.628-.56 1.476-.84 2.544-.84 1.037 0 1.877.28 2.52.84.644.56.966 1.305.966 2.238s-.314 1.687-.942 2.262c-.628.575-1.476.863-2.544.863Zm25.261 5.83c.252-.56.59-.98 1.013-1.26.424-.28.888-.42 1.39-.42.723 0 1.374.242 1.955.724s.872 1.08.872 1.795c0 .374-.094.747-.283 1.12l-8.715 18.05c-.283.59-.684 1.04-1.202 1.352a3.279 3.279 0 0 1-1.72.466c-.596 0-1.17-.155-1.719-.466a2.998 2.998 0 0 1-1.248-1.353l-8.763-18.05a2.348 2.348 0 0 1-.236-1.072c0-.715.306-1.321.919-1.819a3.233 3.233 0 0 1 2.096-.746c1.131 0 1.963.544 2.497 1.632l6.596 14.412 6.548-14.365Zm26.722 15.344c.534 0 .966.202 1.296.607.33.404.495.948.495 1.632 0 .964-.581 1.772-1.744 2.425-1.067.59-2.277 1.065-3.627 1.423-1.35.357-2.638.536-3.863.536-3.707 0-6.643-1.057-8.81-3.171-2.167-2.115-3.251-5.006-3.251-8.675 0-2.332.471-4.4 1.413-6.203.943-1.804 2.27-3.203 3.981-4.198 1.712-.995 3.651-1.492 5.819-1.492 2.073 0 3.878.45 5.417 1.352 1.54.902 2.733 2.177 3.581 3.825.848 1.648 1.272 3.59 1.272 5.83 0 1.336-.597 2.005-1.79 2.005h-13.898c.188 2.145.8 3.723 1.837 4.734 1.037 1.01 2.544 1.516 4.523 1.516 1.005 0 1.892-.125 2.662-.373.77-.25 1.64-.591 2.614-1.027.943-.497 1.634-.746 2.073-.746Zm-8.15-13.012c-1.602 0-2.882.497-3.84 1.492-.958.995-1.53 2.426-1.72 4.291h10.648c-.063-1.897-.534-3.335-1.413-4.314-.88-.98-2.105-1.47-3.675-1.47Z" fill="#4E56A6"/><path d="M169.701 20.421c.22-.576.543-1.008.968-1.297a2.428 2.428 0 0 1 1.392-.432c.724 0 1.376.248 1.958.745.582.496.873 1.113.873 1.85 0 .415-.078.784-.236 1.104l-7.786 18.591c-.252.609-.637 1.073-1.156 1.393-.52.32-1.093.48-1.722.48-.598 0-1.157-.16-1.676-.48-.519-.32-.904-.784-1.156-1.393l-5.615-13.739-5.427 13.74c-.252.608-.637 1.072-1.156 1.392-.52.32-1.094.48-1.723.48-.598 0-1.164-.16-1.699-.48a2.836 2.836 0 0 1-1.18-1.393l-7.738-18.59c-.158-.417-.236-.77-.236-1.058 0-.736.314-1.369.943-1.897.63-.529 1.322-.793 2.077-.793.535 0 1.022.144 1.463.432.44.289.77.72.99 1.297l5.569 14.652 5.71-14.507c.252-.609.613-1.065 1.085-1.37a2.816 2.816 0 0 1 1.558-.456c.566 0 1.085.152 1.557.456.472.305.833.761 1.085 1.37l5.757 14.555 5.521-14.652Zm12.28 22.483c-.85 0-1.55-.248-2.1-.745-.551-.496-.827-1.209-.827-2.137V21.478c0-.928.276-1.633.826-2.113.55-.48 1.25-.721 2.1-.721.85 0 1.557.24 2.124.72.566.481.85 1.186.85 2.114v18.544c0 .928-.284 1.64-.85 2.137-.567.497-1.274.745-2.124.745Zm0-28.536c-1.07 0-1.92-.296-2.549-.888-.63-.593-.944-1.37-.944-2.33 0-.961.315-1.73.944-2.306.63-.577 1.479-.865 2.548-.865 1.038 0 1.88.288 2.525.865.645.576.967 1.345.967 2.306 0 .96-.314 1.737-.944 2.33-.629.592-1.478.888-2.548.888Zm22.093 4.276c.818-.064 1.463.112 1.935.528.472.417.708 1.041.708 1.874 0 .865-.204 1.505-.613 1.922-.41.416-1.149.688-2.218.816l-1.416.144c-1.856.192-3.217.833-4.082 1.922-.865 1.089-1.298 2.45-1.298 4.083v10.089c0 .928-.283 1.64-.85 2.137-.565.497-1.273.745-2.123.745-.849 0-1.549-.248-2.1-.745-.55-.496-.825-1.209-.825-2.137V21.43c0-.896.275-1.585.825-2.065.551-.48 1.235-.721 2.053-.721.818 0 1.479.232 1.982.697.504.464.755 1.128.755 1.993v1.922c.598-1.41 1.487-2.498 2.666-3.267a8.075 8.075 0 0 1 3.94-1.297l.661-.048Zm23.133 17.534c.535 0 .967.209 1.298.625.33.416.495.977.495 1.681 0 .993-.582 1.826-1.746 2.498-1.07.609-2.28 1.097-3.634 1.466-1.352.368-2.642.552-3.87.552-3.711 0-6.653-1.089-8.824-3.267-2.17-2.177-3.256-5.156-3.256-8.935 0-2.402.472-4.532 1.416-6.39.944-1.857 2.273-3.298 3.987-4.323 1.715-1.025 3.658-1.537 5.828-1.537 2.077 0 3.886.464 5.427 1.393 1.542.929 2.737 2.242 3.587 3.94.85 1.697 1.274 3.698 1.274 6.004 0 1.377-.598 2.066-1.793 2.066h-13.921c.188 2.21.802 3.835 1.84 4.876 1.038 1.04 2.548 1.561 4.53 1.561 1.007 0 1.896-.128 2.666-.384.771-.256 1.644-.609 2.62-1.057.943-.512 1.635-.769 2.076-.769Zm-8.164-13.403c-1.604 0-2.886.513-3.846 1.538-.96 1.024-1.534 2.498-1.722 4.42h10.664c-.062-1.954-.534-3.436-1.415-4.444-.881-1.01-2.108-1.514-3.681-1.514Z" stroke="#4E56A6"/></g><g style="transform:translateY(2.98986%)"><path d="M45.76 35.247C44.946 36.48 44.326 38 42.667 38c-2.791 0-2.942-4.304-5.735-4.304S34.29 38 31.498 38c-2.792 0-2.943-4.304-5.736-4.304C22.97 33.696 23.12 38 20.33 38c-2.792 0-2.943-4.304-5.735-4.304C11.8 33.696 11.95 38 9.16 38c-.877 0-1.494-.425-2.013-1.008C5.149 33.516 4 29.442 4 25.087 4 12.337 13.85 2 26 2s22 10.336 22 23.087c0 3.646-.805 7.094-2.24 10.16Z" fill="#FB70A9"/><g transform="translate(11 29)"><use fill="#4E56A6" xlink:href="#a"/><use fill-opacity=".299" fill="#000" xlink:href="#b"/></g><path d="M45.76 35.247C44.946 36.48 44.326 38 42.667 38c-2.791 0-2.942-4.304-5.735-4.304S34.29 38 31.498 38c-2.792 0-2.943-4.304-5.736-4.304C22.97 33.696 23.12 38 20.33 38c-2.792 0-2.943-4.304-5.735-4.304C11.8 33.696 11.95 38 9.16 38c-.877 0-1.494-.425-2.013-1.008C5.149 33.516 4 29.442 4 25.087 4 12.337 13.85 2 26 2s22 10.336 22 23.087c0 3.646-.805 7.094-2.24 10.16Z" fill="#FB70A9"/><path d="M41 37.54c5.765-8.576 5.914-18.09.447-28.54A23.028 23.028 0 0 1 48 25.136a23.07 23.07 0 0 1-2.321 10.121C44.833 36.486 44.19 38 42.472 38A2.506 2.506 0 0 1 41 37.54Z" fill="#E24CA6"/><path d="M24.82 30.846c7.651 0 10.872-4.438 10.872-10.741S30.825 8 24.821 8c-6.005 0-10.872 5.802-10.872 12.105 0 6.303 3.221 10.741 10.872 10.741Z" fill="#FFF"/><g transform="translate(17.82 11.462)"><ellipse fill="#030776" cx="4.077" cy="4.5" rx="4.077" ry="4.5"/><ellipse fill="#FFF" cx="3.397" cy="3.462" rx="2.038" ry="2.077"/></g></g></g></svg>