<svg width="84" height="22" fill="currentColor" xmlns="http://www.w3.org/2000/svg"><g clip-path="url(#a)"><path d="M27.1 8.3c0-1.5-1.5-3.1-4-3.1-2.8 0-6 2.1-6.5 6.3-.5 4.2 2.1 6.1 4.8 6.1 2.7 0 4-1 5.4-2.4-1.2-1.5-2.8-.8-3.1-.7-.3.2-.8.4-1.6.4-1 0-2.1-.5-2.1-2.4 6.6-.7 7.1-2.7 7.1-4.2Zm-3.2.2c0 .5-.2 1.3-3.5 1.7.7-2.5 2-2.7 2.6-2.7.6.1.9.5.9 1Zm-11.1.4s-1.4 4.4-1.5 4.8c0-.4-1.1-8.3-1.1-8.3-2.4 0-3.7 1.7-4.3 3.5 0 0-1.7 4.4-1.8 4.8C4 13.4 3.8 9 3.8 9 3.6 6.8 1.6 5.4 0 5.4l2 12c2.5 0 3.9-1.7 4.6-3.5 0 0 1.5-3.9 1.6-4.1 0 .2 1.1 7.6 1.1 7.6 2.5 0 3.9-1.6 4.6-3.3l3.5-8.7c-2.6 0-3.9 1.7-4.6 3.5Zm23.6-3.8c-1.5 0-2.7.8-3.7 2.1l.8-7.2c-2.1 0-3.7 1.8-4.1 4.4l-1.6 12.9c1.2 0 2.4-.3 3.1-1.2.6.8 1.5 1.4 2.8 1.4 3.5 0 5.9-4 5.9-7.8.1-3.5-1.6-4.6-3.2-4.6Zm-.4 6.2c-.4 2.1-1.5 3.5-2.7 3.5-1.1 0-1.6-.5-1.6-.5.2-1.8.4-3 .8-4s1.4-2.5 2.4-2.5c1 .1 1.5 1.4 1.1 3.5Zm12.4-5.9H46v-.1c.2-1.6.5-2.4 1.8-2.5.8-.1 1.2-.5 1.3-1 .1-.4.3-1.7.3-1.7-4.9 0-6.4 2.1-6.8 5.3v.1h-.1c-.8 0-1.7.9-1.8 2l-.1.4h1.6l-1.4 11.2-.4 2h.2c2.3-.1 3.7-1.9 4.1-4.5l1.1-8.8h.8c.7 0 1.6-.7 1.8-2v-.4ZM61 5.2c-2.8 0-5.4 2.1-6.2 5.3-.8 3.2.4 7.1 4.5 7.1s6.5-4 6.5-7.3C65.7 7 63.5 5.2 61 5.2Zm1.1 6c-.1 1.5-.8 3.7-2.6 3.7s-1.5-2.6-1.4-3.8c.2-1.3.9-3.2 2.5-3.2 1.5 0 1.7 1.7 1.5 3.3Zm17.5-2.3s-1.4 4.4-1.5 4.8c0-.4-1.1-8.3-1.1-8.3-2.4 0-3.7 1.7-4.3 3.5 0 0-1.7 4.4-1.8 4.8 0-.3-.3-4.7-.3-4.7-.1-2.2-2.2-3.5-3.8-3.5l2 12c2.5 0 3.9-1.7 4.6-3.5 0 0 1.5-3.9 1.6-4.1 0 .2 1.1 7.6 1.1 7.6 2.5 0 3.9-1.6 4.6-3.3L84 5.4c-2.5 0-3.8 1.7-4.4 3.5ZM50.7.1l-2 16.4-.4 2h.2c2.2 0 3.8-2 4-4.4l1.2-9.4c.3-2.8-1.5-4.6-3-4.6Z"/></g><defs><clipPath id="a"><path d="M0 0h84v21.1H0z"/></clipPath></defs></svg>