<svg xmlns="http://www.w3.org/2000/svg" xmlns:xlink="http://www.w3.org/1999/xlink" width="152.702" height="103.602" viewBox="0 0 152.702 103.602">
  <defs>
    <linearGradient id="linear-gradient" x1="1.111" y1="0.991" x2="0.333" y2="-0.015" gradientUnits="objectBoundingBox">
      <stop offset="0.012" stop-color="#ffea00"/>
      <stop offset="0.958" stop-color="#007b80"/>
    </linearGradient>
  </defs>
  <g id="Groupe_1026" data-name="Groupe 1026" transform="translate(-255.298 -7001.376)">
    <g id="Groupe_40" data-name="Groupe 40" transform="translate(255.298 7069.481)">
      <g id="Groupe_39" data-name="Groupe 39" transform="translate(0 9.65)">
        <path id="Tracé_27" data-name="Tracé 27" d="M1192.063,68.092h5.782V92.457h-5.683l-.3-3.558c-1.384,2.866-5.189,4.25-7.907,4.3-7.215.05-12.552-4.4-12.552-12.948,0-8.4,5.584-12.8,12.7-12.751,3.261,0,6.375,1.532,7.758,3.954Zm-14.627,12.157a6.979,6.979,0,0,0,7.215,7.413c9.488,0,9.488-14.777,0-14.777A6.938,6.938,0,0,0,1177.436,80.249Z" transform="translate(-1171.407 -67.351)" fill="#fff"/>
        <path id="Tracé_28" data-name="Tracé 28" d="M1304.207,69.5,1293.83,94.017h-6.523L1276.88,69.5h6.572l3.36,8.055,3.756,10.28,3.706-10.181,3.36-8.154Z" transform="translate(-1248.253 -68.812)" fill="#fff"/>
        <path id="Tracé_29" data-name="Tracé 29" d="M1387.932,82.028c.4,3.015,3.015,5.189,7.264,5.189,2.223,0,5.14-.84,6.523-2.274l3.855,3.806C1403,91.418,1398.8,92.7,1395.1,92.7c-8.4,0-13.392-5.189-13.392-13,0-7.413,5.04-12.751,12.947-12.751,8.154,0,13.244,5.041,12.305,15.073Zm13.244-4.991c-.4-3.163-2.866-4.745-6.325-4.745-3.261,0-5.93,1.582-6.819,4.745Z" transform="translate(-1324.628 -66.955)" fill="#fff"/>
        <path id="Tracé_30" data-name="Tracé 30" d="M1509.4,92.989V80.238c0-3.707-2.026-6.524-5.88-6.524-3.706,0-6.227,3.114-6.227,6.82V92.989h-5.979V68.575h5.386l.4,3.311c2.471-2.422,4.942-3.657,8.005-3.657,5.733,0,10.328,4.3,10.328,11.96v12.8Z" transform="translate(-1404.487 -67.883)" fill="#fff"/>
        <path id="Tracé_31" data-name="Tracé 31" d="M1599.287,69.322V93.785h6.029V69.322Z" transform="translate(-1483.154 -68.68)" fill="#fff"/>
        <path id="Tracé_32" data-name="Tracé 32" d="M1657.269,68.092h5.782V92.457h-5.683l-.3-3.558c-1.384,2.866-5.189,4.25-7.906,4.3-7.215.05-12.552-4.4-12.552-12.948,0-8.4,5.584-12.8,12.7-12.751,3.261,0,6.375,1.532,7.758,3.954Zm-14.628,12.157a6.979,6.979,0,0,0,7.215,7.413c9.488,0,9.488-14.777,0-14.777A6.938,6.938,0,0,0,1642.641,80.249Z" transform="translate(-1510.348 -67.351)" fill="#fff"/>
      </g>
      <path id="Tracé_33" data-name="Tracé 33" d="M1604.4,34.923c0,4.7-7.116,4.7-7.116,0S1604.4,30.228,1604.4,34.923Z" transform="translate(-1481.694 -31.401)" fill="#17b6a4"/>
    </g>
    <g id="Groupe_41" data-name="Groupe 41" transform="translate(305.705 7001.376)">
      <path id="Tracé_34" data-name="Tracé 34" d="M1010.847,121.26c0-.383.01-.763.026-1.141,0-.088.007-.177.011-.265.016-.379.026-.759.026-1.142,0-.005,0-.011,0-.017a11.153,11.153,0,0,1-3.343,7.992,11.54,11.54,0,0,1-3.622,2.438,11.079,11.079,0,0,1-8.776,0,11.512,11.512,0,0,1-3.622-2.438A11.16,11.16,0,0,1,988.2,118.7c0,.005,0,.011,0,.017a26.375,26.375,0,0,0,18.88,25.278,26.31,26.31,0,0,0,10.076-5.619A26.25,26.25,0,0,1,1010.847,121.26Z" transform="translate(-973.252 -92.358)" fill="#00594d"/>
      <path id="Tracé_35" data-name="Tracé 35" d="M959.422,29.273a26.238,26.238,0,0,0-7.476-3.593,26.36,26.36,0,0,0,15,50.54,26.375,26.375,0,0,1-18.879-25.278v-.034c0-.1,0-.2,0-.294a11.11,11.11,0,0,1,.833-3.921,11.228,11.228,0,0,1,2.507-3.726,11.116,11.116,0,0,1,3.761-2.507,11.433,11.433,0,0,1,14.766,6.234,11.129,11.129,0,0,1,.832,3.921A26.323,26.323,0,0,0,959.422,29.273Z" transform="translate(-933.117 -24.588)" fill="#17b6a4"/>
      <path id="Tracé_36" data-name="Tracé 36" d="M1030.061,30.9a26.381,26.381,0,0,0-27.569-8.152,26.371,26.371,0,0,1,18.825,24.934c0,.1,0,.2,0,.294v.034c0,.383-.01.763-.026,1.142,0,.088-.007.177-.011.265-.016.378-.026.759-.026,1.141A26.391,26.391,0,0,0,1036.372,74.4V48.011A26.25,26.25,0,0,0,1030.061,30.9Z" transform="translate(-983.663 -21.656)" fill="url(#linear-gradient)"/>
      <path id="Tracé_37" data-name="Tracé 37" d="M1071.729,123.228c0-.088.008-.177.011-.265C1071.736,123.051,1071.733,123.139,1071.729,123.228Z" transform="translate(-1034.108 -95.467)" fill="#4fdde1"/>
      <path id="Tracé_38" data-name="Tracé 38" d="M988.2,117.841v.018c0-.1,0-.208,0-.312C988.2,117.645,988.2,117.743,988.2,117.841Z" transform="translate(-973.252 -91.521)" fill="#fff"/>
      <path id="Tracé_39" data-name="Tracé 39" d="M1071.856,117.841c0-.1,0-.2,0-.294,0,.1,0,.208,0,.312Z" transform="translate(-1034.197 -91.521)" fill="#fff"/>
    </g>
  </g>
</svg>
