<svg xmlns="http://www.w3.org/2000/svg" xmlns:xlink="http://www.w3.org/1999/xlink"
	width="244.5" height="81.9" viewBox="0 0 244.5 81.9" style="enable-background:new 0 0 244.5 81.9;">
<style type="text/css">
	.st0{fill:#FFFFFF;}
</style>
<path class="st0" d="M20.9,18.6c0.7,0.4,1.3,0.8,1.9,1.4c0.7,0.7,1.2,1.6,1.6,2.5c0.5,1.2,0.7,2.6,0.6,3.9c0,0.9,0,1.7-0.2,2.6
	c-0.2,1-0.4,1.9-0.8,2.8c-0.4,1-1,1.8-1.7,2.6c-0.8,0.8-1.8,1.5-2.9,1.9c-1.4,0.5-2.9,0.7-4.4,0.7H0V1.6h13.9c1.7,0,3.4,0.4,4.8,1.1
	c1.4,0.7,2.5,1.8,3.3,3.1c0.8,1.3,1.3,2.9,1.2,4.5c0,3.8-1.5,6.3-4.6,7.5C19.5,18,20.2,18.2,20.9,18.6z M6.8,7.8v8.1h5.1
	c2.2,0,4-1.8,4-4.1c0-1.1-0.4-2.1-1.2-2.8C14,8.2,13,7.8,11.9,7.8H6.8z M6.8,22v8.7h6.7c1.1,0,2.1-0.4,2.9-1.2
	c0.8-0.8,1.2-1.9,1.2-3.1c0-2.4-2-4.4-4.4-4.4H6.8z M49,30.7v6.2H27.8V1.6h6.9v29.1L49,30.7z M68.1,0.6c2.5,0,4.9,0.5,7.1,1.5
	c2.2,0.9,4.2,2.3,5.8,4c1.7,1.7,3,3.8,3.9,6c1,2.3,1.4,4.8,1.4,7.3c0,2.5-0.5,5-1.4,7.3c-0.9,2.2-2.3,4.3-3.9,6
	c-1.7,1.7-3.6,3.1-5.8,4c-4.6,1.9-9.7,1.9-14.2,0c-2.2-0.9-4.2-2.3-5.8-4c-1.7-1.7-3-3.8-3.9-6c-1-2.3-1.5-4.8-1.4-7.3
	c0-5,1.9-9.7,5.4-13.3c1.7-1.7,3.6-3.1,5.8-4C63.2,1.1,65.6,0.6,68.1,0.6z M68.1,7.2c-2.1,0-4.1,0.6-5.9,1.6
	c-1.8,1.1-3.2,2.6-4.2,4.4c-1.1,1.9-1.6,4-1.6,6.1c0,2.1,0.5,4.3,1.6,6.1c1,1.8,2.5,3.3,4.2,4.4c3.6,2.2,8.2,2.2,11.8,0
	c1.8-1.1,3.2-2.6,4.2-4.4c1.1-1.9,1.6-4,1.6-6.1c0-2.1-0.5-4.2-1.6-6.1c-1-1.8-2.5-3.3-4.2-4.4C72.2,7.8,70.2,7.2,68.1,7.2z
	 M106.7,0.6c2.4,0,4.9,0.5,7.1,1.5c2.2,0.9,4.2,2.3,5.8,4c3.5,3.6,5.4,8.3,5.3,13.3c0,2.5-0.5,5-1.4,7.3c-0.9,2.2-2.3,4.3-3.9,6
	c-1.7,1.7-3.6,3.1-5.8,4c-4.6,1.9-9.7,1.9-14.2,0c-2.2-0.9-4.2-2.3-5.8-4c-1.7-1.7-3-3.8-3.9-6c-1-2.3-1.4-4.8-1.4-7.3
	c0-2.5,0.5-5,1.4-7.3c0.9-2.2,2.3-4.3,3.9-6c1.7-1.7,3.6-3.1,5.8-4C101.8,1.1,104.2,0.6,106.7,0.6z M106.7,7.2
	c-2.1,0-4.1,0.5-5.9,1.6c-1.8,1.1-3.2,2.6-4.2,4.4c-1.1,1.9-1.6,4-1.6,6.1c0,2.1,0.5,4.3,1.6,6.1c1,1.8,2.5,3.3,4.2,4.4
	c3.6,2.2,8.2,2.2,11.8,0c1.8-1.1,3.2-2.6,4.2-4.4c1.1-1.9,1.6-4,1.6-6.1c0-2.1-0.5-4.2-1.6-6.1c-1-1.8-2.5-3.3-4.2-4.4
	C110.8,7.8,108.8,7.2,106.7,7.2z M146.5,32.9l-9.1-15.5l-4.3,19.5h-7.1L134.1,0l12.4,20.6L158.9,0l8.1,36.9h-7.1l-4.3-19.5
	L146.5,32.9z M169.8,1.6h6.9v35.3h-6.9V1.6z M203.2,1.6h6.9v36.5l-22.6-22.2v21h-6.9V0.2l22.6,22.2L203.2,1.6z M238,21.4h6.5v14.7
	c-3.6,1.4-7.5,2.1-11.3,2c-2.3,0-4.6-0.3-6.8-1c-2.2-0.7-4.3-1.7-6.1-3.1c-2.3-1.7-4.1-3.9-5.3-6.5c-2.3-4.9-2.5-10.5-0.4-15.4
	c0.9-2.2,2.3-4.3,3.9-6c1.7-1.7,3.6-3.1,5.8-4c2.2-1,4.7-1.5,7.1-1.5c4.6,0,9,1.8,12.3,4.9l-4.6,4.5c-2.1-1.9-4.9-3-7.7-3
	c-2.1,0-4.1,0.6-5.9,1.7c-3.7,2.3-5.9,6.4-5.8,10.7c0,1.8,0.3,3.5,1.1,5.2c1.4,3.3,4.3,5.8,7.8,6.7c1.6,0.4,3.3,0.6,5,0.6
	c1.5-0.1,3-0.2,4.5-0.5L238,21.4z"/>
<g id="BLOOMING_">
	<path class="st0" d="M106.6,48.7c-1.2,0.4-2.3,1.1-3.3,1.9c-2.4,2.1-4.4,4.7-5.8,7.6c-0.9,1.8-1.6,3.6-2.2,5.4
		c-0.6,1.8-1.1,3.7-1.5,5.6c-0.4,1.9-0.7,3.7-0.9,5.4l4.2-0.3c1.3-0.1,2.7-0.1,3.9-0.1c1.2,0,2.4,0.1,3.6,0.3
		c1.1,0.2,2.3,0.5,3.3,0.9c0.2,0,0.4,0.2,0.8,0.3c0.4,0.2,0.7,0.4,1.1,0.6c0.3,0.2,0.6,0.4,0.8,0.7c0.2,0.2,0.2,0.4,0,0.6
		c0,0,0,0,0,0c-2.1-0.8-4.3-1.3-6.6-1.6c-2.3-0.3-4.6-0.3-6.8-0.1c-4.6,0.4-9.1,1.6-13.2,3.6c-0.8-0.4-1.2-0.7-1.3-1
		s0.3-0.7,1.2-1.1s1.8-0.8,2.8-1.1l2.8-1l0.6-0.2c0.2-0.1,0.4-0.1,0.6-0.2c-0.3-0.3-0.6-0.6-0.7-1c-0.2-0.3-0.3-0.7-0.4-1
		c-0.1-0.4-0.1-0.8-0.1-1.2v-1.1c0.7-5.1,2.3-10,4.6-14.6c1.1-2.1,2.5-4.1,4.1-5.9c1.4-1.6,3.1-2.8,5-3.6c0.6-0.3,1.3-0.3,1.9-0.1
		c0.6,0.2,1.1,0.7,1.4,1.2l0.1,0.2c0,0.1,0.1,0.1,0.1,0.2C106.7,48.5,106.6,48.6,106.6,48.7C106.6,48.6,106.6,48.7,106.6,48.7z"/>
	<path class="st0" d="M112.1,71.2c-0.6,0.5-1,0.9-1.3,1.2s-0.6,0.5-0.8,0.7l-0.5,0.3c-0.1,0.1-0.2,0.1-0.3,0.1
		c-0.4,0.1-0.9,0.1-1.3,0c-0.4-0.1-0.8-0.4-1-0.8c-0.3-0.4-0.5-0.9-0.6-1.4c-0.1-0.7-0.1-1.3,0.1-2l-1.4,1.5c-0.5,0.5-1.2,0.9-1.9,1
		c-0.7,0.2-1.3,0.2-2,0c-0.6-0.2-1.2-0.5-1.7-1c-0.5-0.5-0.9-1.2-0.9-1.9c-0.1-0.9,0.1-1.8,0.4-2.6c0.3-0.9,0.8-1.8,1.3-2.6
		c0.5-0.8,1.2-1.6,1.8-2.3c0.6-0.6,1.2-1.2,1.9-1.7c0.5-0.4,1.1-0.7,1.7-1c0.5-0.2,1-0.3,1.5-0.3c0.5,0,1,0.1,1.5,0.3
		c0.5,0.2,1.1,0.5,1.6,0.9c0.4-0.2,0.7-0.4,1-0.7c0.3-0.2,0.6-0.4,1-0.4c0.4,0,0.7,0.2,1,0.4c0.3,0.3,0.7,0.5,1.1,0.7
		c-0.4,0.9-0.8,1.9-1.3,2.8s-0.9,1.9-1.3,2.8s-0.8,1.9-1.1,2.9c-0.3,1-0.5,2-0.7,3c1.3-0.9,2.4-2,3.5-3.2c1-1.2,2-2.4,3-3.6l1.1,0.5
		c-0.8,1.2-1.7,2.4-2.6,3.4C114.1,69.2,113.1,70.3,112.1,71.2z M109.5,60.6c-0.2-0.3-0.4-0.4-0.6-0.4c-0.2,0-0.5,0.1-0.7,0.2
		c-1.5,1-2.9,2.3-3.9,3.8c-1,1.5-1.7,3.1-2.1,4.8c0.7-0.3,1.3-0.8,1.9-1.3c0.7-0.7,1.5-1.4,2.1-2.2c0.7-0.8,1.3-1.6,1.9-2.5
		C108.7,62.2,109.1,61.4,109.5,60.6z"/>
	<path class="st0" d="M133,64.8c-1.1,2.1-2.2,4.2-3.2,6.3s-2.1,4.1-3.2,6.1c-0.2,0.4-0.6,0.8-1,1c-0.5,0.2-1,0.2-1.5,0l-0.9-0.3
		c-0.3-0.1-0.6-0.2-0.8-0.4c-0.3-0.2-0.5-0.4-0.6-0.7c-0.2-0.3-0.3-0.6-0.3-1c0-0.6,0-1.2,0-1.8c0-0.7,0.1-1.4,0.2-2.1
		c0.1-0.7,0.2-1.4,0.3-2.1s0.3-1.3,0.4-1.9l-1.4,1.5c-0.4,0.5-0.9,0.9-1.4,1.2c-0.4,0.3-0.9,0.5-1.5,0.6c-0.6,0-1.1-0.1-1.5-0.5
		c-0.6-0.5-0.9-1.2-0.9-2c-0.1-1.7,0.2-3.4,0.8-5.1c0.6-1.6,1.6-3.1,2.9-4.2c0.7-0.7,1.6-1.2,2.5-1.5c1-0.2,2.1,0,2.9,0.6
		c0.1,0,0.1,0.1,0.2,0.1c0,0,0.1,0,0.3,0c0.7-1.5,1.3-3,2-4.3c0.6-1.4,1.3-2.7,1.9-3.9s1.3-2.4,2-3.5c0.7-1.1,1.5-2.2,2.3-3.2
		c0.2-0.3,0.5-0.5,0.7-0.5c0.3,0,0.6,0.2,0.8,0.3c0.3,0.2,0.6,0.4,0.7,0.5c0.1,0.1,0.3,0.3,0.3,0.4c0,0.2,0,0.4-0.1,0.6
		c-0.1,0.3-0.2,0.6-0.4,0.8c-1.4,2.8-2.7,5.6-4,8.4s-2.5,5.6-3.6,8.5c-0.4,1-0.7,2-1.1,3.1s-0.7,2.2-1.1,3.4s-0.7,2.3-0.9,3.4
		s-0.5,2.2-0.7,3.2c0,0.2,0.1,0.1,0.3-0.3s0.6-0.9,1.1-1.6s0.9-1.5,1.5-2.5l1.7-2.8c0.6-1,1.1-1.9,1.6-2.7s0.9-1.6,1.3-2.1L133,64.8
		z M118.6,69.6c2.9-2.1,5-5.2,5.7-8.7c-0.8,0.2-1.5,0.5-2.1,1.1c-0.7,0.6-1.4,1.4-1.9,2.2c-0.5,0.8-1,1.8-1.3,2.7
		C118.7,67.8,118.6,68.7,118.6,69.6L118.6,69.6z"/>
	<path class="st0" d="M141,65.1c-0.6,0.7-1.1,1.4-1.8,2.2s-1.2,1.4-1.8,2s-1.1,1.2-1.6,1.7s-0.9,0.8-1.1,1.1c-0.3,0.3-0.6,0.5-1,0.6
		c-0.4,0.1-0.8,0.1-1.1,0c-0.4-0.1-0.8-0.2-1.1-0.4c-0.4-0.2-0.7-0.5-1-0.8c-0.2-0.2-0.3-0.5-0.4-0.7c-0.3-1-0.3-2,0-3
		c0.2-0.8,0.5-1.7,0.9-2.4c0.4-0.8,0.8-1.6,1.2-2.3c0.4-0.6,0.8-1.2,1.2-1.8c0.4-0.5,1-0.7,1.6-0.7c0.7,0,1.3,0.4,1.6,0.9
		c0.2,0.3,0.2,0.6,0.1,0.9c-0.2,0.7-0.5,1.4-0.8,2c-0.3,0.7-0.7,1.4-1.1,2.1s-0.7,1.4-1,2.1c-0.3,0.6-0.5,1.3-0.7,2
		c0.7-0.3,1.3-0.7,1.9-1.1c0.6-0.5,1.2-1,1.8-1.6c0.6-0.6,1.1-1.2,1.6-1.9l1.5-1.8L141,65.1z M135.4,57.9c0-0.4,0-0.9,0.1-1.3
		c0.1-0.5,0.2-0.9,0.4-1.3c0.2-0.4,0.4-0.7,0.8-0.9c0.4-0.2,0.8-0.2,1.2,0c0.4,0.2,0.8,0.3,1.1,0.6c0.2,0.1,0.4,0.3,0.5,0.6
		c0.1,0.2,0.1,0.5,0,0.7c-0.1,0.3-0.3,0.7-0.5,1l-0.3,0.5c-0.1,0.1-0.1,0.2-0.2,0.3c-0.1,0.1-0.1,0.2-0.2,0.3
		c-0.1,0.2-0.2,0.3-0.3,0.5c-0.2,0.4-0.4,0.6-0.5,0.7c-0.3,0-0.6-0.1-0.9-0.3c-0.3-0.1-0.6-0.3-0.9-0.4
		C135.5,58.7,135.3,58.3,135.4,57.9L135.4,57.9z"/>
	<path class="st0" d="M154.4,65.1c-1.3,1.2-2.6,2.3-4,3.4c-1.4,1.1-2.8,2.1-4.4,2.9c-1.6,0.9-3.5,0.8-5-0.1
		c-0.6-0.4-1.1-0.9-1.5-1.4c-0.4-0.6-0.6-1.3-0.5-2c0.1-1.7,0.5-3.4,1.3-5c0.8-1.6,2-2.9,3.4-3.9c0.5-0.4,1.1-0.7,1.7-0.8
		c0.6-0.1,1.2,0,1.7,0.2c0.6,0.2,1.1,0.5,1.6,0.8c0.5,0.3,1,0.7,1.4,1.1c0.9,0.6,1.1,1.9,0.5,2.8c-0.1,0.1-0.1,0.1-0.2,0.2
		c-1.1,1.4-2.5,2.5-4.2,3.1c-0.6,0.2-1.3,0.3-1.9,0.1c-0.6-0.2-1.2-0.4-1.8-0.6c-0.3,0.5-0.6,1.1-0.8,1.7c-0.2,0.6-0.3,1.2-0.3,1.8
		c0,0.4,0.1,0.8,0.3,1.1c0.2,0.2,0.6,0.2,1.1,0.1c1-0.3,2-0.6,2.9-1.1c0.9-0.5,1.8-1,2.6-1.6c0.8-0.6,1.6-1.2,2.4-1.8
		s1.6-1.2,2.4-1.8L154.4,65.1z M147.8,60.3c-0.4,0.2-0.8,0.4-1.1,0.7c-0.4,0.3-0.9,0.7-1.2,1.1c-0.4,0.4-0.8,0.8-1.1,1.2
		c-0.3,0.3-0.5,0.7-0.8,1.1c0.5,0,1,0,1.4-0.3c1-0.5,1.8-1.2,2.4-2.2C147.6,61.4,147.7,60.9,147.8,60.3z"/>
	<path class="st0" d="M163,65c-0.8,0.7-1.7,1.4-2.7,2c-0.9,0.6-1.9,1.2-2.8,1.9c0.2,0.9,0.4,1.8,0.6,2.5c0.1,0.7,0.2,1.4,0.2,2.1
		c0,0.7-0.2,1.4-0.5,2c-0.3,0.8-0.8,1.6-1.3,2.3c-1.5,1.9-3.6,3.2-5.9,3.9c-0.8,0.3-1.8,0.3-2.6,0c-0.8-0.3-1.6-0.8-2.2-1.4
		c-0.2-0.3-0.4-0.6-0.4-0.9c-0.1-0.3-0.1-0.7,0-1c0.1-0.4,0.2-0.7,0.3-1.1c0.2-0.4,0.3-0.7,0.6-1.1c0.4-0.7,0.9-1.3,1.5-1.9
		c0.6-0.6,1.2-1.1,1.9-1.6c0.7-0.5,1.5-1,2.3-1.6s1.7-1.1,2.7-1.8c-0.3-0.8-0.5-1.5-0.8-2.1s-0.4-1-0.5-1.4s-0.2-0.7-0.3-1
		c-0.1-0.2-0.2-0.5-0.2-0.7c-0.2-0.8-0.2-1.6-0.1-2.4c0.1-0.8,0.4-1.5,0.9-2.2c0.4-0.7,1-1.2,1.6-1.7c0.6-0.5,1.4-0.8,2.2-1
		c0.4-0.1,0.8-0.1,1.2,0c0.4,0.1,0.8,0.2,1.1,0.4c0.4,0.2,0.7,0.4,1,0.7c0.3,0.3,0.5,0.6,0.7,1c-0.1,0-0.2,0.1-0.2,0.1h-0.3
		c-0.9,0-1.9,0.3-2.7,0.8c-0.7,0.4-1.2,1.1-1.5,1.9c-0.3,0.9-0.5,1.8-0.4,2.8c0.1,1.2,0.3,2.4,0.7,3.5l5.5-3.8L163,65z M147.1,79.5
		c1-0.1,2-0.5,2.8-1c0.9-0.6,1.8-1.3,2.5-2.1c0.7-0.8,1.3-1.7,1.7-2.7c0.4-0.9,0.5-1.9,0.5-2.8l-2.6,1.7c-0.9,0.6-1.7,1.2-2.4,1.9
		c-0.7,0.7-1.3,1.4-1.8,2.2C147.2,77.6,147,78.5,147.1,79.5L147.1,79.5z"/>
</g>
</svg>
