<svg xmlns="http://www.w3.org/2000/svg" viewBox="0 0 265.512 70.021">
  <defs>
    <style>
      .cls-1 {
        fill: #fff;
      }
    </style>
  </defs>
  <title>logo_candc_vect</title>
  <g>
    <g>
      <path class="cls-1" d="M62.982,106.021a25.632,25.632,0,0,1-19.149-7.738C36.58,91.03,36.87,81.359,36.87,71.01s-0.29-20.019,6.963-27.274A25.638,25.638,0,0,1,62.982,36c13.057,0,23.6,7.254,26.113,22.438H71.88c-1.064-3.869-3.192-7.35-8.8-7.35a8.217,8.217,0,0,0-6.673,2.9c-1.548,2.031-2.612,4.449-2.612,17.021S54.858,86,56.406,88.032a8.217,8.217,0,0,0,6.673,2.9c5.609,0,7.737-3.481,8.8-7.35H89.1c-2.515,15.185-13.056,22.438-26.113,22.438" transform="translate(-36.869 -36)"/>
      <path class="cls-1" d="M147.818,83.583h17.215c1.064,3.869,3.192,7.35,8.8,7.35a8.217,8.217,0,0,0,6.673-2.9c1.548-2.031,2.612-4.449,2.612-17.022s-1.064-14.99-2.612-17.021a8.217,8.217,0,0,0-6.673-2.9c-5.609,0-7.737,3.481-8.8,7.35H147.818C150.333,43.254,160.875,36,173.931,36a25.638,25.638,0,0,1,19.149,7.736c7.254,7.255,6.963,16.927,6.963,27.274s0.291,20.02-6.963,27.273a25.636,25.636,0,0,1-19.149,7.738c-13.056,0-23.6-7.253-26.113-22.438" transform="translate(-36.869 -36)"/>
      <path class="cls-1" d="M114.544,49.347c-3.288,0-4.353,1.741-4.353,4.159,0,2.031,2.515,4.449,3.675,5.609,0.871-.58,2.322-1.645,2.322-1.645,1.644-1.16,2.708-2.514,2.708-4.061,0-2.321-1.451-4.062-4.352-4.062m-5.32,27.563c-3.192,2.225-4.062,4.255-4.062,7.544,0,4.255,3.772,7.253,8.027,7.253a9.156,9.156,0,0,0,6.771-2.514Zm24.662,28.531-4.352-5.029c-3.384,2.514-7.156,5.609-16.345,5.609-16.247,0-23.307-8.027-23.307-21.47,0-7.93,5.8-13.83,10.928-17.216-2.418-2.707-6.48-7.35-6.48-14.216C94.33,42.964,101.391,36,114.544,36c12.186,0,19.246,7.158,19.246,17.312,0,5.223-2.515,8.608-6.77,11.8,0,0-3.1,2.418-4.836,3.578l8.124,9.382c1.934-2.224,2.9-6.673,3.192-9.961h14.894c-0.677,8.994-3,16.055-8.027,21.566l13.442,15.765H133.886Z" transform="translate(-36.869 -36)"/>
    </g>
    <g>
      <path class="cls-1" d="M215.481,51.445v-0.6a2.109,2.109,0,0,1-1.705.666A2.367,2.367,0,0,1,212,50.9a2.223,2.223,0,0,1-.573-1.558c0-1.106.759-2.012,2.371-2.012h1.639V46.982c0-.759-0.373-1.092-1.292-1.092a1.49,1.49,0,0,0-1.333.573l-1.105-1.079a2.917,2.917,0,0,1,2.5-.959c1.945,0,2.957.826,2.957,2.451v4.569h-1.691Zm-0.04-2.931h-1.372a0.812,0.812,0,0,0-.973.786,0.825,0.825,0,0,0,1,.8,1.373,1.373,0,0,0,1.092-.333,1.141,1.141,0,0,0,.253-0.879V48.514Z" transform="translate(-36.869 -36)"/>
      <path class="cls-1" d="M221.435,54.069a3.245,3.245,0,0,1-2.518-.906L220,52.071a1.767,1.767,0,0,0,1.358.533,1.312,1.312,0,0,0,1.4-1.438V50.459a2.033,2.033,0,0,1-1.652.693,2.31,2.31,0,0,1-1.652-.613c-0.653-.653-0.706-1.545-0.706-2.757s0.053-2.092.706-2.744a2.343,2.343,0,0,1,1.665-.613,2.032,2.032,0,0,1,1.692.732V44.5h1.679v6.688A2.818,2.818,0,0,1,221.435,54.069Zm0.173-8.085c-1.026,0-1.132.879-1.132,1.8s0.106,1.812,1.132,1.812,1.146-.893,1.146-1.812S222.634,45.983,221.608,45.983Z" transform="translate(-36.869 -36)"/>
      <path class="cls-1" d="M227.789,48.514a1.433,1.433,0,0,0,1.519,1.545,1.921,1.921,0,0,0,1.572-.653l1.053,1.026a3.305,3.305,0,0,1-2.638,1.092c-1.639,0-3.21-.746-3.21-3.557,0-2.265,1.226-3.543,3.024-3.543,1.932,0,3.024,1.412,3.024,3.317v0.772h-4.343Zm2.478-1.932a1.293,1.293,0,0,0-2.318,0,1.907,1.907,0,0,0-.16.746h2.638A1.915,1.915,0,0,0,230.267,46.582Z" transform="translate(-36.869 -36)"/>
      <path class="cls-1" d="M237.766,51.445v-4.2a1.157,1.157,0,1,0-2.3,0v4.2h-1.731V44.5h1.691v0.64a2.376,2.376,0,0,1,1.732-.719,2.254,2.254,0,0,1,1.638.613,2.571,2.571,0,0,1,.706,1.971v4.436h-1.731Z" transform="translate(-36.869 -36)"/>
      <path class="cls-1" d="M244.119,51.525c-1.386,0-3.1-.746-3.1-3.557s1.718-3.543,3.1-3.543a2.956,2.956,0,0,1,2.291.932l-1.172,1.172a1.4,1.4,0,0,0-1.119-.546,1.2,1.2,0,0,0-.986.453,2.351,2.351,0,0,0-.386,1.532,2.392,2.392,0,0,0,.386,1.545,1.2,1.2,0,0,0,.986.453,1.4,1.4,0,0,0,1.119-.546l1.172,1.159A2.967,2.967,0,0,1,244.119,51.525Z" transform="translate(-36.869 -36)"/>
      <path class="cls-1" d="M248.874,48.514a1.433,1.433,0,0,0,1.519,1.545,1.921,1.921,0,0,0,1.572-.653l1.053,1.026a3.305,3.305,0,0,1-2.638,1.092c-1.639,0-3.21-.746-3.21-3.557,0-2.265,1.226-3.543,3.024-3.543,1.932,0,3.024,1.412,3.024,3.317v0.772h-4.343Zm2.478-1.932a1.293,1.293,0,0,0-2.318,0,1.916,1.916,0,0,0-.16.746h2.638A1.915,1.915,0,0,0,251.352,46.582Z" transform="translate(-36.869 -36)"/>
      <path class="cls-1" d="M261.741,51.445V50.792a2.085,2.085,0,0,1-1.719.733,2.45,2.45,0,0,1-1.705-.626,4.149,4.149,0,0,1-.706-2.93,4.116,4.116,0,0,1,.706-2.917,2.418,2.418,0,0,1,1.692-.626,2.08,2.08,0,0,1,1.692.692V41.96h1.731v9.484h-1.691Zm-1.226-5.461c-1.039,0-1.172.853-1.172,1.985s0.133,2,1.172,2,1.186-.866,1.186-2S261.555,45.983,260.516,45.983Z" transform="translate(-36.869 -36)"/>
      <path class="cls-1" d="M266.735,48.514a1.433,1.433,0,0,0,1.519,1.545,1.921,1.921,0,0,0,1.572-.653l1.053,1.026a3.305,3.305,0,0,1-2.638,1.092c-1.639,0-3.21-.746-3.21-3.557,0-2.265,1.226-3.543,3.024-3.543,1.932,0,3.024,1.412,3.024,3.317v0.772h-4.343Zm2.478-1.932a1.293,1.293,0,0,0-2.318,0,1.916,1.916,0,0,0-.16.746h2.638A1.915,1.915,0,0,0,269.213,46.582Z" transform="translate(-36.869 -36)"/>
    </g>
    <g>
      <path class="cls-1" d="M214.682,67.509c-1.385,0-3.1-.746-3.1-3.557s1.719-3.543,3.1-3.543a2.956,2.956,0,0,1,2.291.932L215.8,62.514a1.4,1.4,0,0,0-1.119-.546,1.2,1.2,0,0,0-.986.453,2.351,2.351,0,0,0-.386,1.532A2.392,2.392,0,0,0,213.7,65.5a1.2,1.2,0,0,0,.986.453A1.4,1.4,0,0,0,215.8,65.4l1.172,1.159A2.967,2.967,0,0,1,214.682,67.509Z" transform="translate(-36.869 -36)"/>
      <path class="cls-1" d="M222.874,66.657a2.878,2.878,0,0,1-2.158.853,2.845,2.845,0,0,1-2.145-.853,3.531,3.531,0,0,1-.786-2.7,3.515,3.515,0,0,1,.786-2.691,2.843,2.843,0,0,1,2.145-.853,2.876,2.876,0,0,1,2.158.853,3.515,3.515,0,0,1,.786,2.691A3.531,3.531,0,0,1,222.874,66.657Zm-1.346-4.383a1.094,1.094,0,0,0-.812-0.306,1.065,1.065,0,0,0-.8.306,2.345,2.345,0,0,0-.4,1.679,2.38,2.38,0,0,0,.4,1.691,1.063,1.063,0,0,0,.8.307,1.093,1.093,0,0,0,.813-0.307,2.378,2.378,0,0,0,.4-1.691A2.343,2.343,0,0,0,221.528,62.274Z" transform="translate(-36.869 -36)"/>
      <path class="cls-1" d="M233.384,67.429v-4.2a1.156,1.156,0,1,0-2.3-.04v4.236h-1.731v-4.2a1.157,1.157,0,1,0-2.3,0v4.2h-1.731v-6.94H227v0.64a2.429,2.429,0,0,1,1.732-.719,2.151,2.151,0,0,1,1.838.879,2.646,2.646,0,0,1,2.078-.879,2.422,2.422,0,0,1,1.705.613,2.617,2.617,0,0,1,.759,1.971v4.436h-1.732Z" transform="translate(-36.869 -36)"/>
      <path class="cls-1" d="M245.052,67.429v-4.2a1.156,1.156,0,1,0-2.3-.04v4.236h-1.731v-4.2a1.157,1.157,0,1,0-2.3,0v4.2h-1.731v-6.94h1.691v0.64a2.429,2.429,0,0,1,1.732-.719,2.151,2.151,0,0,1,1.838.879,2.646,2.646,0,0,1,2.078-.879,2.422,2.422,0,0,1,1.705.613,2.617,2.617,0,0,1,.759,1.971v4.436h-1.732Z" transform="translate(-36.869 -36)"/>
      <path class="cls-1" d="M252.644,67.429v-0.64a2.374,2.374,0,0,1-1.732.72,2.254,2.254,0,0,1-1.638-.613,2.572,2.572,0,0,1-.706-1.972V60.489H250.3v4.2a1.157,1.157,0,1,0,2.3,0v-4.2h1.732v6.94h-1.692Z" transform="translate(-36.869 -36)"/>
      <path class="cls-1" d="M260.316,67.429v-4.2a1.157,1.157,0,1,0-2.3,0v4.2H256.28v-6.94h1.691v0.64a2.376,2.376,0,0,1,1.732-.719,2.254,2.254,0,0,1,1.638.613,2.571,2.571,0,0,1,.706,1.971v4.436h-1.731Z" transform="translate(-36.869 -36)"/>
      <path class="cls-1" d="M263.886,59.3V57.891h1.771V59.3h-1.771Zm0.027,8.126v-6.94h1.731v6.94h-1.731Z" transform="translate(-36.869 -36)"/>
      <path class="cls-1" d="M270.333,67.509c-1.385,0-3.1-.746-3.1-3.557s1.719-3.543,3.1-3.543a2.956,2.956,0,0,1,2.291.932l-1.172,1.172a1.4,1.4,0,0,0-1.119-.546,1.2,1.2,0,0,0-.986.453,2.351,2.351,0,0,0-.386,1.532,2.392,2.392,0,0,0,.386,1.545,1.2,1.2,0,0,0,.986.453,1.4,1.4,0,0,0,1.119-.546l1.172,1.159A2.967,2.967,0,0,1,270.333,67.509Z" transform="translate(-36.869 -36)"/>
      <path class="cls-1" d="M277.472,67.429v-0.6a2.109,2.109,0,0,1-1.705.666A2.367,2.367,0,0,1,274,66.883a2.223,2.223,0,0,1-.573-1.558c0-1.106.759-2.012,2.371-2.012h1.639V62.967c0-.759-0.373-1.092-1.292-1.092a1.49,1.49,0,0,0-1.332.573L273.7,61.368a2.917,2.917,0,0,1,2.5-.959c1.945,0,2.957.826,2.957,2.451v4.569h-1.691Zm-0.04-2.931H276.06a0.812,0.812,0,0,0-.973.786,0.825,0.825,0,0,0,1,.8,1.372,1.372,0,0,0,1.092-.333,1.141,1.141,0,0,0,.253-0.879V64.5Z" transform="translate(-36.869 -36)"/>
      <path class="cls-1" d="M283.2,67.429a1.882,1.882,0,0,1-2.011-1.985V62.008h-0.733V60.689h0.733V58.637h1.731v2.052h1.226v1.319h-1.226v3.33a0.544,0.544,0,0,0,.6.626h0.626v1.465H283.2Z" transform="translate(-36.869 -36)"/>
      <path class="cls-1" d="M285.69,59.3V57.891h1.771V59.3H285.69Zm0.027,8.126v-6.94h1.731v6.94h-1.731Z" transform="translate(-36.869 -36)"/>
      <path class="cls-1" d="M294.175,66.657a2.878,2.878,0,0,1-2.158.853,2.845,2.845,0,0,1-2.145-.853,3.531,3.531,0,0,1-.786-2.7,3.515,3.515,0,0,1,.786-2.691,2.843,2.843,0,0,1,2.145-.853,2.876,2.876,0,0,1,2.158.853,3.515,3.515,0,0,1,.786,2.691A3.531,3.531,0,0,1,294.175,66.657Zm-1.346-4.383a1.094,1.094,0,0,0-.812-0.306,1.065,1.065,0,0,0-.8.306,2.345,2.345,0,0,0-.4,1.679,2.38,2.38,0,0,0,.4,1.691,1.063,1.063,0,0,0,.8.307,1.093,1.093,0,0,0,.813-0.307,2.378,2.378,0,0,0,.4-1.691A2.343,2.343,0,0,0,292.83,62.274Z" transform="translate(-36.869 -36)"/>
      <path class="cls-1" d="M300.648,67.429v-4.2a1.157,1.157,0,1,0-2.3,0v4.2h-1.732v-6.94H298.3v0.64a2.373,2.373,0,0,1,1.731-.719,2.256,2.256,0,0,1,1.639.613,2.571,2.571,0,0,1,.706,1.971v4.436h-1.732Z" transform="translate(-36.869 -36)"/>
    </g>
    <g>
      <path class="cls-1" d="M214.922,83.413h-1.359l-2.558-6.94h1.825l1.412,4.29,1.4-4.29h1.825Z" transform="translate(-36.869 -36)"/>
      <path class="cls-1" d="M218.465,75.287V73.875h1.771v1.412h-1.771Zm0.027,8.126v-6.94h1.731v6.94h-1.731Z" transform="translate(-36.869 -36)"/>
      <path class="cls-1" d="M224.432,83.493a3.774,3.774,0,0,1-2.958-1l1.132-1.132a2.52,2.52,0,0,0,1.852.652,1.025,1.025,0,0,0,1.226-.719,0.642,0.642,0,0,0-.732-0.639l-1.092-.106c-1.252-.12-2.025-0.667-2.025-1.945,0-1.438,1.265-2.211,2.677-2.211a3.685,3.685,0,0,1,2.651.813L226.1,78.285a2.412,2.412,0,0,0-1.612-.466c-0.693,0-.986.32-0.986,0.666,0,0.253.106,0.546,0.719,0.6l1.092,0.106a1.962,1.962,0,0,1,2.065,2.038C227.376,82.76,226.07,83.493,224.432,83.493Z" transform="translate(-36.869 -36)"/>
      <path class="cls-1" d="M232.824,83.413V82.774a2.376,2.376,0,0,1-1.732.719,2.254,2.254,0,0,1-1.638-.613,2.572,2.572,0,0,1-.706-1.972V76.473h1.731v4.2a1.157,1.157,0,1,0,2.3,0v-4.2h1.732v6.94h-1.692Z" transform="translate(-36.869 -36)"/>
      <path class="cls-1" d="M237.818,80.482a1.433,1.433,0,0,0,1.519,1.545,1.921,1.921,0,0,0,1.572-.653l1.053,1.026a3.305,3.305,0,0,1-2.638,1.092c-1.639,0-3.21-.746-3.21-3.557,0-2.265,1.226-3.543,3.024-3.543,1.932,0,3.024,1.412,3.024,3.317v0.772h-4.343Zm2.478-1.932a1.293,1.293,0,0,0-2.318,0,1.916,1.916,0,0,0-.16.746h2.638A1.915,1.915,0,0,0,240.3,78.551Z" transform="translate(-36.869 -36)"/>
      <path class="cls-1" d="M245.717,83.413a1.886,1.886,0,0,1-2.025-1.985v-7.5h1.732v7.393a0.537,0.537,0,0,0,.613.626H246.7v1.465h-0.986Z" transform="translate(-36.869 -36)"/>
      <path class="cls-1" d="M250.046,83.413a1.886,1.886,0,0,1-2.025-1.985v-7.5h1.732v7.393a0.537,0.537,0,0,0,.613.626h0.666v1.465h-0.986Z" transform="translate(-36.869 -36)"/>
      <path class="cls-1" d="M253.442,80.482a1.433,1.433,0,0,0,1.519,1.545,1.921,1.921,0,0,0,1.572-.653l1.053,1.026a3.305,3.305,0,0,1-2.638,1.092c-1.639,0-3.21-.746-3.21-3.557,0-2.265,1.226-3.543,3.024-3.543,1.932,0,3.024,1.412,3.024,3.317v0.772h-4.343Zm2.478-1.932a1.293,1.293,0,0,0-2.318,0,1.916,1.916,0,0,0-.16.746h2.638A1.915,1.915,0,0,0,255.92,78.551Z" transform="translate(-36.869 -36)"/>
    </g>
    <g>
      <path class="cls-1" d="M216.4,98.917a2.244,2.244,0,0,1-1.572.56,2.131,2.131,0,0,1-1.9-.906v3.89h-0.68V92.976h0.68V93.8a2.129,2.129,0,0,1,1.9-.906,2.244,2.244,0,0,1,1.572.56A4.928,4.928,0,0,1,216.4,98.917ZM214.735,93.5c-1.572,0-1.812,1.359-1.812,2.691s0.24,2.691,1.812,2.691,1.812-1.359,1.812-2.691S216.307,93.5,214.735,93.5Z" transform="translate(-36.869 -36)"/>
      <path class="cls-1" d="M223.207,99.4v-0.64a3.17,3.17,0,0,1-3.85.133,1.834,1.834,0,0,1-.466-1.252c0-1.172.839-1.852,2.238-1.852h2.078V95.068c0-1.026-.506-1.572-1.812-1.572a1.832,1.832,0,0,0-1.772.813l-0.493-.426A2.441,2.441,0,0,1,221.4,92.9c1.691,0,2.491.759,2.491,2.1v4.4h-0.679Zm0-3.064h-2c-1.106,0-1.639.44-1.639,1.292s0.52,1.252,1.679,1.252a2.116,2.116,0,0,0,1.6-.493,1.643,1.643,0,0,0,.36-1.226V96.333Z" transform="translate(-36.869 -36)"/>
      <path class="cls-1" d="M230.026,94a1.47,1.47,0,0,0-1.212-.506A1.765,1.765,0,0,0,227.1,95.44V99.4h-0.68V92.976h0.68v0.853a2.2,2.2,0,0,1,1.878-.932,2.009,2.009,0,0,1,1.545.613Z" transform="translate(-36.869 -36)"/>
      <path class="cls-1" d="M231.785,90.751V89.912h0.839v0.839h-0.839Zm0.08,8.646V92.976h0.68V99.4h-0.68Z" transform="translate(-36.869 -36)"/>
      <path class="cls-1" d="M237.1,99.477a3.52,3.52,0,0,1-2.6-.919l0.466-.466a2.723,2.723,0,0,0,2.1.786c1.252,0,1.932-.439,1.932-1.306a1.072,1.072,0,0,0-1.226-1.079l-1.065-.093c-1.292-.107-1.932-0.68-1.932-1.679,0-1.105.906-1.825,2.3-1.825a3.765,3.765,0,0,1,2.251.679l-0.453.453a2.971,2.971,0,0,0-1.8-.546c-1.053,0-1.639.453-1.639,1.239,0,0.666.4,1,1.306,1.079l1.039,0.093c1.065,0.093,1.878.426,1.878,1.678C239.67,98.744,238.671,99.477,237.1,99.477Z" transform="translate(-36.869 -36)"/>
    </g>
  </g>
</svg>
