<?xml version="1.0" encoding="UTF-8"?> <svg xmlns="http://www.w3.org/2000/svg" viewBox="0 0 117.11 9.34"><g><g><path fill="#fff" d="M115.58,4.25a1.4,1.4,0,0,1-.31,1,1.32,1.32,0,0,1-1,.39h-1V2.9h1a1.31,1.31,0,0,1,1,.37,1.41,1.41,0,0,1,.31,1M116,5.89a2.38,2.38,0,0,0,.58-1.64A2.39,2.39,0,0,0,116,2.6a2.23,2.23,0,0,0-1.77-.71h-2.11V9h1.11V6.6h.82L115.85,9h1.26l-1.92-2.57a1.87,1.87,0,0,0,.82-.55"></path><path fill="#fff" d="M11.93,5.45a2.59,2.59,0,0,1-.57,1.75,2.44,2.44,0,0,1-1.88.7H8.91V3h.57a2.41,2.41,0,0,1,1.88.7,2.59,2.59,0,0,1,.57,1.75m1.12,0A3.59,3.59,0,0,0,12.18,3,2.79,2.79,0,0,0,11,2.17a4.05,4.05,0,0,0-1.56-.28H7.8V9H9.48A4.05,4.05,0,0,0,11,8.73,2.87,2.87,0,0,0,12.18,8a3.64,3.64,0,0,0,.87-2.5"></path><path fill="#fff" d="M39.68,5.45A2.46,2.46,0,1,1,39,3.72a2.43,2.43,0,0,1,.72,1.73m1.11,0a3.67,3.67,0,0,0-.28-1.39,3.54,3.54,0,0,0-1.89-1.89,3.67,3.67,0,0,0-1.39-.28,3.58,3.58,0,0,0-1.38.28,3.4,3.4,0,0,0-1.14.76A3.75,3.75,0,0,0,34,4.06a3.49,3.49,0,0,0-.28,1.39A3.41,3.41,0,0,0,34,6.83a3.49,3.49,0,0,0,1.9,1.9A3.41,3.41,0,0,0,37.23,9a3.49,3.49,0,0,0,1.39-.28A3.75,3.75,0,0,0,39.75,8a3.4,3.4,0,0,0,.76-1.14,3.58,3.58,0,0,0,.28-1.38"></path><polygon  fill="#fff" points="105.44 2.89 108.6 2.89 108.6 1.89 105.44 1.89 104.33 1.89 104.33 9.01 105.44 9.01 108.6 9.01 108.6 8.01 105.44 8.01 105.44 5.8 107.73 5.8 108.05 4.79 105.44 4.79 105.44 2.89"></polygon><polygon  fill="#fff" points="96.05 1.89 94.82 1.89 98.08 9.33 101.13 1.89 99.92 1.89 98.05 6.58 96.05 1.89"></polygon><rect  fill="#fff" x="90.53" y="1.89" width="1.11" height="7.12"></rect><polygon  fill="#fff" points="87.29 1.89 82.52 1.88 82.25 2.89 84.21 2.89 84.21 9.01 85.33 9.01 85.33 2.89 87.01 2.9 87.29 1.89"></polygon><polygon  fill="#fff" points="76.32 1.12 76.99 1.12 78 0 76.99 0 76.32 1.12"></polygon><polygon  fill="#fff" points="76.03 2.89 79.19 2.89 79.19 1.89 76.02 1.89 74.92 1.89 74.92 9.01 76.02 9.01 79.19 9.01 79.19 8.01 76.03 8.01 76.03 5.8 78.35 5.8 78.63 4.79 76.03 4.79 76.03 2.89"></polygon><polygon  fill="#fff" points="66.63 1.89 65.41 1.89 68.67 9.33 71.72 1.89 70.51 1.89 68.64 6.58 66.63 1.89"></polygon><path fill="#fff" d="M57.3,6.59a2.24,2.24,0,0,0-.62-.94c-.16-.14-.37-.34-.54-.51L55,4c-.3-.29-.31-.51-.27-.64a.64.64,0,0,1,.52-.41,1,1,0,0,1,.94.4l.87-.7a2.31,2.31,0,0,0-1-.72,2,2,0,0,0-1-.08,1.81,1.81,0,0,0-.86.41,1.57,1.57,0,0,0-.52.79,1.46,1.46,0,0,0,0,.9,2,2,0,0,0,.54.86l.87.83.88.84a.83.83,0,0,1,.32.81.94.94,0,0,1-.74.59,1.07,1.07,0,0,1-.66-.06,1.51,1.51,0,0,1-.7-.55L53.26,8a2.84,2.84,0,0,0,1.18.91,2.23,2.23,0,0,0,.84.15,3.25,3.25,0,0,0,.44,0,2.07,2.07,0,0,0,1.6-1.4,1.6,1.6,0,0,0,0-1"></path><polygon  fill="#fff" points="49.85 9.34 49.85 1.89 48.73 1.89 48.73 6.46 44.26 1.55 44.26 9.01 45.37 9.01 45.37 4.43 49.85 9.34"></polygon><rect  fill="#fff" x="29.1" y="1.89" width="1.11" height="7.12"></rect><polygon  fill="#fff" points="25.86 1.89 21.11 1.89 20.82 2.89 22.78 2.89 22.78 9.01 23.9 9.01 23.9 2.89 25.58 2.89 25.86 1.89"></polygon><rect  fill="#fff" x="16.48" y="1.89" width="1.11" height="7.12"></rect><polygon  fill="#fff" points="1.4 1.12 2.07 1.12 3.08 0 2.07 0 1.4 1.12"></polygon><polygon  fill="#fff" points="1.11 2.89 4.27 2.89 4.27 1.89 1.1 1.89 0 1.89 0 9.01 1.1 9.01 4.27 9.01 4.27 8.01 1.11 8.01 1.11 5.8 3.44 5.8 3.71 4.79 1.11 4.79 1.11 2.89"></polygon></g></g></svg> 
