
<svg xmlns="http://www.w3.org/2000/svg" xmlns:xlink="http://www.w3.org/1999/xlink" width="386.31" height="48.89" viewBox="0 0 386.31 48.89">
<defs><style>.b{fill:#fff;}</style></defs>
<polygon class="b" points="301.97 .07 270.83 .07 270.83 7.17 282.85 7.17 282.85 48.11 289.95 48.11 289.95 7.17 301.97 7.17 301.97 .07"/>
<rect class="b" x="149.1" y="13.58" width="1.12" height="7.1"/>
<path class="b" d="M150,13.58c-9.64,0-17.46,7.81-17.46,17.46s7.81,17.46,17.46,17.46,17.46-7.81,17.46-17.46-7.81-17.46-17.46-17.46Zm0,27.81c-5.72,0-10.35-4.64-10.35-10.35s4.64-10.35,10.35-10.35,10.35,4.64,10.35,10.35-4.64,10.35-10.35,10.35Z"/>
<polygon class="b" points="32.3 48.11 17.38 18.8 30.81 .44 22.77 .44 7.1 21.87 7.1 .07 0 .07 0 48.11 7.1 48.11 7.1 32.87 13.09 24.67 25.02 48.11 32.3 48.11"/>
<path class="b" d="M42.99,48.11h6.99l1.49-3.72,21.64-.02,1.5,3.74h6.99L62.29,0l-3.5,8.71v.03l-15.8,39.38ZM62.31,16.09l8.21,21.79h-16.43l8.22-21.79Z"/>
<polygon class="b" points="122.62 0 114.77 0 114.74 .07 94.66 .07 94.66 7.17 111.4 7.17 91.95 48.49 99.8 48.49 122.72 48.49 122.72 41.39 103.14 41.39 122.62 0"/>
<path class="b" d="M177.9,48.11h6.99l1.49-3.72,21.64-.02,1.5,3.74h6.99L197.2,0l-3.5,8.71v.03l-15.8,39.38Zm19.31-32.02l8.21,21.79h-16.43l8.22-21.79Z"/>
<path class="b" d="M234.33,34.28h11.99l7.03,13.83h7.25l-8.25-16.22c3.66-2.19,8.59-6.72,8.59-14.32C260.94,5.58,250.95,.18,243.06,.08h-15.84V48.11h7.1v-13.83Zm0-27.75h8.66c.2,.03,.41,.05,.64,.05,4.66,0,9.7,4.39,9.7,10.58,0,5.81-5.21,10.65-8.71,10.65h-10.3V6.54Z"/>
<g>
<path class="b" d="M312.75,20.83h8.12c1.26,0,2.47,.12,3.61,.37,1.15,.25,2.16,.66,3.05,1.24,.89,.58,1.6,1.35,2.13,2.32,.53,.97,.79,2.16,.79,3.58,0,1.5-.28,2.73-.85,3.71-.57,.98-1.29,1.75-2.18,2.32-.89,.57-1.86,.97-2.92,1.2-1.06,.23-2.06,.35-3.01,.35h-5.49v12.29h-3.25V20.83Zm3.25,12.06h5.49c1.62,0,2.94-.37,3.96-1.1,1.02-.73,1.53-1.88,1.53-3.42s-.51-2.69-1.53-3.42c-1.02-.73-2.34-1.1-3.96-1.1h-5.49v9.05Z"/>
<path class="b" d="M335.67,20.83h7c1.31,0,2.62,.08,3.92,.23,1.3,.15,2.47,.49,3.5,1,1.03,.52,1.87,1.27,2.51,2.26,.64,.99,.97,2.34,.97,4.04,0,2.01-.61,3.63-1.82,4.87-1.21,1.24-2.89,2.02-5.03,2.36l7.77,12.6h-3.98l-7.42-12.29h-4.17v12.29h-3.25V20.83Zm3.25,12.06h2.9c.9,0,1.84-.03,2.8-.08,.97-.05,1.86-.22,2.67-.5,.81-.28,1.48-.73,2.01-1.33s.79-1.47,.79-2.61c0-.98-.19-1.76-.58-2.36s-.9-1.05-1.53-1.37-1.34-.53-2.13-.64c-.79-.1-1.58-.15-2.38-.15h-4.56v9.05Z"/>
<path class="b" d="M372,48.89c-2.09,0-4-.36-5.74-1.08-1.74-.72-3.25-1.72-4.52-3-1.28-1.28-2.27-2.8-2.98-4.56-.71-1.76-1.06-3.68-1.06-5.74s.35-3.98,1.06-5.74c.71-1.77,1.7-3.29,2.98-4.56s2.78-2.27,4.52-3c1.74-.72,3.65-1.08,5.74-1.08s4,.36,5.74,1.08c1.74,.72,3.25,1.72,4.52,3s2.27,2.8,2.98,4.56c.71,1.76,1.06,3.68,1.06,5.74s-.35,3.98-1.06,5.74c-.71,1.77-1.7,3.29-2.98,4.56-1.28,1.28-2.78,2.27-4.52,3-1.74,.72-3.65,1.08-5.74,1.08Zm0-3.01c1.6,0,3.06-.3,4.39-.89,1.33-.59,2.47-1.4,3.42-2.44,.95-1.03,1.69-2.24,2.22-3.61,.53-1.38,.79-2.85,.79-4.43s-.26-3.05-.79-4.43c-.53-1.38-1.27-2.58-2.22-3.61-.95-1.03-2.09-1.84-3.42-2.44-1.33-.59-2.79-.89-4.39-.89s-3.06,.3-4.39,.89-2.47,1.4-3.42,2.44c-.95,1.03-1.69,2.24-2.22,3.61-.53,1.38-.79,2.85-.79,4.43s.26,3.05,.79,4.43c.53,1.38,1.27,2.58,2.22,3.61,.95,1.03,2.09,1.84,3.42,2.44s2.79,.89,4.39,.89Z"/>
</g>
</svg>
