<svg xmlns="http://www.w3.org/2000/svg" width="217.735" height="47.303" viewBox="0 0 217.735 47.303">
  <g id="Groupe_103" data-name="Groupe 103" transform="translate(-97.26 -169.225)">
    <g id="Groupe_101" data-name="Groupe 101" transform="translate(97.26 169.225)">
      <path id="Tracé_52" data-name="Tracé 52" d="M415.771,171.49a18.757,18.757,0,0,1,3.577-.151l17.1,24.582a21.178,21.178,0,0,0,.165-4.161c.033-1.358.007-2.718.007-4.078V171.5a10.929,10.929,0,0,1,3.006-.114c.171,3.262.055,6.432.076,9.6.021,3.234,0,6.468,0,9.7v9.641a13.122,13.122,0,0,1-3.683.191l-17.19-24.7c-.118,4.29-.043,8.3-.056,12.3-.014,4.025,0,8.05,0,12.094a4.082,4.082,0,0,1-3.024.136C415.468,199.076,415.484,172.664,415.771,171.49Z" transform="translate(-236.487 -170.145)" fill="#fff"/>
      <path id="Tracé_53" data-name="Tracé 53" d="M212.964,172.076h-4.326a3.617,3.617,0,0,1-.253-2.59,97.176,97.176,0,0,1,13.232-.069,2.576,2.576,0,0,1-.313,2.593l-3.866.121,11.441,27.188a6.313,6.313,0,0,1-3.292.215l-3.111-7.468a8.894,8.894,0,0,0-1.19-.156q-6.392-.017-12.786,0a8.492,8.492,0,0,0-1.043.136l-3.156,7.31a5.2,5.2,0,0,1-3.194.073c1.972-4.646,4.016-9.135,5.954-13.669C208.979,181.27,211.035,176.837,212.964,172.076Zm2.29,2.354-.34.037-6.16,14.508h12.506Z" transform="translate(-142.685 -169.225)" fill="#fff"/>
      <path id="Tracé_54" data-name="Tracé 54" d="M151.573,186.955v13.278a4.432,4.432,0,0,1-3.017.129V171.451h2.984c.083,4.148,0,8.253.048,12.316.084.076.118.109.154.138s.071.074.11.078c.325.028.651.069.977.068q7.027-.011,14.053-.038c.08,0,.16-.08.4-.208V171.444c.569-.034,1.019-.071,1.469-.085s.929,0,1.3,0c.127.124.163.154.192.189s.072.072.078.113a3.8,3.8,0,0,1,.063.556q0,13.845-.011,27.692a2.344,2.344,0,0,1-.109.461,4.833,4.833,0,0,1-2.981-.056v-4.47c0-1.453.011-2.905,0-4.358-.014-1.482.065-2.97-.063-4.527Z" transform="translate(-119.698 -170.156)" fill="#fff"/>
      <path id="Tracé_55" data-name="Tracé 55" d="M380.186,200.337a7.2,7.2,0,0,1-3.307.206l-3.071-7.423a122.223,122.223,0,0,0-15.1.016l-3.129,7.256a5.47,5.47,0,0,1-3.2.02L365,171.5h3.047Zm-7.825-10.35c-.331-1.691-5.436-13.813-6.133-14.548l-6.183,14.548Z" transform="translate(-208.857 -170.219)" fill="#fff"/>
      <path id="Tracé_56" data-name="Tracé 56" d="M100.185,200.35a4.143,4.143,0,0,1-2.709.083c-.276-1.074-.3-27.608-.006-28.937H100a8.72,8.72,0,0,1,.178,3.014c.047,1.076.011,2.156.011,3.234v6.379l13.9-12.608h4.216l-14.674,13.3c2.6,2.626,5.141,5.174,7.665,7.735s5.079,5.072,7.8,7.911a11.682,11.682,0,0,1-4.17,0c-.4-.09-.744-.542-1.068-.873q-6.2-6.316-12.385-12.645c-.354-.361-.735-.7-1.285-1.215Z" transform="translate(-97.26 -170.219)" fill="#fff"/>
      <path id="Tracé_57" data-name="Tracé 57" d="M308.8,196l2.535-1.768a8.572,8.572,0,0,1,.64.753c2.107,3.149,7.222,3.827,10.3,1.507a4.946,4.946,0,0,0,1.975-4.705,4.563,4.563,0,0,0-3.163-3.794c-1.817-.737-3.7-1.321-5.542-1.986A15.609,15.609,0,0,1,314,185.35a7.771,7.771,0,0,1-3.97-10.266,7.356,7.356,0,0,1,4.352-4.155,11.609,11.609,0,0,1,8.373-.182,8.893,8.893,0,0,1,4.1,3.1l-2.379,1.9c-.371-.352-.721-.639-1.019-.972-2.333-2.606-6.656-2.292-9.045-.619-2.485,1.74-2.794,6.43.412,8.231a24.481,24.481,0,0,0,5.1,1.936,11.683,11.683,0,0,1,5.72,3.109,5.611,5.611,0,0,1,1.531,3.534,9.738,9.738,0,0,1-.552,4.833,8.231,8.231,0,0,1-5.909,4.537,12.594,12.594,0,0,1-8.6-1.072A7.439,7.439,0,0,1,308.8,196Z" transform="translate(-189.792 -169.587)" fill="#fff"/>
      <path id="Tracé_58" data-name="Tracé 58" d="M261.247,196.052l2.625-1.813c.708.735,1.316,1.436,2,2.059,2.112,1.94,6.637,2.2,9.235-.047a4.979,4.979,0,0,0,.787-6.713,6.1,6.1,0,0,0-2.784-1.822c-1.711-.621-3.45-1.164-5.165-1.775a9.385,9.385,0,0,1-4.3-2.791,6.072,6.072,0,0,1-1.509-3.843,13.984,13.984,0,0,1,.2-3.344,6.752,6.752,0,0,1,3.539-4.492,11.2,11.2,0,0,1,10.76-.153,6.968,6.968,0,0,1,2.695,2.48c-.551.876-1.5,1.208-2.293,1.873a6.263,6.263,0,0,1-.751-.639,6.363,6.363,0,0,0-5.808-2.135,8.848,8.848,0,0,0-2.179.525,4.717,4.717,0,0,0-3.238,4.209,4.629,4.629,0,0,0,2.459,4.815,23.2,23.2,0,0,0,4.974,1.867,13.04,13.04,0,0,1,5.224,2.608,6.912,6.912,0,0,1,2.134,5.984c-.3,4.611-3.562,6.826-6.809,7.455a12.032,12.032,0,0,1-9.61-1.934A7.3,7.3,0,0,1,261.247,196.052Z" transform="translate(-168.992 -169.572)" fill="#fff"/>
      <path id="Tracé_59" data-name="Tracé 59" d="M479.017,171.512h2.963v28.864a5.224,5.224,0,0,1-2.9.138c-.135-3.242-.043-6.455-.06-9.664-.017-3.185,0-6.37,0-9.555Z" transform="translate(-264.245 -170.225)" fill="#fff"/>
    </g>
    <g id="Groupe_102" data-name="Groupe 102" transform="translate(158.682 210.372)">
      <path id="Tracé_60" data-name="Tracé 60" d="M210.012,243.374a.3.3,0,0,1-.082.095.182.182,0,0,1-.107.031.3.3,0,0,1-.168-.071c-.064-.047-.145-.1-.241-.158a1.937,1.937,0,0,0-.349-.158,1.513,1.513,0,0,0-.494-.071,1.458,1.458,0,0,0-.481.073,1.032,1.032,0,0,0-.349.2.809.809,0,0,0-.212.3.937.937,0,0,0-.071.368.68.68,0,0,0,.124.418,1.07,1.07,0,0,0,.328.284,2.544,2.544,0,0,0,.462.2l.529.179c.181.062.357.131.53.208a1.862,1.862,0,0,1,.462.293,1.329,1.329,0,0,1,.328.433,1.436,1.436,0,0,1,.124.63,2.027,2.027,0,0,1-.134.741,1.7,1.7,0,0,1-.393.6,1.84,1.84,0,0,1-.635.4,2.337,2.337,0,0,1-.855.147,2.6,2.6,0,0,1-1.067-.212,2.5,2.5,0,0,1-.82-.574l.235-.387a.309.309,0,0,1,.082-.078.2.2,0,0,1,.107-.031.236.236,0,0,1,.124.044c.046.029.1.066.158.111s.126.093.2.147a1.7,1.7,0,0,0,.258.147,1.769,1.769,0,0,0,.33.112,1.84,1.84,0,0,0,.416.044,1.542,1.542,0,0,0,.516-.08,1.1,1.1,0,0,0,.385-.225.969.969,0,0,0,.242-.347,1.159,1.159,0,0,0,.084-.449.755.755,0,0,0-.124-.448,1.041,1.041,0,0,0-.325-.292,2.255,2.255,0,0,0-.462-.2l-.529-.168a5.618,5.618,0,0,1-.529-.2,1.689,1.689,0,0,1-.462-.294,1.353,1.353,0,0,1-.326-.452,1.735,1.735,0,0,1,0-1.288,1.57,1.57,0,0,1,.362-.529,1.759,1.759,0,0,1,.584-.37,2.123,2.123,0,0,1,.8-.139,2.52,2.52,0,0,1,.918.16,2.156,2.156,0,0,1,.729.462Z" transform="translate(-206.44 -242.365)" fill="#fff"/>
      <path id="Tracé_61" data-name="Tracé 61" d="M224.174,242.486l-1.878,6.021h-.731l-1.526-4.593c-.014-.045-.028-.092-.04-.143s-.026-.1-.04-.16c-.014.056-.028.109-.042.16s-.028.1-.042.143l-1.534,4.593h-.731l-1.878-6.021h.677a.3.3,0,0,1,.183.054.243.243,0,0,1,.095.138l1.244,4.186c.019.076.038.157.056.244s.036.179.053.278c.02-.1.04-.191.061-.28s.044-.168.069-.241l1.417-4.186a.3.3,0,0,1,.1-.132.273.273,0,0,1,.178-.06h.236a.275.275,0,0,1,.177.054.342.342,0,0,1,.1.138l1.412,4.186c.025.073.048.151.069.236s.041.172.061.264c.014-.093.029-.181.046-.264s.035-.163.055-.236l1.248-4.186a.26.26,0,0,1,.094-.134.278.278,0,0,1,.179-.059Z" transform="translate(-210.505 -242.418)" fill="#fff"/>
      <path id="Tracé_62" data-name="Tracé 62" d="M234.645,248.507h-.815v-6.021h.815Z" transform="translate(-218.421 -242.418)" fill="#fff"/>
      <path id="Tracé_63" data-name="Tracé 63" d="M245.772,242.486v6.021h-.714v-4.425c0-.059,0-.122.006-.189s.009-.136.015-.206l-2.068,3.765a.312.312,0,0,1-.294.189H242.6a.314.314,0,0,1-.294-.189L240.2,243.67a3.681,3.681,0,0,1,.025.412v4.425h-.714v-6.021h.6a.507.507,0,0,1,.168.021.241.241,0,0,1,.114.118l2.08,3.706c.034.067.066.137.1.21s.062.147.091.223c.028-.076.057-.151.088-.224a2.307,2.307,0,0,1,.1-.213l2.042-3.7a.221.221,0,0,1,.111-.118.526.526,0,0,1,.17-.021Z" transform="translate(-220.904 -242.418)" fill="#fff"/>
      <path id="Tracé_64" data-name="Tracé 64" d="M262.178,242.486l-1.878,6.021h-.731l-1.526-4.593c-.014-.045-.028-.092-.04-.143s-.026-.1-.04-.16c-.014.056-.028.109-.042.16s-.028.1-.042.143l-1.534,4.593h-.731l-1.878-6.021h.676a.3.3,0,0,1,.183.054.244.244,0,0,1,.094.138l1.244,4.186c.019.076.038.157.056.244s.036.179.052.278c.02-.1.04-.191.061-.28a2.508,2.508,0,0,1,.069-.241l1.416-4.186a.311.311,0,0,1,.1-.132.274.274,0,0,1,.178-.06h.236a.276.276,0,0,1,.177.054.342.342,0,0,1,.1.138l1.412,4.186c.025.073.048.151.069.236s.041.172.061.264c.014-.093.029-.181.046-.264s.035-.163.055-.236l1.248-4.186a.255.255,0,0,1,.094-.134.275.275,0,0,1,.178-.059Z" transform="translate(-227.128 -242.418)" fill="#fff"/>
      <path id="Tracé_65" data-name="Tracé 65" d="M275.549,247.843l0,.664h-3.71v-6.021h3.71v.663h-2.9v2h2.344v.639H272.65v2.055Z" transform="translate(-235.045 -242.418)" fill="#fff"/>
      <path id="Tracé_66" data-name="Tracé 66" d="M286.273,248.507h-.63a.271.271,0,0,1-.176-.055.336.336,0,0,1-.1-.139l-.563-1.454h-2.7l-.563,1.454a.287.287,0,0,1-.1.134.265.265,0,0,1-.176.059h-.63l2.408-6.021h.824Zm-1.7-2.236-.946-2.449q-.042-.11-.088-.255c-.031-.1-.061-.2-.088-.308a4.541,4.541,0,0,1-.181.566l-.945,2.446Z" transform="translate(-238.894 -242.418)" fill="#fff"/>
      <path id="Tracé_67" data-name="Tracé 67" d="M298.013,248.507h-.723a.357.357,0,0,1-.328-.173l-1.563-2.151a.478.478,0,0,0-.153-.145.562.562,0,0,0-.254-.044h-.618v2.513h-.811v-6.021h1.7a3.719,3.719,0,0,1,.988.115,1.881,1.881,0,0,1,.686.334,1.334,1.334,0,0,1,.4.528,1.755,1.755,0,0,1,.131.691,1.724,1.724,0,0,1-.1.6,1.569,1.569,0,0,1-.291.5,1.759,1.759,0,0,1-.467.376,2.3,2.3,0,0,1-.624.235.791.791,0,0,1,.269.257ZM295.23,245.4a2.083,2.083,0,0,0,.624-.086,1.281,1.281,0,0,0,.453-.244,1.008,1.008,0,0,0,.276-.376,1.235,1.235,0,0,0,.092-.483.963.963,0,0,0-.353-.811,1.718,1.718,0,0,0-1.059-.273h-.891V245.4Z" transform="translate(-244.549 -242.418)" fill="#fff"/>
      <path id="Tracé_68" data-name="Tracé 68" d="M314.566,248.454h-.727a.55.55,0,0,1-.2-.03.484.484,0,0,1-.164-.122l-.609-.614a3.048,3.048,0,0,1-.91.607,2.794,2.794,0,0,1-1.133.225,1.965,1.965,0,0,1-.658-.113,1.835,1.835,0,0,1-.578-.33,1.645,1.645,0,0,1-.412-.527,1.544,1.544,0,0,1-.156-.7,1.566,1.566,0,0,1,.1-.556,1.789,1.789,0,0,1,.275-.486,2.16,2.16,0,0,1,.416-.4,2.746,2.746,0,0,1,.525-.3,2.66,2.66,0,0,1-.378-.632,1.7,1.7,0,0,1-.122-.633,1.478,1.478,0,0,1,.111-.576,1.354,1.354,0,0,1,.321-.469,1.54,1.54,0,0,1,.51-.316,1.883,1.883,0,0,1,.675-.115,1.644,1.644,0,0,1,.6.107,1.559,1.559,0,0,1,.471.284,1.364,1.364,0,0,1,.313.41,1.28,1.28,0,0,1,.132.486l-.466.092q-.138.034-.206-.131a.987.987,0,0,0-.095-.227.869.869,0,0,0-.168-.214.858.858,0,0,0-.249-.16.849.849,0,0,0-.338-.063,1.027,1.027,0,0,0-.381.068.838.838,0,0,0-.29.187.8.8,0,0,0-.183.281.955.955,0,0,0-.063.351,1.193,1.193,0,0,0,.033.282,1.218,1.218,0,0,0,.108.273,1.859,1.859,0,0,0,.187.281,3.479,3.479,0,0,0,.273.3l1.731,1.761a3.12,3.12,0,0,0,.256-.6,2.964,2.964,0,0,0,.126-.615.218.218,0,0,1,.051-.127.15.15,0,0,1,.118-.046h.458a3.239,3.239,0,0,1-.151.948,3.329,3.329,0,0,1-.425.871Zm-3.883-2.967a1.791,1.791,0,0,0-.671.572,1.29,1.29,0,0,0-.224.731,1.084,1.084,0,0,0,.1.481,1.1,1.1,0,0,0,.265.351,1.13,1.13,0,0,0,.374.216,1.277,1.277,0,0,0,.429.074,2.014,2.014,0,0,0,.847-.172,2.166,2.166,0,0,0,.658-.462Z" transform="translate(-251.312 -242.365)" fill="#fff"/>
      <path id="Tracé_69" data-name="Tracé 69" d="M333.447,242.486v6.021h-.714v-4.425c0-.059,0-.122.006-.189s.009-.136.015-.206l-2.067,3.765a.313.313,0,0,1-.294.189h-.118a.313.313,0,0,1-.294-.189l-2.11-3.782a3.547,3.547,0,0,1,.025.412v4.425h-.714v-6.021h.6a.5.5,0,0,1,.168.021.236.236,0,0,1,.114.118l2.08,3.706c.034.067.066.137.1.21s.062.147.09.223c.028-.076.058-.151.088-.224s.065-.145.1-.213l2.043-3.7a.22.22,0,0,1,.111-.118.528.528,0,0,1,.17-.021Z" transform="translate(-259.255 -242.418)" fill="#fff"/>
      <path id="Tracé_70" data-name="Tracé 70" d="M347.819,245.446a3.476,3.476,0,0,1-.214,1.242,2.844,2.844,0,0,1-.605.973,2.707,2.707,0,0,1-.938.633,3.381,3.381,0,0,1-2.423,0,2.717,2.717,0,0,1-.937-.633,2.842,2.842,0,0,1-.6-.973,3.706,3.706,0,0,1,0-2.484,2.866,2.866,0,0,1,.6-.974,2.719,2.719,0,0,1,.937-.637,3.343,3.343,0,0,1,2.423,0,2.709,2.709,0,0,1,.938.637,2.868,2.868,0,0,1,.605.974A3.478,3.478,0,0,1,347.819,245.446Zm-.836,0a3.066,3.066,0,0,0-.151-1,2.123,2.123,0,0,0-.429-.746,1.88,1.88,0,0,0-.672-.469,2.449,2.449,0,0,0-1.761,0,1.891,1.891,0,0,0-.674.469,2.083,2.083,0,0,0-.431.746,3.332,3.332,0,0,0,0,1.99,2.077,2.077,0,0,0,.431.744,1.85,1.85,0,0,0,.674.466,2.473,2.473,0,0,0,1.761,0,1.839,1.839,0,0,0,.672-.466,2.117,2.117,0,0,0,.429-.744A3.044,3.044,0,0,0,346.983,245.446Z" transform="translate(-265.686 -242.365)" fill="#fff"/>
      <path id="Tracé_71" data-name="Tracé 71" d="M360.449,248.507h-.723a.356.356,0,0,1-.328-.173l-1.563-2.151a.474.474,0,0,0-.154-.145.56.56,0,0,0-.254-.044h-.618v2.513H356v-6.021h1.7a3.719,3.719,0,0,1,.988.115,1.883,1.883,0,0,1,.687.334,1.339,1.339,0,0,1,.4.528,1.764,1.764,0,0,1,.13.691,1.725,1.725,0,0,1-.1.6,1.572,1.572,0,0,1-.292.5,1.756,1.756,0,0,1-.466.376,2.3,2.3,0,0,1-.624.235.8.8,0,0,1,.268.257Zm-2.782-3.105a2.077,2.077,0,0,0,.624-.086,1.283,1.283,0,0,0,.454-.244,1,1,0,0,0,.275-.376,1.225,1.225,0,0,0,.092-.483.963.963,0,0,0-.353-.811,1.718,1.718,0,0,0-1.059-.273h-.891V245.4Z" transform="translate(-271.861 -242.418)" fill="#fff"/>
      <path id="Tracé_72" data-name="Tracé 72" d="M370.566,247.843l0,.664h-3.71v-6.021h3.71v.663h-2.894v2h2.344v.639h-2.344v2.055Z" transform="translate(-276.608 -242.418)" fill="#fff"/>
    </g>
  </g>
</svg>
