<svg xmlns="http://www.w3.org/2000/svg" viewBox="0 0 560 560">
  <g>
    <path d="M372.1,185.1c-7.7,0-15.3,5.5-18.5,14.8H388C385.3,190.9,379.6,185.1,372.1,185.1Z" style="fill: #fff"/>
    <path d="M220.4,288.6c-7.7,0-15.3,5.5-18.5,14.8h34.4C233.6,294.4,227.9,288.6,220.4,288.6Z" style="fill: #fff"/>
    <path d="M280,0C125.4,0,0,125.4,0,280S125.4,560,280,560,560,434.6,560,280,434.6,0,280,0ZM220.6,286.9c12.4,0,23.7,6.9,27.4,18.4H201.4a31.82,31.82,0,0,0-1,7.7c0,14.6,11,24.8,24.3,24.8,12,0,22.1-8.3,24.2-19.4h.4a29.59,29.59,0,0,1-29.5,29c-16.2,0-29.5-12.8-29.5-30C190.3,299.3,203.8,286.9,220.6,286.9Zm-52.2,59.8H117.1v-.4l8.5-3.8V267.7l-8.5-3.8v-.2h29v.2l-8.5,3.8v77h16.2l19-20.1,8.4.2Zm113.6,76c-49.5,0-89.8-36.2-95.1-83h1.2c10.9,32.2,44.7,52.8,79,52.8,43.9,0,78.2-33.8,78.2-75.3,0-41.9-31.8-73.7-74.5-73.7-29.8,0-55.6,14.5-68.5,41.5l-1.6-.8,30.2-145.9H366.7l-6,35.5h-131l-18.9,92.3c14.5-25,42.3-38.3,72.5-38.3,56.4,0,100.3,38.3,100.3,96.7C383.6,378.7,336.8,422.7,282,422.7Zm89.5-179c-16.2,0-29.5-12.8-29.5-30,0-18,13.5-30.4,30.3-30.4,12.4,0,23.7,6.9,27.4,18.4H353.1a31.82,31.82,0,0,0-1,7.7c0,14.6,11,24.8,24.3,24.8,12,0,22.1-8.3,24.2-19.4h.4A29.63,29.63,0,0,1,371.5,243.7Z" style="fill: #fff"/>
  </g>
</svg>
