<svg xmlns="http://www.w3.org/2000/svg" width="381" height="78" viewBox="0 0 381 78">
  <g id="Groupe_244" data-name="Groupe 244" transform="translate(-618 -20)">
    <g id="Groupe_36" data-name="Groupe 36" transform="translate(618.492 96)">
      <rect id="Rectangle_21" data-name="Rectangle 21" width="127" height="2" transform="translate(-0.492)" fill="#0008ce"/>
      <rect id="Rectangle_22" data-name="Rectangle 22" width="127" height="2" transform="translate(126.508)" fill="#f4f4f4"/>
      <rect id="Rectangle_23" data-name="Rectangle 23" width="127" height="2" transform="translate(253.508)" fill="red"/>
    </g>
    <g id="Groupe_37" data-name="Groupe 37" transform="translate(695 20)">
      <g id="Groupe_7" data-name="Groupe 7" transform="translate(0 16.587)">
        <path id="Tracé_3" data-name="Tracé 3" d="M14.363,270.748l.038-1.764a10.465,10.465,0,0,1,1.293-.472,5.45,5.45,0,0,0,1.8-.805,5.21,5.21,0,0,0,.781-1.524q1.948-6.835,3.9-13.444,2.285-7.773,4.571-15.253l1.225.081.875.057.173.449q1.678,5.121,3.355,10.105,1.137,3.17,2.044,6.108c.6,1.96,1.125,3.545,1.562,4.769.257.736.611,1.841,1.061,3.3.231.794.585,1.786,1.061,2.971a3.589,3.589,0,0,0,.579,1.123,1.87,1.87,0,0,0,1.129.411,6.173,6.173,0,0,1,1.69.45,9.8,9.8,0,0,1,.1,1.131c0,.109-.007.279-.019.512q-1.429.082-3.147.017t-3.089.017c-1.017.061-1.75.12-2.2.181q-1.641.208-3.282.422l-.946.11q0-.852.058-1.634,1.071-.355,2.143-.7a3.817,3.817,0,0,0,1.119-.541.9.9,0,0,0,.193-.563,2.312,2.312,0,0,0-.1-.643q-.383-1.159-.767-2.325-.758-2.332-1.515-4.693-3.685.062-7.368.128c-.273.806-.84,2.774-1.7,5.951a8.683,8.683,0,0,0-.367,1.833,1.246,1.246,0,0,0,.27.917,2.788,2.788,0,0,0,1.7.577q.174.041,1.37.192.019.893.02,1.241a4.717,4.717,0,0,1-.038.574q-1.2.082-5.712-.032l-.79.234a13.573,13.573,0,0,1-2.721.507l-.347.026M23.438,256.1q4.51.03,5.32.02l.482-.029q-.578-2.159-1.506-5.064c-.617-1.94-1.119-3.432-1.506-4.46q-1.4,4.712-2.791,9.533" transform="translate(-14.363 -237.182)" fill="#fff"/>
        <path id="Tracé_4" data-name="Tracé 4" d="M115.317,245.173l-.058-1.827c.232,0,.47,0,.716.014q.967.051,2.031.176,2.553.291,3,.31,1.547.077,3.027.076t2.631.033q1.151.032,1.558.032c-.006.087-.013.174-.02.261l.039,1.286v.174A13.749,13.749,0,0,1,126,245.8a1.609,1.609,0,0,0-1.429.434,7.479,7.479,0,0,0-.232,2.652c0,.477.006.863.019,1.163l.02.8q-.019,1.05-.038,2.1l.115,1.789q-.038,1.933-.077,3.867.126,2.806.251,5.607a9.374,9.374,0,0,0,.927,4.01A4.289,4.289,0,0,0,127.291,270a6.186,6.186,0,0,0,3.188.8,11.086,11.086,0,0,0,3.458-.68,5.846,5.846,0,0,0,1.787-1.047,5.219,5.219,0,0,0,1.168-1.274,9.143,9.143,0,0,0,.966-2.235,19.147,19.147,0,0,0,.367-4.4q0-5.179-.5-11.676-.038-.569-.077-1.138a3.052,3.052,0,0,0-.425-1.707,1.94,1.94,0,0,0-1.392-.715l-1.816-.022-.251-.074q.019-.835.038-1.669l1.526.063q1.845.173,3.691.34a30.985,30.985,0,0,0,3.536-.06l.329.054a7.123,7.123,0,0,1,.115.975,2.606,2.606,0,0,1-.077.569,6.176,6.176,0,0,1-1.508.2,4.713,4.713,0,0,0-1.43.274,1.009,1.009,0,0,0-.27.78c0,.256.019.627.058,1.111q.057.536.058,1.857,0,.747.009,1.172c.007.285.016.576.029.875q.058,1.536.1,3.112.1,2.164.193,4.326a39.538,39.538,0,0,1-.27,5.821,8.2,8.2,0,0,1-.734,2.345,8.911,8.911,0,0,1-2.029,2.434,10.575,10.575,0,0,1-3.284,1.86,15.492,15.492,0,0,1-4.6.858,12.606,12.606,0,0,1-5.138-.666,6.979,6.979,0,0,1-3.235-2.3,9.028,9.028,0,0,1-1.5-3.927,30.184,30.184,0,0,1-.29-4.819V250.56q0-3.85-.309-4.363-.426-.722-2.646-.918a4.08,4.08,0,0,1-.811-.106" transform="translate(-86.919 -241.396)" fill="#fff"/>
        <path id="Tracé_5" data-name="Tracé 5" d="M232,275.588q.019-.835.038-1.669.463-.137,1.122-.262a8.372,8.372,0,0,0,2.048-.6,2.965,2.965,0,0,0,.348-.919,27.906,27.906,0,0,0,.155-3.412q-.02-4.388-.039-8.777,0-1.365-.135-7.131a7.4,7.4,0,0,0-.193-1.927.508.508,0,0,0-.194-.211,2.33,2.33,0,0,0-1.16-.3q-.367-.03-1.894-.281-.029-.741-.058-1.481,2.165.018,4.329.031,3.16-.018,6.321-.046h.753c.155-.01.309-.012.464-.008.128,0,.47.019,1.024.046l1.237.031a11.53,11.53,0,0,1,3.19.537,8.693,8.693,0,0,1,1.585.7,6.314,6.314,0,0,1,1.711,1.331,5.258,5.258,0,0,1,1.072,1.783,6.178,6.178,0,0,1,.348,2.077,4.5,4.5,0,0,1-.522,2.18,5.689,5.689,0,0,1-1.585,1.78,18.853,18.853,0,0,1-2.493,1.315,8.044,8.044,0,0,1,4.446,2.491,6.047,6.047,0,0,1,1.528,4.007,8.622,8.622,0,0,1-.484,2.75,5.559,5.559,0,0,1-1.179,2.009,8.369,8.369,0,0,1-2.329,1.878,13.308,13.308,0,0,1-3.392,1.1,20.172,20.172,0,0,1-3.286.283l-3.286.006q-2.088.058-4.967.352c-.541.045-2.048.153-4.523.336m9.006-15.779a11.781,11.781,0,0,0,1.817.129,7.236,7.236,0,0,0,4.387-1.1q1.489-1.112,1.489-3.845a4.259,4.259,0,0,0-1.411-3.243,6.268,6.268,0,0,0-4.253-1.381,14.048,14.048,0,0,0-2.165.174q0,.469.039,1.349.1,1.737.1,4.86-.01.857-.019,1.715,0,.45.019,1.348m.232,13a5.777,5.777,0,0,0,2.339.5,8.206,8.206,0,0,0,3.6-.775,4.545,4.545,0,0,0,2.03-1.979,6.849,6.849,0,0,0,.638-3.121,5.968,5.968,0,0,0-.7-3.088,4.951,4.951,0,0,0-2.339-2.158,11.606,11.606,0,0,0-4.116-.555,5.192,5.192,0,0,0-1.682.183v2.511q-.01,1.51-.019,3.021.029,2.348.058,4.7a2.591,2.591,0,0,0,.193.77" transform="translate(-170.869 -245.171)" fill="#fff"/>
        <path id="Tracé_6" data-name="Tracé 6" d="M332.045,250.427c.734.051,1.373.119,1.914.206a25.176,25.176,0,0,0,3.538.261q.7.009,3.577-.081,4.311-.137,7.792-.122,1.749-.011,3.5-.027a30.817,30.817,0,0,1,3.48.3,1.525,1.525,0,0,1,.348,1.052v4.014q.019.4.038.8c0,.078-.006.195-.02.35l-.792.039c-.1,0-.322-.013-.658-.039q-.174-.389-.464-1.149l-.774-1.385a9.048,9.048,0,0,0-1.237-1.794,5.166,5.166,0,0,0-1.238-.159q-.193-.02-1.179-.1-1.8-.163-3.867-.173-2.359-.012-4.214.051-.058.49-.058,3.858.01,1.645.02,3.29v2.468a7.036,7.036,0,0,0,.833.06q3.468,0,4.941-.134a4.8,4.8,0,0,0,1.822-.38,2.011,2.011,0,0,0,.62-.848,26.878,26.878,0,0,0,.679-2.866l.251-.02,1.122.021q.077,1.735.077,2.631,0,2.047-.029,2.632c-.019.389-.029.7-.029.916q0,.527.058,1.686t.058,1.725v.429l-1.372,0q-.078-.311-.291-1.287a7.9,7.9,0,0,0-.7-2.262,1.4,1.4,0,0,0-.775-.526,15.068,15.068,0,0,0-2.868-.136q-2.926,0-4.4.159c0,.341,0,.561,0,.665q0,2.332.077,3.878-.019,2.116-.038,4.231a1.036,1.036,0,0,0,.522,1.014c.529.271,2.146.394,4.853.38a22.047,22.047,0,0,0,4.563-.426,4.549,4.549,0,0,0,2.281-1.309,9.948,9.948,0,0,0,2.185-3.664q.6-.058.986-.059c.142,0,.355.008.638.021-.038.324-.069.6-.095.818l-.114.585-.7,3.682q-.171,1.11-.343,2.221-1.258.058-1.993.06c-.722,0-2.651-.063-5.785-.179q-3.31-.12-7.972-.078-2.322.022-5.708.263l-.813.011-2.341.115v-1.364a11.369,11.369,0,0,1,1.47-.237,9.323,9.323,0,0,0,2.783-.665,4.158,4.158,0,0,0,.213-1.438c0-.224-.007-.6-.02-1.141q.01-.3.02-.61-.029-3.709-.058-7.418.01-1.112.02-2.224-.048-1.575-.1-3.149.009-1.112.019-2.224-.087-1.221-.174-2.442a3.759,3.759,0,0,0-.039-.394.953.953,0,0,0-.58-.281q-.213-.042-.581-.125a12.656,12.656,0,0,0-2.126-.3c-.245-.016-.528-.047-.851-.09q.048-.791.1-1.581" transform="translate(-242.743 -246.488)" fill="#fff"/>
        <path id="Tracé_7" data-name="Tracé 7" d="M442.1,274.214a4.415,4.415,0,0,1,1.489-.394,8.062,8.062,0,0,0,1.778-.41,4.84,4.84,0,0,0,.117-.566q.038-.274.039-1.876-.01-2.179-.02-4.358.039-1.172.077-2.344-.019-.909-.039-1.817l.039-1.055q.059-2.13.058-3.987,0-4.065-.1-5.2l-1.14-.228a20.61,20.61,0,0,1-2.089-.186q-.019-.585-.039-1.17l.077-.215a11.3,11.3,0,0,1,1.779-.165q.444,0,1.8-.031c.928.072,1.432.106,1.509.106l1.024-.067,2.417-.14a47.781,47.781,0,0,1,4.776-.291,9.05,9.05,0,0,1,6.3,1.978,6.129,6.129,0,0,1,2.34,4.732,5.868,5.868,0,0,1-1.262,3.658,7.623,7.623,0,0,1-3.883,2.475c.154.276.359.6.616.969q.81,1.189,1.311,2.024,1.541,2.573,3.082,5.169a16.011,16.011,0,0,0,1.518,2.424,4.752,4.752,0,0,0,1.478.794,6.065,6.065,0,0,1,1.335.707,1.936,1.936,0,0,1,.116.6c0,.12-.007.274-.02.461l-.523-.012-.386.012-1-.162-.794-.016a9.837,9.837,0,0,0-1.527-.129l-1.933-.054q-.213,0-1.353.115-.522.051-.832.085l-.656-1.317q-.814-1.5-1.141-2.229c-.567-1.284-1.539-3.328-2.919-6.117a7.618,7.618,0,0,0-1.353-2.187,3.562,3.562,0,0,0-1.991-.414c-.258,0-.7.012-1.315.038q-.056.568-.057,1.352.048,2.177.1,4.353l-.116,3.686a4.359,4.359,0,0,0,1.412.523,15.654,15.654,0,0,1,2.59.774,10.033,10.033,0,0,1-.077,1.456q-.367-.025-.464-.025l-.792.029c-2.771-.281-4.414-.419-4.93-.423-.335,0-.574,0-.715.013l-2.669.156a19.851,19.851,0,0,1-2.224.124l-.831,0c-.026-.325-.039-.532-.039-.625a4.459,4.459,0,0,1,.058-.6m8.7-12.628c.618.027,1.07.038,1.353.038q3.288,0,4.66-1.208a4.076,4.076,0,0,0,1.373-3.222,7.879,7.879,0,0,0-.338-2.338,4.1,4.1,0,0,0-.838-1.62,4.386,4.386,0,0,0-1.87-1.142,9.014,9.014,0,0,0-2.719-.269,10.145,10.145,0,0,0-1.523.112q-.019.186-.039.373.02,1.323.039,2.647-.029.8-.059,1.608.01,1.069.019,2.138-.038.9-.057,2.333Z" transform="translate(-321.912 -246.053)" fill="#fff"/>
        <path id="Tracé_8" data-name="Tracé 8" d="M541.089,243.423l1.2-.031c.091.149.156.255.193.323a7.035,7.035,0,0,0,.831,1.269,26.13,26.13,0,0,0,2.648,0q1.489-.037,2.648-.084l.387-.056,2.338-.086q2.184-.051,4.368-.108,2.986-.093,5.972-.2l1.139-.212a2.514,2.514,0,0,0,.541-1.049q.078-.2.213-.546l.85-.056q.192-.008.579,0,.02,1.468.019,4.429.01.947.02,1.895-.01.544-.02,1.087a5.117,5.117,0,0,1-.077.959,6.373,6.373,0,0,1-1.391.364,14.682,14.682,0,0,1-1.095-2.372,9.759,9.759,0,0,0-.745-1.713,1.033,1.033,0,0,0-.543-.344,38.557,38.557,0,0,0-4.107.006q-.542.015-1.356.118a11.665,11.665,0,0,0-.1,1.332q.01,1.392.02,2.783v6.108q.028,3.294.057,6.587-.009,1.35-.018,2.7a7.6,7.6,0,0,0,.233,2.167,4.872,4.872,0,0,0,1.145.3c.1.017.583.142,1.438.378a7.4,7.4,0,0,1,1.029.368c.064.507.1.815.1.926a3.749,3.749,0,0,1-.058.544q-.425.006-.7,0a31.963,31.963,0,0,1-3.38-.272q-1.392-.2-5.045-.313-.58-.017-3.4.148c-.733.033-1.211.048-1.43.042-.013-.2-.026-.36-.038-.468q-.01-.234-.02-.468v-.163a2.612,2.612,0,0,1,1.6-.836,13.732,13.732,0,0,0,2.784-.854,2.655,2.655,0,0,0,.231-1.02q.134-2.459.136-7.835-.048-3.878-.1-7.755a35.207,35.207,0,0,0-.117-3.875.514.514,0,0,0-.136-.273.439.439,0,0,0-.271-.107q-.6-.068-3.9,0a5.5,5.5,0,0,0-2.435.412,12.279,12.279,0,0,0-2.494,2.783q-.484.65-.715.652a4.24,4.24,0,0,1-1.14-.77,40.786,40.786,0,0,0,1.661-5.253q.309-1.154.446-1.561" transform="translate(-391.624 -240.847)" fill="#fff"/>
        <path id="Tracé_9" data-name="Tracé 9" d="M648.68,272.388v-1.555c.256-.075.678-.182,1.268-.319a7.45,7.45,0,0,0,1.862-.648,4.091,4.091,0,0,0,.347-1.864q-.01-1.288-.02-2.577.02-2.487.039-4.975-.01-.589-.02-1.179.156-4.322.154-4.455-.018-1.452-.038-2.9l.057-1.18q-.048-1.245-.1-2.488-.019-.468-.038-.936a5.364,5.364,0,0,0-.136-.694,6.668,6.668,0,0,0-2.57-.429,5.618,5.618,0,0,1-.675-.04q-.02-.95-.039-1.9,2.761.014,5.523.023c.682,0,1.108-.006,1.275-.013.759-.035,1.977-.148,3.649-.348q1.409-.178,1.776-.221c.016.285.024.524.024.719q0,.382-.046.99a16.748,16.748,0,0,1-1.763.669,12.294,12.294,0,0,0-1.63.632,9.169,9.169,0,0,0-.115,1.671c0,.636.018,1.154.057,1.553q-.059,3.753-.057,5.774.01,2.931.02,5.863-.049,1.487-.1,2.974.038,2.221.077,4.443-.029.421-.058.841a1.742,1.742,0,0,0,.115.516,18.218,18.218,0,0,0,2.132.49q.172.032,1.171.231a10.263,10.263,0,0,1,.077,1.126c0,.166-.007.42-.02.763a2.716,2.716,0,0,0-.385,0c-.412.009-.65.012-.713.009a3.305,3.305,0,0,1-.5-.092c-.181-.038-1.035-.186-2.565-.436q-1.707-.1-3.414-.2a28.539,28.539,0,0,0-2.97.087q-1.274.075-1.659.079" transform="translate(-470.509 -241.641)" fill="#fff"/>
        <path id="Tracé_10" data-name="Tracé 10" d="M706.412,240.232q-.038-.8-.077-1.591l1.641-.085.56-.053q1.16-.129,1.6-.153c.155-.009.6-.018,1.353-.026q.251.009.424,0t1.217-.113c.695-.069,1.086-.107,1.177-.113.142-.008.34-.01.6-.01,1.983,2.083,3.6,3.925,4.846,5.492,1.248,1.613,5.8,6.921,13.664,17.382v-.633q-.039-1.472-.077-2.943-.059-2.584-.155-4.092t-.115-3.595q-.021-2.087-.136-3.779-.231-3.306-.231-3.809a4.536,4.536,0,0,0-.27-1.981,2.8,2.8,0,0,0-1.853-.727A4.481,4.481,0,0,1,729,238.92q.01-.735.019-1.47l.5-.106q1.9-.2,3.8-.4,2.122-.22,4.244-.45c.283-.037.553-.067.81-.085q.01.841.02,1.683a3.728,3.728,0,0,1-.906.522,7.374,7.374,0,0,0-1.428.628,6.761,6.761,0,0,0-1.062.956,2.043,2.043,0,0,0-.174.953c0,.1.012.457.039,1.069q.018.458.02,2.142.018,3.7.154,5.838c.025.459.045.979.057,1.558q.106,4.48.213,8.969.019.945.02,1.329v3.144q.029.666.057,1.332l-.057,1.376c.05.7.077,1.121.077,1.258v1.354l-2.219-.066q-1.148-1.643-2.3-3.254-2.345-3.164-4.69-6.2-1.641-2.145-3.281-4.232-1.206-1.572-2.412-3.113c-1.572-1.928-3-3.586-4.286-5q-1.574-1.711-3.148-3.383.087,4.341.174,8.688.019.795.019,1.634t-.019,1.659q.058,1.531.116,3.064.059,1.919.213,4.169a5.754,5.754,0,0,0,.1.859,6.471,6.471,0,0,0,.231.726,12.581,12.581,0,0,0,3.282.665c.116.038.283.1.5.193q.038.965.077,1.93l-.753-.024c-.412-.025-1.712-.225-3.9-.586-2.047-.087-3.411-.116-4.093-.093s-1.056.034-1.121.03a3.185,3.185,0,0,1-.637-.127c-.025-.353-.038-.658-.038-.917,0-.167.006-.441.018-.821a4.394,4.394,0,0,1,.89-.071c.077,0,.328.03.752.082a3.483,3.483,0,0,0,1.922-.2q.3-.273.338-1.547.137-3.682.136-4.494v-1.276q.019-3.768.039-7.537-.029-2.354-.059-4.707a17.449,17.449,0,0,0-.29-3.723,2.031,2.031,0,0,0-.444-.909,4.3,4.3,0,0,0-1.505-1.182,12.673,12.673,0,0,0-2.608-.524" transform="translate(-511.97 -236.404)" fill="#fff"/>
      </g>
      <g id="Groupe_8" data-name="Groupe 8" transform="translate(78.758)">
        <path id="Tracé_11" data-name="Tracé 11" d="M294.755,190.085a2.328,2.328,0,0,1,.979-.262,1.84,1.84,0,0,0,.655-.1.327.327,0,0,0,.1-.131,7.383,7.383,0,0,0,.192-1.749q.08-1.861.258-4.955.142-2.359.142-2.945v-.227q-.632-.131-2-.28a.419.419,0,0,1-.088-.2.425.425,0,0,1,.061-.157.751.751,0,0,1,.227-.053,2.764,2.764,0,0,1,.305.035,8.789,8.789,0,0,0,1.177.061q.244,0,.837-.04.419-.03.471-.03a1.2,1.2,0,0,1,.323.052.8.8,0,0,1,.135.169l.366.821,2.473,5.47,1.031,2.3a38.809,38.809,0,0,0,1.881-4.273,1.458,1.458,0,0,1,.1-.253,2.955,2.955,0,0,0,.148-.332q.069-.184.566-1.4.2-.489.322-.839.5-1.4.583-1.6a.764.764,0,0,1,.289-.07,3.15,3.15,0,0,1,.359.026q.491.027,1.595.026.683,0,1.122-.017a.862.862,0,0,1,.017.14.732.732,0,0,1-.026.166,1.565,1.565,0,0,1-.673.166,4.375,4.375,0,0,0-.987.122.447.447,0,0,0-.267.2,3.52,3.52,0,0,0-.1.8l.009.4-.009.419q0,1.311.07,4.4l-.009,1.713.009,1.1a2.541,2.541,0,0,0,.061.765.631.631,0,0,0,.349.223,10.517,10.517,0,0,0,1.538.323.134.134,0,0,1,.061.113c0,.052,0,.111-.008.175h-.4q-.517,0-1.12-.031t-.648-.031q-1.794,0-2.381.04-.359.03-.455.03a.3.3,0,0,1-.131-.035v-.114a.583.583,0,0,1,.026-.166,2.673,2.673,0,0,1,.786-.166,2.93,2.93,0,0,0,.8-.315,7.291,7.291,0,0,0,.079-1.356l-.026-1.767q0-.289.031-1.076t.031-2.563q0-1.408-.07-2.134-.148.306-.583,1.328l-.131.332-.017.052-1.288,3.059-.461,1.179-.6,1.433q-.391.988-.67,1.748-.122.349-.2.55l-.2-.009q-.988-2.884-2.357-5.916t-1.92-4q-.072.376-.162,2.185-.117,2.2-.117,4.85a16.008,16.008,0,0,0,.122,1.863.576.576,0,0,0,.253.44,2.69,2.69,0,0,0,1.127.161,4.053,4.053,0,0,1,.664.052.555.555,0,0,1,.061.2.488.488,0,0,1-.044.153l-2.713-.1q-.3,0-.925.039-.349.023-1,.031Z" transform="translate(-294.755 -178.559)" fill="#fff"/>
        <path id="Tracé_12" data-name="Tracé 12" d="M346.991,188.807a.451.451,0,0,1,.218-.07h.2c.041,0,.11,0,.21-.009a3.42,3.42,0,0,0,.795-.122,1.345,1.345,0,0,0,.524-.577,21.02,21.02,0,0,0,1.023-2.525q.271-.777.341-.944.218-.524.42-1.1l.821-2.3q.193-.542.927-2.482.183-.489.446-1.311l.257-.017.306.009a12.077,12.077,0,0,1,.663,1.6q.157.454.515,1.354l1.327,3.591.707,1.949q.559,1.66.734,2.04a1.484,1.484,0,0,0,.323.5,1.312,1.312,0,0,0,.328.1q.284.07.4.1a3.629,3.629,0,0,1,.559.192.481.481,0,0,1,.035.149.507.507,0,0,1-.026.131q-.28.009-.393.009-.446,0-1.573-.026l-.874-.02-1.057.013q-.1,0-.214-.01c-.073-.006-.135-.01-.188-.01h-.192a.437.437,0,0,1-.175-.053.652.652,0,0,1,.044-.236.56.56,0,0,1,.192-.061l.917-.061a1.628,1.628,0,0,0,.542-.1.826.826,0,0,0,.053-.236,3.8,3.8,0,0,0-.227-.814q-.157-.438-.275-.832t-.93-2.591a3.771,3.771,0,0,0-.629-.061l-1.87.017-.551-.009a5.491,5.491,0,0,0-.656.044q-.114.262-.149.376l-.77,2.4a12.124,12.124,0,0,0-.49,1.512.8.8,0,0,0,.079.262,3.762,3.762,0,0,0,.489.1l1.188.105c.064.052.1.1.1.14a.512.512,0,0,1-.026.131q-.393.009-.6.009-.7,0-1.625-.044-.428-.018-.612-.018t-.638.018q-.3.017-.428.017-.21,0-.542-.026v-.052A.561.561,0,0,1,346.991,188.807Zm4.17-5.243q.934.053,2.132.053.682,0,1.2-.044a5.881,5.881,0,0,0-.2-.638q-.567-1.52-.628-1.677l-.794-2.018-.087-.158q-.053.1-.385.9-.56,1.363-.8,2.123-.114.341-.237.677a4.7,4.7,0,0,0-.153.472,1.52,1.52,0,0,1-.092.275Z" transform="translate(-332.293 -177.351)" fill="#fff"/>
        <path id="Tracé_13" data-name="Tracé 13" d="M391.91,190.216a1.339,1.339,0,0,1,.393-.1q1.337-.087,1.529-.319a6.318,6.318,0,0,0,.192-2.243l-.009-.918v-.962l-.035-1.058L394,184l-.009-.682v-.8l-.017-.358.017-.455c.006-.1.009-.227.009-.367q0-.551-.053-1.163a1.184,1.184,0,0,0-.1-.236,2.941,2.941,0,0,0-1.044-.223,2.726,2.726,0,0,1-.817-.127q-.07-.053-.079-.271h.735l2.319.053q.893,0,2.381-.053a1.888,1.888,0,0,1-.017.262,5.761,5.761,0,0,1-.586.1,4.513,4.513,0,0,0-1.013.184.3.3,0,0,0-.166.149,1.467,1.467,0,0,0-.1.586l-.044,1.128.035,3.892v1.539q-.018.726-.017.988a9.6,9.6,0,0,0,.048,1.251.723.723,0,0,0,.166.389.848.848,0,0,0,.389.188,3.479,3.479,0,0,0,.629.105,1.069,1.069,0,0,1,.62.14.882.882,0,0,1,.026.192v.07q-.8.026-1.173.026-.219,0-.779-.026l-1.208.017-2.057-.009h-.166Z" transform="translate(-364.621 -178.76)" fill="#fff"/>
        <path id="Tracé_14" data-name="Tracé 14" d="M421.8,178.908q.07.576.07.664l-.035.777a5.793,5.793,0,0,1-.044.638.34.34,0,0,1-.131.035l-.078-.018a3.166,3.166,0,0,0-.948-1.783,2.457,2.457,0,0,0-1.63-.559,2.388,2.388,0,0,0-1.634.559,1.687,1.687,0,0,0-.638,1.3,1.487,1.487,0,0,0,.445,1.04,10.086,10.086,0,0,0,2.281,1.412,14.807,14.807,0,0,1,2,1.182,3.1,3.1,0,0,1,.909,1.063,2.935,2.935,0,0,1,.306,1.347,3.406,3.406,0,0,1-.485,1.758,3.141,3.141,0,0,1-1.306,1.238,4.854,4.854,0,0,1-2.176.415,6.858,6.858,0,0,1-2.263-.376,2.555,2.555,0,0,1-.778-.367.418.418,0,0,1-.14-.3,2.094,2.094,0,0,1,.018-.245,16.808,16.808,0,0,0,.131-1.7,1.527,1.527,0,0,1,.061-.481.138.138,0,0,1,.131-.061.158.158,0,0,1,.127.057.418.418,0,0,1,.065.214,2.962,2.962,0,0,0,1,1.922,2.852,2.852,0,0,0,2.018.848,2.819,2.819,0,0,0,1.272-.288,2.152,2.152,0,0,0,.908-.835,2.059,2.059,0,0,0,.328-1.062,1.951,1.951,0,0,0-.5-1.293,7.03,7.03,0,0,0-2-1.367,14.883,14.883,0,0,1-1.957-1.14,4.309,4.309,0,0,1-1.1-1.241,2.46,2.46,0,0,1-.271-1.18,2.637,2.637,0,0,1,.961-2.058,3.769,3.769,0,0,1,2.578-.843,5.21,5.21,0,0,1,1.538.2A3.656,3.656,0,0,1,421.8,178.908Z" transform="translate(-381.6 -177.955)" fill="#fff"/>
        <path id="Tracé_15" data-name="Tracé 15" d="M446.568,184.644a5.376,5.376,0,0,1,.214-1.586,6.535,6.535,0,0,1,.721-1.507,5.04,5.04,0,0,1,1.224-1.359,6.83,6.83,0,0,1,1.983-.965,7.439,7.439,0,0,1,2.255-.288,6.667,6.667,0,0,1,1.8.245,6.29,6.29,0,0,1,1.595.682,5.627,5.627,0,0,1,1.433,1.345,4.629,4.629,0,0,1,.752,1.355,5.929,5.929,0,0,1,.332,1.966,6.928,6.928,0,0,1-.223,1.914,5.1,5.1,0,0,1-.747,1.5,6.718,6.718,0,0,1-1.407,1.328,5.333,5.333,0,0,1-1.652.817,7.082,7.082,0,0,1-2.132.31,7.253,7.253,0,0,1-2.071-.271,5.981,5.981,0,0,1-1.516-.66,5.755,5.755,0,0,1-1.249-1.149,5.457,5.457,0,0,1-.974-1.678A5.838,5.838,0,0,1,446.568,184.644Zm6.064,5.435a6.054,6.054,0,0,0,1.525-.205,3.811,3.811,0,0,0,1.4-.681,3.677,3.677,0,0,0,.957-1.084,5.613,5.613,0,0,0,.555-1.56,8.828,8.828,0,0,0,.21-1.9,8.126,8.126,0,0,0-.349-2.35,4.251,4.251,0,0,0-.883-1.577,4.186,4.186,0,0,0-1.477-1.075,4.532,4.532,0,0,0-1.844-.38,4.737,4.737,0,0,0-1.555.262,3.96,3.96,0,0,0-1.25.669,4.071,4.071,0,0,0-.909,1.154,6.445,6.445,0,0,0-.638,1.647,6.835,6.835,0,0,0-.219,1.59,7.167,7.167,0,0,0,.219,1.643,6.08,6.08,0,0,0,.6,1.59,4.975,4.975,0,0,0,.935,1.193,3.9,3.9,0,0,0,2.722,1.07Z" transform="translate(-403.926 -178.492)" fill="#fff"/>
        <path id="Tracé_16" data-name="Tracé 16" d="M494.236,179.675l-.009-.419q1.355,0,1.984-.07.244-.027.341-.026c.052,0,.131,0,.236.009a4.859,4.859,0,0,1,.681.7l.157.175,1.844,2.036.262.315q.559.655,1.018,1.118t1.787,1.931l2.089,2.316q.306.34.787.847l.009-.14q-.053-1.215-.052-1.284l.035-.524-.017-.822v-.376q0-.358-.061-2.211-.008-.253-.07-.957t-.061-1.236a2.882,2.882,0,0,0-.114-1.118,1.592,1.592,0,0,0-.743-.236q-.158-.008-.489-.053a2.448,2.448,0,0,1-.463-.044.314.314,0,0,1-.14-.149.8.8,0,0,1,.078-.262,1.634,1.634,0,0,1,.463-.07,3.779,3.779,0,0,1,.607.061,3.952,3.952,0,0,0,.651.061q.4,0,1.249-.053.481-.035.664-.035h.149l-.018.271a1.129,1.129,0,0,1-.384.074,2.006,2.006,0,0,0-.454.074,1,1,0,0,0-.376.166.686.686,0,0,0-.209.463l.1,2.761.07,1.267-.009.367.052,1.756q.053,1.8.053,3.128,0,.288-.035,1.25l-.408.035q-.306-.349-2.107-2.2-.42-.428-.568-.6l-.752-.865q-.437-.48-.568-.611l-.192-.192q-.953-1.083-2.474-2.709-.411-.437-1.206-1.363-.5-.585-.63-.716a3.1,3.1,0,0,0-.358-.3l-.026.3q0,1.7.088,4.7l.061,2.892q.009.367.044.708l.306.07q.83.079,1.634.236a.805.805,0,0,0,.1.079l-.009.332a.808.808,0,0,1-.227.044,1.979,1.979,0,0,1-.236-.017q-.865-.07-2.106-.07-.874,0-1.538.044l-.122.008a2.129,2.129,0,0,1-.227-.017l-.009-.262.227-.1.411-.061a4.109,4.109,0,0,0,.8-.175.64.64,0,0,0,.271-.184,12.083,12.083,0,0,0,.1-1.765q0-.541-.026-1.984V184.8l-.017-2.482a10.785,10.785,0,0,0-.114-1.957.58.58,0,0,0-.219-.279,1.835,1.835,0,0,0-.869-.3A5.769,5.769,0,0,1,494.236,179.675Z" transform="translate(-438.198 -178.627)" fill="#fff"/>
      </g>
    </g>
  </g>
</svg>
