<svg xmlns="http://www.w3.org/2000/svg" width="106.599" height="100" viewBox="0 0 106.599 100">
  <g id="logo-footer" transform="translate(-35.7 -9.3)">
    <ellipse id="Ellipse_30" data-name="Ellipse 30" cx="20.347" cy="2.792" rx="20.347" ry="2.792" transform="translate(69.033 74.063)" fill="#12100b" opacity="0.1"/>
    <g id="Groupe_118" data-name="Groupe 118" transform="translate(35.7 88.911)">
      <path id="Tracé_100" data-name="Tracé 100" d="M39.423,204.822v13.409H35.7V199.915h3.723v2.115a4.527,4.527,0,0,1,4.653-3.13,5.9,5.9,0,0,1,4.738,2.115,8.166,8.166,0,0,1,1.819,5.288v11.887h-3.68V206.43a3.677,3.677,0,0,0-1.142-2.707,3.771,3.771,0,0,0-2.75-1.142,3.9,3.9,0,0,0-2.75,1.1A4.174,4.174,0,0,0,39.423,204.822Z" transform="translate(-35.7 -198.308)" fill="#fff"/>
      <path id="Tracé_101" data-name="Tracé 101" d="M82.526,213.236a5.214,5.214,0,0,0,3.384.8,6.263,6.263,0,0,0,4.526-1.861c.169-.169.465-.55.931-1.1l3.68,1.311a24.163,24.163,0,0,1-1.946,2.453,10.142,10.142,0,1,1-.888-15.186c.3.254.592.508.888.8q.19.19,1.015,1.142l-1.861,1.861Zm6.134-11.379a5.1,5.1,0,0,0-2.792-.465,6.355,6.355,0,0,0-6.345,6.345,5.545,5.545,0,0,0,.465,2.792Z" transform="translate(-58.837 -197.5)" fill="#fff"/>
      <path id="Tracé_102" data-name="Tracé 102" d="M133.41,197.7a10.11,10.11,0,1,1-7.149,2.961A9.8,9.8,0,0,1,133.41,197.7Zm-4.484,5.668a6.167,6.167,0,0,0-1.861,4.484,6.1,6.1,0,0,0,1.861,4.484,6.167,6.167,0,0,0,4.484,1.861,6.1,6.1,0,0,0,4.484-1.861,6.345,6.345,0,0,0-4.484-10.829A6,6,0,0,0,128.926,203.368Z" transform="translate(-86.244 -197.615)" fill="#fff"/>
      <path id="Tracé_103" data-name="Tracé 103" d="M179.48,203.119a6.558,6.558,0,0,1,5.076-2.919v3.807a4.753,4.753,0,0,0-3.215,1.311,6.006,6.006,0,0,0-1.861,4.23v9.433H175.8V200.665h3.68Z" transform="translate(-116.536 -199.058)" fill="#fff"/>
      <path id="Tracé_104" data-name="Tracé 104" d="M203.626,213.236a5.214,5.214,0,0,0,3.384.8,6.262,6.262,0,0,0,4.526-1.861c.169-.169.465-.55.931-1.1l3.68,1.311a24.161,24.161,0,0,1-1.946,2.453,10.142,10.142,0,1,1-.888-15.186c.3.254.592.508.888.8q.19.19,1.015,1.142l-1.861,1.861Zm6.134-11.379a5.1,5.1,0,0,0-2.792-.465,6.355,6.355,0,0,0-6.345,6.345,5.545,5.545,0,0,0,.465,2.792Z" transform="translate(-128.71 -197.5)" fill="#fff"/>
      <path id="Tracé_105" data-name="Tracé 105" d="M250.556,219.516,241.8,201.2h4.188l5.5,11.887,5.541-11.887h4.188l-8.756,18.316Z" transform="translate(-154.617 -199.635)" fill="#fff"/>
    </g>
    <g id="Groupe_119" data-name="Groupe 119" transform="translate(55.243 9.3)">
      <path id="Tracé_106" data-name="Tracé 106" d="M130.6,65.55c-9.264,5.8-23.435,4.907-32.36-5.2a25.75,25.75,0,0,1,1.607-35.7c9.941-9.433,23.689-8.164,30.584-3.553-11.844-3.215-21.616-.3-28.426,10.321a23.007,23.007,0,0,0,1.184,25.719C110.292,66.312,119.6,68.723,130.6,65.55Z" transform="translate(-87.618 -14.07)" fill="#fff"/>
      <path id="Tracé_107" data-name="Tracé 107" d="M123.99,9.3c14.3,3.3,26.946,17.555,25.8,35.618A34.668,34.668,0,0,1,114.3,77.32C95.859,76.855,84.015,62.6,81.9,51.686c8.164,14.3,20.262,20.77,36.844,17.174,12.014-2.623,21.785-13.452,23.308-25.55C143.956,27.786,137.4,16.7,123.99,9.3Z" transform="translate(-81.9 -9.3)" fill="#fff"/>
    </g>
    <g id="Groupe_120" data-name="Groupe 120" transform="translate(125.985 15.561)">
      <path id="Tracé_108" data-name="Tracé 108" d="M263.1,27.7Z" transform="translate(-257.192 -26.177)" fill="#e31013"/>
      <path id="Tracé_109" data-name="Tracé 109" d="M263.1,27.7Z" transform="translate(-257.192 -26.177)" fill="#e31013"/>
      <path id="Tracé_110" data-name="Tracé 110" d="M264.6,29.3Z" transform="translate(-258.058 -27.1)" fill="#e31013"/>
      <path id="Tracé_111" data-name="Tracé 111" d="M262.442,27.154c.212-.085.169-.212.127-.254-.042.085-.085.085-.169.085C262.442,27.069,262.4,27.112,262.442,27.154Z" transform="translate(-256.788 -25.716)" fill="#e31013"/>
      <path id="Tracé_112" data-name="Tracé 112" d="M258.927,24.327c-.042-.085-.042-.085-.127-.127a.458.458,0,0,1,.042.254C258.927,24.412,258.927,24.369,258.927,24.327Z" transform="translate(-254.711 -24.158)" fill="#e31013"/>
      <path id="Tracé_113" data-name="Tracé 113" d="M264.6,29.3Z" transform="translate(-258.058 -27.1)" fill="#e31013"/>
      <path id="Tracé_114" data-name="Tracé 114" d="M257.185,25.285,257.1,25.2c0,.085,0,.085.085.085Z" transform="translate(-253.73 -24.735)" fill="#e31013"/>
      <path id="Tracé_115" data-name="Tracé 115" d="M278.1,30.6Z" transform="translate(-265.847 -27.85)" fill="#e31013"/>
      <path id="Tracé_116" data-name="Tracé 116" d="M279.6,31.2Z" transform="translate(-266.713 -28.197)" fill="#e31013"/>
      <path id="Tracé_117" data-name="Tracé 117" d="M278.6,31.5Z" transform="translate(-266.136 -28.37)" fill="#e31013"/>
      <path id="Tracé_118" data-name="Tracé 118" d="M278.769,31.185c-.042,0-.085-.042-.169,0,.042.042.042.042.042.085.085,0,.211,0,.254-.085.042,0,.085.042.127-.042-.042-.042-.085-.042-.169-.042C278.812,31.142,278.812,31.185,278.769,31.185Z" transform="translate(-266.136 -28.139)" fill="#e31013"/>
      <path id="Tracé_119" data-name="Tracé 119" d="M278.27,32.912v-.127C278.143,32.742,278.143,32.827,278.27,32.912Z" transform="translate(-265.89 -29.104)" fill="#e31013"/>
      <path id="Tracé_120" data-name="Tracé 120" d="M277.6,33.2a.22.22,0,0,0,.169.085C277.685,33.2,277.642,33.2,277.6,33.2Z" transform="translate(-265.559 -29.351)" fill="#e31013"/>
      <path id="Tracé_121" data-name="Tracé 121" d="M277.6,33.2Z" transform="translate(-265.559 -29.351)" fill="#e31013"/>
      <path id="Tracé_122" data-name="Tracé 122" d="M278.912,31.954a.041.041,0,0,0,.042-.042C278.869,31.785,278.785,31.869,278.912,31.954Z" transform="translate(-266.278 -28.57)" fill="#e31013"/>
      <path id="Tracé_123" data-name="Tracé 123" d="M278.2,30.685a.155.155,0,0,0,.127-.042.041.041,0,0,0-.042-.042C278.2,30.642,278.2,30.642,278.2,30.685Z" transform="translate(-265.905 -27.85)" fill="#e31013"/>
      <path id="Tracé_124" data-name="Tracé 124" d="M277.1,33.818a.041.041,0,0,1,.042.042c0-.042,0-.042-.042-.085Z" transform="translate(-265.27 -29.673)" fill="#e31013"/>
      <path id="Tracé_125" data-name="Tracé 125" d="M278.5,32.657a.325.325,0,0,0,.127.085c-.042-.042-.042-.085-.127-.085Z" transform="translate(-266.078 -29.019)" fill="#e31013"/>
      <path id="Tracé_126" data-name="Tracé 126" d="M277.685,32.874c-.042,0-.085-.042-.085,0a.041.041,0,0,0,.042.042C277.642,32.959,277.685,32.959,277.685,32.874Z" transform="translate(-265.559 -29.152)" fill="#e31013"/>
      <path id="Tracé_127" data-name="Tracé 127" d="M277.976,29.669c.042,0,.085,0,.085-.042s-.085-.042-.042-.127C277.976,29.542,277.934,29.669,277.976,29.669Z" transform="translate(-265.766 -27.216)" fill="#e31013"/>
      <path id="Tracé_128" data-name="Tracé 128" d="M279.527,31.027,279.4,30.9q0,.063.127.127Z" transform="translate(-266.597 -28.024)" fill="#e31013"/>
      <path id="Tracé_129" data-name="Tracé 129" d="M279.6,31.2Z" transform="translate(-266.713 -28.197)" fill="#e31013"/>
      <path id="Tracé_130" data-name="Tracé 130" d="M277.5,33.085c-.042-.042,0-.085-.042-.085C277.376,33,277.5,33.042,277.5,33.085Z" transform="translate(-265.461 -29.235)" fill="#e31013"/>
      <path id="Tracé_131" data-name="Tracé 131" d="M277.6,33.2Z" transform="translate(-265.559 -29.351)" fill="#e31013"/>
      <path id="Tracé_132" data-name="Tracé 132" d="M272.385,38.985c0-.042,0-.042-.042-.085H272.3Z" transform="translate(-262.501 -32.639)" fill="#e31013"/>
      <path id="Tracé_133" data-name="Tracé 133" d="M257.5,35.5Z" transform="translate(-253.961 -30.678)" fill="#e31013"/>
      <path id="Tracé_134" data-name="Tracé 134" d="M257.774,34.9c0,.042-.042.042,0,0C257.859,34.985,257.9,34.9,257.774,34.9Z" transform="translate(-254.109 -30.331)" fill="#e31013"/>
      <path id="Tracé_135" data-name="Tracé 135" d="M257.5,35.5Z" transform="translate(-253.961 -30.678)" fill="#e31013"/>
      <path id="Tracé_136" data-name="Tracé 136" d="M261.556,27.146c-.042-.042-.085-.085-.127-.085v-.042h0v-.042a.381.381,0,0,0,.212-.042c.085,0,.085.042.169.042a.131.131,0,0,1,.042-.085c-.085,0-.127-.042-.211-.042-.042.042,0,.085-.127.085h-.085V26.85h0c.042-.042.127-.042.169-.085-.042-.042-.085,0-.085.042h-.042c-.042,0,.042-.042,0-.042l-.042.042h0v0h0v-.085a.041.041,0,0,1-.042.042h0a.719.719,0,0,0-.042-.3h.085c.042,0,0-.042.085-.085h.127c.042.042.042.042.085.042v.042a.091.091,0,0,0-.085.085.32.32,0,0,1,.042.169c.127-.085.212-.127.169-.338l-.085-.085c-.042,0-.042,0-.085-.042h-.042a.317.317,0,0,1-.211-.042c0-.042,0-.085-.042-.085a.155.155,0,0,0-.127-.042.254.254,0,0,1-.042.169.148.148,0,0,1-.085-.042h0c-.085,0-.127.042-.211.042l-.127-.127c0,.042.042.085.042.127h-.042l-.085.085h-.127a.079.079,0,0,0-.127,0,.041.041,0,0,1,.042.042c-.042,0-.042,0-.085.042h0c-.042-.042-.085-.042-.127.042a18.317,18.317,0,0,0-3.342,1.142c-.3-.3-.55-.592-.846-.888l.042-.042c-.042,0-.042,0-.042.042l-.381-.381c.042-.042.085-.042.042-.085-.042,0-.042.042-.085.085l-.042-.042a.155.155,0,0,0,.127-.042v-.042c-.042,0-.085.042-.169.042-.085-.042-.127-.127-.212-.169,0-.042.042-.042.042-.085s-.085,0-.042-.085a.321.321,0,0,0,.085-.169c-.085.042-.169.085-.211.042,0-.042.042-.127,0-.127-.042.042-.085.085-.085.127.042.042.042.127.127.085a.041.041,0,0,1-.042.042l-.169-.169a.584.584,0,0,0,.127-.169l-.042-.042c.042-.085.085-.127.085-.212-.085.042-.127.169-.169.169.042.127,0,.127-.042.169l-.085-.085h0c.042-.042.085-.042.127-.085-.042,0-.042-.042-.085-.085-.042.085-.085.085-.127.127-.042,0-.042-.042-.085-.042h0c.042-.085-.042-.085-.085-.212.042-.042.085,0,.085-.042.042,0,0-.085,0-.085h.042c0-.127-.042-.212-.169-.169.042.085-.085.169-.042.254-.085,0-.127.042-.211.042h-.042c.042-.085.085-.042.127-.127,0-.169-.127-.085-.169-.042a.691.691,0,0,1,0-.3c.042-.042.085,0,.085-.042-.042-.085-.127-.042-.169-.212-.042.127-.127.085-.169.127l-.127-.127c0-.085-.042-.212-.042-.3-.042-.042-.085-.169-.127-.042v.254s.042-.042.042,0c0,.169-.042.169-.127.042-.042-.085-.042-.169-.085-.212,0-.085,0-.127-.042-.169-.042,0-.042-.042-.085-.042.042.169-.042.169-.042.381h-.042c-.042-.169-.169-.127-.169-.3-.085,0,0,.127-.085.085-.042-.042.042-.085-.042-.127-.042,0-.085.085-.169.085-.042-.042-.042-.042-.085-.042-.042.042,0,.169-.042.212-.042-.042-.042-.127-.085-.127s0,.085-.042.085c-.042-.042-.042-.085-.085-.042a1.1,1.1,0,0,0,.169.423c-.042-.042-.085,0-.085.042-.127-.085-.3-.085-.338.042.085.042.127.042.212.085l.169.3c0,.042,0,.085-.042.042s0-.085-.085-.169c-.042.042-.042.127-.169.085.042.127-.042.127-.085.169.169.3.169.042.254.042q.127.063.127.127c0,.042-.127-.042-.127,0-.042.085-.085.212-.212.254,0,.085.085.127.127.169l-.127.127a.438.438,0,0,0,.042.169c.085,0,.127,0,.169.085-.085.085-.127.127-.042.212-.085.042-.127.085-.127.169.042.042.127,0,.169.042a.155.155,0,0,0,.042.127.131.131,0,0,1-.085.042.689.689,0,0,0,.254.127c-.085,0-.127-.042-.211,0v.127a.467.467,0,0,0,.338,0c.042,0,.042,0,.042.042a.22.22,0,0,0-.169.085h-.169c-.085.042.085.212.085.254s-.085.042-.085.085c.127.085.085.212.212.3-.169.085,0,.085,0,.3h-.085c0,.042.042.042.085.042v.085h-.127a.155.155,0,0,0,.127.042V28.33c0,.042.085.042.085.085l-.042.042H252.8a.041.041,0,0,1,.042.042h0c0,.042.085.042.085.085-.042.042,0,.085,0,.127-.085.042-.127.042-.169.085-.042,0-.127,0-.127.042h.169c.042,0,0-.042.085-.085h.042V28.8c.042.042.127,0,.127.042s-.085,0-.127.042a.155.155,0,0,0-.127.042.22.22,0,0,0-.169-.085h0c-.042.042,0,.127,0,.169-.042.042-.127.042-.169.085v.042a.323.323,0,0,0-.085.212h0c0-.085,0-.127-.042-.169a.155.155,0,0,0-.127.042c0,.085,0,.127.042.169-.042,0-.042,0-.085.042h0c0-.042-.042-.127-.042-.169-.085-.085-.212.085-.3.127-.042,0-.042-.085-.085-.042-.085.169-.212.127-.3.254a1.126,1.126,0,0,0-.508.127s0,.085-.042.085-.085-.042-.127-.042c-.042.042-.042.085-.085.085-.085-.042-.169.085-.254.042-.042.042,0,.127-.042.127s0-.085-.042-.085c-.085,0-.3.338-.423.127-.085-.042-.127.042-.212.085v-.085c-.042,0-.042,0-.085.042l.042.042h-.042a1.289,1.289,0,0,0-.423.3c0,.042.042.085.042.127-.127.085-.127.127-.042.169-.085.127-.085.212-.042.212.127,0,.3.042.465.042.169.042.338.127.508.169.508.212.973.465,1.4.635.338.127.677.3,1.015.423h0c.042,0,.085.042.127.042-.042,0-.042.042-.127.042,0,.042.085.042.127.085-.042.042-.085.042-.127.085,0,.042.042.042.042.085.085,0,.127,0,.169.042-.085.042-.127.127-.042.169q-.127.063-.127.127c.042.042.127,0,.169.042a.155.155,0,0,0,.042.127c-.042,0-.085,0-.085.042a.925.925,0,0,0,.212.127c-.085,0-.127-.042-.212,0v.085a.358.358,0,0,0,.3,0c.042,0,.042,0,.042.042-.085,0-.127.042-.169.042h-.169c-.085.042.042.169.085.212,0,.042-.085.042-.085.085.127.085.042.169.212.254-.169.085.085.085,0,.212-.042.042,0,.169,0,.169s.085,0,.085.042l-.085.085c0,.042.085.042.085.085-.042.085.085.127,0,.169.042.042.127,0,.085.042,0,.042-.085,0-.085,0-.042.042.254.254.042.3-.042.085.042.127.042.169l-.042.042c.042.127.042.254.212.338.085,0,.169-.042.254-.042,0,.085,0,.212-.169.169-.085.042-.042.127-.085.169h-.042c0,.127-.127.254-.042.423a.974.974,0,0,0,.381.127c.042,0,.381.042.381.042a7.8,7.8,0,0,0,1.4-1.988c.127.042.085-.042.042-.085.085.042.085.042.085,0s-.085-.085-.085-.085c.127,0,.169.042.085-.127.042,0,.085.042.127.042a.323.323,0,0,0,.085-.212c.127,0,.127-.085.085-.169l-.212-.212c.127.042.169.127.254.212h.085a.148.148,0,0,0-.042-.085c.212.085.085,0,.085-.042.212-.042-.127-.085,0-.169a.081.081,0,0,0,.127.042.148.148,0,0,0-.042-.085l.085.042c0-.042-.042-.085-.042-.127.042,0,.042.042.085.042h.127q.063-.127.127-.127c.042.085.085.169.212.127,0,.085.042.169.085.169s.042-.127.085-.127.085.042.169.042v.085a.743.743,0,0,0,.211-.169c0,.085-.085.127-.085.212.042,0,.085.042.127.042a.457.457,0,0,0,.127-.3l.042-.042c-.042.085,0,.127,0,.169s-.042.127-.042.169c0,.085.254.042.3.042s0,.085.042.085c.127-.085.254.042.381-.085a.887.887,0,0,0,.465.169s.042-.085.085-.085a.148.148,0,0,0,.042.085c.042,0,.085-.042.127-.042.042.085.169,0,.212.085.042,0,.085-.085.085-.085.042.042-.042.085-.042.127.042.042.423-.127.381.127.042.085.169.042.212.042a.041.041,0,0,0,.042.042c.169,0,.3.085.508-.042v-.085c.254.085.719.127.846-.042s-1.523-2.2-1.565-2.2c.085-.085,0-.042-.042-.042.169-.169,0,0-.042-.042.042-.085.127-.085-.085-.085.042-.042.085-.042.085-.085s-.085-.085-.127-.085c.042-.085,0-.127-.127-.085h-.042v-.042c.042-.042.085-.042.085-.085-.042,0-.085.042-.085,0,.169-.127.042-.042,0-.085.042-.169-.127.085-.127-.042a.091.091,0,0,0,.085-.085s-.085.042-.085,0c0,0,.085-.042.042-.085-.042,0-.085.042-.127,0,.042-.042.085-.042.085-.085-.085,0-.042-.042-.169.042h0l.085-.085c-.042,0-.042-.042,0-.085h-.085c0-.042.085-.085.042-.085a.32.32,0,0,1-.169.042h0c.042-.042.085-.042.127-.127-.042.042-.085.042-.169.085h0a.041.041,0,0,0-.042-.042c.042-.042.085-.042.127-.085v-.042a.426.426,0,0,0-.127.042c.042,0,.042-.042.085-.042h.042V30.53h0c0-.042-.042-.085-.042-.127.042.042.085.085.085.127.042,0,0-.042,0-.042.042.042.042.042.085.042,0-.085-.127-.212-.169-.338.042.042.085.042.085,0,.169.085.254.127.338.085-.042-.042-.127-.085-.169-.127l-.085-.212c.042,0,.042-.042.085,0s-.042.042,0,.085c.042,0,.085-.042.169.042,0-.085.085-.042.127-.042-.042-.169-.127-.127-.212-.169-.042-.042-.085-.085-.085-.127a1.992,1.992,0,0,1,.381.127c.042,0-.042-.085-.042-.127.042,0,.085.042.127.042,0-.042.042-.042.042-.085-.042-.085-.085-.127-.042-.169.085.042.169.042.169-.085.085.042.169.042.169,0s-.085-.085-.085-.127c.042-.042.085-.042.085-.085a.131.131,0,0,0,.085.042.629.629,0,0,0-.042-.254c.085.085.085.127.127.169.042,0,.042-.042.085-.042-.042-.127-.127-.169-.211-.254,0-.042-.042-.042,0-.042a.22.22,0,0,0,.169.085l.127.127c.085.042.085-.169.127-.212.042,0,.085.042.085,0-.042-.169.127-.169.085-.338.169.127.042-.127.169-.127.042,0,.127-.127.127-.127a.148.148,0,0,1-.042-.085h.127v-.042h.042a.059.059,0,0,0,0-.085.041.041,0,0,0,.042-.042v.042c.042,0,.042,0,0-.042h0a.041.041,0,0,1,.042-.042c.085.085.085,0,.127-.042a.131.131,0,0,0-.085-.042c0-.042-.042-.042,0-.085.042,0,.042.085.085.085s0-.381.211-.212c.085,0,.085-.127.085-.169h.042a.148.148,0,0,1,.042-.085c.042,0,.042.042.169.127a.148.148,0,0,0-.042-.085c-.042-.042-.085-.042-.127-.085.042-.042.042-.085.042-.169h.042c.169.042.169,0,.127-.042Zm-.338-.8Zm-2.58,1.058c.042,0,.042,0,.085-.042V27.4C258.68,27.442,258.68,27.442,258.638,27.4Z" transform="translate(-249.134 -24.1)" fill="#e31013"/>
    </g>
  </g>
</svg>
