<svg xmlns="http://www.w3.org/2000/svg" width="174" height="40" viewBox="0 0 174 40" fill="white">
  <path d="M86.835 21.8894V2.63525C86.8187 2.71863 94.6124 2.71863 102.044 2.71863C114.912 2.71863 116 7.06862 115.955 13.0861C116 17.7624 113.825 21.9311 102.044 21.9311C102.044 21.9311 86.8187 21.9311 86.835 21.8894ZM94.7937 16.6749C94.9242 16.7528 99.5062 16.6749 102.044 16.6749C105.487 16.6749 107.086 15.0436 107.151 12.4753C107.215 9.99037 105.85 7.97487 102.044 7.97487C99.1437 7.97487 94.7937 7.97487 94.8444 7.96037C94.8444 11.0416 94.7937 13.6824 94.7937 16.6749Z" fill="white"/>
  <path d="M118.719 21.9312V2.71872H143.912C143.932 2.62809 143.88 6.87477 143.912 6.88746H126.694V9.9687H142.644V13.9562H126.694V17.3999H143.912V21.9312" fill="white"/>
  <path d="M62.3504 18.6687L60.1754 21.9312H51.8379L63.2566 2.71875H73.0441L84.8253 21.9312H76.3066L74.4941 18.6687M64.7066 14.6812H71.4129L68.1504 7.97499L64.7066 14.6812Z" fill="white"/>
  <path d="M33.8933 21.9312H26.0996V2.71875H48.5746C52.1996 2.71875 54.1516 5.57887 54.1752 9.39599C54.1933 12.325 52.7433 15.4062 48.5746 15.4062H33.8933M33.8933 11.2375C37.0181 11.2375 40.0975 11.2683 42.9685 11.2683C45.3121 11.2683 45.41 10.5125 45.41 9.18211C45.41 7.85174 45.1308 7.28443 43.0773 7.28443C40.1084 7.28443 36.9329 7.24999 33.8933 7.24999V11.2375Z" fill="white"/>
  <path d="M147.356 2.71875H154.788V16.4937C160.642 16.4937 166.429 16.4031 172.006 16.4031C172.006 17.0375 172.006 21.9312 172.006 21.9312H147.356V2.71875Z" fill="white"/>
  <path d="M3.2627 11.5999C3.2627 7.43115 7.06894 3.44365 11.2377 2.8999C11.6002 11.5999 21.9314 13.2311 21.9314 13.2311C21.5689 18.3061 16.6752 21.7499 13.4127 21.7499C13.2314 15.9499 8.51894 11.5999 3.2627 11.5999Z" fill="white"/>
  <path d="M157.239 27.3398H162.581C162.581 27.3688 162.943 28.2751 162.943 28.2751L164.756 32.0813L166.749 27.3688C166.749 27.3688 171.643 27.4232 172.258 27.4232C172.258 27.7313 172.187 35.3438 172.187 35.3438H168.743C168.743 35.3438 168.743 30.8126 168.718 30.7908C167.656 32.6251 166.024 35.3438 166.024 35.3438H163.487C163.487 35.3438 160.768 30.8126 160.768 30.7709C160.768 32.3133 160.768 34.2056 160.768 35.3438H157.324" fill="white"/>
  <path d="M148.806 35.3439C145.725 35.3439 141.797 35.1626 141.797 31.3238C141.797 27.7314 144.637 26.6421 148.503 26.6421C152.973 26.6421 155.643 27.7296 155.643 30.6531C155.644 35.3439 152.975 35.3439 148.806 35.3439ZM148.878 33.4136C150.618 33.4136 151.731 33.1689 151.731 31.119C151.731 29.1125 150.038 29.1161 148.601 29.1161C147.164 29.1161 145.701 29.3771 145.701 31.3745C145.701 33.3719 147.394 33.3628 148.878 33.4136Z" fill="white"/>
  <path d="M90.0807 27.3687H93.3431V35.3436H89.5369C89.5369 35.3436 84.4619 30.6311 84.2263 30.6529C84.2807 30.6311 84.2807 35.3436 84.2807 35.3436H80.8369V27.3687H84.8244C84.8244 27.3687 88.2935 30.6021 90.0807 32.0811V27.3687Z" fill="white"/>
  <path d="M12.3249 2.89981C17.2186 2.35606 22.1124 7.06855 22.0272 12.245C18.1249 11.9623 11.9624 7.2498 12.3249 2.89981Z" fill="white"/>
  <path d="M3.2627 12.5063C7.97519 12.6876 12.5064 17.2188 12.5064 21.7501C8.33769 22.1126 3.2627 18.4876 3.2627 12.5063Z" fill="white"/>
  <path d="M16.8564 35.3435V27.3685C20.0863 27.3685 24.4816 27.3359 27.5502 27.3685V29.3623H20.1189V30.631H26.8252V32.081H20.1189V33.3497H27.5502V35.3435" fill="white"/>
  <path d="M29.5439 35.3435V27.3685C32.7738 27.3685 37.1691 27.3359 40.2377 27.3685V29.3623H32.8064V30.631H39.5127V32.081H32.8064V33.3497L32.8209 35.3435H29.5439Z" fill="white"/>
  <path d="M41.8691 35.3435V27.3685C45.099 27.3685 49.4943 27.3359 52.5629 27.3685V29.3623H45.1316V30.631H51.8379V32.081H45.1316V33.3497H52.5629V35.3435" fill="white"/>
  <path d="M68.3311 35.3435V27.3685C71.5609 27.3685 75.9562 27.3359 79.0248 27.3685V29.3623H71.5935V30.631H78.2998V32.081H71.5935V33.3497H79.0248V35.3435" fill="white"/>
  <path d="M110.562 35.3435V27.3685C113.792 27.3685 118.188 27.3359 121.256 27.3685V29.3623H113.825V30.631H120.531V32.081H113.825V33.3497H121.256V35.3435" fill="white"/>
  <path d="M124.065 35.3437C124.816 35.3437 125.425 34.7351 125.425 33.9844C125.425 33.2336 124.816 32.625 124.065 32.625C123.315 32.625 122.706 33.2336 122.706 33.9844C122.706 34.7351 123.315 35.3437 124.065 35.3437Z" fill="white"/>
  <path d="M140.287 32.081H136.299C136.299 32.081 136.481 33.3498 133.037 33.3498C130.681 33.3498 130.499 32.081 130.499 31.356C130.499 30.631 130.499 29.1811 133.037 29.1811C136.118 29.1811 136.299 30.0873 136.299 30.0873H140.468C140.468 27.3686 136.662 26.6436 133.051 26.6436C127.614 26.6436 126.526 29.1811 126.526 31.356C126.526 33.8935 128.158 35.3435 133.051 35.3435C136.662 35.3435 140.287 35.3435 140.287 32.081Z" fill="white"/>
  <path d="M108.766 32.081H104.779C104.779 32.081 104.96 33.3498 101.516 33.3498C99.1601 33.3498 98.9789 32.081 98.9789 31.356C98.9789 30.631 98.9789 29.1811 101.516 29.1811C104.598 29.1811 104.779 30.0873 104.779 30.0873H108.948C108.948 27.3686 105.141 26.6436 101.531 26.6436C96.0934 26.6436 95.0059 29.1811 95.0059 31.356C95.0059 33.8935 96.6371 35.3435 101.531 35.3435C105.141 35.3435 108.766 35.3435 108.766 32.081Z" fill="white"/>
  <path d="M15.2252 29.7249C15.2252 28.6193 14.5002 27.3687 13.2314 27.3687H3.2627V35.3436H6.52519V32.6249H10.5127L11.9627 35.3436H15.2252C15.0439 34.9811 13.7752 32.9149 13.2314 32.0811C13.5939 31.8999 15.2252 31.8999 15.2252 29.7249ZM6.52519 29.3624H11.2377C11.4189 29.3624 11.9627 29.3624 11.9627 29.9061C11.9627 30.4499 11.7814 30.6311 11.2377 30.6311H6.52519V29.3624Z" fill="white"/>
  <path d="M66.6998 29.7249C66.6998 28.6193 65.9748 27.3687 64.706 27.3687H54.7373V35.3436H57.9998V32.6249H61.9873L63.4373 35.3436H66.6998C66.5185 34.9811 65.2498 32.9149 64.706 32.0811C65.0685 31.8999 66.6998 31.8999 66.6998 29.7249ZM57.9998 29.3624H62.7123C62.8935 29.3624 63.4373 29.3624 63.4373 29.9061C63.4373 30.4499 63.256 30.6311 62.7123 30.6311H57.9998V29.3624Z" fill="white"/>
</svg>
