<?xml version="1.0" encoding="utf-8"?>
<!-- Generator: Adobe Illustrator 25.4.1, SVG Export Plug-In . SVG Version: 6.00 Build 0)  -->
<svg version="1.1" id="Calque_1" xmlns="http://www.w3.org/2000/svg" xmlns:xlink="http://www.w3.org/1999/xlink" x="0px" y="0px"
	 viewBox="0 0 156.1 37.3" style="enable-background:new 0 0 156.1 37.3;" xml:space="preserve">
<style type="text/css">
	.st0{fill:#FFFFFF;}
</style>
<g id="Groupe_764" transform="translate(-210.219 -322.716)">
	<path id="Tracé_261" class="st0" d="M227.2,332.1v4.7c0,5.8-2.8,9-8.5,9H216v13.7h-5.7v-36.5h8.4
		C224.4,323.1,227.2,326.3,227.2,332.1z M216,328.3v12.4h2.7c1.8,0,2.8-0.8,2.8-3.4v-5.5c0-2.6-1-3.4-2.8-3.4L216,328.3z"/>
	<path id="Tracé_262" class="st0" d="M231.5,331.9c0-5.8,3.1-9.2,8.7-9.2c5.6,0,8.7,3.3,8.7,9.2v19c0,5.8-3.1,9.2-8.7,9.2
		s-8.7-3.3-8.7-9.2L231.5,331.9z M237.2,351.2c0,2.6,1.1,3.6,3,3.6s3-1,3-3.6v-19.7c0-2.6-1.1-3.6-3-3.6s-3,1-3,3.6V351.2z"/>
	<path id="Tracé_263" class="st0" d="M271.7,332.1v4.7c0,5.8-2.8,9-8.5,9h-2.7v13.7h-5.7v-36.5h8.4
		C268.8,323.1,271.7,326.3,271.7,332.1z M260.4,328.3v12.4h2.7c1.8,0,2.8-0.8,2.8-3.4v-5.5c0-2.6-1-3.4-2.8-3.4L260.4,328.3z"/>
	<path id="Tracé_264" class="st0" d="M284.1,322.7c5.6,0,8.4,3.3,8.4,9.2v1.1h-5.4v-1.5c0-2.6-1-3.6-2.9-3.6s-2.9,1-2.9,3.6
		c0,2.7,1.1,4.6,4.9,7.9c4.8,4.2,6.3,7.2,6.3,11.4c0,5.8-2.9,9.2-8.5,9.2s-8.5-3.3-8.5-9.2v-2.2h5.4v2.6c0,2.6,1.1,3.5,3,3.5
		s3-0.9,3-3.5c0-2.7-1.1-4.6-4.9-7.9c-4.8-4.2-6.3-7.2-6.3-11.4C275.7,326.1,278.5,322.7,284.1,322.7z"/>
	<path id="Tracé_265" class="st0" d="M306.6,339.3h8v11.6c0,5.8-2.9,9.2-8.5,9.2s-8.5-3.3-8.5-9.2v-19c0-5.8,2.9-9.2,8.5-9.2
		s8.5,3.3,8.5,9.2v3.5h-5.4v-3.9c0-2.6-1.1-3.6-3-3.6s-3,1-3,3.6v19.7c0,2.6,1.1,3.5,3,3.5s3-0.9,3-3.5v-6.7h-2.6V339.3z"/>
	<path id="Tracé_266" class="st0" d="M325,347.5l-7.2-24.4h6l4.3,16.6h0.1l4.3-16.6h5.5l-7.2,24.4v12.1H325L325,347.5z"/>
	<path id="Tracé_267" class="st0" d="M354.4,349h0.1l3.9-25.9h8v36.5h-5.4v-26.2h-0.1l-3.9,26.2h-5.4l-4.2-25.8h-0.1v25.8h-5v-36.5
		h8L354.4,349z"/>
</g>
</svg>
