<svg width="429" height="106" viewBox="0 0 429 106" fill="none" xmlns="http://www.w3.org/2000/svg">
<path d="M75.25 36.27C75.48 36.41 75.63 36.59 75.78 36.83C75.82 36.9 75.87 36.96 75.95 37C76.06 37.06 76.14 37.07 76.18 37.1C76.41 37.25 76.67 37.41 76.85 37.64C76.95 37.77 77.06 37.9 77.07 38.09C77.07 38.27 77.18 38.41 77.31 38.52C77.42 38.61 77.53 38.7 77.57 38.82C77.71 39.19 77.92 39.59 78.29 39.91C78.52 40.16 78.91 40.1 79.14 39.91C79.31 39.81 79.44 39.6 79.41 39.42C79.52 39.26 79.58 39.14 79.6 39.01C79.68 39.01 79.75 38.99 79.78 38.95C79.93 38.74 79.74 38.46 79.63 38.37C79.56 38.31 79.52 38.18 79.38 38.26C79.34 38.28 79.36 38.3 79.35 38.31C79.25 38.15 79.15 37.99 79.04 37.83C79.07 37.83 79.09 37.86 79.12 37.86C79.08 37.63 79.05 37.39 78.82 37.27C78.8 37.26 78.74 37.26 78.72 37.27C78.72 37.27 78.71 37.29 78.7 37.3C78.64 37.21 78.59 37.12 78.53 37.04C78.5 37 78.48 36.95 78.45 36.91C78.45 36.91 78.47 36.89 78.47 36.88C78.48 36.81 78.49 36.73 78.46 36.68C78.35 36.3 77.84 36.06 77.64 35.91C77.6 35.88 77.58 35.84 77.52 35.84C77.32 35.81 77.24 35.64 77.15 35.5C76.97 35.2 76.8 34.81 76.5 34.52C76.38 34.4 76.28 34.27 76.13 34.22C75.89 34.13 75.73 33.95 75.6 33.77C75.45 33.52 75.16 33.36 74.98 33.13C74.9 33.03 74.81 32.94 74.8 32.78C74.8 32.62 74.7 32.53 74.57 32.47C74.47 32.42 74.37 32.38 74.32 32.29C74.17 32.01 73.97 31.94 73.78 31.72C73.74 31.69 73.68 31.7 73.61 31.72C73.58 31.66 73.54 31.61 73.5 31.56C73.55 31.41 73.53 31.3 73.46 31.19C73.28 30.92 73.1 30.67 72.89 30.43C72.86 30.4 72.84 30.37 72.8 30.36C72.7 30.34 72.58 30.22 72.51 30.15C72.34 29.99 72.44 30.14 72.28 29.97C72.05 29.73 72.1 29.72 71.88 29.47C71.78 29.35 71.67 29.22 71.56 29.09C71.48 28.99 71.4 28.86 71.3 28.79C71.25 28.75 71.18 28.74 71.12 28.76C71.09 28.77 71.09 28.82 71.07 28.85C70.98 28.75 70.91 28.68 70.83 28.6C70.83 28.58 70.86 28.59 70.87 28.56C70.8 28.4 70.68 28.14 70.56 28.32C70.55 28.32 70.52 28.28 70.51 28.27C70.49 28.25 70.4 28.13 70.28 28C70.28 27.97 70.32 27.92 70.31 27.89C70.23 27.67 70.06 27.43 69.83 27.35C69.76 27.33 69.68 27.15 69.55 27.25C69.54 27.25 69.55 27.26 69.55 27.27C69.42 27.1 69.28 26.92 69.15 26.74C69.16 26.74 69.17 26.75 69.18 26.75C69.08 26.46 68.99 26.19 68.71 26.02C68.68 26 68.63 26 68.61 26.02C68.61 26.02 68.61 26.02 68.61 26.01C68.49 25.84 68.37 25.68 68.26 25.52C68.26 25.43 68.24 25.34 68.2 25.27C67.9 24.8 67.67 24.44 67.43 24.06C67.39 24 67.36 23.94 67.3 23.9C67.07 23.77 66.97 23.51 66.82 23.33C66.53 22.98 66.16 22.52 65.88 22.17C65.75 22.01 65.66 21.84 65.55 21.72C65.45 21.59 65.33 21.37 65.14 21.31C64.92 21.25 64.83 21.23 64.74 21.13C64.55 20.94 64.32 20.48 63.94 20.3C63.8 20.2 63.65 20.11 63.64 19.95C63.65 19.8 63.58 19.71 63.53 19.64C63.49 19.56 63.48 19.49 63.57 19.31C63.62 19.21 63.68 18.99 63.5 18.81C63.35 18.66 63.13 18.68 63.1 18.68C62.94 18.7 62.85 18.64 62.79 18.45C62.6 18.17 62.3 18.08 62.05 18.05C61.88 17.99 61.57 18.03 61.49 18.21C61.4 18.25 61.3 18.32 61.19 18.4L61.17 18.37L61.13 18.32L61.09 18.29H61.07L61.05 18.27H61.03L61 18.3L60.98 18.32V18.35V18.37V18.38L60.96 18.39H60.94V18.41V18.44V18.46L60.98 18.51L61.02 18.57L61.08 18.63H61.12C61.1 18.73 61.1 18.82 61.09 18.91C61.02 18.93 60.95 18.94 60.93 18.99C60.84 19.23 61.03 19.43 61.15 19.53C61.23 19.58 61.28 19.71 61.41 19.62C61.44 19.6 61.41 19.6 61.43 19.58C61.54 19.72 61.64 19.86 61.75 20C61.73 20 61.73 19.99 61.71 19.99C61.77 20.21 61.83 20.44 62.07 20.54C62.09 20.54 62.15 20.54 62.17 20.53C62.17 20.53 62.17 20.52 62.18 20.51C62.28 20.63 62.38 20.74 62.48 20.86C62.48 20.86 62.46 20.88 62.46 20.89C62.46 20.96 62.46 21.04 62.5 21.09C62.72 21.42 63.03 21.65 63.23 21.91C63.26 21.95 63.28 21.99 63.33 22.01C63.34 22.01 63.37 22.03 63.37 22.03C63.52 22.21 63.75 22.14 63.85 22.26C64.13 22.46 64.29 22.78 64.42 23.11C64.47 23.25 64.57 23.45 64.69 23.53C64.91 23.68 65.03 23.9 65.17 24.1C65.34 24.35 65.59 24.51 65.76 24.75C65.84 24.86 65.92 24.95 65.92 25.11C65.92 25.27 66.01 25.37 66.13 25.43C66.23 25.48 66.33 25.53 66.38 25.62C66.51 25.87 66.74 26.04 66.99 26.18C67.02 26.2 67.07 26.18 67.11 26.16C67.16 26.22 67.22 26.29 67.27 26.35C67.25 26.47 67.27 26.57 67.33 26.66C67.47 26.88 67.69 27.22 67.83 27.44C67.85 27.47 67.87 27.51 67.92 27.52C68.02 27.55 68.12 27.69 68.19 27.76C68.35 27.93 68.26 27.78 68.41 27.95C68.62 28.2 68.58 28.21 68.77 28.47C68.86 28.59 68.96 28.73 69.06 28.86C69.13 28.96 69.2 29.09 69.3 29.17C69.35 29.21 69.42 29.23 69.49 29.22C69.53 29.21 69.54 29.16 69.57 29.13C69.6 29.17 69.64 29.21 69.66 29.25C69.69 29.31 69.74 29.36 69.77 29.42C69.75 29.44 69.72 29.42 69.7 29.46C69.74 29.63 69.81 29.9 69.97 29.75C69.97 29.75 69.97 29.74 69.97 29.73C70.05 29.85 70.13 29.96 70.22 30.07C70.22 30.1 70.17 30.15 70.18 30.18C70.26 30.41 70.37 30.62 70.56 30.78C70.65 30.85 70.74 31.01 70.87 30.91C70.88 30.91 70.87 30.9 70.87 30.89C71.03 31.08 71.17 31.24 71.3 31.39C71.29 31.39 71.28 31.39 71.27 31.38C71.39 31.66 71.49 31.93 71.78 32.08C71.81 32.09 71.86 32.09 71.88 32.08L72.28 32.56C72.29 32.64 72.31 32.73 72.36 32.8C72.7 33.25 72.96 33.59 73.24 33.95C73.28 34 73.32 34.07 73.38 34.1C73.62 34.21 73.74 34.42 73.88 34.62C74.17 35.02 74.46 35.45 74.81 35.82C74.95 35.98 75.08 36.15 75.25 36.25V36.27ZM31.24 67.45C23.7 66.83 16.07 66.47 16.07 61.33C16.07 56.19 21.21 54.23 26.98 54.23C36.56 54.23 43.83 57.87 47.29 60.44L54.57 51.57C49.6 48.2 39.4 43.76 27.34 43.76C16.43 43.76 3.39 48.11 3.39 62.12C3.39 76.85 18.3 78.27 30.98 79.06C39.67 79.77 45.62 81.01 45.62 86.6C45.62 92.19 39.76 94.85 32.4 94.85C20.69 94.85 12.44 89 7.56 85.09L0.380005 93.78C7.12 99.28 17.23 105.23 32.23 105.23C46.42 105.23 58.31 99.64 58.31 85.36C58.31 69.39 41.81 68.15 31.25 67.44L31.24 67.45ZM84.92 11.57C84.98 11.67 85 11.84 85.15 11.8C85.19 11.79 85.18 11.77 85.19 11.75C85.24 11.89 85.29 12.03 85.33 12.17C85.36 12.26 85.41 12.33 85.45 12.41C85.42 12.39 85.39 12.37 85.35 12.36C85.38 12.57 85.43 12.75 85.49 12.92C85.52 13.03 85.57 13.13 85.7 13.14C85.74 13.14 85.78 13.13 85.81 13.12C85.81 13.12 85.81 13.1 85.82 13.09C85.96 13.24 86.02 13.42 86.06 13.61C86.06 13.61 86.04 13.61 86.04 13.63C86.01 13.71 85.98 13.79 85.98 13.86C86.13 14.38 86.24 14.77 86.36 15.18C86.38 15.24 86.39 15.31 86.44 15.36C86.62 15.56 86.65 15.78 86.71 16C86.82 16.42 86.97 16.97 87.08 17.38C87.13 17.57 87.16 17.78 87.28 17.94C87.46 18.2 87.54 18.54 87.61 18.79C87.71 19.16 87.91 19.48 88.01 19.84C88.05 20 88.11 20.15 88.06 20.33C88.01 20.51 88.07 20.67 88.18 20.8C88.26 20.91 88.35 21.01 88.38 21.14C88.45 21.49 88.63 21.8 88.84 22.07C88.87 22.11 88.92 22.1 88.97 22.11L89 22.19L89.08 22.41C89.03 22.54 89.03 22.66 89.06 22.79C89.15 23.16 89.26 23.57 89.4 23.92C89.42 23.97 89.43 24.01 89.47 24.04C89.57 24.12 89.62 24.28 89.67 24.42V24.44C89.83 24.75 89.82 24.54 89.95 24.73C90.14 25.06 90.1 25.06 90.21 25.43C90.26 25.62 90.29 25.82 90.32 26.01C90.34 26.15 90.32 26.35 90.4 26.51C90.44 26.6 90.5 26.67 90.58 26.69C90.63 26.69 90.66 26.64 90.7 26.6C90.73 26.67 90.74 26.75 90.78 26.81C90.81 26.85 90.89 26.84 90.95 26.86C90.95 26.9 90.94 26.93 90.96 26.98C91.19 27.08 91.61 26.93 91.44 26.77C91.43 26.75 91.42 26.77 91.41 26.75C91.57 26.64 91.68 26.51 91.7 26.42C91.7 26.41 91.7 26.39 91.7 26.38C91.74 26.35 91.76 26.31 91.77 26.26C91.77 25.94 91.77 25.66 91.65 25.37C91.59 25.23 91.58 25.02 91.43 25.04C91.42 25.04 91.43 25.06 91.42 25.06C91.38 24.87 91.36 24.68 91.21 24.55C91.14 24.48 91.11 24.4 91.06 24.32C90.95 23.99 91.04 23.64 90.76 23.31C90.73 23.28 90.67 23.26 90.65 23.27C90.65 23.27 90.65 23.28 90.64 23.29C90.51 23.05 90.37 22.81 90.29 22.55C90.3 22.46 90.31 22.37 90.29 22.29C90.11 21.7 89.87 21.22 89.77 20.53C89.74 20.44 89.71 20.34 89.65 20.28C89.42 20.05 89.32 19.77 89.22 19.48C89.01 18.89 88.76 18.27 88.59 17.7C88.53 17.54 88.43 17.44 88.44 17.37C88.4 17.24 88.36 17.12 88.3 17.01C88.09 16.64 88.01 16.24 87.92 15.85C87.8 15.36 87.61 14.97 87.47 14.44C87.4 14.23 87.3 14.04 87.32 13.81C87.34 13.59 87.24 13.38 87.16 13.25C87.12 13.2 87.11 13.11 87.06 12.98C87.02 12.84 86.81 12.72 86.81 12.72C86.68 12.64 86.79 12.4 86.57 12.04C86.37 11.82 86.26 11.61 86.29 11.54C86.24 11.49 86.63 11.37 86.42 10.96C86.18 10.78 86.07 10.8 86.11 10.79C86.11 10.44 85.79 10.23 85.57 10.28C85.55 10.27 85.54 10.25 85.52 10.24C85.47 10.21 85.32 10.24 85.17 10.28V10.25L85.15 10.19V10.16L85.12 10.14L85.1 10.12H85.08L85.06 10.1H85.04L84.98 10.12H84.97V10.15V10.17V10.18H84.94H84.92L84.91 10.19V10.2L84.93 10.28V10.35L84.97 10.43L85.01 10.45C84.96 10.53 84.91 10.61 84.92 10.67C84.92 10.71 84.95 10.74 84.95 10.77C84.91 10.8 84.85 10.83 84.85 10.87C84.85 11.1 84.86 11.32 84.99 11.53L84.92 11.57ZM125.65 26.44C125.67 26.53 125.78 26.66 125.94 26.78C125.94 26.78 125.92 26.78 125.91 26.78C125.71 26.97 126.05 27.2 126.36 27.14C126.45 27.05 126.43 26.98 126.36 26.88C126.43 26.86 126.52 26.88 126.55 26.83C126.59 26.77 126.6 26.69 126.63 26.63C126.68 26.65 126.73 26.68 126.79 26.64C126.98 26.51 127 26.32 127.05 26.13C127.09 25.98 127.17 25.86 127.14 25.7C127.14 25.57 127.31 24.92 127.72 24.47C127.78 24.28 127.81 24.21 127.83 24.17C127.94 23.96 128.08 23.69 128.2 23.45C128.25 23.36 128.29 23.25 128.29 23.15C128.29 22.89 128.36 22.69 128.47 22.47C128.47 22.45 128.45 22.42 128.41 22.34C128.32 22.36 128.29 22.4 128.23 22.43L128.31 22.21L128.34 22.13C128.34 22.13 128.36 22.2 128.4 22.23C128.49 22.1 128.63 22 128.7 21.85C129 21.12 129.24 20.41 129.49 19.64C129.63 19.23 129.73 18.74 129.88 18.39C129.9 18.33 129.89 18.26 129.9 18.19C129.98 17.79 130.14 17.38 130.3 16.99C130.59 16.32 130.8 15.6 131.07 14.91C131.11 14.8 131.17 14.69 131.17 14.58C131.17 14.35 131.32 14.17 131.4 13.95C131.44 13.85 131.44 13.77 131.45 13.68C131.45 13.64 131.43 13.58 131.35 13.57C131.31 13.57 131.28 13.57 131.24 13.59C131.28 13.4 131.35 13.22 131.48 13.08C131.52 13.1 131.55 13.13 131.59 13.13C131.73 13.13 131.79 13.03 131.82 12.92C131.88 12.78 131.87 12.61 131.85 12.43C131.9 12.35 131.95 12.26 131.97 12.17C132.02 12.03 132.06 11.89 132.11 11.75C132.2 11.73 132.21 11.63 132.26 11.56C132.42 11.32 132.54 11.07 132.52 10.78C132.47 10.78 132.46 10.8 132.43 10.81C132.43 10.77 132.46 10.74 132.46 10.71C132.47 10.65 132.42 10.57 132.37 10.49L132.41 10.47L132.44 10.39V10.32L132.47 10.24V10.23H132.46L132.44 10.22H132.41V10.21V10.19L132.4 10.17H132.39L132.33 10.14H132.31H132.29H132.27L132.25 10.17V10.19L132.22 10.22V10.28L132.2 10.31C132.05 10.28 131.91 10.25 131.85 10.27C131.81 10.29 131.79 10.32 131.75 10.34C131.79 10.28 131.85 10.22 131.85 10.16C131.65 10.13 131.49 10.2 131.29 10.35C131.2 10.43 131.12 10.57 131.1 10.72C131.06 10.73 130.98 10.75 130.83 10.89C130.61 11.18 130.83 11.47 130.88 11.52C131.01 11.71 130.95 11.49 130.94 11.69C130.93 11.76 130.79 11.88 130.65 12.13C130.53 12.44 130.56 12.58 130.51 12.62C130.46 12.67 130.55 12.6 130.34 12.74C130.16 12.91 130.17 13.12 130.16 13.19C130.16 13.3 130.09 13.46 130.02 13.63C129.88 13.99 129.71 14.28 129.59 14.75C129.44 15.3 129.33 15.88 129.17 16.4L129.14 16.52C129.15 16.45 129.14 16.54 129.14 16.54C129.14 16.59 129.13 16.64 129.13 16.67C129.08 16.92 129 17.22 128.93 17.45C128.79 17.61 128.63 18.04 128.57 18.17C128.17 19.08 127.72 19.86 127.38 20.91C127.38 21.11 127.27 21.22 127.26 21.36C127.23 21.64 127.05 21.88 126.93 22.14C126.88 22.25 126.83 22.38 126.81 22.48C126.81 22.52 126.81 22.6 126.89 22.62C126.94 22.63 127.01 22.62 127.05 22.6C126.96 22.85 126.83 23.08 126.71 23.31C126.71 23.31 126.71 23.28 126.7 23.28C126.65 23.26 126.57 23.25 126.54 23.28C126.22 23.63 126.29 23.93 126.31 24.3C126.26 24.38 126.23 24.48 126.15 24.55C126 24.68 125.98 24.88 125.94 25.06C125.77 25.04 125.8 25.24 125.75 25.35C125.61 25.7 125.49 25.98 125.52 26.45C125.59 26.43 125.61 26.39 125.65 26.35C125.65 26.37 125.65 26.39 125.64 26.41L125.65 26.44ZM107.55 15.81C107.46 16.04 107.41 16.27 107.46 16.51C107.49 16.62 107.46 16.8 107.61 16.8C107.63 16.8 107.61 16.79 107.63 16.79C107.63 17.04 107.63 17.26 107.63 17.45C107.63 17.45 107.63 17.43 107.61 17.42C107.53 17.71 107.43 17.99 107.55 18.29C107.56 18.32 107.61 18.35 107.63 18.35V18.97C107.59 19.04 107.55 19.12 107.54 19.2C107.51 19.76 107.49 20.19 107.47 20.65C107.47 20.72 107.46 20.79 107.48 20.85C107.59 21.09 107.54 21.33 107.53 21.57C107.5 22.06 107.44 22.58 107.47 23.08C107.47 23.29 107.47 23.5 107.53 23.69C107.62 23.95 107.62 24.19 107.58 24.46C107.57 24.54 107.57 24.62 107.6 24.7C107.65 24.82 107.7 24.87 107.71 24.92C107.79 25.18 107.89 25.47 107.88 25.77C107.88 25.94 107.88 26.11 107.76 26.26C107.65 26.41 107.64 26.57 107.67 26.74C107.7 26.88 107.72 27.01 107.67 27.14C107.54 27.52 107.44 27.95 107.53 28.44C107.55 28.78 107.88 28.99 108.18 29C108.37 29.03 108.61 28.96 108.71 28.8C108.89 28.75 109.02 28.7 109.12 28.61C109.18 28.66 109.25 28.7 109.3 28.67C109.55 28.6 109.59 28.27 109.56 28.13C109.55 28.04 109.6 27.92 109.44 27.89C109.4 27.89 109.4 27.91 109.38 27.91C109.41 27.72 109.43 27.53 109.46 27.34C109.48 27.37 109.48 27.39 109.5 27.42C109.62 27.22 109.74 27.02 109.65 26.78C109.65 26.76 109.6 26.72 109.57 26.72C109.56 26.72 109.55 26.72 109.53 26.72C109.54 26.62 109.56 26.51 109.57 26.41C109.57 26.36 109.58 26.31 109.59 26.26C109.6 26.26 109.62 26.26 109.63 26.26C109.69 26.21 109.74 26.16 109.75 26.1C109.91 25.74 109.67 25.23 109.61 24.98C109.61 24.94 109.61 24.88 109.57 24.85C109.44 24.7 109.48 24.52 109.51 24.35C109.57 24.01 109.69 23.59 109.64 23.18C109.63 23.02 109.64 22.84 109.55 22.71C109.42 22.49 109.41 22.25 109.43 22.03C109.47 21.75 109.36 21.43 109.37 21.15C109.37 21.02 109.37 20.89 109.46 20.77C109.56 20.65 109.54 20.51 109.49 20.39C109.44 20.29 109.39 20.19 109.41 20.09C109.47 19.78 109.36 19.6 109.36 19.31C109.36 19.26 109.29 19.23 109.24 19.19C109.25 19.13 109.25 19.06 109.26 18.99C109.4 18.91 109.45 18.81 109.47 18.69C109.5 18.37 109.52 18.06 109.52 17.74C109.52 17.7 109.52 17.66 109.49 17.63C109.42 17.55 109.42 17.38 109.41 17.28C109.38 17.05 109.36 17.22 109.35 16.99C109.33 16.66 109.37 16.68 109.37 16.35C109.37 16.19 109.37 16.02 109.37 15.86C109.37 15.74 109.39 15.58 109.36 15.46C109.34 15.4 109.3 15.34 109.24 15.32C109.21 15.32 109.18 15.35 109.14 15.36C109.14 15.23 109.13 15.12 109.12 15.01C109.14 15.01 109.15 15.01 109.17 15.01C109.22 14.84 109.3 14.57 109.09 14.63C109.09 14.62 109.09 14.58 109.09 14.56C109.09 14.53 109.09 14.38 109.09 14.21C109.12 14.19 109.17 14.18 109.18 14.15C109.26 13.93 109.29 13.63 109.16 13.43C109.12 13.37 109.18 13.18 109.01 13.17C109 13.17 109.01 13.18 108.99 13.18C108.99 12.97 109.01 12.74 109.02 12.52C109.02 12.52 109.02 12.54 109.03 12.55C109.14 12.27 109.24 12 109.14 11.68C109.14 11.65 109.09 11.61 109.06 11.62C109.06 11.62 109.06 11.62 109.06 11.61C109.07 11.4 109.09 11.21 109.1 11.01C109.15 10.94 109.2 10.86 109.21 10.78C109.28 10.23 109.34 9.8 109.4 9.36C109.4 9.29 109.43 9.22 109.4 9.16C109.31 8.91 109.4 8.65 109.4 8.41C109.4 7.96 109.42 7.37 109.42 6.91C109.42 6.7 109.46 6.52 109.46 6.35C109.46 6.19 109.52 5.94 109.41 5.77C109.28 5.58 109.23 5.51 109.21 5.37C109.19 5.1 109.31 4.6 109.13 4.22C109.08 4.06 109.03 3.89 109.13 3.76C109.24 3.65 109.23 3.54 109.25 3.45C109.27 3.36 109.31 3.3 109.49 3.22C109.59 3.17 109.78 3.05 109.76 2.8C109.74 2.59 109.56 2.47 109.54 2.44C109.4 2.35 109.38 2.25 109.45 2.06C109.49 1.73 109.31 1.46 109.14 1.28C109.05 1.12 108.78 0.950003 108.61 1.04C108.52 1.02 108.39 1 108.26 0.990003V0.960003V0.900002V0.850003L108.24 0.830003V0.810003L108.21 0.800003H108.17H108.15H108.13L108.12 0.820003V0.840003L108.1 0.850003H108.08H108.06H108.04V0.870003L108.03 0.890003V0.940002L108.02 1.01V1.09L108.05 1.12C107.97 1.18 107.92 1.25 107.85 1.31C107.79 1.28 107.72 1.24 107.68 1.27C107.46 1.4 107.47 1.67 107.51 1.83C107.53 1.92 107.49 2.05 107.65 2.07C107.68 2.07 107.67 2.06 107.69 2.05C107.69 2.22 107.66 2.4 107.66 2.57C107.65 2.56 107.65 2.55 107.63 2.53C107.53 2.74 107.43 2.95 107.55 3.18C107.56 3.2 107.61 3.24 107.63 3.23C107.63 3.23 107.64 3.23 107.65 3.23C107.65 3.38 107.65 3.54 107.65 3.69H107.62C107.57 3.74 107.53 3.81 107.52 3.87C107.48 4.26 107.57 4.64 107.56 4.97C107.56 5.02 107.55 5.06 107.57 5.12C107.57 5.13 107.58 5.16 107.58 5.16C107.58 5.39 107.8 5.49 107.8 5.65C107.88 5.98 107.8 6.33 107.7 6.67C107.65 6.81 107.59 7.03 107.63 7.17C107.7 7.43 107.66 7.67 107.63 7.92C107.6 8.22 107.69 8.5 107.66 8.8C107.65 8.93 107.66 9.06 107.55 9.18C107.45 9.3 107.45 9.43 107.5 9.56C107.54 9.66 107.59 9.76 107.56 9.87C107.5 10.15 107.56 10.43 107.67 10.69C107.68 10.72 107.74 10.74 107.78 10.76C107.78 10.84 107.78 10.93 107.78 11.01C107.69 11.1 107.64 11.18 107.63 11.29C107.6 11.55 107.54 11.95 107.51 12.21C107.51 12.25 107.5 12.29 107.52 12.33C107.58 12.42 107.56 12.59 107.57 12.69C107.58 12.92 107.61 12.75 107.62 12.98C107.62 13.3 107.58 13.28 107.56 13.61C107.56 13.76 107.54 13.93 107.53 14.1C107.53 14.22 107.49 14.37 107.51 14.49C107.52 14.55 107.56 14.62 107.62 14.65C107.66 14.67 107.7 14.63 107.74 14.63C107.74 14.68 107.74 14.74 107.74 14.78C107.73 14.84 107.73 14.92 107.72 14.98C107.69 14.98 107.68 14.95 107.64 14.96C107.56 15.11 107.44 15.36 107.66 15.36C107.66 15.36 107.66 15.36 107.68 15.36C107.67 15.5 107.65 15.64 107.65 15.78C107.62 15.8 107.56 15.81 107.55 15.84V15.81ZM107 43.77C88.64 43.77 74.27 57.52 74.27 74.37C74.27 91.22 88.64 105.24 107 105.24C125.36 105.24 140.09 91.58 140.09 74.37C140.09 57.16 125.36 43.77 107 43.77ZM107 94.33C96.09 94.33 87.57 85.28 87.57 74.37C87.57 63.46 96.09 54.77 107 54.77C117.91 54.77 126.78 63.64 126.78 74.37C126.78 85.1 118.09 94.33 107 94.33ZM358.34 63.81C358.34 59.2 356.56 55.03 353.55 51.83C349.82 47.93 344.41 45.53 336.16 45.53H304.05V103.46H316.73V82.17H333.94L345.65 103.46H360.2L346.63 80.13C353.73 77.03 358.34 71.26 358.34 63.81ZM337.5 71.44H316.74V56.27H336.61C338.92 56.27 341.49 56.54 343.53 58.75C344.86 60.08 345.57 61.86 345.57 63.81C345.57 68.25 341.93 71.44 337.5 71.44ZM374.29 45.54V56.54H395.32V103.47H408V56.54H428.93V45.54H374.29ZM248.69 45.54L221.81 103.47H235.21L240.44 91.23H267.23L272.55 103.47H286.48L259.6 45.54H248.69ZM244.78 81.2L253.56 60.71H254.09L262.87 81.2H244.77H244.78ZM173.83 45.54H161.15V103.47H207.9V92.56H173.84V45.55L173.83 45.54ZM156.25 18.94C156.24 18.85 156.25 18.76 156.22 18.66H156.26L156.31 18.59L156.35 18.53L156.38 18.48V18.46L156.4 18.44V18.43L156.38 18.41H156.36V18.4V18.37V18.35L156.35 18.34L156.33 18.32L156.3 18.29H156.28H156.26H156.24L156.2 18.33L156.16 18.38L156.14 18.41C156.01 18.32 155.9 18.26 155.8 18.21C155.86 18.19 155.91 18.19 155.97 18.15C155.79 17.85 155.32 17.86 155.06 17.94C154.9 17.98 154.73 18.06 154.58 18.2C154.51 18.27 154.44 18.36 154.4 18.44L154.37 18.53C154.32 18.59 154.24 18.58 154.17 18.59C154.08 18.59 153.95 18.6 153.8 18.7C153.64 18.8 153.58 19.04 153.6 19.16C153.74 19.71 153.79 19.57 153.66 19.81C153.59 19.96 153.33 20.07 153.03 20.29C152.49 20.82 152.72 21.12 152.11 21.18C152.02 21.21 151.96 21.3 151.91 21.38C151.71 21.92 151.5 22.11 151.14 22.44C150.59 22.89 150.03 23.63 149.61 24.22C149.54 24.31 149.45 24.41 149.41 24.52C149.34 24.75 149.14 24.88 149 25.07C148.94 25.15 148.88 25.23 148.83 25.32C148.81 25.36 148.81 25.43 148.87 25.47C148.92 25.5 148.99 25.51 149.03 25.5C149.03 25.5 149.04 25.49 149.05 25.48C148.93 25.65 148.81 25.81 148.68 25.99C148.64 25.96 148.58 25.92 148.53 25.95C148.23 26.11 148.12 26.36 148.13 26.71C148 26.89 147.86 27.07 147.73 27.24C147.59 27.15 147.55 27.32 147.49 27.35C147.22 27.42 146.95 27.66 146.86 27.95C146.93 27.99 146.96 27.97 147 27.97C146.89 28.11 146.8 28.22 146.78 28.24C146.78 28.24 146.74 28.28 146.73 28.29C146.57 28.09 146.43 28.25 146.34 28.4C146.35 28.47 146.41 28.51 146.46 28.55C146.38 28.63 146.31 28.71 146.21 28.81C146.18 28.79 146.16 28.74 146.12 28.74C145.94 28.73 145.86 28.82 145.74 28.93C145.64 29.01 145.53 29.06 145.48 29.2C145.45 29.29 144.6 30.17 144.53 30.22C144.39 30.34 144.2 30.5 144.03 30.65C143.97 30.7 143.91 30.76 143.88 30.85C143.82 31.06 143.7 31.19 143.55 31.35C143.54 31.36 143.56 31.4 143.58 31.47C143.69 31.47 143.75 31.47 143.81 31.45C143.75 31.53 143.69 31.61 143.64 31.7C143.62 31.66 143.62 31.61 143.57 31.57C143.48 31.64 143.31 31.76 143.28 31.81C142.66 32.5 142.48 32.69 142.07 33.14C141.8 33.4 141.66 33.76 141.41 33.93C141.37 33.96 141.36 34.02 141.33 34.06C141.13 34.31 140.83 34.5 140.57 34.74C140.13 35.19 139.93 35.74 139.46 35.93C139.39 35.96 139.31 35.97 139.22 36.06C139.06 36.24 138.89 36.33 138.77 36.5C138.72 36.57 138.68 36.64 138.65 36.71C138.64 36.74 138.65 36.8 138.71 36.83C138.75 36.85 138.79 36.85 138.83 36.86C138.8 36.9 138.78 36.95 138.75 36.99C138.69 37.08 138.64 37.17 138.58 37.25C138.54 37.23 138.49 37.21 138.47 37.22C138.25 37.32 138.2 37.51 138.25 37.77C138.15 37.93 138.05 38.09 137.94 38.25C137.85 38.23 137.83 38.31 137.78 38.36C137.62 38.46 137.36 38.76 137.59 39C137.66 38.98 137.66 38.96 137.69 38.94C137.71 39.09 137.8 39.24 137.94 39.42C137.86 39.38 137.78 39.34 137.68 39.35C137.73 39.66 137.9 39.93 138.29 40.1C138.69 40.32 139.16 39.94 139.31 39.71C139.71 39.16 139.89 38.66 140.25 38.19C140.41 37.95 140.59 37.73 140.79 37.54C140.93 37.4 141.08 37.26 141.22 37.15C141.22 37.12 141.55 37.05 141.64 36.86C141.72 36.75 141.76 36.7 141.83 36.62C141.87 36.57 141.89 36.5 141.92 36.45C142.15 36.1 142.5 35.81 142.83 35.51C143.4 34.96 143.84 34.34 144.36 33.78C144.44 33.69 144.54 33.61 144.58 33.5C144.67 33.27 144.88 33.16 145.04 32.98C145.11 32.9 145.18 32.82 145.23 32.74C145.26 32.7 145.27 32.63 145.2 32.59C145.15 32.56 145.08 32.53 145.04 32.55L145.44 32.08C145.48 32.11 145.56 32.14 145.59 32.12C145.89 31.99 146.01 31.74 146.02 31.39C146.15 31.24 146.29 31.08 146.45 30.89C146.58 30.99 146.63 30.83 146.71 30.77C146.95 30.6 147.16 30.4 147.25 30.1C147.18 30.06 147.15 30.08 147.11 30.09C147.2 29.98 147.27 29.86 147.35 29.75C147.56 29.92 147.68 29.72 147.74 29.55C147.71 29.48 147.64 29.45 147.56 29.42C147.6 29.36 147.64 29.31 147.67 29.25C147.7 29.22 147.74 29.17 147.76 29.13C147.8 29.15 147.83 29.19 147.88 29.19C148.07 29.19 148.14 29.08 148.26 28.97C148.35 28.88 148.47 28.82 148.5 28.69C148.52 28.6 149.31 27.68 149.37 27.62C149.5 27.49 149.67 27.31 149.81 27.15C149.86 27.09 149.92 27.04 149.94 26.95C149.99 26.74 150.1 26.61 150.25 26.48C150.26 26.47 150.25 26.43 150.23 26.36C150.15 26.34 150.11 26.36 150.05 26.36C150.1 26.29 150.16 26.23 150.21 26.17C150.22 26.2 150.21 26.24 150.24 26.27C150.35 26.2 150.5 26.18 150.58 26.09C151 25.63 151.36 25.15 151.76 24.67C151.98 24.4 152.16 24.09 152.39 23.82C152.42 23.78 152.43 23.72 152.45 23.67C152.61 23.39 152.81 23.05 152.98 22.81C153.11 22.65 153.24 22.5 153.39 22.39C153.46 22.34 153.57 22.27 153.61 22.27C153.77 22.27 153.9 22.19 153.97 22.05C154.07 21.91 154.14 21.86 154.24 21.77C154.31 21.72 154.39 21.67 154.43 21.59C154.51 21.41 154.7 21.36 154.84 21.21C154.9 21.14 154.95 21.09 154.99 21.02C155.01 20.99 155.01 20.93 154.94 20.89C154.91 20.87 154.87 20.86 154.83 20.85C154.93 20.73 155.03 20.61 155.13 20.49C155.16 20.5 155.2 20.53 155.22 20.52C155.44 20.45 155.5 20.28 155.5 20.05C155.63 19.89 155.75 19.72 155.88 19.55C155.96 19.55 155.99 19.49 156.04 19.45C156.2 19.35 156.51 19.13 156.31 18.85C156.25 18.85 156.25 18.88 156.22 18.89L156.25 18.94Z" fill="white"/>
</svg>
