<?xml version="1.0" encoding="utf-8"?>
<!-- Generator: Adobe Illustrator 25.4.1, SVG Export Plug-In . SVG Version: 6.00 Build 0)  -->
<svg version="1.1" id="Calque_1" xmlns="http://www.w3.org/2000/svg" xmlns:xlink="http://www.w3.org/1999/xlink" x="0px" y="0px"
	 viewBox="0 0 79 60" style="enable-background:new 0 0 79 60;" xml:space="preserve">
<style type="text/css">
	.st0{fill:#FFFFFF;}
</style>
<path class="st0" d="M7.1,37.5c-1.3,0.1-2.3-0.1-2.9-0.7c-0.6-0.5-0.9-1.4-0.9-2.6V16.3H0v17.9c0,2.2,0.6,3.9,1.8,5.1
	c1.1,1.1,2.6,1.6,4.6,1.6c0.2,0,0.5,0,0.7,0l0.3,0v-3.3L7.1,37.5z"/>
<path class="st0" d="M10.4,1.6C9.3,2.8,8.7,4.5,8.7,6.7v0.2H6.2v3.3h2.5v13.5H12V10.2h4.1V6.8H12V6.7c0-1.2,0.3-2.1,0.9-2.6
	c0.6-0.6,1.6-0.8,2.9-0.7l0.3,0V0l-0.3,0C13.5-0.1,11.7,0.4,10.4,1.6z"/>
<path class="st0" d="M26.8,6.6c-2,0-3.5,0.7-4.5,2.1V6.8h-3.3v16.8h3.3v-9c0-1.7,0.4-2.8,1.3-3.6c0.9-0.7,1.9-1.1,3.2-1l0.3,0V6.6
	H26.8z"/>
<path class="st0" d="M20.9,35.9c-1,1-2.2,1.5-3.7,1.5c-1.5,0-2.7-0.5-3.7-1.5c-1-1.1-1.5-2.3-1.5-3.9c0-1.5,0.5-2.8,1.5-3.8
	c1-1.1,2.2-1.6,3.7-1.6c1.5,0,2.7,0.5,3.7,1.6c1,1,1.5,2.3,1.5,3.8C22.4,33.6,21.9,34.9,20.9,35.9z M22.4,23.7v2.1
	c-1.4-1.7-3.2-2.5-5.5-2.5c-2.2,0-4.2,0.9-5.8,2.6c-1.6,1.7-2.4,3.8-2.4,6.2c0,2.4,0.8,4.5,2.4,6.2c1.6,1.7,3.5,2.5,5.8,2.5
	c2.3,0,4.2-0.8,5.5-2.5v2.1h3.3V23.7H22.4z"/>
<path class="st0" d="M37.1,23.3c-2,0-3.6,0.7-4.7,2.1v-1.6h-3.3v16.6h3.3v-8.8c0-3.2,1.5-5,4.2-5c2.2,0,3.5,1.4,3.5,3.8v10h3.3V30.2
	C43.5,26,41,23.3,37.1,23.3z"/>
<path class="st0" d="M58.5,34.5l-0.2,0.3c-0.8,1.6-2.5,2.6-4.4,2.6c-1.5,0-2.7-0.5-3.7-1.5c-1-1-1.5-2.3-1.5-3.8
	c0-1.5,0.5-2.8,1.5-3.8c1-1,2.2-1.5,3.7-1.5c1.9,0,3.6,1,4.3,2.6l0.1,0.3l2.8-1.7l-0.1-0.3c-1.3-2.7-4-4.4-7.1-4.4
	c-2.4,0-4.4,0.9-6,2.5c-1.6,1.7-2.4,3.7-2.4,6.2c0,2.5,0.8,4.5,2.4,6.2l0,0c1.6,1.7,3.6,2.5,6,2.5c3.1,0,5.8-1.7,7.2-4.3l0.1-0.3
	L58.5,34.5z"/>
<path class="st0" d="M18.8,60c-2.4,0-4.4-0.8-6-2.5l0,0c-1.6-1.7-2.4-3.8-2.4-6.2c0-2.5,0.8-4.6,2.4-6.2c1.6-1.7,3.6-2.5,6-2.5
	c3.1,0,5.8,1.7,7.1,4.4l0.1,0.3l-2.8,1.7l-0.1-0.3c-0.7-1.6-2.4-2.6-4.3-2.6c-1.5,0-2.7,0.5-3.7,1.5c-1,1-1.5,2.3-1.5,3.8
	c0,1.5,0.5,2.8,1.5,3.8c1,1,2.2,1.5,3.7,1.5c1.9,0,3.6-1,4.4-2.6l0.2-0.3l2.8,1.7L26,55.7C24.6,58.3,21.8,60,18.8,60z"/>
<path class="st0" d="M70.3,60H67V49.8c0-2.2-1.2-3.6-3.1-3.6c-2.3,0-3.5,1.6-3.5,4.5V60h-3.3V49.8c0-2.2-1.1-3.6-3-3.6
	c-2.3,0-3.7,1.7-3.7,4.5V60h-3.3V43.4h3.3v1.5c1.1-1.3,2.5-1.9,4.3-1.9c2,0,3.5,0.8,4.6,2.4c1.1-1.6,2.8-2.4,4.8-2.4
	c3.7,0,6.1,2.7,6.1,6.8V60z"/>
<path class="st0" d="M36.3,40.2c-3.4,0-6.2,2.9-6.2,6.4c0,3.5,2.8,6.4,6.2,6.4c3.4,0,6.2-2.9,6.2-6.4C42.5,43,39.7,40.2,36.3,40.2z
	 M36.3,56.3c-5.2,0-9.4-4.3-9.4-9.7c0-5.3,4.2-9.7,9.4-9.7c5.2,0,9.4,4.3,9.4,9.7C45.7,51.9,41.5,56.3,36.3,56.3z"/>
<path class="st0" d="M39.2,46.6c0,1.7-1.3,3-2.9,3c-1.6,0-2.9-1.4-2.9-3c0-1.7,1.3-3,2.9-3C37.9,43.5,39.2,44.9,39.2,46.6z"/>
<path class="st0" d="M31.1,13.3c0.6-2.5,2.4-4,5-4c2.4,0,4.1,1.5,4.6,4H31.1z M41.9,8.6C40.4,6.9,38.5,6,36.1,6
	c-2.5,0-4.5,0.8-6.1,2.5c-1.6,1.6-2.3,3.7-2.3,6.2c0,2.5,0.8,4.6,2.4,6.3c1.6,1.6,3.7,2.5,6.2,2.5c3.1,0,5.5-1.3,7.1-3.8l0.2-0.3
	l-2.8-1.7L40.6,18c-0.9,1.5-2.2,2.2-4.2,2.2c-2.7,0-4.6-1.4-5.2-3.9H44l0-0.3c0.1-0.4,0.1-0.9,0.1-1.3C44.1,12.4,43.4,10.3,41.9,8.6
	z"/>
<path class="st0" d="M49,13.3c0.6-2.5,2.4-4,5-4c2.4,0,4.1,1.5,4.6,4H49z M59.8,8.6C58.3,6.9,56.4,6,54,6c-2.5,0-4.5,0.8-6.1,2.5
	c-1.6,1.6-2.3,3.7-2.3,6.2c0,2.5,0.8,4.6,2.4,6.3c1.6,1.6,3.7,2.5,6.2,2.5c3.1,0,5.5-1.3,7.1-3.8l0.2-0.3l-2.8-1.7L58.5,18
	c-0.9,1.5-2.2,2.2-4.2,2.2c-2.7,0-4.6-1.4-5.2-3.9h12.8l0-0.3c0.1-0.4,0.1-0.9,0.1-1.3C62,12.4,61.3,10.3,59.8,8.6z"/>
<path class="st0" d="M65.3,30.6c0.6-2.5,2.4-4,5-4c2.4,0,4.1,1.5,4.6,4H65.3z M76,25.9c-1.5-1.7-3.4-2.6-5.8-2.6
	c-2.5,0-4.5,0.8-6.1,2.5c-1.6,1.6-2.3,3.7-2.3,6.2c0,2.5,0.8,4.6,2.4,6.3c1.6,1.6,3.7,2.5,6.2,2.5c3.1,0,5.5-1.3,7.1-3.8l0.2-0.3
	l-2.8-1.7l-0.2,0.3c-0.9,1.5-2.2,2.2-4.2,2.2c-2.7,0-4.6-1.4-5.2-3.9h12.8l0-0.3c0.1-0.4,0.1-0.9,0.1-1.3
	C78.2,29.7,77.5,27.6,76,25.9z"/>
</svg>
