<svg xmlns="http://www.w3.org/2000/svg" viewBox="0 0 65.76 21.07"><defs><style>.cls-1{fill:#ebb100;}.cls-2{fill:#fff;}</style></defs><g id="Calque_2" data-name="Calque 2"><g id="Calque_1-2" data-name="Calque 1"><path class="cls-1" d="M6,15.56a6.08,6.08,0,0,1-3.07-.76A5.57,5.57,0,0,1,.77,12.71a6,6,0,0,1-.77-3V4.89H2.83V9.78a3.32,3.32,0,0,0,.4,1.68,2.76,2.76,0,0,0,1.13,1.09A3.23,3.23,0,0,0,6,12.94a3.16,3.16,0,0,0,1.58-.39,2.85,2.85,0,0,0,1.09-1.09A3.27,3.27,0,0,0,9,9.8V4.89h2.85V9.72a5.78,5.78,0,0,1-.77,3A5.64,5.64,0,0,1,9,14.8,6,6,0,0,1,6,15.56Z"/><path class="cls-1" d="M15.26,21.07V4.87h2.85V7.64l-.48,2.55.46,2.55v8.33Zm5.84-5.46a4.45,4.45,0,0,1-2.05-.46,3.87,3.87,0,0,1-1.46-1.28A3.44,3.44,0,0,1,17,12V8.29a3.48,3.48,0,0,1,.6-1.86,3.91,3.91,0,0,1,1.46-1.3,4.27,4.27,0,0,1,2-.48,4.83,4.83,0,0,1,2.61.72,5.06,5.06,0,0,1,1.82,2,5.92,5.92,0,0,1,.66,2.81,5.81,5.81,0,0,1-.66,2.79,5.09,5.09,0,0,1-1.82,2A4.91,4.91,0,0,1,21.1,15.61ZM20.59,13a2.7,2.7,0,0,0,1.4-.36,2.54,2.54,0,0,0,1-1,3.25,3.25,0,0,0,.33-1.5,3.18,3.18,0,0,0-.33-1.47,2.48,2.48,0,0,0-1-1,2.7,2.7,0,0,0-1.4-.36,2.67,2.67,0,0,0-1.37.36,2.54,2.54,0,0,0-.95,1,3.18,3.18,0,0,0-.33,1.47,3.25,3.25,0,0,0,.33,1.5,2.59,2.59,0,0,0,.94,1A2.63,2.63,0,0,0,20.59,13Z"/><path class="cls-2" d="M28.08,15.58V0h3V15.58Zm2.06,0V12.89h4a5.32,5.32,0,0,0,2.64-.63,4.43,4.43,0,0,0,1.76-1.78,5.62,5.62,0,0,0,.63-2.73,5.38,5.38,0,0,0-.64-2.67,4.56,4.56,0,0,0-1.77-1.77,5.32,5.32,0,0,0-2.62-.63h-4V0h4.08a8.59,8.59,0,0,1,3.2.58,7.55,7.55,0,0,1,4.28,4.09,7.91,7.91,0,0,1,.6,3.11,8,8,0,0,1-.6,3.11,7.66,7.66,0,0,1-1.7,2.48A7.57,7.57,0,0,1,37.37,15a8.72,8.72,0,0,1-3.18.58Z"/><path class="cls-2" d="M48.79,15.8a4.93,4.93,0,0,1-2.63-.73,5.07,5.07,0,0,1-1.84-2,5.91,5.91,0,0,1-.67-2.83,6,6,0,0,1,.67-2.86,5.07,5.07,0,0,1,1.84-2,4.93,4.93,0,0,1,2.63-.73,4.44,4.44,0,0,1,2.06.47A3.7,3.7,0,0,1,52.3,6.41a3.6,3.6,0,0,1,.59,1.88v3.85A3.52,3.52,0,0,1,52.3,14a3.8,3.8,0,0,1-1.45,1.3A4.32,4.32,0,0,1,48.79,15.8Zm.53-2.68a2.59,2.59,0,0,0,2-.81,3,3,0,0,0,.75-2.1,3.24,3.24,0,0,0-.34-1.49,2.49,2.49,0,0,0-1-1,2.74,2.74,0,0,0-1.43-.37,2.68,2.68,0,0,0-1.4.37,2.4,2.4,0,0,0-1,1,3.12,3.12,0,0,0-.35,1.49A3.19,3.19,0,0,0,47,11.73a2.4,2.4,0,0,0,1,1A2.68,2.68,0,0,0,49.32,13.12Zm2.57,2.46V12.69l.47-2.61-.47-2.57V4.87h2.88V15.58Z"/><path class="cls-2" d="M56.59,13.91l5.67-7.37h3.5l-5.67,7.37Zm0,1.67V13.91l2.31-.86h6.73v2.53ZM57,7.4V4.87h8.77V6.54l-2.32.86Z"/><rect class="cls-1" x="4.67" y="16.64" width="2.53" height="6.33" transform="translate(-13.87 25.75) rotate(-90)"/></g></g></svg>