<svg xmlns="http://www.w3.org/2000/svg" width="130" height="35.45" viewBox="0 0 130 35.45"><script xmlns=""/>
  <g id="logo_cosme_2023-01" data-name="logo cosme 2023-01" transform="translate(-0.012 0.009)">
    <path id="Tracé_98" data-name="Tracé 98" d="M133.586,35.566H129.3V34.89c0-4.287,0-8.573-.022-12.849a8.208,8.208,0,0,0-.3-2.071,3.5,3.5,0,0,0-3.168-2.658,4.986,4.986,0,0,0-5.7,4.741c-.089.842-.078,1.695-.089,2.548V35.555h-4.265c0-.233-.033-.465-.033-.7,0-3.954.011-7.909-.011-11.852a13.774,13.774,0,0,0-.266-2.692,3.76,3.76,0,0,0-4.132-3.035,5.141,5.141,0,0,0-4.841,5.383c-.055,4.065-.022,8.13-.033,12.184v.709h-4.265v-21.7h3.5c.2.875.4,1.739.62,2.714a8.248,8.248,0,0,1,6.6-3.345,6.5,6.5,0,0,1,6.358,3.511c.2-.233.388-.432.565-.654a8.8,8.8,0,0,1,10.412-1.95,6.137,6.137,0,0,1,3.113,4.6,13.413,13.413,0,0,1,.222,2.3c.022,4.708,0,9.415,0,14.134,0,.111-.011.222-.022.4Z" transform="translate(-28.785 -3.723)" fill="#5465ff"/>
    <path id="Tracé_99" data-name="Tracé 99" d="M172.673,26.121H155.881c-.188,2.426,1.927,5.339,4.464,6.181a6.516,6.516,0,0,0,8.141-3.434c1.2.388,2.4.775,3.666,1.174a7.831,7.831,0,0,1-1.628,2.869,9.613,9.613,0,0,1-6.6,3.29,11.187,11.187,0,0,1-6.535-1.152,10.712,10.712,0,0,1-5.638-8.285,11.531,11.531,0,0,1,3.4-10.578,10.409,10.409,0,0,1,8.308-2.858c5.184.354,8.817,4.253,9.227,9.736.078.986,0,1.983,0,3.057Zm-3.91-3.456a6.157,6.157,0,0,0-6.214-5.749,6.538,6.538,0,0,0-6.635,5.749Z" transform="translate(-42.707 -3.748)" fill="#5465ff"/>
    <path id="Tracé_100" data-name="Tracé 100" d="M71.945,29.625c1.329-.41,2.592-.8,3.877-1.2.21.487.388.975.609,1.429a4.308,4.308,0,0,0,4.209,2.681,6.825,6.825,0,0,0,3.179-.576,2.582,2.582,0,0,0,1.617-2.437,2.33,2.33,0,0,0-1.75-2.26c-1.385-.443-2.825-.687-4.209-1.1a27.008,27.008,0,0,1-3.689-1.307c-2.6-1.185-3.356-3.3-3.013-5.981a5.837,5.837,0,0,1,3.655-4.674,10.155,10.155,0,0,1,8.418-.2,7.294,7.294,0,0,1,4.342,5.549c-1.285.377-2.537.731-3.844,1.108l-.21-.631a3.979,3.979,0,0,0-4.409-3.079,8.179,8.179,0,0,0-2.3.454,2.353,2.353,0,0,0-1.5,1.673,2.012,2.012,0,0,0,1.2,2.514,23.327,23.327,0,0,0,3.423,1.019,24.694,24.694,0,0,1,4.73,1.5c4.309,1.927,4.2,7.654,1.063,10.091a9.447,9.447,0,0,1-4.486,1.883,11,11,0,0,1-6.336-.742A8.34,8.34,0,0,1,71.945,29.6Z" transform="translate(-20.268 -3.719)" fill="#5465ff"/>
    <path id="Tracé_101" data-name="Tracé 101" d="M16.84,28.174c1.318.443,2.592.875,3.888,1.307a2.034,2.034,0,0,1-.066.321c-1.484,3.467-3.977,5.771-7.776,6.325A10.8,10.8,0,0,1,.2,26.856,11.613,11.613,0,0,1,3.337,16.389a10.663,10.663,0,0,1,9.426-3.046A9.343,9.343,0,0,1,20.5,19.113c.133.277.21.576.332.908-1.34.443-2.625.875-3.943,1.318a1.584,1.584,0,0,1-.166-.288c-1.639-4.608-7.4-4.841-10.2-1.927a8.513,8.513,0,0,0,0,11.221c2.725,2.836,8.385,2.769,10.2-1.872.033-.089.078-.166.144-.3Z" transform="translate(0 -3.73)" fill="#5465ff"/>
    <circle id="Ellipse_13" data-name="Ellipse 13" cx="2.204" cy="2.204" r="2.204" transform="translate(46.448 27.435)" fill="#5465ff"/>
    <path id="Tracé_102" data-name="Tracé 102" d="M36.365,16.563a11.537,11.537,0,1,0,16.316,0,11.532,11.532,0,0,0-16.316,0Zm13.2,13.2a7.128,7.128,0,1,1,0-10.08A7.133,7.133,0,0,1,49.569,29.767Z" transform="translate(-9.291 -3.717)" fill="#5465ff"/>
    <rect id="Rectangle_12" data-name="Rectangle 12" width="45.736" height="4.397" transform="translate(20.819 32.332) rotate(-45)" fill="#5465ff"/>
  </g>
</svg>
