<?xml version="1.0" encoding="utf-8"?>
<!-- Generator: Adobe Illustrator 25.4.1, SVG Export Plug-In . SVG Version: 6.00 Build 0)  -->
<svg version="1.1" id="Calque_1" xmlns="http://www.w3.org/2000/svg" xmlns:xlink="http://www.w3.org/1999/xlink" x="0px" y="0px"
	 viewBox="0 0 900 600" style="enable-background:new 0 0 900 600;" xml:space="preserve">
<style type="text/css">
	.st0{fill:none;}
	.st1{fill:url(#SVGID_1_);}
	.st2{fill:url(#SVGID_00000155839246863108879490000009766249850281660088_);}
	.st3{fill:url(#SVGID_00000124141287572089780010000017429770702321521081_);}
	.st4{fill:url(#SVGID_00000169547271700870375620000014834538855932116393_);}
	.st5{fill:#001A9E;}
	.st6{fill:#E1E4E5;}
	.st7{fill:#FFFFFF;stroke:#E1E4E5;stroke-width:4;}
	.st8{fill:#9E7700;}
	.st9{fill-rule:evenodd;clip-rule:evenodd;fill:#F8AE9D;}
	.st10{fill-rule:evenodd;clip-rule:evenodd;fill:#141A3B;}
	.st11{fill-rule:evenodd;clip-rule:evenodd;fill:#001A9E;}
	.st12{fill-rule:evenodd;clip-rule:evenodd;fill:#FFFFFF;stroke:#E1E4E5;stroke-width:4;}
	.st13{fill:none;stroke:#EBB100;stroke-width:4;stroke-linecap:round;stroke-linejoin:round;}
	.st14{fill:none;stroke:#EBB100;stroke-width:5.5;stroke-linecap:round;stroke-linejoin:round;}
	.st15{fill-rule:evenodd;clip-rule:evenodd;fill:#E1E4E5;}
</style>
<path class="st0" d="M0,0h900v600H0V0z"/>
<linearGradient id="SVGID_1_" gradientUnits="userSpaceOnUse" x1="447.1779" y1="56.6272" x2="339.4129" y2="542.8252" gradientTransform="matrix(1 0 0 -1 0 600.4094)">
	<stop  offset="0" style="stop-color:#FFFFFF"/>
	<stop  offset="1" style="stop-color:#EEEEEE"/>
</linearGradient>
<path class="st1" d="M516.9,366.9c1.6,29.5-56,89.4-127,67.2c-33-10.3-30.2-27.4-55.3-50c-15-13.4-36.5-23.6-42.5-43.2
	c-5.2-16.9-2-35,7-46.8c20.1-26.5,60.8-44.7,100.9-2.9C440.1,333.1,512.8,290.9,516.9,366.9L516.9,366.9z"/>
<linearGradient id="SVGID_00000022561880325092210090000015883083332892654472_" gradientUnits="userSpaceOnUse" x1="448.1721" y1="265.0562" x2="394.0001" y2="508.4852" gradientTransform="matrix(1 0 0 -1 0 600.4094)">
	<stop  offset="0" style="stop-color:#FFFFFF"/>
	<stop  offset="1" style="stop-color:#EEEEEE"/>
</linearGradient>
<path style="fill:url(#SVGID_00000022561880325092210090000015883083332892654472_);" d="M489.3,265c-6.1,10.8-19.4,12.3-40.7,10.3
	c-16-1.6-30.7-2.8-46.7-11.5c-11.2-6.1-20.1-14.4-26.6-22.4c-7-8.7-16.8-18.6-12-28.5c6.6-13.6,44.8-25,81.9-6.3
	C485.9,227.1,495.2,254.4,489.3,265z"/>
<linearGradient id="SVGID_00000171702983880897890730000017015775194050526868_" gradientUnits="userSpaceOnUse" x1="483.0429" y1="41.6633" x2="659.9678" y2="181.6123" gradientTransform="matrix(1 0 0 -1 0 600.4094)">
	<stop  offset="0" style="stop-color:#FFFFFF"/>
	<stop  offset="1" style="stop-color:#EEEEEE"/>
</linearGradient>
<path style="fill:url(#SVGID_00000171702983880897890730000017015775194050526868_);" d="M565,525c-21.5,10.6-49.9-3-49.9-3
	s6.3-30.9,27.8-41.6c21.5-10.6,49.9,3,49.9,3S586.4,514.4,565,525L565,525z"/>
<linearGradient id="SVGID_00000123407364226202672250000011843974642161936568_" gradientUnits="userSpaceOnUse" x1="274.5197" y1="163.7038" x2="130.8717" y2="297.1708" gradientTransform="matrix(1 0 0 -1 0 600.4094)">
	<stop  offset="0" style="stop-color:#FFFFFF"/>
	<stop  offset="1" style="stop-color:#EEEEEE"/>
</linearGradient>
<path style="fill:url(#SVGID_00000123407364226202672250000011843974642161936568_);" d="M205.9,401.8c17.9,10.7,43.5,0.8,43.5,0.8
	s-3.3-27.2-21.2-37.9c-17.9-10.7-43.5-0.8-43.5-0.8S188,391.1,205.9,401.8L205.9,401.8z"/>
<circle class="st5" cx="772.6" cy="106.6" r="7.5"/>
<circle class="st5" cx="309.1" cy="222.7" r="13.2"/>
<circle class="st5" cx="147.3" cy="330.8" r="11"/>
<circle class="st5" cx="772.4" cy="440.7" r="5.1"/>
<circle class="st6" cx="709.6" cy="419.6" r="6.6"/>
<circle class="st6" cx="146.9" cy="436.5" r="9.5"/>
<circle class="st6" cx="345.7" cy="127.5" r="7"/>
<circle class="st6" cx="681.1" cy="122.2" r="8.1"/>
<circle class="st6" cx="240.5" cy="321.2" r="7.2"/>
<circle class="st6" cx="381" cy="78.1" r="9.6"/>
<ellipse class="st6" cx="755.4" cy="503.6" rx="7.4" ry="5.9"/>
<circle class="st6" cx="619" cy="84.8" r="8.4"/>
<path class="st6" d="M798.7,314.5h0.2c1.1,16.2,13.2,16.5,13.2,16.5s-13.3,0.3-13.3,19c0-18.8-13.3-19-13.3-19
	S797.6,330.7,798.7,314.5L798.7,314.5z M309.2,72.4h0.1c0.7,10.3,8,10.4,8,10.4s-8,0.2-8,12.1c0-11.9-8-12.1-8-12.1
	S308.5,82.6,309.2,72.4z M197.8,213.8h0.1c0.7,10.3,8,10.4,8,10.4s-8,0.2-8,12.1c0-11.9-8-12.1-8-12.1S197.1,224.1,197.8,213.8z"/>
<path class="st7" d="M121.3,484.8h303.2v38.6H121.3V484.8z M202.7,446.2h303.2v38.6H202.7V446.2z M284.1,407.7h303.2v38.6H284.1
	V407.7z M365.5,369.1h303.2v38.6H365.5L365.5,369.1z M447,330.5h303.2v38.6H447V330.5z"/>
<path class="st8" d="M417.9,141.6c-0.5,2,0.2,4.1,1.3,5.9c0.8,1.2,1.9-0.1,3.5-0.4c2.5-0.3,4-2.9,4.6-9.3c0.2-4.6,0.1-6.9-0.1-7.4
	c-0.9-1.4-3.3-1.9-5.1-1.8"/>
<path class="st9" d="M422.3,417.5c0,0-0.1,9.5,5.7,12.9c5.9,3.4,15,9.7,15,9.7l-34.7,1.2l1-23.9L422.3,417.5L422.3,417.5z"/>
<path class="st10" d="M407.2,428l-0.6,15.5h8.1l0.6-2c0,0,3-0.1,4.8,0.7c1.9,0.9,2.1,1.4,2.1,1.4l25.5,0.1c0,0,1.3-5-6.5-8.6
	c-7.8-3.6-13.5-8.7-14.5-9.3c-1.1-0.5-3.3-0.8-4.8,0.4c-1.5,1.2-2.8,4.5-6.3,4.6C411,430.9,408.4,425.4,407.2,428L407.2,428z
	 M397.2,261.9c0,0,9.5,80.3,9.8,85.9c0.3,5.6-3,15.2-3,25.7c0.1,10.4,1.2,47.2,1.2,47.2l20.9,0.3c0,0,8.8-66.5,8.9-76.5
	c0.1-10,0.9-81.7,0.9-81.7L397.2,261.9L397.2,261.9z"/>
<path class="st9" d="M371.7,415.8l-4.1,24.7l15-0.1l0.5-25L371.7,415.8L371.7,415.8z"/>
<path class="st10" d="M369.8,426.6c-1.3,0.3-2.3,1.5-2.4,2.8l-0.1,3.9c-2.1,2.4-3.1,9.2-3.2,9.9c0,0,0,0.1,0,0.1
	c0.3,3.4,22.2,3.3,24.2,0.1c0.1-0.1,0.1-0.3,0.1-0.4c-0.2-1.3-1.4-8.1-3.8-10l0-3.9c0-1.4-0.9-2.5-2.2-2.9l-2.5-0.7
	c-2.2-3.2-5.2-3.1-7.7,0.4L369.8,426.6L369.8,426.6z M379,262.7c0,0-6.7,54.8-6.6,65.3c0.1,10.5,2.1,15.1-0.7,22.6
	c-2.8,7.5-5.2,67.6-5.2,67.6l20.7,1.7c0,0,13.2-64.3,14.7-73.2c1.4-8.9,19.2-84.8,19.2-84.8L379,262.7L379,262.7z"/>
<path class="st9" d="M482.2,164.1c0,0-1.7-9.6-1.1-11.6c0.5-1.7,5.5-4.1,5.5-4.1s8.7-13.8,10.6-12.4c1.6,1.1-4.5,11.3-4.5,11.3
	s5.6,5.8,5.5,8.4c-0.1,2.6-9.1,10.8-9.1,10.8L482.2,164.1L482.2,164.1z M392.6,166.4c0,0,5.7-1.3,5.9-10.8
	c0.2-9.4,0.1-12.6,0.1-12.6l13.6-0.2c0,0,0.1,10.5,0.1,14.3c0,8.3,6.1,10.5,6.1,10.5s-0.5,9-12,9.7
	C397.5,177.8,392.6,166.4,392.6,166.4L392.6,166.4z"/>
<path class="st9" d="M397.3,138.3c-5.6-0.2-4.7,8,1.1,8c0,0,6.3,12.7,16.2,12.7c4.8,0,6.3-4.2,7.8-7.2c1.4-3,2.5-7.4,2.6-10.2
	c0.1-2.9,0.1-12.5,0.1-12.5l-28,0L397.3,138.3L397.3,138.3z"/>
<path class="st11" d="M418.7,167c0,0,14.7,4.6,18.2,10.1c11.4,10,25.6,23.8,25.6,23.8s13.6-34.1,18-37.9c3-2.7,9.1,0.6,10.2,4
	c1.4,4.3-7.8,29.8-12.2,41.8v0c-0.6,1.7-1.3,3.5-1.9,5.2c-2.7,7.8-9.2,12.2-17.1,7.3c-3.2-2-12.7-8.5-20.8-14.4
	c-0.1,6.2-0.3,12.8-0.5,19c-0.5,15.1-0.9,28.3,0.1,30c5.1,8.5-1.7,14.3-24.2,16.4c-22.5,2.1-42.5,0.4-38.9-10.9
	c0.8-2.4,0.7-7.4,0.4-14c-2.2-0.1-4.4-0.3-6.6-0.4c-9.4-0.7-16.3-4.8-17.3-15.3c-0.7-7.3,13.3-41.8,18.6-53.2
	c1.2-2.7,3.1-4.3,5.3-5.1c0.5-0.6,1.1-1,1.7-1.2c3.9-1.3,17.7-7.1,17.7-7.1l16.4,10.8L418.7,167L418.7,167z M374,227.7L374,227.7
	l0,0.1C374.1,227.8,374.1,227.7,374,227.7L374,227.7z"/>
<path class="st9" d="M410.5,236.8c0,0,5-1,7.1-2.6c2.1-1.6,8.3-2.7,8.3-2.7l-2,4.2c0,0,15.2-1.4,15.6,0.1c0.4,1.5-4,3.1-4,3.1
	s-2.2,4.1-4.3,6.4c-2,2.2-11.9,2-15.3,0.6c-3-1.2-6.2-0.6-6.2-0.6L410.5,236.8L410.5,236.8z"/>
<path class="st8" d="M398.9,129.5c0.8,1.1,2.3,1.3,3.5,1.5c1.6,0.3,2.4,0.9,3.2,2.5c0.5,1,1.1,2.1,2,2.7c0.8,0.5,0.7-0.7,0.9-1.6
	c0-0.1,0-0.2,0-0.2c0.2-0.7,0.9-0.6,1.2,0.1c0.2,0.6,0.6,1.2,1.2,1.5c0.1,0,0.2,0.1,0.3,0.1c0.1,0,0.2-0.1,0.3-0.2
	c0.2-0.3,0.4-0.5,0.5-0.8c0.6-1,1.7-0.7,2.4,0.3c0.4,0.6,0.9,1.2,1.6,1.4c0.2,0,0.5,0,0.6-0.2c0.1-0.3-0.1-0.5,0-0.8
	c0-0.3,0.1-0.4,0.3-0.6c0.5-0.8,1.5-0.9,2.2-0.2c0.4,0.5,0.9,0.9,1.4,1.4c0.2,0.2,0.5,0.4,0.7,0.2c0.1-0.1,0.1-0.3,0.2-0.4
	c0.1-0.8,0.2-1.6,0.3-2.3c0.1-0.4,0.3-1,0.7-0.9c0.2,0.1,0.3,0.3,0.4,0.4c0.1,0.2,2.4,2.9,2.5,2.7c0.4-1.5,1.1-2.9,1.4-4.4
	c2.3-9.7-7.9-17.4-15.8-17.5c-1.7,0-3.3,0-5,0.4c-1.8,0.4-3.7,1.1-5.3,2.1c-2.3,1.4-4,3.9-3.6,6.8"/>
<path class="st8" d="M405.2,126.4c1.1,1.3,1.4,3,1.5,4.7c0.2,2.5-0.1,5.2-1.2,7.4c-0.3,0.6-0.6,3.8-1.1,3.6
	c-0.2-0.1-0.1-2.5-0.6-3.8c-0.7-2-3.7-2.8-5.1-1.5c-2.2,2.1-0.9,4.6-0.2,6.1c0.4,0.9,1.1,2,1.2,3c0.1,1.3,0.2,5.9-0.6,7
	c-0.7,0.9-1.4-3.5-2-4.3c-4.6-6.4-9-22.8-1.2-26.3c1.2-0.5,4.9-0.8,6-0.1"/>
<path class="st12" d="M223.4,265H285c5.5,0,7.9-7.1,3.4-10.3l-0.2-0.1c-6.4-4.4-14.8-4-14.8-4s-1.2-23.9-23.8-23.9
	c-20.5,0-28.6,20.1-31.6,31.2C216.9,261.5,219.7,265,223.4,265L223.4,265z M668,100h61.6c5.5,0,7.9-7.1,3.4-10.3
	c-0.1,0-0.1-0.1-0.2-0.1c-6.4-4.4-14.8-4-14.8-4s-1.2-23.9-23.8-23.9c-20.5,0-28.6,20.1-31.6,31.2C661.5,96.5,664.3,100,668,100
	L668,100z M107.7,266.1h61.6c5.5,0,7.9-7.1,3.4-10.3c-0.1,0-0.1-0.1-0.2-0.1c-6.4-4.4-14.8-4-14.8-4s-1.2-23.9-23.8-23.9
	c-20.5,0-28.6,20.1-31.6,31.2C101.2,262.5,104,266.1,107.7,266.1z M151.7,189.1H92c-4.8,0-6.9-6.2-3-8.9l0.2-0.1
	c5.6-3.8,13-3.5,13-3.5s1.1-20.7,20.9-20.7c9.8,0,17.8,16.6,17.8,16.6s13.4,0,15.6,10.4C157.2,186.1,154.9,189.1,151.7,189.1
	L151.7,189.1z M782.4,166.8h-74.2c-6,0-8.6-7.6-3.7-11l0.2-0.1c7-4.7,16.2-4.3,16.2-4.3s1.3-25.4,26-25.4
	c12.2,0,22.1,20.4,22.1,20.4s16.6,0,19.4,12.8C789.2,163.1,786.4,166.8,782.4,166.8L782.4,166.8z M662.4,163.5h-74.2
	c-6,0-8.6-7.6-3.7-11l0.2-0.1c7-4.7,16.2-4.3,16.2-4.3s1.3-25.4,26-25.4c12.2,0,22.1,20.4,22.1,20.4s16.6,0,19.4,12.8
	C669.2,159.8,666.5,163.5,662.4,163.5L662.4,163.5z"/>
<path class="st13" d="M551.3,122.6l-18.5,5.1c-18.4,5.1-37.4-5.7-42.4-24.1c-5.1-18.4,5.7-37.4,24.1-42.4
	c18.4-5.1,37.4,5.7,42.4,24.1l1.5,5.5c1.4,5.1-1.6,10.4-6.7,11.8c-5.1,1.4-10.4-1.6-11.8-6.7l-1.5-5.5c-2.3-8.2-10.7-13-18.9-10.7
	l0,0c-8.2,2.3-13,10.7-10.7,18.9c2.3,8.2,10.7,13,18.9,10.7c8.2-2.3,13-10.7,10.7-18.9"/>
<path class="st12" d="M194.2,190.2h140c13.1,0,12.5-10.8,8.2-14.6c-4.4-3.9-13.1-2.3-13.1-2.3s-2.6-7.3-11.1-10.8
	c-7.5-3.1-15.4-1.6-15.4-1.6s0-5-4.8-9.1c-4.8-4.1-11.3-3.7-11.3-3.7s-4.4-27.5-34-27.5c-29.6,0-33,25.9-33,25.9s-6.6,0-11.5,4.4
	c-4.8,4.4-5.4,9.4-5.4,9.4s-16.1-2.2-20.9,11.7C179.2,180.3,185,190.2,194.2,190.2L194.2,190.2z"/>
<path class="st14" d="M537.3,207.5l-12,12l-5.8-5.8 M563.4,201.7H599 M563.7,219.4h58.8 M537.3,248.7l-12,12l-5.8-5.8 M563.4,242.9
	H599 M563.7,260.6h58.8 M622.5,301.8h-59.1 M622.5,284.1h-58.8"/>
<path class="st14" d="M528.4,307.6c6.5,0,11.8-5.3,11.8-11.8s-5.3-11.8-11.8-11.8s-11.8,5.3-11.8,11.8S521.9,307.6,528.4,307.6z"/>
<path class="st14" d="M689.4,207.5l-12,12l-5.8-5.8 M715.5,201.7h35.6 M715.8,219.4h58.8 M689.4,248.7l-12,12l-5.8-5.8 M715.5,242.9
	h35.6 M715.8,260.6h58.8 M774.6,301.8h-59.1 M774.7,284.1h-58.8"/>
<path class="st14" d="M680.5,307.6c6.5,0,11.8-5.3,11.8-11.8s-5.3-11.8-11.8-11.8c-6.5,0-11.8,5.3-11.8,11.8S674,307.6,680.5,307.6z
	"/>
<path class="st15" d="M634.9,491.6h3.5c0.9,0,1.5,0.7,1.5,1.5v3.5c0,0.9-0.7,1.5-1.5,1.5h-3.5c-0.8,0-1.5-0.7-1.5-1.5v-3.5
	C633.4,492.3,634.1,491.6,634.9,491.6C634.9,491.6,634.9,491.6,634.9,491.6z M647.1,491.6h3.5c0.8,0,1.5,0.7,1.5,1.5v3.5
	c0,0.9-0.7,1.5-1.5,1.5h-3.5c-0.8,0-1.5-0.7-1.5-1.5v-3.5C645.6,492.3,646.3,491.6,647.1,491.6z M659.4,491.6h3.5
	c0.8,0,1.5,0.7,1.5,1.5v3.5c0,0.9-0.7,1.5-1.5,1.5h-3.5c-0.8,0-1.5-0.7-1.5-1.5v-3.5C657.8,492.3,658.5,491.6,659.4,491.6
	C659.4,491.6,659.4,491.6,659.4,491.6z M671.6,491.6h3.5c0.8,0,1.5,0.7,1.5,1.5v3.5c0,0.9-0.7,1.5-1.5,1.5h-3.5
	c-0.9,0-1.5-0.7-1.5-1.5v-3.5C670.1,492.3,670.8,491.7,671.6,491.6z M683.9,491.6h3.5c0.9,0,1.5,0.7,1.5,1.5v3.5
	c0,0.9-0.7,1.5-1.5,1.5h-3.5c-0.8,0-1.5-0.7-1.5-1.5v-3.5C682.3,492.3,683,491.6,683.9,491.6z M647.6,505h3.5c0.8,0,1.5,0.7,1.5,1.5
	v3.5c0,0.8-0.7,1.5-1.5,1.5h-3.5c-0.9,0-1.5-0.7-1.5-1.5v-3.5C646,505.7,646.7,505,647.6,505C647.6,505,647.6,505,647.6,505
	L647.6,505z M659.8,505h3.5c0.8,0,1.5,0.7,1.5,1.5v3.5c0,0.8-0.7,1.5-1.5,1.5h-3.5c-0.8,0-1.5-0.7-1.5-1.5v-3.5
	C658.3,505.7,659,505,659.8,505C659.8,505,659.8,505,659.8,505L659.8,505z M672.1,505h3.5c0.9,0,1.5,0.7,1.5,1.5v3.5
	c0,0.8-0.7,1.5-1.5,1.5h-3.5c-0.8,0-1.5-0.7-1.5-1.5v-3.5C670.5,505.7,671.2,505,672.1,505L672.1,505z M659.4,477.3h3.5
	c0.8,0,1.5,0.7,1.5,1.5v3.5c0,0.9-0.7,1.5-1.5,1.5h-3.5c-0.8,0-1.5-0.7-1.5-1.5v-3.5C657.8,478,658.5,477.3,659.4,477.3
	C659.4,477.3,659.4,477.3,659.4,477.3z M671.6,477.3h3.5c0.8,0,1.5,0.7,1.5,1.5v3.5c0,0.9-0.7,1.5-1.5,1.5h-3.5
	c-0.9,0-1.5-0.7-1.5-1.5v-3.5C670.1,478,670.8,477.3,671.6,477.3z"/>
</svg>
