<?xml version="1.0" encoding="utf-8"?>
<!-- Generator: Adobe Illustrator 25.4.1, SVG Export Plug-In . SVG Version: 6.00 Build 0)  -->
<svg version="1.1" id="Calque_1" xmlns="http://www.w3.org/2000/svg" xmlns:xlink="http://www.w3.org/1999/xlink" x="0px" y="0px"
	 viewBox="0 0 339.2 356.9" style="enable-background:new 0 0 339.2 356.9;" xml:space="preserve">
<style type="text/css">
	.st0{fill:none;}
	
		.st1{fill-rule:evenodd;clip-rule:evenodd;fill:#9E7700;stroke:#9E7700;stroke-width:21.417;stroke-linecap:round;stroke-linejoin:round;}
	.st2{fill:none;stroke:#FFFFFF;stroke-width:30;stroke-linecap:round;stroke-linejoin:round;}
</style>
<path class="st0" d="M-301.7-97.5h900v600h-900V-97.5z"/>
<path class="st1" d="M10.7,220.5v-84c0-28.3,15-54.4,39.5-68.6l79.4-46.2c24.7-14.4,55.2-14.4,79.9,0l79.4,46.2
	c24.4,14.2,39.5,40.4,39.5,68.6v84c0,28.3-15,54.4-39.5,68.6l-79.4,46.2c-24.7,14.4-55.2,14.4-79.9,0l-79.4-46.2
	C25.8,274.9,10.7,248.8,10.7,220.5L10.7,220.5z"/>
<path class="st2" d="M169.5,178.5V99.1 M169.5,240.3c-2.4,0-4.4,2-4.4,4.4c0,2.4,2,4.4,4.5,4.3c2.4,0,4.3-2,4.3-4.3
	C173.9,242.2,172,240.3,169.5,240.3C169.5,240.3,169.5,240.3,169.5,240.3"/>
</svg>
